<svg width="250" height="41" viewBox="0 0 250 41" fill="none" xmlns="http://www.w3.org/2000/svg">
<g style="mix-blend-mode:difference">
<g style="mix-blend-mode:difference">
<path d="M10.2943 32.448C8.56625 32.448 7.04092 32.1387 5.71825 31.52C4.39558 30.9013 3.36092 30.016 2.61425 28.864C1.86758 27.712 1.49425 26.3253 1.49425 24.704V23.808H5.65425V24.704C5.65425 26.048 6.07025 27.0613 6.90225 27.744C7.73425 28.4053 8.86492 28.736 10.2943 28.736C11.7449 28.736 12.8223 28.448 13.5263 27.872C14.2516 27.296 14.6143 26.56 14.6143 25.664C14.6143 25.0453 14.4329 24.544 14.0703 24.16C13.7289 23.776 13.2169 23.4667 12.5343 23.232C11.8729 22.976 11.0623 22.7413 10.1023 22.528L9.36625 22.368C7.83025 22.0267 6.50758 21.6 5.39825 21.088C4.31025 20.5547 3.46758 19.8613 2.87025 19.008C2.29425 18.1547 2.00625 17.0453 2.00625 15.68C2.00625 14.3147 2.32625 13.152 2.96625 12.192C3.62758 11.2107 4.54492 10.464 5.71825 9.952C6.91292 9.41867 8.31025 9.152 9.91025 9.152C11.5103 9.152 12.9289 9.42933 14.1663 9.984C15.4249 10.5173 16.4063 11.328 17.1103 12.416C17.8356 13.4827 18.1983 14.8267 18.1983 16.448V17.408H14.0383V16.448C14.0383 15.5947 13.8676 14.912 13.5263 14.4C13.2063 13.8667 12.7369 13.4827 12.1183 13.248C11.4996 12.992 10.7636 12.864 9.91025 12.864C8.63025 12.864 7.68092 13.1093 7.06225 13.6C6.46492 14.0693 6.16625 14.72 6.16625 15.552C6.16625 16.1067 6.30492 16.576 6.58225 16.96C6.88092 17.344 7.31825 17.664 7.89425 17.92C8.47025 18.176 9.20625 18.4 10.1023 18.592L10.8383 18.752C12.4383 19.0933 13.8249 19.5307 14.9983 20.064C16.1929 20.5973 17.1209 21.3013 17.7823 22.176C18.4436 23.0507 18.7743 24.1707 18.7743 25.536C18.7743 26.9013 18.4223 28.1067 17.7183 29.152C17.0356 30.176 16.0543 30.9867 14.7743 31.584C13.5156 32.16 12.0223 32.448 10.2943 32.448ZM28.1325 32C27.0872 32 26.2338 31.68 25.5725 31.04C24.9325 30.3787 24.6125 29.504 24.6125 28.416V19.456H20.6445V16.128H24.6125V11.2H28.6445V16.128H32.9965V19.456H28.6445V27.712C28.6445 28.352 28.9432 28.672 29.5405 28.672H32.6125V32H28.1325ZM36.6463 32V16.128H40.6143V17.92H41.1903C41.4249 17.28 41.8089 16.8107 42.3423 16.512C42.8969 16.2133 43.5369 16.064 44.2623 16.064H46.1823V19.648H44.1983C43.1743 19.648 42.3316 19.9253 41.6703 20.48C41.0089 21.0133 40.6783 21.8453 40.6783 22.976V32H36.6463ZM56.3233 32.448C54.7446 32.448 53.3259 32.128 52.0673 31.488C50.8086 30.848 49.8166 29.92 49.0913 28.704C48.3659 27.488 48.0033 26.0267 48.0033 24.32V23.808C48.0033 22.1013 48.3659 20.64 49.0913 19.424C49.8166 18.208 50.8086 17.28 52.0673 16.64C53.3259 16 54.7446 15.68 56.3233 15.68C57.9019 15.68 59.3206 16 60.5793 16.64C61.8379 17.28 62.8299 18.208 63.5553 19.424C64.2806 20.64 64.6433 22.1013 64.6433 23.808V24.32C64.6433 26.0267 64.2806 27.488 63.5553 28.704C62.8299 29.92 61.8379 30.848 60.5793 31.488C59.3206 32.128 57.9019 32.448 56.3233 32.448ZM56.3233 28.864C57.5606 28.864 58.5846 28.4693 59.3953 27.68C60.2059 26.8693 60.6113 25.7173 60.6113 24.224V23.904C60.6113 22.4107 60.2059 21.2693 59.3953 20.48C58.6059 19.6693 57.5819 19.264 56.3233 19.264C55.0859 19.264 54.0619 19.6693 53.2513 20.48C52.4406 21.2693 52.0353 22.4107 52.0353 23.904V24.224C52.0353 25.7173 52.4406 26.8693 53.2513 27.68C54.0619 28.4693 55.0859 28.864 56.3233 28.864ZM68.365 32V16.128H72.333V18.208H72.909C73.165 17.6533 73.645 17.1307 74.349 16.64C75.053 16.128 76.1197 15.872 77.549 15.872C78.7863 15.872 79.8637 16.16 80.781 16.736C81.7197 17.2907 82.445 18.0693 82.957 19.072C83.469 20.0533 83.725 21.2053 83.725 22.528V32H79.693V22.848C79.693 21.6533 79.3943 20.7573 78.797 20.16C78.221 19.5627 77.389 19.264 76.301 19.264C75.0637 19.264 74.1037 19.68 73.421 20.512C72.7383 21.3227 72.397 22.464 72.397 23.936V32H68.365ZM87.3158 24.128V23.616C87.3158 21.952 87.6464 20.5333 88.3078 19.36C88.9691 18.1653 89.8438 17.2587 90.9318 16.64C92.0411 16 93.2464 15.68 94.5478 15.68C95.9984 15.68 97.0971 15.936 97.8438 16.448C98.5904 16.96 99.1344 17.4933 99.4758 18.048H100.052V16.128H104.02V34.816C104.02 35.904 103.7 36.768 103.06 37.408C102.42 38.0693 101.566 38.4 100.5 38.4H89.8758V34.88H99.0918C99.6891 34.88 99.9878 34.56 99.9878 33.92V29.792H99.4118C99.1984 30.1333 98.8998 30.4853 98.5158 30.848C98.1318 31.1893 97.6198 31.4773 96.9798 31.712C96.3398 31.9467 95.5291 32.064 94.5478 32.064C93.2464 32.064 92.0411 31.7547 90.9318 31.136C89.8438 30.496 88.9691 29.5893 88.3078 28.416C87.6464 27.2213 87.3158 25.792 87.3158 24.128ZM95.6998 28.544C96.9371 28.544 97.9718 28.1493 98.8038 27.36C99.6358 26.5707 100.052 25.4613 100.052 24.032V23.712C100.052 22.2613 99.6358 21.152 98.8038 20.384C97.9931 19.5947 96.9584 19.2 95.6998 19.2C94.4624 19.2 93.4278 19.5947 92.5958 20.384C91.7638 21.152 91.3478 22.2613 91.3478 23.712V24.032C91.3478 25.4613 91.7638 26.5707 92.5958 27.36C93.4278 28.1493 94.4624 28.544 95.6998 28.544ZM125.191 32.448C122.375 32.448 120.135 31.68 118.471 30.144C116.807 28.5867 115.975 26.368 115.975 23.488V18.112C115.975 15.232 116.807 13.024 118.471 11.488C120.135 9.93067 122.375 9.152 125.191 9.152C128.007 9.152 130.247 9.93067 131.911 11.488C133.575 13.024 134.407 15.232 134.407 18.112V23.488C134.407 26.368 133.575 28.5867 131.911 30.144C130.247 31.68 128.007 32.448 125.191 32.448ZM125.191 28.672C126.77 28.672 127.996 28.2133 128.871 27.296C129.746 26.3787 130.183 25.152 130.183 23.616V17.984C130.183 16.448 129.746 15.2213 128.871 14.304C127.996 13.3867 126.77 12.928 125.191 12.928C123.634 12.928 122.407 13.3867 121.511 14.304C120.636 15.2213 120.199 16.448 120.199 17.984V23.616C120.199 25.152 120.636 26.3787 121.511 27.296C122.407 28.2133 123.634 28.672 125.191 28.672ZM138.24 32V16.128H142.208V17.92H142.784C143.019 17.28 143.403 16.8107 143.936 16.512C144.491 16.2133 145.131 16.064 145.856 16.064H147.776V19.648H145.792C144.768 19.648 143.925 19.9253 143.264 20.48C142.603 21.0133 142.272 21.8453 142.272 22.976V32H138.24ZM150.928 32V16.128H154.96V32H150.928ZM152.944 14.272C152.218 14.272 151.6 14.0373 151.088 13.568C150.597 13.0987 150.352 12.48 150.352 11.712C150.352 10.944 150.597 10.3253 151.088 9.856C151.6 9.38667 152.218 9.152 152.944 9.152C153.69 9.152 154.309 9.38667 154.8 9.856C155.29 10.3253 155.536 10.944 155.536 11.712C155.536 12.48 155.29 13.0987 154.8 13.568C154.309 14.0373 153.69 14.272 152.944 14.272ZM158.66 24.128V23.616C158.66 21.952 158.99 20.5333 159.652 19.36C160.313 18.1653 161.188 17.2587 162.276 16.64C163.385 16 164.59 15.68 165.892 15.68C167.342 15.68 168.441 15.936 169.188 16.448C169.934 16.96 170.478 17.4933 170.82 18.048H171.396V16.128H175.364V34.816C175.364 35.904 175.044 36.768 174.404 37.408C173.764 38.0693 172.91 38.4 171.844 38.4H161.22V34.88H170.436C171.033 34.88 171.332 34.56 171.332 33.92V29.792H170.756C170.542 30.1333 170.244 30.4853 169.86 30.848C169.476 31.1893 168.964 31.4773 168.324 31.712C167.684 31.9467 166.873 32.064 165.892 32.064C164.59 32.064 163.385 31.7547 162.276 31.136C161.188 30.496 160.313 29.5893 159.652 28.416C158.99 27.2213 158.66 25.792 158.66 24.128ZM167.044 28.544C168.281 28.544 169.316 28.1493 170.148 27.36C170.98 26.5707 171.396 25.4613 171.396 24.032V23.712C171.396 22.2613 170.98 21.152 170.148 20.384C169.337 19.5947 168.302 19.2 167.044 19.2C165.806 19.2 164.772 19.5947 163.94 20.384C163.108 21.152 162.692 22.2613 162.692 23.712V24.032C162.692 25.4613 163.108 26.5707 163.94 27.36C164.772 28.1493 165.806 28.544 167.044 28.544ZM179.834 32V16.128H183.866V32H179.834ZM181.85 14.272C181.124 14.272 180.506 14.0373 179.994 13.568C179.503 13.0987 179.258 12.48 179.258 11.712C179.258 10.944 179.503 10.3253 179.994 9.856C180.506 9.38667 181.124 9.152 181.85 9.152C182.596 9.152 183.215 9.38667 183.706 9.856C184.196 10.3253 184.442 10.944 184.442 11.712C184.442 12.48 184.196 13.0987 183.706 13.568C183.215 14.0373 182.596 14.272 181.85 14.272ZM188.334 32V16.128L192.302 16.128V18.208H192.878C193.134 17.6533 193.614 17.1307 194.318 16.64C195.022 16.128 196.088 15.872 197.518 15.872C198.755 15.872 199.832 16.16 200.75 16.736C201.688 17.2907 202.414 18.0693 202.926 19.072C203.438 20.0533 203.694 21.2053 203.694 22.528V32H199.662V22.848C199.662 21.6533 199.363 20.7573 198.766 20.16C198.19 19.5627 197.358 19.264 196.27 19.264C195.032 19.264 194.072 19.68 193.39 20.512C192.707 21.3227 192.366 22.464 192.366 23.936V32L188.334 32ZM212.981 32.448C211.85 32.448 210.837 32.256 209.941 31.872C209.045 31.4667 208.33 30.8907 207.797 30.144C207.285 29.376 207.029 28.448 207.029 27.36C207.029 26.272 207.285 25.3653 207.797 24.64C208.33 23.8933 209.055 23.3387 209.973 22.976C210.911 22.592 211.978 22.4 213.173 22.4H217.525V21.504C217.525 20.7573 217.29 20.1493 216.821 19.68C216.351 19.1893 215.605 18.944 214.581 18.944C213.578 18.944 212.831 19.1787 212.341 19.648C211.85 20.096 211.53 20.6827 211.381 21.408L207.669 20.16C207.925 19.3493 208.33 18.6133 208.885 17.952C209.461 17.2693 210.218 16.7253 211.157 16.32C212.117 15.8933 213.279 15.68 214.645 15.68C216.735 15.68 218.389 16.2027 219.605 17.248C220.821 18.2933 221.429 19.808 221.429 21.792V27.712C221.429 28.352 221.727 28.672 222.325 28.672H223.605V32H220.917C220.127 32 219.477 31.808 218.965 31.424C218.453 31.04 218.197 30.528 218.197 29.888V29.856H217.589C217.503 30.112 217.311 30.4533 217.013 30.88C216.714 31.2853 216.245 31.648 215.605 31.968C214.965 32.288 214.09 32.448 212.981 32.448ZM213.685 29.184C214.815 29.184 215.733 28.8747 216.437 28.256C217.162 27.616 217.525 26.7733 217.525 25.728V25.408H213.461C212.714 25.408 212.127 25.568 211.701 25.888C211.274 26.208 211.061 26.656 211.061 27.232C211.061 27.808 211.285 28.2773 211.733 28.64C212.181 29.0027 212.831 29.184 213.685 29.184ZM226.553 32V9.6H230.585V32H226.553ZM241.645 32.448C239.575 32.448 237.879 32 236.557 31.104C235.234 30.208 234.434 28.928 234.157 27.264L237.869 26.304C238.018 27.0507 238.263 27.6373 238.605 28.064C238.967 28.4907 239.405 28.8 239.917 28.992C240.45 29.1627 241.026 29.248 241.645 29.248C242.583 29.248 243.277 29.088 243.725 28.768C244.173 28.4267 244.397 28.0107 244.397 27.52C244.397 27.0293 244.183 26.656 243.757 26.4C243.33 26.1227 242.647 25.8987 241.709 25.728L240.812 25.568C239.703 25.3547 238.69 25.0667 237.773 24.704C236.855 24.32 236.119 23.7973 235.565 23.136C235.01 22.4747 234.733 21.6213 234.733 20.576C234.733 18.9973 235.309 17.792 236.461 16.96C237.613 16.1067 239.127 15.68 241.005 15.68C242.775 15.68 244.247 16.0747 245.421 16.864C246.594 17.6533 247.362 18.688 247.725 19.968L243.981 21.12C243.81 20.3093 243.458 19.7333 242.925 19.392C242.413 19.0507 241.773 18.88 241.005 18.88C240.237 18.88 239.65 19.0187 239.245 19.296C238.839 19.552 238.637 19.9147 238.637 20.384C238.637 20.896 238.85 21.28 239.277 21.536C239.703 21.7707 240.279 21.952 241.005 22.08L241.901 22.24C243.095 22.4533 244.173 22.7413 245.133 23.104C246.114 23.4453 246.882 23.9467 247.437 24.608C248.013 25.248 248.301 26.1227 248.301 27.232C248.301 28.896 247.693 30.1867 246.477 31.104C245.282 32 243.671 32.448 241.645 32.448Z" fill="#FFF7F8"/>
</g>
</g>
</svg>
