<svg width="41" height="67" viewBox="0 0 41 67" fill="none" xmlns="http://www.w3.org/2000/svg">
<path fill-rule="evenodd" clip-rule="evenodd" d="M31.4909 0.254666C31.1405 0.439878 31.2963 0.501611 31.9969 0.501611C32.5807 0.501611 33.1256 0.409009 33.2424 0.254666C33.5149 -0.0848887 32.1915 -0.0848887 31.4909 0.254666Z" fill="#EE4266"/>
<path fill-rule="evenodd" clip-rule="evenodd" d="M31.1793 1.42792C30.7901 1.52053 30.829 1.67487 31.2572 2.04529C31.7243 2.38485 31.9967 2.41572 32.386 2.16877C32.6584 1.98356 33.2423 1.89096 33.6315 2.01443C34.2154 2.13791 34.2543 2.10703 33.7872 1.89095C32.9309 1.45879 31.7242 1.24271 31.1793 1.42792Z" fill="#EE4266"/>
<path fill-rule="evenodd" clip-rule="evenodd" d="M32.4254 2.44638C32.2697 2.63159 31.8415 2.69333 31.4134 2.60072C31.0242 2.47725 30.6738 2.53898 30.6738 2.69333C30.6738 3.12549 32.5811 4.05155 33.0092 3.83547C33.632 3.52678 33.4763 3.06375 32.7757 3.06375C32.2308 3.06375 32.2308 2.97115 32.62 2.60072C32.8925 2.35378 33.0092 2.1377 32.8925 2.1377C32.7757 2.1377 32.5422 2.29204 32.4254 2.44638Z" fill="#EE4266"/>
<path fill-rule="evenodd" clip-rule="evenodd" d="M35.8526 3.18722C35.8915 3.34157 35.5023 3.65026 34.9574 3.86634C34.14 4.20589 34.101 4.2985 34.6849 4.48371C35.2688 4.63805 35.1909 4.79239 34.14 5.50237C32.7388 6.45929 33.0501 6.86059 35.4245 7.20014C36.67 7.38535 36.9425 7.3236 37.3317 6.70623C37.721 6.11973 37.6431 5.96539 36.7479 5.37889C35.5802 4.63804 35.3466 3.58851 36.4365 3.8972C36.7868 3.9898 36.9814 3.95893 36.7868 3.83546C36.6311 3.68111 36.9814 3.40329 37.5653 3.21808L38.6551 2.84766L37.2149 2.87854C36.4365 2.9094 35.8137 3.03288 35.8526 3.18722Z" fill="#EE4266"/>
<path fill-rule="evenodd" clip-rule="evenodd" d="M30.2848 3.52641C30.2848 3.61902 30.5573 4.05118 30.9076 4.45247C31.3228 4.96695 31.1671 5.22419 30.4405 5.22419C29.5453 5.22419 29.4285 5.28592 29.8956 5.53287C30.3627 5.77982 30.3237 5.84156 29.6231 5.84156C28.7279 5.84156 28.3386 6.45893 29.2339 6.45893C29.5842 6.45893 29.5842 6.52068 29.195 6.73676C28.9225 6.86023 28.7279 7.10718 28.8057 7.26153C28.8446 7.41587 28.689 7.84802 28.4165 8.21845C27.8716 8.99016 27.7937 8.95929 30.6352 9.08276C31.9196 9.1445 32.0364 8.49626 30.8298 7.75542C30.207 7.38499 30.207 7.32325 30.7908 7.47759C31.1411 7.60107 31.4526 7.53934 31.4526 7.35413C31.4526 7.16892 31.6083 7.10718 31.8029 7.19979C32.3867 7.4776 32.6592 6.42806 32.1531 5.93416C31.7639 5.53287 31.8418 5.34766 32.6203 4.85376C33.1652 4.48334 33.3209 4.26726 33.0095 4.29813C31.7639 4.45247 31.0633 4.26726 31.0633 3.8351C31.0633 3.58815 30.9076 3.37207 30.6741 3.37207C30.4795 3.37207 30.2848 3.43381 30.2848 3.52641ZM31.4526 6.64415C31.4526 6.8911 30.713 7.04544 30.5184 6.82936C30.4016 6.67502 30.5573 6.55153 30.8687 6.55153C31.1801 6.55153 31.4526 6.61329 31.4526 6.64415Z" fill="#EE4266"/>
<path fill-rule="evenodd" clip-rule="evenodd" d="M36.9027 4.76094C37.1751 5.00789 37.5643 5.13137 37.759 5.03876C37.9925 4.91529 37.9536 4.73008 37.6422 4.57573C36.7859 4.14357 36.3577 4.26704 36.9027 4.76094Z" fill="#EE4266"/>
<path fill-rule="evenodd" clip-rule="evenodd" d="M39.0412 6.45908C39.158 6.61342 39.3526 6.76776 39.4693 6.76776C39.5472 6.76776 39.625 6.61342 39.625 6.45908C39.625 6.27387 39.4304 6.15039 39.1969 6.15039C39.0023 6.15039 38.9244 6.27387 39.0412 6.45908Z" fill="#EE4266"/>
<path fill-rule="evenodd" clip-rule="evenodd" d="M37.6797 7.19975C37.6797 7.75538 38.4192 8.15667 38.7695 7.84798C38.9252 7.7245 38.8085 7.53929 38.536 7.47755C38.3024 7.38495 38.1468 7.19975 38.3025 7.0454C38.4192 6.89106 38.3025 6.76758 38.1078 6.76758C37.8743 6.76758 37.6797 6.9528 37.6797 7.19975Z" fill="#EE4266"/>
<path fill-rule="evenodd" clip-rule="evenodd" d="M33.6331 7.81783C33.7499 8.03391 33.4384 8.37345 32.9324 8.55867C32.4264 8.74388 32.2707 8.89823 32.5432 8.89823C32.8157 8.9291 32.9325 9.05257 32.8157 9.23778C32.6989 9.39212 32.7379 9.54646 32.9714 9.54646C33.166 9.54646 33.2828 9.82428 33.2049 10.1638C33.1271 10.5343 33.2828 10.8738 33.5942 10.9973C34.4894 11.2442 33.8277 11.769 32.8935 11.5221C32.154 11.3369 32.115 11.3677 32.5432 11.769C32.9324 12.1703 32.9325 12.2938 32.3875 12.4481C31.9983 12.5716 31.5701 12.479 31.3755 12.2629C31.1419 11.9542 31.0641 12.016 31.0641 12.3864C31.0641 12.6951 31.2587 12.942 31.4923 12.942C31.6869 12.942 31.8037 13.0655 31.6869 13.189C31.6091 13.3124 31.648 13.6211 31.8815 13.8681C32.1151 14.1768 32.2318 14.2076 32.2318 13.9298C32.2318 13.7446 32.5043 13.5594 32.8157 13.5594C33.3217 13.5594 33.3606 13.6829 33.0103 14.2076C32.5822 14.7941 32.5043 14.7941 31.8815 14.362C31.4923 14.0842 30.636 13.8681 29.8964 13.8681C28.7676 13.8681 28.6898 13.8063 29.1569 13.3433C29.5461 13.0037 29.5461 12.9111 29.2347 13.0655C28.9622 13.189 28.7287 13.1272 28.7287 12.9729C28.7287 12.7877 28.9233 12.6333 29.1179 12.6333C29.3515 12.6333 29.5072 12.5099 29.5072 12.3555C29.5072 11.9851 27.4831 12.3555 26.8604 12.8494C26.5879 13.0655 26.4711 13.3742 26.5879 13.5594C26.7047 13.7137 26.5879 13.8681 26.2765 13.8681C25.3034 13.8681 25.2645 14.6707 26.0819 15.7511C26.549 16.3376 26.9771 16.6462 27.055 16.3993C27.1717 16.2141 27.4831 16.0289 27.7945 16.0289C28.1059 16.0289 28.2227 15.8437 28.067 15.5041C27.8724 15.1028 27.9891 15.0411 28.6508 15.1646C29.1179 15.288 29.6239 15.2263 29.7407 15.072C29.8575 14.9176 30.1689 14.7941 30.4024 14.7941C30.6749 14.825 30.2078 15.2572 29.3904 15.8437C28.067 16.708 27.9502 16.8932 28.4952 17.2328C28.8455 17.4488 29.3515 17.5723 29.7018 17.4797C30.0132 17.3562 30.4414 17.5106 30.636 17.8192C30.8695 18.1279 31.0641 18.1897 31.0641 17.9427C31.0641 17.7575 31.4533 17.5723 31.9593 17.5723H32.8157L31.9983 18.1279C31.5312 18.4058 31.0641 18.8688 30.9473 19.1157C30.7916 19.4244 30.7138 19.3627 30.7138 18.8996C30.6749 18.5292 30.5192 18.1588 30.3635 18.0662C29.8575 17.8193 29.0012 18.4058 29.2737 18.7762C29.4293 18.9614 29.7407 19.054 29.9353 18.9614C30.13 18.8379 30.2857 18.9305 30.2857 19.0849C30.2857 20.0109 28.1448 18.4984 27.8724 17.418C27.7945 17.0784 27.561 16.8006 27.2885 16.8006C27.055 16.8006 26.7047 16.708 26.549 16.5845C26.0819 16.1832 23.6297 18.591 23.9022 19.1775C24.0189 19.517 23.9022 19.7331 23.5908 19.7331C23.1626 19.7331 23.1626 19.7948 23.5908 20.0109C24.0189 20.227 23.98 20.2887 23.474 20.4431C22.968 20.5974 22.9291 20.7826 23.2794 21.2765C23.6686 21.863 23.5129 22.0174 22.7345 21.9248C22.5398 21.8939 22.5009 22.0791 22.6177 22.3569C22.7734 22.6039 22.6566 22.82 22.3841 22.82C22.1117 22.82 22.3452 23.0978 22.8902 23.4373C23.6297 23.9004 23.7076 24.0547 23.2405 24.0547C22.8902 24.0547 22.5009 24.2708 22.3452 24.5177C21.956 25.3512 23.9022 25.0425 24.9142 24.1165C26.2376 22.8508 27.0939 22.6656 26.8604 23.6534C26.7436 24.0856 26.3543 24.5177 25.9262 24.6103C25.2645 24.7338 25.3034 24.7956 26.1598 25.4438L27.1329 26.1538L26.2765 26.3699C25.8094 26.4933 25.2645 26.5551 25.031 26.5242C24.8363 26.4933 24.8752 26.6477 25.1477 26.8638C25.9651 27.5429 25.7316 28.685 24.7974 28.685C24.2525 28.685 24.0578 28.8394 24.1746 29.1172C24.2914 29.3641 24.2136 29.6419 23.9411 29.7345C23.6686 29.8271 24.0968 29.8271 24.8753 29.7345C26.3154 29.5493 27.2107 29.9815 26.3544 30.4137C26.043 30.568 26.0041 30.5062 26.1987 30.2284C26.6658 29.6419 24.1357 30.0741 23.1237 30.7841C22.7345 31.0619 22.5009 31.1236 22.6566 30.9075C22.8513 30.6606 22.6566 30.2284 22.2284 29.858C21.8392 29.4876 21.7614 29.3024 21.9949 29.4259C22.2674 29.5493 22.8123 29.4876 23.1626 29.3333C23.8243 29.0246 23.7854 29.0246 23.0848 28.9937C22.5009 28.9937 22.4231 28.932 22.8513 28.7159C23.1237 28.5615 23.2794 28.2528 23.2015 28.0368C23.0848 27.7898 23.2794 27.4503 23.5908 27.2651C24.0578 26.9872 24.0579 26.8638 23.5129 26.4316C22.9291 25.9686 22.9291 25.9068 23.5518 25.629C24.1746 25.3512 24.1746 25.3203 23.5908 25.2895C23.2404 25.2895 22.6955 25.5055 22.3452 25.7525C22.0338 25.9994 21.5668 26.2155 21.3332 26.2155C21.0997 26.2155 21.0218 26.339 21.1386 26.5242C21.2554 26.6785 21.1775 26.8329 20.9829 26.8329C20.7494 26.8329 20.5547 27.049 20.5547 27.2959C20.5547 27.5429 20.3212 27.7589 20.0098 27.7589C18.9978 27.7589 18.9199 28.3763 19.8541 28.6541C20.5547 28.9011 20.5937 28.9628 20.0487 28.9628C19.6595 28.9937 19.4649 29.1172 19.5817 29.3024C19.6984 29.4567 19.5816 29.6111 19.3092 29.6111C18.9588 29.6111 18.9589 29.7037 19.387 29.9197C19.893 30.1667 19.8931 30.2593 19.3481 30.5989C18.9978 30.8149 18.6085 31.2471 18.4918 31.5249C18.2972 31.9571 18.4529 32.0805 19.1924 32.0805C19.7374 32.0805 20.1655 32.204 20.1655 32.3892C20.1655 32.5436 19.932 32.6979 19.6206 32.6979C19.3092 32.6979 18.9589 32.8831 18.881 33.0683C18.7253 33.377 18.6475 33.377 18.6475 33.0683C18.5696 32.451 17.5965 32.6362 17.5576 33.3153C17.5187 33.7166 17.7133 33.9327 18.1415 33.9327C18.5566 33.9532 18.5566 34.0664 18.1415 34.2722C17.7522 34.4266 17.4409 34.7353 17.4409 34.8896C17.4409 35.0748 17.6355 35.1057 17.8301 35.0131C18.0636 34.9205 18.2193 34.9822 18.2193 35.1365C18.2193 35.3218 18.0247 35.4761 17.7912 35.4761C17.5576 35.4761 17.4408 35.6613 17.5187 35.8465C17.6355 36.0626 17.3241 36.4639 16.8959 36.7726C16.1953 37.2356 16.1564 37.3591 16.6624 37.6369C17.1684 37.8838 17.1294 37.9456 16.5456 37.9456C16.0785 37.9456 15.9228 38.0691 16.1564 38.316C16.5845 38.8716 16.6624 39.5199 16.2731 39.3347C16.0785 39.2421 15.845 39.3038 15.6893 39.489C15.5725 39.6434 15.6504 39.7977 15.845 39.7977C16.0785 39.7977 16.2731 39.9212 16.2731 40.1064C16.2731 40.2607 16.0396 40.4151 15.7671 40.4151C15.4947 40.4151 15.2611 40.6929 15.2222 41.0324C15.1833 41.372 15.3 41.6498 15.4557 41.6498C15.6114 41.6498 15.7671 41.8659 15.7671 42.1128C15.7671 42.4215 15.4557 42.5141 14.7551 42.3907C13.9766 42.2672 13.8599 42.2981 14.327 42.545C14.9497 42.8846 15.2611 44.2428 14.6773 43.9341C14.4826 43.8415 14.327 43.9341 14.327 44.0884C14.327 44.2737 13.5485 44.428 12.5754 44.428C11.6023 44.428 10.8628 44.3354 10.8628 44.181C10.9017 44.0576 10.8628 43.9032 10.8238 43.8106C10.7849 43.718 10.7071 43.3167 10.6681 42.9154L10.5514 42.2054L11.2131 42.8846C11.7191 43.4093 12.0694 43.5328 12.77 43.3476L13.7042 43.1006L12.6532 42.6685C11.5244 42.2054 11.2131 41.7733 12.2251 42.082C12.5754 42.1746 12.6922 42.1437 12.5754 41.9276C12.4197 41.7733 11.9915 41.7116 11.6412 41.8042C10.6681 42.0511 9.77288 41.7116 9.53934 41.0016C9.3058 40.2916 9.85074 40.2299 10.3567 40.909C10.6681 41.372 10.746 41.372 10.9406 40.909C11.0963 40.6003 11.0574 40.4459 10.8238 40.5694C10.5903 40.662 10.4346 40.5385 10.4346 40.2607C10.4346 39.9212 10.201 39.8286 9.50042 39.9829C8.68303 40.1373 8.56626 40.0755 8.72195 39.5508C8.83872 39.2421 8.68303 38.7482 8.33271 38.5012C8.02132 38.2234 7.86563 37.9147 8.02133 37.8221C8.1381 37.6986 8.02133 37.4826 7.70995 37.3282C7.20394 37.0813 7.24284 37.0195 7.78777 37.0195C8.13809 37.0195 8.56627 37.143 8.68304 37.3282C8.79981 37.4826 9.18902 37.6369 9.53934 37.6369C10.0453 37.6369 10.0064 37.5134 9.30581 36.8961C8.83872 36.4948 8.4884 35.97 8.56625 35.7539C8.64409 35.507 8.41056 35.3218 8.06024 35.3526C7.70993 35.3835 7.43747 35.2291 7.43747 35.0131C7.43747 34.7661 7.70994 34.6735 8.02133 34.797C8.41057 34.8896 8.52733 34.8279 8.33271 34.6118C8.17702 34.3957 7.74885 34.2414 7.39854 34.2414C6.85361 34.2414 6.85361 34.1796 7.28177 33.9635C7.55424 33.8092 7.70994 33.5622 7.55424 33.377C7.43747 33.1918 7.55423 33.0066 7.78777 32.914C8.17701 32.8214 8.1381 32.6362 7.63209 32.1731C7.04824 31.6793 6.50331 31.5867 4.12897 31.6793C1.58595 31.741 0.314453 32.06 0.314453 32.6362C0.314453 33.3153 0.431224 33.377 1.48216 33.1918C2.26064 33.0889 2.45525 33.2741 2.06602 33.7475C1.75463 34.1179 1.59892 34.55 1.71569 34.6426C1.87139 34.7661 1.67677 34.9205 1.32646 35.0439C0.586909 35.26 0.470143 35.723 1.20969 35.6922C2.72771 35.6613 3.00017 35.8157 2.8834 36.6182C2.84448 37.1121 2.92232 37.7912 3.11694 38.1617C3.27263 38.563 3.27264 38.8716 3.07802 38.8716C2.53309 38.8716 1.79354 38.0073 2.02708 37.6678C2.2217 37.4208 1.91032 37.4208 0.70369 37.6369C0.586919 37.6369 0.820446 37.853 1.24861 38.0999C1.63784 38.316 1.83248 38.6864 1.67678 38.8716C1.52109 39.0569 1.59893 39.3655 1.79355 39.5816C1.98817 39.7977 2.26062 40.3225 2.41632 40.7855C2.61093 41.4337 2.88341 41.6498 3.62296 41.6498C4.16789 41.6498 4.75175 41.8968 4.98529 42.2672C5.21883 42.6067 5.80268 42.8846 6.26977 42.8846C6.84065 42.8846 6.81469 43.0183 6.19191 43.2859C5.0242 43.7489 5.06312 44.2119 6.23083 44.4897C6.89253 44.6132 6.93145 44.6749 6.42545 44.7058C5.88052 44.7367 5.76375 44.891 5.9973 45.4158C6.11407 45.8171 6.42546 46.1566 6.58115 46.2184C6.77577 46.2801 6.93147 46.5271 6.93147 46.7431C6.93147 46.9901 7.20394 47.0827 7.70995 46.9901C8.13811 46.8975 8.48842 46.9901 8.48842 47.1753C8.48842 47.3605 8.21595 47.5149 7.90456 47.5149C7.00932 47.5149 7.20392 48.194 8.37163 48.9657C8.91656 49.367 9.18903 49.6757 8.91657 49.6757C8.6441 49.6757 8.56627 49.7991 8.68304 49.9843C8.79981 50.1387 8.6441 50.293 8.33271 50.293C8.02132 50.293 7.67101 50.4165 7.55424 50.54C7.3207 50.8487 9.26688 53.9973 9.69504 53.9973C9.88966 53.9973 9.92858 53.7812 9.81181 53.5342C9.65611 53.2873 9.77288 53.0712 10.0064 53.0712C10.24 53.0712 10.4735 53.1947 10.4735 53.3799C10.5903 53.9973 10.6292 54.1516 10.9795 54.5838C11.2131 54.8616 11.1741 54.9542 10.9406 54.8307C10.4346 54.5838 9.92858 55.4481 10.2789 55.9111C10.3957 56.0655 10.746 56.1272 11.0185 56.0346C11.3298 55.942 11.758 56.0963 12.0305 56.3433C12.4197 56.7137 12.3808 56.7446 11.8748 56.6211C11.5634 56.4976 11.1741 56.5594 11.0185 56.7446C10.9017 56.9298 11.0184 57.0841 11.3298 57.0841C11.9915 57.0841 12.4975 57.8867 12.1472 58.4115C12.0305 58.6275 12.2251 58.5041 12.5365 58.1954C13.1982 57.5472 13.3928 57.8558 12.8089 58.6276C12.2251 59.3067 12.77 59.6462 13.4317 59.0288C13.7431 58.7202 13.8988 58.6584 13.7431 58.8436C13.6263 59.0597 13.7042 59.2449 13.9377 59.2449C14.1713 59.2449 14.0934 59.5536 13.7042 60.0166C13.1203 60.7266 13.1203 60.8192 13.9377 61.6836C14.6773 62.5479 14.9108 62.6096 16.5845 62.4861C17.869 62.4244 18.1804 62.4553 17.5966 62.6405C16.4289 63.0109 16.0396 63.5974 16.7402 63.9987C17.0516 64.1839 17.4019 64.5852 17.5576 64.863C17.6744 65.1717 18.0636 65.4186 18.4139 65.4186C18.7643 65.4186 18.9978 65.6965 19.0367 66.0978C19.0367 66.746 19.1146 66.7151 19.4649 65.9434C19.6984 65.3878 20.0487 65.1408 20.399 65.2334C20.7104 65.326 21.2553 65.5113 21.6446 65.6039C22.1895 65.7582 22.2285 65.7273 21.7225 65.4495C21.3332 65.2334 21.2943 65.11 21.6446 65.11C21.917 65.11 22.1117 64.7087 22.1117 64.1839C22.1117 63.6591 22.3063 63.2578 22.6177 63.2578C22.8512 63.2578 22.7734 63.1035 22.3841 62.9183C21.6835 62.6096 21.6835 62.5787 22.3841 62.1466C22.7734 61.9305 22.9291 61.7144 22.7345 61.7144C22.5398 61.7144 22.6177 61.4983 22.8902 61.2514C23.2794 60.8501 23.2794 60.6649 22.7345 60.2019C22.3452 59.8623 22.2284 59.5228 22.4231 59.4301C22.6566 59.3375 22.7345 58.9362 22.5788 58.5658C22.4231 58.0719 22.5009 57.9484 22.968 58.0719C23.2794 58.1954 23.7854 58.1337 24.0968 58.0102C24.486 57.7941 24.3692 57.6706 23.5518 57.4237C22.968 57.2385 22.5009 56.9915 22.5009 56.8989C22.5009 56.7754 22.6177 56.7754 22.7734 56.868C23.1626 57.1767 24.1357 55.9111 23.8243 55.479C23.6686 55.2937 23.7075 55.232 23.98 55.3555C24.2135 55.4481 24.486 55.4172 24.6028 55.2629C24.7196 55.1085 24.4471 54.9233 23.98 54.8307C23.2794 54.6764 23.2405 54.5838 23.6686 54.1825C23.9411 53.9047 24.019 53.6886 23.8633 53.6886C23.7076 53.6886 23.7854 53.4725 24.0579 53.2255C24.3303 52.9786 24.4471 52.5773 24.3303 52.2995C24.1746 52.0525 24.2914 51.7747 24.5249 51.6513C24.7974 51.5278 24.7585 51.3734 24.4082 51.1882C24.019 51.003 23.98 50.9104 24.3692 50.9104C24.6028 50.9104 24.8363 50.6326 24.8363 50.293C24.8363 49.9535 24.6417 49.6757 24.4471 49.6757C24.2136 49.6757 24.4082 49.367 24.8363 48.9965C25.3034 48.5952 25.5759 48.0396 25.4591 47.7618C25.3813 47.4531 25.4591 47.1444 25.6148 47.0518C26.1598 46.774 25.8873 45.6319 25.3423 45.7862C25.0699 45.8788 24.8363 45.8171 24.8363 45.6627C24.8363 45.4775 25.1867 45.354 25.5759 45.354C26.549 45.354 26.7825 45.0454 26.9382 43.6254C27.0161 43.008 27.2885 42.3907 27.561 42.2672C27.7945 42.1437 27.9892 41.9585 27.9502 41.835C27.8335 41.372 28.4562 39.4582 28.7676 39.3038C28.9622 39.2112 29.1179 38.7482 29.1179 38.2234C29.1179 37.7295 29.2347 37.3282 29.4293 37.3282C29.585 37.3282 29.7407 36.8961 29.7796 36.3713C29.8186 35.8465 30.0521 35.2291 30.2857 35.0131C30.4803 34.8279 30.5581 34.55 30.4414 34.4574C30.3246 34.3648 30.3635 34.087 30.5192 33.8709C30.7138 33.6548 30.8695 33.4079 30.9084 33.3153C30.9084 33.2227 31.142 32.7288 31.4145 32.2349C31.6869 31.7101 31.9594 31.0619 32.0372 30.7841C32.1151 30.5062 32.3875 29.9815 32.6211 29.6111C32.8546 29.2406 32.9714 28.7467 32.8546 28.4998C32.7378 28.2528 32.7768 28.0676 32.9714 28.0676C33.5942 28.0676 34.1001 26.6477 33.7109 26.0612C33.3995 25.6907 33.4384 25.5673 33.7109 25.7216C33.9445 25.8451 34.4116 25.5055 34.7619 24.9808C35.19 24.3325 35.229 24.0547 34.9176 24.0547C34.6451 24.0547 34.723 23.8078 35.1122 23.4682C35.8517 22.82 35.7739 21.6778 34.9954 21.8322C34.7229 21.863 34.6062 21.7704 34.7619 21.5852C34.8786 21.4 35.19 21.3692 35.4236 21.4618C35.696 21.6161 35.7739 21.4926 35.6182 21.1839C35.4625 20.8444 35.5403 20.7518 35.9296 20.8444C36.2799 20.9679 36.3967 20.8135 36.3577 20.4431C36.2799 20.1344 36.3967 19.8257 36.5524 19.7022C36.9805 19.4862 37.6811 16.5845 37.4087 16.245C37.2919 16.0906 37.3697 15.8745 37.6033 15.7511C37.8368 15.6276 38.1093 14.9485 38.1482 14.2385C38.2261 13.3433 38.4596 12.942 38.8489 12.942C39.3159 12.9111 39.3159 12.8494 38.771 12.6025C38.1482 12.3246 38.1482 12.2629 38.7321 11.7073C39.5105 10.9973 39.7052 9.85515 39.0046 10.0712C38.7321 10.133 38.6153 10.4417 38.7321 10.7195C38.9267 11.1208 38.8099 11.0899 37.9536 10.596C37.4087 10.2873 36.9027 9.88603 36.9027 9.73169C36.9027 9.57734 37.1362 9.63908 37.4476 9.82429C37.8369 10.1021 38.0704 10.0712 38.4207 9.73169C38.6932 9.48474 39.1602 9.36126 39.4716 9.45386C39.783 9.54647 40.0166 9.45387 40.0166 9.26866C40.0166 9.08345 39.5884 8.86736 39.0435 8.74389C38.4985 8.65128 38.0704 8.43519 38.0704 8.31172C38.0704 8.0339 36.4356 7.63261 34.684 7.54C33.8666 7.47827 33.5163 7.57088 33.6331 7.81783ZM35.2289 8.18826C35.1122 8.28086 34.7618 8.31172 34.4894 8.21912C34.178 8.12651 34.2948 8.03391 34.723 8.03391C35.1511 8.00305 35.3846 8.09565 35.2289 8.18826ZM33.9055 13.1581C33.6331 13.2198 33.0881 13.2198 32.7378 13.1581C32.3486 13.0655 32.5822 13.0038 33.2049 13.0038C33.8666 13.0038 34.1391 13.0655 33.9055 13.1581ZM37.4087 13.5903C37.5254 13.8989 37.3308 14.2076 37.0194 14.3002C36.708 14.3928 36.5913 14.362 36.7081 14.2076C36.8248 14.0533 36.5134 13.6829 36.0463 13.4359L35.1511 12.942L36.202 13.0038C36.8248 13.0346 37.3308 13.2816 37.4087 13.5903ZM29.7018 16.6462C29.3126 16.9858 28.9233 17.2019 28.8065 17.1093C28.5341 16.9241 29.5072 16.0289 30.0132 16.0289C30.2078 16.0289 30.091 16.3067 29.7018 16.6462ZM25.8094 18.807C25.6927 18.9614 25.3423 19.1157 25.1088 19.1157C24.8363 19.1157 24.8753 18.9923 25.2256 18.807C25.9651 18.4366 26.1208 18.4366 25.8094 18.807ZM28.3395 18.9923C28.3395 19.2392 28.1449 19.3627 27.9113 19.2392C27.6389 19.1157 27.561 19.3009 27.6388 19.7331C27.7167 20.1653 27.5221 20.5048 27.1718 20.5666C26.6658 20.69 26.6658 20.6592 27.1718 20.3814C27.6388 20.1035 27.6388 20.0418 27.0939 19.8874C26.549 19.7022 26.51 19.5788 26.8993 19.0849C27.4442 18.3749 28.3395 18.3132 28.3395 18.9923ZM27.1718 21.3383C27.1718 21.5235 27.055 21.5852 26.8993 21.4926C26.7825 21.3691 26.4711 21.4309 26.1987 21.5852C25.8873 21.8013 25.7316 21.7396 25.7316 21.4309C25.7316 21.1839 26.0819 20.9678 26.4711 20.9678C26.8604 20.9678 27.1718 21.1222 27.1718 21.3383ZM29.8964 21.7396C29.8964 21.8013 29.5461 21.8322 29.1569 21.8013C28.7287 21.8013 28.4562 21.647 28.573 21.5235C28.7287 21.3383 29.8964 21.5235 29.8964 21.7396ZM29.4293 23.5917C29.3125 23.6843 29.079 23.5299 28.9622 23.2213C28.7287 22.7891 28.7676 22.7582 29.1569 23.036C29.4293 23.2521 29.5461 23.4991 29.4293 23.5917ZM33.9834 23.4065C34.2559 23.7769 32.8546 24.4251 32.4654 24.1473C32.3486 24.0547 32.2318 23.7769 32.2318 23.5299C32.2318 23.0669 33.6331 22.9743 33.9834 23.4065ZM28.6119 23.6226C28.4952 23.7152 28.1448 23.746 27.8724 23.6534C27.561 23.5608 27.6778 23.4682 28.1059 23.4682C28.5341 23.4373 28.7676 23.53 28.6119 23.6226ZM28.9233 24.9499C28.4952 25.2586 27.6778 25.4129 26.7825 25.2895C26.4711 25.2586 26.7436 25.1042 27.3664 24.9808C29.079 24.6412 29.3126 24.6412 28.9233 24.9499ZM32.2318 26.0303C32.2318 26.092 31.9594 26.2464 31.6091 26.339C31.2977 26.4316 31.142 26.4007 31.2587 26.2155C31.4923 25.9068 32.2318 25.7834 32.2318 26.0303ZM26.9771 27.1416C26.8604 27.2959 26.51 27.4503 26.2765 27.4503C26.004 27.4503 26.043 27.3268 26.3933 27.1416C27.1328 26.7711 27.2885 26.7711 26.9771 27.1416ZM28.2227 28.2529C28.1059 28.3455 27.7556 28.3763 27.4831 28.2837C27.1717 28.1911 27.2885 28.0985 27.7167 28.0985C28.1449 28.0676 28.3784 28.1602 28.2227 28.2529ZM21.3332 29.6111C21.3332 29.7654 21.2554 29.9197 21.1775 29.9197C21.0607 29.9197 20.8661 29.7654 20.7494 29.6111C20.6326 29.4258 20.7105 29.3024 20.9051 29.3024C21.1386 29.3024 21.3332 29.4258 21.3332 29.6111ZM23.474 31.9262C22.8512 32.3584 22.0338 32.6979 21.7225 32.6979C21.2554 32.6671 21.2554 32.6053 21.8003 32.2658C22.1895 32.0497 22.3452 31.741 22.1895 31.6175C22.0338 31.4632 22.1506 31.4632 22.3841 31.5867C22.6566 31.7101 23.2015 31.6484 23.5518 31.4941C24.7196 30.9384 24.6807 31.1545 23.474 31.9262ZM26.3154 31.8027C26.4322 32.1732 26.3933 32.1732 26.0819 31.8027C25.8483 31.5558 25.498 31.494 25.2256 31.6175C24.8753 31.7719 24.7974 31.741 24.9921 31.4941C25.3813 31.031 26.0819 31.1854 26.3154 31.8027ZM7.0093 32.8523C7.12607 33.2844 7.04823 33.624 6.89253 33.624C6.69792 33.624 6.54222 33.5314 6.5033 33.377C6.5033 33.2536 6.42547 32.914 6.34762 32.6053C6.26977 32.3275 6.34762 32.0805 6.54224 32.0805C6.69793 32.0805 6.93145 32.4201 7.0093 32.8523ZM24.8363 33.3462C24.8363 33.5005 24.6807 33.624 24.4471 33.624C24.2525 33.624 24.0579 33.4079 24.0579 33.1301C24.0579 32.8831 24.2525 32.7597 24.4471 32.8523C24.6807 32.9449 24.8363 33.161 24.8363 33.3462ZM21.9171 33.8092C21.3981 34.1179 21.424 34.3237 21.9949 34.4266C22.5009 34.55 22.8123 34.8279 22.7734 35.1674C22.7345 35.507 22.5009 35.6613 22.0338 35.5378C21.5667 35.4452 21.3332 35.5378 21.411 35.7848C21.4889 36.0009 21.2943 36.2478 21.0607 36.3096C20.7883 36.4022 20.5547 36.2478 20.5547 35.97C20.5547 35.6922 20.3212 35.4761 20.0876 35.4452C19.6984 35.4452 19.6984 35.3835 20.0487 35.2909C20.2823 35.1983 20.3991 34.797 20.3212 34.3957C20.2044 33.8401 20.2823 33.6857 20.7105 33.8092C21.0218 33.9018 21.3721 33.8401 21.5278 33.6549C21.6446 33.4696 21.9949 33.3153 22.2284 33.3153C22.5009 33.3153 22.3452 33.5314 21.9171 33.8092ZM27.2885 33.6857C27.055 34.0253 26.0819 33.9944 25.8484 33.6549C25.7316 33.5005 26.043 33.4079 26.549 33.4388C27.055 33.4388 27.4053 33.5622 27.2885 33.6857ZM26.1987 34.4883C26.0819 34.5809 25.7705 34.4883 25.498 34.2722C25.1477 33.9635 25.1866 33.9327 25.7316 34.1179C26.1208 34.2105 26.3154 34.3957 26.1987 34.4883ZM24.2136 34.797C24.3303 34.9513 24.1746 35.0748 23.8633 35.0748C23.5519 35.0748 23.3962 34.9513 23.5129 34.797C23.6297 34.6735 23.7854 34.55 23.8633 34.55C23.9411 34.55 24.0968 34.6735 24.2136 34.797ZM24.0579 35.7848C24.0579 35.9391 23.98 36.0935 23.9022 36.0935C23.7854 36.0935 23.5908 35.9391 23.474 35.7848C23.3572 35.5996 23.4351 35.4761 23.6297 35.4761C23.8633 35.4761 24.0579 35.5996 24.0579 35.7848ZM29.5072 35.9391C29.5072 36.0009 29.2347 36.0935 28.9233 36.2169C28.573 36.3096 28.3395 36.2169 28.3395 35.9391C28.3395 35.6613 28.573 35.5687 28.9233 35.6613C29.2347 35.7848 29.5072 35.8774 29.5072 35.9391ZM23.0069 37.39C23.3572 37.39 23.6686 37.4826 23.6686 37.606C23.6686 37.7295 22.8123 37.853 21.8003 37.8221C20.5937 37.7913 19.893 37.6678 19.893 37.4208C19.893 37.143 20.2823 37.0813 21.0997 37.2047C21.7614 37.3282 22.6177 37.39 23.0069 37.39ZM20.3212 38.5012C20.5937 38.8716 20.0487 39.3655 19.1145 39.5508C18.0247 39.7668 17.9079 39.3038 18.9978 39.026C19.426 38.9025 19.6984 38.6864 19.5817 38.5321C19.426 38.3778 19.5038 38.2543 19.7374 38.2543C19.932 38.2543 20.2044 38.3777 20.3212 38.5012ZM21.9171 38.563C22.0338 38.7173 21.956 38.8716 21.7614 38.8716C21.5278 38.8716 21.3332 38.7173 21.3332 38.563C21.3332 38.3777 21.4111 38.2543 21.4889 38.2543C21.6057 38.2543 21.8003 38.3777 21.9171 38.563ZM8.37163 39.3656C8.25486 39.4582 7.90456 39.489 7.63209 39.3964C7.3207 39.3038 7.43747 39.2112 7.86563 39.2112C8.29379 39.1803 8.52732 39.2729 8.37163 39.3656ZM4.0122 39.7977C4.12897 39.952 4.05112 40.1064 3.81758 40.1064C3.54512 40.1064 3.42834 40.3225 3.54511 40.5386C3.70081 40.8472 3.58402 40.9398 3.19479 40.8164C2.49416 40.6003 2.49416 39.489 3.19479 39.489C3.50618 39.489 3.89543 39.6125 4.0122 39.7977ZM21.1386 39.7977C21.2554 39.952 21.1775 40.1064 20.9829 40.1064C20.7494 40.1064 20.5547 39.952 20.5547 39.7977C20.5547 39.6125 20.6326 39.489 20.7105 39.489C20.8272 39.489 21.0218 39.6125 21.1386 39.7977ZM19.7763 40.3842C19.2313 41.1868 19.2703 41.2485 20.1655 41.4337C20.5937 41.5263 20.944 41.7116 20.944 41.8659C20.944 42.1746 18.9199 42.1437 18.2582 41.835C18.0247 41.7116 17.4798 41.6807 17.1294 41.7733C16.7791 41.8968 16.8959 41.7116 17.4409 41.372C17.9469 41.0325 18.5307 40.8472 18.7253 40.9398C18.9199 41.0324 19.1535 40.8164 19.2702 40.446C19.387 40.0755 19.6206 39.7977 19.8541 39.7977C20.0487 39.7977 20.0098 40.0447 19.7763 40.3842ZM19.387 43.1624C19.387 43.3167 19.5038 43.718 19.6206 44.0267C19.7373 44.3354 19.6984 44.4589 19.5038 44.2736C19.3481 44.0884 18.9588 43.965 18.7253 43.9341C17.2851 43.8415 17.0516 43.7798 17.0516 43.4711C17.0516 43.3167 17.2073 43.2241 17.363 43.3167C17.5187 43.3785 17.9079 43.3476 18.2193 43.1624C18.9589 42.8228 19.387 42.8228 19.387 43.1624ZM18.1415 44.4897C18.0636 44.7367 18.3361 44.8602 18.7643 44.7984C19.3092 44.7058 19.426 44.8293 19.2313 45.1997C19.0756 45.601 19.1535 45.6936 19.5817 45.5701C19.893 45.4467 20.2434 45.5084 20.3601 45.6936C20.5158 45.848 20.8272 45.9097 21.0607 45.7862C21.3332 45.6936 21.2164 45.8171 20.7883 46.0949C20.399 46.3419 20.2044 46.6814 20.3212 46.8357C20.438 47.021 20.2433 47.1136 19.893 47.0518C19.5038 46.9901 19.0367 46.9283 18.8032 46.8975C18.6086 46.8666 18.8032 46.7431 19.3092 46.5888C19.7762 46.4345 20.1655 46.1258 20.1266 45.9097C20.1266 45.601 20.0487 45.601 19.893 45.8788C19.7762 46.1566 19.5038 46.1875 19.0367 45.9714C18.4918 45.7553 18.3361 45.8171 18.3361 46.2184C18.3361 46.4962 18.5307 46.9284 18.7643 47.1753C19.0757 47.5149 19.0756 47.6383 18.7253 47.7309C18.4528 47.8235 18.2193 48.0088 18.2193 48.1631C18.2193 48.3483 18.4139 48.3792 18.6086 48.2866C18.8421 48.194 18.9978 48.2557 18.9978 48.4409C18.9978 48.657 18.6864 48.7187 18.1415 48.5644C17.6354 48.4409 16.7402 48.3483 16.0785 48.3483L14.9108 48.3792L16.0007 48.0705C17.0127 47.7927 17.0516 47.7309 16.3899 47.3605C15.7282 46.9592 15.7282 46.9283 16.3899 46.7431C17.5576 46.3727 17.0905 46.0023 15.4947 46.064C14.5216 46.0949 13.9377 46.2492 13.9377 46.4962C13.9377 47.0827 13.6652 46.9901 12.4586 46.1258C11.4077 45.354 11.7969 45.0762 13.1982 45.6627C13.782 45.9406 14.0156 45.8788 14.1713 45.5084C14.3659 45.1071 14.5216 45.1071 15.0276 45.4158C15.4947 45.7245 15.6503 45.7245 15.7671 45.4158C15.8839 45.2306 16.2731 45.0454 16.7013 45.0454C17.1684 45.0454 17.3241 44.891 17.2073 44.5823C17.0516 44.3045 17.2073 44.1193 17.5966 44.1193C17.9469 44.1193 18.1804 44.3045 18.1415 44.4897ZM8.2938 45.601C8.17703 45.6936 7.86562 45.601 7.59316 45.3849C7.24284 45.0762 7.28178 45.0454 7.82671 45.2306C8.21595 45.3232 8.41057 45.5084 8.2938 45.601ZM23.5908 45.9097C23.8243 46.4653 23.0069 46.3419 22.7345 45.7862C22.5788 45.4775 22.6955 45.3541 22.968 45.4158C23.2015 45.4775 23.5129 45.7245 23.5908 45.9097ZM10.24 49.6757C10.3568 49.83 10.2789 49.9843 10.0843 49.9843C9.85074 49.9843 9.65613 49.83 9.65613 49.6757C9.65613 49.4904 9.73396 49.367 9.81181 49.367C9.92858 49.367 10.1232 49.4904 10.24 49.6757ZM18.6086 49.6757C17.8301 50.0769 17.3241 50.0769 17.6355 49.6757C17.7522 49.4904 18.1804 49.367 18.5307 49.367C19.1145 49.367 19.1146 49.4287 18.6086 49.6757ZM9.65613 51.8982C9.65613 52.2995 8.76086 52.0525 8.56625 51.5895C8.4884 51.3734 8.6441 51.2808 9.03333 51.4043C9.38365 51.4969 9.65613 51.7439 9.65613 51.8982ZM17.8301 51.5278C17.5187 51.6821 16.9738 51.8056 16.6624 51.8056C16.2731 51.8056 16.351 51.713 16.857 51.5278C17.9079 51.1573 18.5307 51.1573 17.8301 51.5278ZM11.6023 53.0712C11.6023 53.2255 11.5245 53.3799 11.4466 53.3799C11.3298 53.3799 11.1352 53.2255 11.0185 53.0712C10.9017 52.886 10.9795 52.7625 11.1741 52.7625C11.4077 52.7625 11.6023 52.886 11.6023 53.0712ZM15.1054 57.5471C15.1054 57.9176 13.9766 57.6398 13.782 57.2385C13.6263 56.8372 13.7042 56.8063 14.327 57.0841C14.7551 57.2693 15.1054 57.4854 15.1054 57.5471ZM16.1953 58.9671C15.7282 59.1832 15.2611 59.1832 14.833 58.9671C14.2491 58.6893 14.3659 58.6584 15.4947 58.6584C16.6235 58.6584 16.7402 58.6893 16.1953 58.9671ZM16.7013 59.708C16.7013 59.8932 16.351 60.0475 16.0007 60.0475C15.6114 60.0784 14.9497 60.2019 14.5216 60.3253C13.5485 60.634 14.0156 60.2327 15.1833 59.708C16.1953 59.2758 16.7402 59.2758 16.7013 59.708ZM15.7671 61.0044C15.4557 61.2823 14.9887 61.3749 14.7162 61.2514C14.4048 61.097 14.4826 60.9118 14.9886 60.634C15.8839 60.1092 16.5067 60.4179 15.7671 61.0044ZM17.4409 61.097C17.4409 61.4366 17.363 61.7144 17.2852 61.7144C17.2073 61.7144 17.0516 61.4366 16.9348 61.097C16.8181 60.7575 16.8959 60.4797 17.0905 60.4797C17.2852 60.4797 17.4409 60.7575 17.4409 61.097ZM19.6206 61.6218C19.3481 61.8379 18.6086 61.4057 18.6086 61.0353C18.6086 60.8501 18.8421 60.8501 19.1924 61.097C19.5427 61.3131 19.6984 61.5601 19.6206 61.6218ZM19.7763 63.7518C19.7763 63.9987 19.0367 64.153 18.8421 63.937C18.7253 63.7826 18.881 63.6591 19.1924 63.6591C19.5038 63.6591 19.7763 63.7209 19.7763 63.7518Z" fill="#EE4266"/>
<path fill-rule="evenodd" clip-rule="evenodd" d="M27.9497 9.54621C27.9497 9.73143 28.1443 9.79317 28.3778 9.6697C28.6503 9.54622 28.767 9.63883 28.6503 9.88578C28.5335 10.1327 28.2221 10.2871 27.9497 10.2253C27.6383 10.1636 27.5604 10.3179 27.6772 10.5958C27.8329 10.8736 27.7161 11.0588 27.4436 10.997C27.1712 10.9662 26.9766 11.1514 26.9766 11.3983C26.9766 11.6761 27.4047 11.8922 28.0664 11.954C28.6892 12.0157 29.1174 11.9231 29.1174 11.6762C29.1174 11.4909 29.4287 11.3983 29.818 11.4601C30.7911 11.6762 31.6863 10.6266 30.83 10.3488C30.5186 10.2562 30.3629 10.0401 30.4797 9.8549C30.5965 9.70056 30.3629 9.54621 29.9347 9.54621C29.5455 9.54621 28.9227 9.45362 28.5724 9.36101C28.2221 9.2684 27.9497 9.33013 27.9497 9.54621ZM30.5575 10.9662C30.4407 11.0588 30.0904 11.0896 29.818 10.997C29.5066 10.9044 29.6234 10.8118 30.0515 10.8118C30.4797 10.781 30.7132 10.8736 30.5575 10.9662Z" fill="#EE4266"/>
<path fill-rule="evenodd" clip-rule="evenodd" d="M31.8398 10.4727C31.8398 10.6271 32.0345 10.7814 32.268 10.7814C32.4626 10.7814 32.5405 10.6271 32.4237 10.4727C32.3069 10.2875 32.1123 10.1641 31.9955 10.1641C31.9177 10.1641 31.8398 10.2875 31.8398 10.4727Z" fill="#EE4266"/>
<path fill-rule="evenodd" clip-rule="evenodd" d="M0.896628 29.3017C1.05232 29.4869 1.40263 29.5795 1.71401 29.4869C2.0254 29.3943 2.14218 29.4869 1.98648 29.7647C1.86971 30.0117 1.67509 30.166 1.5194 30.1043C1.3637 30.0117 1.0134 30.0734 0.702009 30.2586C0.196002 30.4747 0.234921 30.5364 0.818776 30.5364C1.16909 30.5364 1.48048 30.6908 1.48048 30.876C1.48048 31.0304 1.32479 31.0921 1.09125 30.9995C0.896628 30.9069 0.702009 30.9686 0.702009 31.123C0.702009 31.5242 0.779842 31.5243 2.0254 31.1847C2.8428 30.9069 2.92065 30.7525 2.68711 30.0117C2.49249 29.4252 2.10325 29.1165 1.5194 29.0548C0.896618 28.9622 0.702009 29.0548 0.896628 29.3017Z" fill="#EE4266"/>
<path fill-rule="evenodd" clip-rule="evenodd" d="M3.5446 30.5675C3.58353 30.907 3.81705 31.0922 4.08952 31.0305C4.32306 30.9379 4.63446 31.0305 4.75123 31.2466C4.868 31.5244 4.94584 31.4935 4.94584 31.2157C4.98477 30.9688 5.1794 30.907 5.49079 31.0305C5.8411 31.2157 5.84108 31.154 5.45185 30.7835C4.67337 30.0118 3.46676 29.8884 3.5446 30.5675Z" fill="#EE4266"/>
<path fill-rule="evenodd" clip-rule="evenodd" d="M0.00174173 34.5185C0.0406654 35.3211 0.118513 35.3828 0.585596 34.9815C0.896985 34.7346 1.05269 34.3333 0.935919 34.0863C0.585606 33.2838 -0.0371819 33.5925 0.00174173 34.5185Z" fill="#EE4266"/>
<path fill-rule="evenodd" clip-rule="evenodd" d="M0.820193 36.3092C0.119568 36.5253 0.19742 37.0192 0.898045 37.0192C1.20943 37.0192 1.4819 36.8031 1.4819 36.5562C1.4819 36.3092 1.44297 36.0932 1.40405 36.124C1.3262 36.124 1.05373 36.2166 0.820193 36.3092Z" fill="#EE4266"/>
<path fill-rule="evenodd" clip-rule="evenodd" d="M9.849 38.5934C9.45977 39.0564 9.96576 39.3651 10.4718 38.9638C10.7442 38.7477 10.7442 38.5625 10.5107 38.439C10.2771 38.3464 9.96577 38.4082 9.849 38.5934Z" fill="#EE4266"/>
<path fill-rule="evenodd" clip-rule="evenodd" d="M3.03906 42.4212C3.03906 42.5139 3.23366 42.9151 3.50613 43.2856C3.77859 43.656 4.01213 44.2425 4.08998 44.5821C4.2846 45.3846 4.82954 45.8168 5.14092 45.3846C5.29662 45.1994 5.21879 45.0451 4.98524 45.0451C4.71278 45.0451 4.59599 44.829 4.75169 44.5821C4.86846 44.3351 4.71276 43.9338 4.36245 43.6869C4.05106 43.4399 3.85644 43.0695 3.89536 42.8534C3.97321 42.6682 3.77861 42.4212 3.54507 42.3595C3.2726 42.2669 3.03906 42.2978 3.03906 42.4212Z" fill="#EE4266"/>
<path fill-rule="evenodd" clip-rule="evenodd" d="M6.15234 48.4094C6.15234 48.5637 6.34696 48.8107 6.54158 48.9033C6.77512 48.9959 6.93082 48.965 6.93082 48.7798C6.93082 48.6255 6.77512 48.3785 6.54158 48.2859C6.34696 48.1933 6.15234 48.2242 6.15234 48.4094Z" fill="#EE4266"/>
</svg>
