<svg width="332" height="11" viewBox="0 0 332 11" fill="none" xmlns="http://www.w3.org/2000/svg">
<path fill-rule="evenodd" clip-rule="evenodd" d="M78.0439 0.117277C78.0439 0.181248 77.7312 0.213244 77.3142 0.181259C76.8973 0.149273 76.4282 0.149271 76.2718 0.191918C76.0633 0.223903 75.2815 0.277213 74.5518 0.298536C73.77 0.31986 72.8319 0.415816 72.4149 0.511773C72.0501 0.607729 71.8416 0.629055 72.0501 0.554422C72.2064 0.490452 72.1543 0.426473 71.8416 0.426473C71.581 0.426473 71.2682 0.458466 71.164 0.501113C71.0598 0.554422 70.3301 0.70368 69.4962 0.852946C68.6623 1.00221 68.1411 1.05553 68.3495 0.980895C68.9229 0.778321 68.0889 0.83163 66.6817 1.08751C65.952 1.22612 65.5872 1.25809 65.7956 1.1728C66.2126 1.0342 66.1605 1.0342 65.2223 1.1728C64.7011 1.25809 64.0757 1.37537 63.8672 1.43935C63.6587 1.49265 63.2417 1.55662 62.929 1.55662C61.7302 1.58861 61.6781 1.60993 62.4078 1.70589C62.929 1.78052 62.9811 1.81251 62.5642 1.82317C62.1993 1.83383 61.6781 1.8445 61.3654 1.85516C61.1048 1.85516 60.8963 1.8978 61.0006 1.92979C61.209 2.04707 59.1764 2.45222 58.7073 2.38825C58.4467 2.35626 58.0818 2.40957 57.8733 2.51619C57.717 2.61214 56.8831 2.82538 56.0491 2.98531C55.2673 3.14524 54.5898 3.35848 54.5898 3.45443C54.5898 3.55039 54.3813 3.63568 54.0686 3.63568C53.808 3.64634 53.3389 3.65701 53.0783 3.66767C52.8177 3.66767 52.4007 3.72098 52.1401 3.77429C51.8795 3.83826 52.0359 3.83826 52.4528 3.78495C53.0262 3.72098 53.1304 3.7423 52.8698 3.88091C52.6613 3.98752 52.505 4.08347 52.505 4.11546C52.505 4.13678 52.1401 4.12613 51.7232 4.09414C51.2541 4.05149 50.785 4.1048 50.5765 4.22208C50.368 4.33936 49.7947 4.52061 49.2735 4.62723C48.8044 4.73385 48.4917 4.86179 48.5959 4.90444C48.7523 4.94708 48.179 5.01106 47.3972 5.04305C46.3026 5.09636 45.7293 5.04305 44.8433 4.81915C44.1657 4.65922 43.6445 4.48863 43.6445 4.42466C43.6445 4.29671 41.0906 3.83826 40.3609 3.83826C40.0482 3.83826 39.9961 3.80628 40.1524 3.76363C40.3609 3.73164 39.944 3.59304 39.2143 3.45443C38.4846 3.31583 38.1198 3.17722 38.4325 3.14524C38.7452 3.11325 38.9537 3.0173 38.9016 2.95333C38.9016 2.85738 38.7973 2.85738 38.5888 2.95333C38.4325 3.04929 38.0677 3.05994 37.4422 2.98531C36.921 2.932 36.3477 2.91067 36.2434 2.94266C36.0871 2.97465 35.8265 2.87869 35.618 2.72942C35.3574 2.51619 34.7841 2.4309 33.0641 2.3456C31.8653 2.29229 30.2496 2.16435 29.4678 2.08971C28.1648 1.95111 27.9563 1.95112 27.4872 2.11105C27.1745 2.22833 26.966 2.23899 26.966 2.1537C26.966 2.04708 26.3927 2.02574 24.5164 2.08971C21.2849 2.18567 19.9298 2.29229 18.5225 2.55884C17.8971 2.67612 17.0632 2.77207 16.6983 2.77207C16.3335 2.77207 16.0208 2.81472 16.0208 2.87869C16.0208 2.932 15.6559 2.98531 15.1868 2.98531C14.4572 2.98531 14.4572 3.0173 14.9784 3.14524C15.3432 3.23053 15.4474 3.31582 15.1868 3.31582C12.7893 3.37979 11.2778 3.55039 11.5905 3.69966C11.7469 3.81694 11.6427 3.83825 11.0693 3.79561C10.496 3.75296 10.0791 3.82759 9.76633 4.00884C9.45361 4.15811 8.88028 4.39268 8.4112 4.50996L7.57727 4.74451L7.94212 4.4993C8.30696 4.25407 8.30696 4.24341 7.31667 4.44599C6.74335 4.55261 6.53486 4.66987 6.74334 4.70186C6.95182 4.73385 6.84758 4.85113 6.43062 4.95775C5.90942 5.09635 5.8573 5.2243 6.17002 5.35224C6.48274 5.45886 6.43063 5.55481 6.11791 5.59746C5.85731 5.62944 5.59671 5.57614 5.59671 5.46952C5.59671 5.32025 5.49245 5.30959 5.12761 5.42687C4.86701 5.5015 4.45005 5.54414 4.13733 5.5015C3.87673 5.46951 3.51188 5.54415 3.3034 5.68276C2.83432 6.05592 2.93856 6.0879 4.08521 5.97062C5.07549 5.864 5.12761 5.86401 4.60641 6.05592C4.24157 6.19452 3.66825 6.24783 3.09492 6.21585C2.46948 6.18386 2.15676 6.23716 2.10464 6.39709C2.0004 6.57834 2.20888 6.61033 3.09492 6.54636C3.82461 6.50371 4.03308 6.52504 3.8246 6.59967C3.61612 6.66364 3.04281 6.71695 2.46949 6.71695C1.94829 6.71695 1.37495 6.79158 1.21859 6.88753C1.01011 6.99415 1.11436 7.02614 1.58344 6.97283C1.89616 6.93019 1.73979 6.99416 1.21859 7.1221C0.645266 7.25004 0.384671 7.38865 0.541032 7.4313C0.749513 7.46328 0.645276 7.55924 0.332554 7.64453C-0.136529 7.74049 -0.0844086 7.78313 0.332554 7.78313C0.645276 7.78313 0.90588 7.72982 0.90588 7.67651C0.90588 7.44195 1.84404 7.59122 2.10464 7.86843C2.31312 8.10299 2.67796 8.17761 3.61613 8.16695C4.86701 8.15629 6.58699 7.88975 6.27426 7.75115C6.17002 7.7085 6.48274 7.67651 7.00394 7.67651C7.52515 7.67651 8.25483 7.58055 8.56755 7.46327C9.14088 7.28202 9.08876 7.27137 8.30695 7.32468C7.73363 7.36733 7.94211 7.29269 8.88028 7.09011C9.66208 6.93018 10.2875 6.74893 10.2875 6.70629C10.2875 6.65298 10.6524 6.61033 11.0693 6.61033C11.4863 6.61033 11.8511 6.55702 11.8511 6.48239C11.8511 6.40776 12.4245 6.23716 13.102 6.0879C13.8317 5.92797 14.4571 5.74672 14.5614 5.66142C14.822 5.4162 16.4898 5.11767 17.5844 5.11767C18.1577 5.11767 18.6268 5.07503 18.6268 5.03239C18.6268 4.97908 19.2001 4.88312 19.9298 4.81915C21.5976 4.65922 21.9104 4.65922 21.4934 4.79782C21.1807 4.89378 22.2231 4.94708 23.7346 4.9151C24.0473 4.90443 24.36 4.93643 24.36 4.97908C24.36 5.03239 23.6824 5.07503 22.7964 5.06436C21.9625 5.06436 21.2328 5.03238 21.2328 4.98974C21.2328 4.8618 19.7734 4.89378 19.3565 5.03239C19.0959 5.10702 19.2001 5.11767 19.6692 5.06436C20.1904 5.00039 20.2946 5.03239 20.0861 5.19231C19.8777 5.35224 20.034 5.40554 20.6595 5.38422C21.1285 5.37356 21.8061 5.4482 22.171 5.56548C22.5358 5.6721 23.1091 5.7254 23.4218 5.69341C23.7867 5.65077 23.8388 5.67209 23.6303 5.73606C23.4218 5.80004 23.7346 5.91732 24.36 5.99195C24.9333 6.06658 25.4024 6.20519 25.4024 6.31181C25.4024 6.40776 25.8194 6.55703 26.3927 6.63166C26.9139 6.70629 27.383 6.8129 27.4351 6.87687C27.4351 6.93018 27.8521 7.06879 28.3211 7.17541C28.7381 7.29269 28.9987 7.39931 28.8945 7.4313C28.7381 7.45262 29.2072 7.59121 29.9369 7.74048C30.6666 7.88974 31.0835 8.071 30.9793 8.15629C30.8229 8.23093 31.0314 8.32688 31.4484 8.35887C31.8653 8.39085 32.1781 8.49747 32.1781 8.58277C32.1781 8.67872 32.4387 8.72137 32.6993 8.68938C33.012 8.6574 33.2205 8.68939 33.2205 8.76402C33.2205 8.85998 33.3768 8.85997 33.7417 8.74269C34.1586 8.61475 34.2629 8.63608 34.2629 8.82799C34.2629 8.98792 34.6277 9.1052 35.3053 9.13719C35.8786 9.16917 36.1913 9.23313 36.035 9.28644C35.7744 9.3824 37.1295 9.4677 39.8918 9.53167C41.0906 9.55299 41.5597 9.52101 41.5597 9.40373C41.5597 9.28645 41.1427 9.26513 39.7355 9.30777C37.2858 9.39307 37.4422 9.30777 39.944 9.16917C41.0906 9.10519 42.4979 8.97726 43.1233 8.87064C44.1657 8.70005 44.2178 8.66806 43.436 8.54012C42.7064 8.41217 42.6021 8.42284 42.6021 8.61476C42.6021 8.73204 42.2373 8.84932 41.8724 8.8813C41.2991 8.92395 41.1949 8.89197 41.3512 8.76402C41.6118 8.6041 41.5597 8.60409 40.9342 8.75335C40.2567 8.92394 38.6931 8.91328 39.2143 8.74269C39.3706 8.68938 38.9016 8.66806 38.1198 8.68938C37.2858 8.70005 36.921 8.66806 37.0252 8.59342C37.1816 8.51879 36.8168 8.46549 36.2956 8.46549C35.0968 8.46549 35.0447 8.50813 36.2434 8.78534C36.921 8.95593 36.921 8.97726 36.2956 8.87064C35.8265 8.80667 35.3053 8.77469 35.1489 8.81733C34.9404 8.84932 34.7841 8.78535 34.7841 8.65741C34.7841 8.40152 35.6701 8.25225 37.0774 8.30556C37.807 8.32688 37.9634 8.2949 37.7028 8.15629C37.4422 8.00703 37.5986 7.98571 38.4846 8.02836C39.1101 8.06034 40.1525 8.04967 40.83 7.99637C41.6118 7.93239 42.0809 7.93239 42.0809 7.99637C42.0809 8.06034 41.7682 8.10298 41.3512 8.10298C39.8919 8.10298 40.1003 8.26291 41.6118 8.27357C42.3936 8.28423 42.967 8.24159 42.8106 8.19894C42.6542 8.14563 42.8106 8.10298 43.1233 8.10298C43.4881 8.10298 43.853 8.19894 44.0094 8.31622C44.3221 8.5721 44.6348 8.58277 46.0421 8.36953C46.6675 8.28423 47.2929 8.25226 47.5014 8.28424C47.6578 8.31623 47.8141 8.2949 47.8141 8.23093C47.8141 8.1563 48.0747 8.10298 48.3353 8.10298C48.6481 8.10298 48.596 8.22027 48.1269 8.40152C47.6057 8.60409 46.9281 8.70005 45.9378 8.72137C44.4784 8.7427 42.8106 8.95593 44.0615 8.95593C44.5827 8.95593 44.5827 9.00925 44.1136 9.1905C43.6966 9.35398 43.853 9.36818 44.5827 9.23313C45.2081 9.12652 45.573 8.98792 45.4166 8.94527C45.2602 8.89196 45.5208 8.84931 45.9899 8.84931C46.5111 8.84931 46.6675 8.89197 46.4069 8.97726C46.1984 9.05189 46.9281 8.93461 48.0226 8.71072C49.1693 8.49748 50.2638 8.31622 50.5244 8.31622C50.785 8.31622 51.2019 8.19894 51.4626 8.04967C51.7232 7.90041 52.2444 7.7938 52.6092 7.80446C52.974 7.82578 53.2868 7.78313 53.2868 7.72982C53.4952 7.47394 54.2249 7.25004 55.0067 7.25004C55.4237 7.25004 55.6843 7.22871 55.5279 7.19673C55.2673 7.14342 59.4369 6.23717 60.2188 6.16254C61.0527 6.09857 63.8151 5.48018 63.6066 5.40555C63.5023 5.3629 64.0235 5.2776 64.8575 5.21363C65.6393 5.16032 67.255 4.92576 68.4016 4.70186C71.2683 4.13678 72.5713 4.09414 74.4476 4.47796C75.2815 4.64855 75.9591 4.84047 75.9591 4.90444C75.9591 4.96841 76.1676 5.00039 76.4282 4.95775C76.6888 4.92576 77.0015 5.01106 77.1057 5.13901C77.21 5.27761 77.5748 5.38422 77.9396 5.38422C78.3045 5.38422 79.0342 5.52282 79.6075 5.70407C80.7542 6.05591 80.9626 6.23716 80.1287 6.13055C79.1384 6.0026 79.6075 6.38644 80.6499 6.5357C81.2232 6.621 81.5359 6.71695 81.3275 6.74894C80.9626 6.83423 83.725 7.67651 84.3505 7.67651C84.6111 7.67651 84.8195 7.75114 84.8195 7.8471C84.8195 8.08166 86.748 8.56144 87.1649 8.42284C87.3213 8.36953 87.7904 8.31622 88.1031 8.31622C88.5722 8.31622 88.5722 8.33755 88.1031 8.40152C87.6861 8.45483 87.6862 8.52946 88.2595 8.67872C88.6765 8.796 88.9892 8.82798 88.9892 8.75335C88.9892 8.67872 89.2498 8.6574 89.5104 8.68938C89.8231 8.73203 89.9794 8.828 89.9273 8.92395C89.6667 9.17984 91.3867 9.35042 92.6376 9.20116C93.4715 9.08388 93.5757 9.09454 93.3151 9.24381C93.1067 9.35042 93.2109 9.39307 93.5236 9.35042C93.8363 9.30778 94.3575 9.35042 94.7224 9.43571C95.1915 9.55299 95.5563 9.56365 96.0254 9.48902C96.3902 9.42505 96.9115 9.3824 97.1199 9.39306C97.3805 9.40372 98.006 9.40372 98.5272 9.39306C99.4132 9.3824 99.4132 9.36108 98.6835 9.22248C97.5369 8.98791 98.6314 8.63607 100.456 8.64673C101.654 8.64673 101.654 8.6574 100.716 8.74269C99.8302 8.81733 99.8302 8.83865 100.612 8.83865C101.081 8.84931 101.654 8.85998 101.863 8.87064C102.019 8.89197 102.228 8.81733 102.332 8.72137C102.384 8.61476 101.967 8.51879 101.133 8.47615C99.9344 8.42284 99.8823 8.40151 100.612 8.16695C101.394 7.93239 101.342 7.92174 100.143 7.97505C99.1526 8.00703 98.9442 7.98571 99.2048 7.85777C99.6217 7.61255 101.759 7.80446 101.811 8.09232C101.915 8.47615 102.384 8.45482 102.749 8.06033C102.957 7.86842 103.479 7.63387 104 7.55923C104.782 7.43129 104.834 7.43129 104.26 7.58055C103.479 7.78313 102.957 8.56144 103.635 8.47615C103.896 8.4335 104.104 8.33755 104.104 8.25225C104.104 8.16696 104.469 8.071 104.886 8.03901C105.303 7.99637 105.668 7.91107 105.668 7.83644C105.668 7.76181 106.137 7.67652 106.71 7.64453C107.388 7.61255 107.857 7.46327 108.065 7.2607C108.274 7.06878 108.534 6.94085 108.639 6.96217C108.743 6.99416 109.942 6.80224 111.297 6.54636C112.756 6.26915 113.851 6.13054 114.059 6.19452C114.476 6.34378 114.945 6.18386 114.789 5.93864C114.632 5.77871 115.154 5.70408 116.248 5.74672C116.509 5.75739 116.561 5.71473 116.404 5.66142C115.987 5.52282 117.499 5.29892 118.229 5.39488C118.698 5.44819 118.75 5.41621 118.541 5.29893C118.124 5.07503 119.167 4.93642 119.792 5.12833C120.157 5.24561 120.261 5.24562 120.261 5.13901C120.261 5.06437 120.783 4.96841 121.46 4.9151C123.128 4.78715 127.037 5.22429 127.037 5.54415C127.037 5.60812 127.245 5.6401 127.454 5.60811C127.662 5.58679 127.923 5.65076 127.923 5.76804C127.975 5.87466 128.392 6.04525 128.809 6.14121C129.278 6.2265 129.643 6.35444 129.643 6.40775C129.643 6.56768 131.415 6.93018 132.249 6.93018C132.77 6.93018 132.822 6.96217 132.457 7.01548C132.041 7.06879 132.353 7.18606 133.344 7.36732C134.177 7.52724 134.855 7.6232 134.855 7.58055C134.855 7.54857 135.116 7.59122 135.376 7.67651C135.793 7.81511 135.897 7.80446 135.897 7.64453C135.897 7.54858 136.21 7.46327 136.575 7.46327C136.992 7.46327 136.94 7.42063 136.419 7.35666C135.845 7.28202 135.793 7.25004 136.314 7.25004C136.731 7.25004 137.148 7.34599 137.305 7.46327C137.461 7.58055 137.826 7.67651 138.086 7.67651C138.347 7.67651 138.399 7.6232 138.243 7.56989C138.034 7.50592 138.503 7.46327 139.233 7.46327C139.963 7.46327 140.64 7.50592 140.64 7.56989C140.693 7.6232 140.745 7.74049 140.797 7.80446C140.901 7.94306 142.152 7.9324 142.673 7.80446C142.829 7.76181 143.351 7.71917 143.924 7.69784C144.445 7.67652 145.383 7.55924 146.009 7.44196C146.582 7.31401 146.791 7.25004 146.478 7.29269C146.113 7.33533 145.8 7.31401 145.8 7.25004C145.8 7.16474 146.269 7.14342 146.999 7.18607C147.833 7.22872 148.406 7.17541 148.928 7.0368C149.292 6.93018 149.866 6.86622 150.126 6.89821C150.387 6.93019 151.273 6.80224 152.055 6.62099C152.889 6.43974 153.879 6.29047 154.296 6.29047C154.713 6.29047 155.443 6.19452 155.964 6.07724C156.485 5.95996 157.423 5.864 158.049 5.864C158.726 5.864 159.352 5.78937 159.56 5.70407C159.716 5.61878 160.081 5.54415 160.394 5.54415C160.707 5.54415 160.863 5.5868 160.707 5.62945C160.602 5.67209 161.176 5.7254 162.01 5.73606C162.948 5.74673 163.521 5.70408 163.521 5.62945C163.573 5.54415 163.834 5.56548 164.251 5.6721C164.616 5.77871 165.137 5.864 165.345 5.864C165.971 5.864 170.87 6.62099 172.955 7.0368C176.134 7.67651 179.157 8.1243 179.939 8.06033C180.356 8.02835 180.825 8.04967 180.981 8.11364C181.19 8.16695 181.555 8.18828 181.815 8.15629C182.076 8.11365 182.284 8.16696 182.284 8.25225C182.284 8.33755 182.493 8.4335 182.754 8.46549C183.535 8.57211 184.891 8.41218 184.891 8.23093C184.891 8.09233 185.047 8.10298 185.672 8.27357C186.089 8.38019 186.454 8.42284 186.454 8.36953C186.454 8.30556 186.61 8.31622 186.871 8.38019C187.392 8.54012 191.979 8.30556 191.822 8.13497C191.718 8.06034 192.031 8.02835 192.604 8.06033C193.23 8.10298 193.126 8.06033 192.239 7.90041C190.884 7.64452 191.041 7.6232 192.917 7.79379C193.959 7.90041 194.481 7.87909 195.836 7.67651C197.087 7.49526 197.347 7.40997 196.774 7.346C196.409 7.29269 195.679 7.28202 195.21 7.31401C194.689 7.34599 194.272 7.32468 194.272 7.27137C194.272 7.11144 195.471 7.05813 196.409 7.17541C197.243 7.28203 200.527 7.06879 200.527 6.91952C200.527 6.87688 200.944 6.82357 201.465 6.80225C202.559 6.73828 202.82 6.39709 201.725 6.39709C201.361 6.39709 201.048 6.34379 201.048 6.27981C201.048 6.22651 201.256 6.19452 201.517 6.22651C201.777 6.25849 202.09 6.18386 202.247 6.06658C202.42 5.92442 202.194 5.9102 201.569 6.02393C200.527 6.21584 199.745 6.65298 200.631 6.5357C200.996 6.50372 201.048 6.52504 200.839 6.58901C200.631 6.66364 199.849 6.70629 199.067 6.70629C198.181 6.69563 197.973 6.6743 198.598 6.64232C199.171 6.61033 199.484 6.49305 199.484 6.27981C199.484 6.10923 199.641 5.98128 199.901 5.98128C200.891 6.01326 201.621 5.95995 201.361 5.87466C201.152 5.82135 201.465 5.78937 201.934 5.81069C202.455 5.83202 203.185 5.85334 203.55 5.85334C204.331 5.864 204.383 6.20518 203.55 6.37577C203.185 6.45041 203.133 6.50371 203.341 6.50371C204.123 6.50371 205.791 6.04525 205.53 5.90665C205.374 5.81069 205.739 5.78937 206.833 5.81069C207.719 5.84268 208.24 5.81069 208.084 5.75738C207.876 5.69341 208.188 5.65076 208.762 5.65076C209.283 5.65076 210.169 5.56548 210.742 5.45886C211.316 5.35224 212.045 5.27761 212.41 5.30959C212.723 5.33092 214.234 5.29892 215.746 5.23495C218.039 5.12833 218.508 5.139 218.873 5.2776C219.134 5.3629 219.603 5.43753 219.967 5.43753C220.332 5.43753 220.854 5.52283 221.114 5.62945C222.052 5.98129 224.71 6.71695 226.639 7.14342C227.681 7.36732 228.463 7.58056 228.359 7.60188C228.098 7.65519 231.538 8.2096 232.059 8.2096C232.216 8.2096 232.841 8.30556 233.467 8.42284C234.301 8.58277 234.77 8.60409 235.291 8.5188C235.812 8.42284 235.968 8.43351 235.968 8.56145C235.968 8.75336 237.376 8.8813 237.845 8.73203C238.053 8.6574 238.366 8.66806 238.835 8.74269C239.356 8.82799 239.825 8.82798 240.607 8.75335C241.18 8.68938 242.119 8.63607 242.692 8.63607C243.265 8.63607 244.047 8.56144 244.516 8.47615C244.933 8.39085 245.611 8.31622 245.975 8.31622C246.497 8.31622 246.445 8.28423 245.871 8.2096C245.246 8.12431 245.298 8.10298 246.288 8.10298C246.966 8.10298 247.435 8.04968 247.331 7.96439C247.226 7.90042 247.331 7.83644 247.539 7.83644C248.269 7.83644 249.989 7.4313 249.676 7.32468C249.468 7.26071 249.78 7.23938 250.406 7.27137C251.709 7.346 255.044 6.69563 254.419 6.49305C254.211 6.41842 254.263 6.39709 254.627 6.43974C254.94 6.47173 255.514 6.43974 255.878 6.35444C256.295 6.27981 257.338 6.13054 258.276 6.03459C259.214 5.93863 259.944 5.82136 259.944 5.77871C259.944 5.73607 260.726 5.70407 261.716 5.70407C262.706 5.70407 263.384 5.73606 263.279 5.76804C262.967 5.87466 264.426 6.0879 264.791 6.00261C264.999 5.97062 265.156 5.99195 265.156 6.06658C265.156 6.14121 265.677 6.29047 266.355 6.40775C267.084 6.52503 267.241 6.59967 266.771 6.61033C265.885 6.61033 267.293 7.07945 269.169 7.40997C269.847 7.52725 270.368 7.68718 270.368 7.75115C270.368 7.92174 272.348 8.14564 274.016 8.17762C274.746 8.18829 275.371 8.25225 275.476 8.31622C275.58 8.36953 275.945 8.39086 276.257 8.34821C276.57 8.30556 276.674 8.34821 276.466 8.45483C276.257 8.57211 276.57 8.63607 277.613 8.68938C279.645 8.77468 281.886 8.64674 283.346 8.34821C284.023 8.22027 284.805 8.10298 285.066 8.10298C285.326 8.10298 285.378 8.04967 285.222 7.99637C285.066 7.93239 284.649 7.88975 284.388 7.88975C284.075 7.88975 283.971 7.9324 284.18 7.98571C284.492 8.10299 282.46 8.36953 281.991 8.27357C281.782 8.24158 281.313 8.27358 280.896 8.33755C280.01 8.48682 278.707 8.54012 278.707 8.4335C278.707 8.38019 279.332 8.25225 280.062 8.14563C280.792 8.03901 281.73 7.88975 282.095 7.81512C282.46 7.74049 282.929 7.71916 283.189 7.76181C283.45 7.80446 283.294 7.74048 282.877 7.63386C282.46 7.51658 282.355 7.45262 282.72 7.49527C283.033 7.53791 283.658 7.50592 284.075 7.42062C284.492 7.33533 284.961 7.28202 285.118 7.31401C285.274 7.35665 285.9 7.31401 286.473 7.22872C287.098 7.14342 287.411 7.03681 287.203 7.00482C287.046 6.96218 287.151 6.93018 287.463 6.93018C287.776 6.93018 287.984 7.02614 287.932 7.14342C287.88 7.27136 287.567 7.346 287.046 7.32468C286.577 7.31402 286.317 7.36733 286.421 7.48461C286.577 7.69784 285.691 7.74049 285.326 7.53791C285.118 7.44196 284.909 7.45261 284.492 7.56989C284.075 7.68717 284.232 7.76181 285.118 7.85777C286.108 7.96439 286.525 7.94306 287.932 7.71916C288.818 7.58056 289.809 7.46327 290.069 7.46327C290.33 7.46327 290.851 7.38864 291.216 7.30335C291.581 7.20739 291.633 7.14342 291.32 7.14342C291.06 7.14342 290.643 7.05813 290.434 6.95151C290.173 6.81291 290.278 6.80225 290.747 6.89821C291.06 6.96218 291.685 6.99416 292.05 6.96217C292.467 6.93019 292.884 6.9835 293.092 7.06879C293.301 7.19673 293.718 7.20739 294.916 7.14342C295.75 7.09011 296.428 7.07945 296.428 7.1221C296.428 7.16475 297.21 7.18607 298.096 7.18607C299.086 7.17541 299.764 7.11143 299.711 7.04746C299.607 6.98349 299.816 6.93018 300.128 6.93018C300.441 6.93018 300.545 7.02614 300.337 7.14342C300.024 7.35666 300.441 7.40996 302.057 7.36732C302.422 7.35665 302.63 7.40997 302.578 7.48461C302.474 7.54858 302.682 7.6232 302.943 7.6232C304.559 7.66585 306.279 7.81511 306.07 7.90041C305.914 7.94305 306.279 7.96438 306.852 7.94306C307.53 7.92173 307.894 7.95372 307.894 8.06033C307.894 8.14563 308.103 8.19894 308.363 8.16695C308.624 8.1243 308.937 8.15629 309.041 8.22026C309.145 8.28423 309.875 8.33755 310.657 8.33755C311.439 8.33755 312.325 8.41217 312.637 8.48681C312.95 8.5721 313.68 8.63607 314.201 8.63607C314.774 8.63607 315.191 8.66807 315.191 8.71072C315.191 8.76402 315.765 8.84932 316.494 8.92395C317.224 8.98792 317.693 8.99858 317.537 8.95593C317.38 8.90262 317.537 8.84932 317.901 8.82799C318.214 8.80667 318.318 8.72137 318.11 8.64673C317.797 8.56144 317.537 8.55078 317.015 8.63607C316.546 8.71071 316.182 8.70005 315.712 8.58277C315.139 8.44416 315.348 8.42284 317.015 8.42284C318.683 8.42284 318.892 8.40152 318.266 8.25225C317.797 8.13497 317.485 8.12431 317.38 8.2096C317.224 8.28423 316.807 8.26292 316.077 8.13497C315.139 7.96439 315.035 7.96439 315.348 8.12432C315.556 8.25226 315.452 8.28424 314.878 8.24159C313.367 8.12431 314.201 7.94306 316.077 7.98571C316.39 7.99637 316.807 7.95372 317.015 7.88975C317.172 7.83644 317.589 7.78313 317.849 7.78313C318.162 7.78313 318.266 7.82578 318.058 7.87909C317.902 7.94306 318.214 7.97505 318.788 7.96439C319.482 7.95728 319.5 7.88975 318.84 7.76181C317.537 7.50593 316.025 7.50593 316.442 7.75115C316.703 7.91108 316.599 7.90041 315.973 7.72982C315.452 7.60188 315.348 7.50593 315.712 7.48461C315.973 7.46328 316.234 7.35666 316.234 7.25004C316.234 7.14342 316.494 7.01548 316.755 6.98349C317.12 6.94085 317.224 7.00482 316.963 7.18607C316.651 7.44195 316.755 7.46327 318.318 7.46327C319.257 7.46327 319.83 7.50592 319.621 7.56989C319.413 7.63386 319.986 7.67651 320.977 7.67651C322.54 7.67651 322.592 7.68718 321.706 7.81512C320.977 7.9324 320.924 7.9857 321.446 8.04967C321.915 8.10298 322.019 8.09232 321.758 8.00702C321.498 7.93239 321.967 7.86843 323.009 7.81512C323.947 7.78313 324.781 7.68718 324.938 7.61254C325.094 7.52725 325.615 7.46327 326.084 7.46327C326.71 7.46327 326.762 7.4846 326.241 7.55923C325.667 7.6232 325.72 7.66585 326.449 7.71916C327.596 7.80446 328.482 7.63386 328.013 7.40997C327.804 7.29269 327.387 7.25004 326.762 7.30335C326.084 7.35666 326.032 7.33533 326.501 7.23938C326.97 7.14342 327.492 7.15408 328.795 7.29269C330.879 7.50592 330.827 7.50592 330.827 7.23938C330.827 7.10077 331.036 7.04746 331.505 7.10077C331.818 7.14342 331.766 7.11144 331.349 7.02614C330.932 6.94085 330.306 6.80224 329.941 6.71695C329.368 6.57834 329.316 6.57835 329.576 6.73828C329.785 6.87688 329.629 6.8982 328.795 6.85556C328.169 6.82357 327.7 6.74894 327.7 6.69563C327.7 6.64232 327.909 6.62099 328.169 6.66364C328.43 6.69562 328.795 6.6743 329.003 6.62099C329.16 6.55702 329.681 6.54637 330.15 6.57835C330.619 6.621 330.879 6.59967 330.671 6.54636C330.515 6.48239 330.775 6.37577 331.296 6.30113C332.235 6.16253 332.235 5.65076 331.296 5.65076C331.036 5.65076 330.984 5.5868 331.14 5.51217C331.296 5.42687 330.775 5.2776 330.046 5.16032C329.316 5.05371 328.743 4.87246 328.743 4.76584C328.743 4.58459 328.69 4.58459 327.909 4.73385C327.179 4.88312 326.97 4.87245 325.72 4.63789C324.938 4.48863 324.156 4.37135 324 4.37135C323.322 4.37135 320.82 3.81694 320.716 3.64635C320.612 3.52907 319.674 3.41178 318.006 3.31582C316.598 3.24119 314.879 3.08127 314.201 2.97465C312.846 2.75075 311.803 2.7081 312.377 2.88935C312.585 2.97465 312.325 2.98531 311.491 2.932C310.813 2.88935 310.031 2.8467 309.719 2.83604C309.458 2.83604 308.885 2.76142 308.52 2.68679C307.582 2.5162 306.748 2.52685 306.956 2.7081C307.06 2.7934 306.904 2.86803 306.591 2.85737C306.331 2.85737 306.122 2.81472 306.174 2.77207C306.227 2.72943 305.966 2.65479 305.549 2.62281C305.132 2.59082 304.767 2.62282 304.767 2.68679C304.767 2.76142 304.559 2.76142 304.142 2.69745C303.568 2.61215 300.128 2.59082 299.711 2.66546C299.451 2.7081 298.513 2.74009 297.418 2.76141C296.636 2.77208 296.428 2.82538 296.636 2.932C296.845 3.05994 296.584 3.08127 295.333 3.03862C294.03 2.98531 293.666 3.0173 293.457 3.19855C293.301 3.31583 292.936 3.41178 292.675 3.41178C292.415 3.41178 292.31 3.36913 292.467 3.31582C292.623 3.27318 292.154 3.25186 291.477 3.28385C290.799 3.30517 290.278 3.3798 290.33 3.45443C290.382 3.5184 290.069 3.57171 289.652 3.57171C289.235 3.57171 288.558 3.61436 288.245 3.65701C287.828 3.71032 287.567 3.68899 287.567 3.62502C287.567 3.56105 287.359 3.52906 287.098 3.57171C286.786 3.6037 286.421 3.56105 286.16 3.47575C285.952 3.39046 285.535 3.31582 285.222 3.31582C284.961 3.30516 284.701 3.26252 284.701 3.19855C284.701 3.14524 284.023 2.95332 283.241 2.77207C282.408 2.59082 281.678 2.38826 281.626 2.31362C281.417 2.00443 279.749 1.74854 279.749 2.02575C279.749 2.07906 280.114 2.13236 280.583 2.13236C281 2.13236 281.209 2.18567 281.052 2.24964C280.635 2.37758 278.707 2.0684 278.863 1.89781C278.915 1.8445 278.499 1.73788 277.925 1.67391C277.352 1.59928 276.779 1.52464 276.622 1.49265C276.466 1.46067 275.684 1.41803 274.85 1.40737C273.964 1.39671 273.182 1.34339 272.974 1.29008C272.817 1.22611 271.931 1.19413 271.045 1.19413C269.794 1.20479 269.482 1.24744 269.69 1.37538C269.951 1.52464 269.899 1.52464 269.065 1.37538C268.335 1.22611 267.814 1.21546 266.511 1.30075C265.625 1.35406 263.488 1.482 261.768 1.58861C259.996 1.69523 258.693 1.82318 258.745 1.89781C258.849 1.97244 258.536 2.02575 258.12 2.02575C257.703 2.02575 257.338 2.10038 257.338 2.19633C257.338 2.28163 257.129 2.33494 256.921 2.30295C256.4 2.23898 254.21 2.62281 254.21 2.76141C254.21 2.81472 253.585 2.88936 252.803 2.92134C252.074 2.96399 250.979 3.11325 250.458 3.26251C249.885 3.40112 249.155 3.5184 248.738 3.5184C248.373 3.5184 247.8 3.59303 247.383 3.68899C246.809 3.83825 246.705 3.83826 246.236 3.66767C245.819 3.52907 245.663 3.5184 245.298 3.63568C244.933 3.75296 244.829 3.75296 244.829 3.61436C244.829 3.5184 244.36 3.35847 243.786 3.25186C243.213 3.14524 242.744 2.99598 242.744 2.91068C242.744 2.82539 242.536 2.78274 242.275 2.81472C242.014 2.84671 241.389 2.75075 240.92 2.60149C240.294 2.40957 240.242 2.3456 240.711 2.39891C241.128 2.44156 240.92 2.37759 240.242 2.27097C239.408 2.13237 239.148 2.00442 239.356 1.86582C239.617 1.72721 239.565 1.69524 239.252 1.78053C238.627 1.96178 236.75 1.69523 236.75 1.42869C236.75 1.30074 236.177 1.19412 235.187 1.13015C234.353 1.07684 232.841 0.959572 231.851 0.874277C230.913 0.788983 229.818 0.714339 229.505 0.703678C229.193 0.693016 228.672 0.661038 228.411 0.618391C228.098 0.575743 226.013 0.565076 223.72 0.5864C219.498 0.618386 214.338 0.90626 213.609 1.15148C213.088 1.33273 209.596 1.7059 209.179 1.63126C209.022 1.58862 208.866 1.6206 208.866 1.69523C208.866 1.78053 208.449 1.80185 207.719 1.76986C207.042 1.73787 206.833 1.73787 207.198 1.76986C207.667 1.81251 207.406 1.8978 206.26 2.03641C205.374 2.15369 204.436 2.21766 204.227 2.19633C203.81 2.14302 201.204 2.64413 201.465 2.72942C201.882 2.88935 201.413 2.98531 200.318 2.92134C199.484 2.87869 199.015 2.91068 198.807 3.02796C197.973 3.47576 192.656 3.62502 191.145 3.2412C190.78 3.16656 190.311 3.12391 190.05 3.1559C189.79 3.18788 189.581 3.1559 189.581 3.09193C189.581 3.02796 189.008 2.86804 188.33 2.7401C187.184 2.5162 186.975 2.45223 186.975 2.26031C186.975 2.21767 186.767 2.24965 186.506 2.33494C186.141 2.45222 185.829 2.45222 184.838 2.30295C184.161 2.20699 183.848 2.13236 184.161 2.13236C184.421 2.13236 184.995 2.19634 185.36 2.26031C185.881 2.36693 185.881 2.34561 185.36 2.1537C184.943 2.02575 184.265 1.9298 183.796 1.94046C183.327 1.96178 182.962 1.9298 182.91 1.88715C182.858 1.72722 181.034 1.50332 179.835 1.49265C179.209 1.49265 178.532 1.43935 178.323 1.37538C178.115 1.31141 177.281 1.29008 176.239 1.33273C174.779 1.38604 174.519 1.36471 174.779 1.22611C175.04 1.08751 174.727 1.05552 172.851 1.07684C169.515 1.09816 164.564 1.30075 164.876 1.40737C165.033 1.45002 164.251 1.49265 163.156 1.49265C161.853 1.49265 161.436 1.52464 161.853 1.58861C162.427 1.66325 162.427 1.68457 161.801 1.73788C161.384 1.76987 160.759 1.73788 160.394 1.67391C159.873 1.57796 159.821 1.57796 160.081 1.67391C160.29 1.74855 160.186 1.81251 159.925 1.81251C159.612 1.81251 159.352 1.76986 159.352 1.70589C159.352 1.65258 158.987 1.63127 158.518 1.67391C157.892 1.71656 157.892 1.7592 158.361 1.81251C158.778 1.87648 158.674 1.92979 157.892 2.01509C157.11 2.10038 156.746 2.10039 156.589 1.99377C156.381 1.91914 156.276 1.92979 156.276 2.03641C156.224 2.14302 155.338 2.29229 154.192 2.38825C153.045 2.47354 151.69 2.64413 151.169 2.76141C149.918 3.02796 147.364 3.02796 147.364 2.76141C147.364 2.6548 146.895 2.50553 146.321 2.4309C145.748 2.35627 145.279 2.23898 145.279 2.17501C145.279 2.10038 144.237 1.88714 142.934 1.69523C141.683 1.49266 140.588 1.24744 140.588 1.15148C140.588 0.938245 138.139 0.650376 136.106 0.618391C135.376 0.597067 134.594 0.533096 134.49 0.458463C134.334 0.383831 134.021 0.341178 133.813 0.373164C133.552 0.405149 133.239 0.383823 133.083 0.330514C132.927 0.287867 131.832 0.277207 130.581 0.319855C129.382 0.373164 128.079 0.383831 127.715 0.351845C127.35 0.31986 127.037 0.351843 127.037 0.415814C127.037 0.479785 126.881 0.522434 126.672 0.511773C125.578 0.447802 122.867 0.650371 122.867 0.799637C122.867 0.884931 122.607 0.959564 122.294 0.959564C122.033 0.959564 121.929 1.01287 122.086 1.06618C122.294 1.14081 121.981 1.16214 121.095 1.10883C120.261 1.06618 119.74 1.08751 119.74 1.15148C119.74 1.21545 119.219 1.30074 118.593 1.34339C117.395 1.42868 117.03 1.43935 115.727 1.47134C115.362 1.482 115.049 1.54596 115.049 1.60993C115.049 1.69523 115.362 1.68457 115.987 1.58861C116.509 1.50332 116.457 1.54597 115.779 1.69523C115.206 1.82317 114.268 1.94045 113.798 1.96178C113.277 1.97244 112.704 2.04707 112.495 2.1217C112.287 2.19634 111.87 2.23898 111.609 2.22832C110.515 2.18568 110.254 2.24965 110.932 2.42024C111.297 2.52686 111.401 2.58017 111.192 2.53752C110.932 2.49487 110.411 2.53752 109.994 2.64414C109.507 2.75786 109.351 2.75431 109.525 2.63348C109.681 2.5162 109.629 2.46288 109.316 2.50553C109.003 2.53751 108.795 2.66546 108.795 2.7934C108.795 2.93201 108.534 2.98532 108.065 2.95333C107.544 2.91068 107.388 2.94266 107.596 3.04928C107.752 3.14523 107.544 3.19855 106.919 3.19855C106.137 3.19855 106.085 3.21987 106.658 3.29451C107.388 3.39046 107.023 3.62502 106.137 3.62502C105.824 3.62502 105.772 3.56106 105.98 3.48642C106.293 3.40113 106.137 3.40112 105.511 3.50774C104.886 3.61436 104.782 3.69965 105.146 3.84891C105.563 4.00884 105.511 4.03017 104.938 3.98752C104.521 3.95554 103.948 4.01951 103.583 4.15811C103.27 4.27539 102.801 4.35002 102.54 4.31804C102.28 4.28605 101.967 4.30738 101.759 4.37135C101.185 4.56326 100.456 4.37135 100.456 4.04083C100.456 3.83826 100.195 3.73164 99.6738 3.73164C99.2047 3.73164 98.892 3.63568 98.892 3.50774C98.892 3.26252 97.3284 2.66546 96.7029 2.66546C96.4945 2.66546 96.286 2.61215 96.286 2.53752C96.286 2.47355 95.6606 2.24965 94.9309 2.05774C93.9406 1.79119 93.4194 1.71656 93.0024 1.80185C92.6897 1.86582 92.2206 1.91913 91.96 1.91913C91.6994 1.91913 91.9079 1.8445 92.3249 1.74854C93.3152 1.54597 92.9503 1.37537 91.6994 1.45C90.9697 1.50331 90.9176 1.49265 91.5952 1.3967C92.2727 1.29008 92.2727 1.26876 91.5952 1.1728C91.1782 1.11949 91.0218 1.06618 91.2303 1.06618C91.4909 1.06618 91.1782 0.916919 90.5528 0.735668C89.771 0.522432 89.0413 0.426481 88.2595 0.447804C87.6862 0.458466 86.8522 0.437132 86.4874 0.383823C86.1225 0.341176 85.6535 0.31986 85.5492 0.351845C85.3929 0.383831 84.4547 0.341181 83.4644 0.255886C82.422 0.170592 81.119 0.127939 80.2851 0.170587C79.3469 0.223896 79.0342 0.213234 79.2948 0.117277C79.5033 0.0533065 79.3469 0 78.8778 0C78.4088 0 78.0439 0.0533065 78.0439 0.117277ZM139.025 0.980895C139.025 1.04487 138.712 1.0342 138.243 0.959564C137.826 0.884931 137.461 0.810301 137.461 0.788977C137.461 0.767654 137.826 0.77831 138.243 0.810296C138.66 0.852943 139.025 0.927586 139.025 0.980895ZM63.9193 2.08971C63.6066 2.17501 63.1375 2.21766 62.9812 2.17501C62.8248 2.13237 62.9811 2.07906 63.346 2.05774C63.6587 2.02575 63.8151 1.95112 63.6587 1.89781C63.4502 1.82318 63.5545 1.81251 63.9193 1.85516C64.3884 1.91913 64.3884 1.97243 63.9193 2.08971ZM108.951 3.25186C108.795 3.34781 108.534 3.40112 108.43 3.36913C108.274 3.33715 108.326 3.27318 108.534 3.20921C109.003 3.03862 109.316 3.0706 108.951 3.25186ZM162.792 4.22208C162.792 4.31803 163.052 4.42466 163.469 4.45665C163.99 4.48863 164.095 4.45664 163.886 4.3287C163.678 4.22208 163.73 4.16877 164.042 4.21142C164.355 4.2434 164.564 4.35002 164.564 4.42466C164.564 4.50995 164.876 4.5526 165.241 4.52061C166.023 4.46731 168.212 4.85113 168.16 5.04305C168.16 5.139 168.056 5.13901 167.847 5.03239C167.743 4.96842 167.274 4.90444 166.857 4.90444C166.44 4.90444 165.971 4.84047 165.814 4.76584C165.502 4.59525 163.938 4.59525 162.896 4.76584C162.531 4.81915 161.853 4.9151 161.436 4.95775C160.759 5.03238 160.759 5.02172 161.332 4.88312C161.905 4.73385 161.749 4.73385 159.873 4.82981C158.726 4.89378 158.049 4.97907 158.309 5.01106C158.57 5.04304 158.309 5.12834 157.788 5.20297C156.902 5.30959 156.746 5.30959 156.746 5.16032C156.746 4.95775 155.13 5.0004 154.765 5.21363C154.609 5.29893 154.765 5.33092 155.078 5.29893C155.859 5.19231 156.172 5.58679 155.495 5.82135C154.557 6.14121 153.514 6.13055 153.618 5.78937C153.775 5.34158 153.67 5.25628 153.097 5.43753C152.784 5.53348 152.576 5.54415 152.576 5.46952C152.576 5.30959 154.817 5.00039 157.788 4.74451C159.091 4.63789 160.707 4.43532 161.436 4.29672C162.948 4.00885 162.896 4.00884 162.792 4.22208ZM216.267 4.22208C215.589 4.31803 214.912 4.36068 214.755 4.3287C214.547 4.29671 214.703 4.26473 215.068 4.26473C215.433 4.26473 215.537 4.21142 215.381 4.15811C215.225 4.09414 215.589 4.05149 216.267 4.05149H217.414L216.267 4.22208ZM220.072 4.15811C219.915 4.21142 220.437 4.29671 221.218 4.3287C222.521 4.40333 222.521 4.41399 221.635 4.48862C220.176 4.6059 219.707 4.6059 220.072 4.48862C220.228 4.43531 220.124 4.36068 219.811 4.31804C219.29 4.25407 219.551 4.05149 220.124 4.05149C220.28 4.05149 220.228 4.09414 220.072 4.15811ZM93.4194 4.37135C93.5757 4.42466 93.4715 4.47796 93.2109 4.47796C92.8982 4.47796 92.6376 4.42466 92.6376 4.37135C92.6376 4.30738 92.7418 4.26473 92.8461 4.26473C93.0024 4.26473 93.263 4.30738 93.4194 4.37135ZM162.27 5.24562C162.427 5.28827 162.948 5.28827 163.417 5.25628C164.042 5.21364 163.99 5.24562 163.261 5.3629C162.218 5.52283 160.863 5.46951 160.133 5.22429C159.769 5.10701 161.697 5.13901 162.27 5.24562ZM208.084 5.40555C208.814 5.52283 208.866 5.55482 208.293 5.51217C207.823 5.48018 207.146 5.51217 206.781 5.57614C206.26 5.67209 206.051 5.6721 205.895 5.56548C205.739 5.50151 205.426 5.45885 205.165 5.5015C204.905 5.53348 204.696 5.5015 204.696 5.43753C204.696 5.37356 205.27 5.35223 206.156 5.39488C207.25 5.43753 207.406 5.42686 206.781 5.34157C206.364 5.2776 206.26 5.22429 206.52 5.22429C206.833 5.23495 207.511 5.30959 208.084 5.40555ZM159.195 5.44819C158.726 5.51216 158.413 5.59745 158.57 5.66142C158.778 5.71473 158.413 5.75738 157.84 5.75738C156.537 5.75738 156.381 5.46952 157.684 5.40555C159.456 5.30959 160.185 5.33091 159.195 5.44819ZM299.555 5.5868C299.555 5.60812 299.19 5.66143 298.721 5.69341C298.304 5.7254 298.096 5.71474 298.252 5.65076C298.565 5.54415 299.555 5.5015 299.555 5.5868ZM152.263 6.13055C150.908 6.33312 150.647 6.22651 151.846 5.95996C152.42 5.83202 152.889 5.78937 152.993 5.864C153.097 5.92797 152.784 6.04525 152.263 6.13055ZM303.464 5.864C303.673 5.92797 303.621 5.97062 303.36 5.95996C302.318 5.92797 302.057 5.98128 302.682 6.13055C303.151 6.24783 303.151 6.29047 302.734 6.29047C302.422 6.29047 302.005 6.21584 301.848 6.13055C301.64 6.04525 301.327 6.0026 301.067 6.03459C300.806 6.06657 300.598 6.06658 300.598 6.02393C300.598 5.98128 301.796 5.84267 303.047 5.76804C303.099 5.75738 303.308 5.81069 303.464 5.864ZM297.105 6.04526C297.001 6.11989 297.418 6.20518 297.992 6.23716C298.565 6.27981 299.034 6.35445 299.034 6.41842C299.034 6.48239 298.721 6.48239 298.252 6.39709C297.627 6.29047 297.47 6.29048 297.47 6.43974C297.47 6.5357 297.105 6.61033 296.689 6.61033C296.272 6.61033 295.907 6.55702 295.907 6.50371C295.907 6.43974 296.167 6.39709 296.48 6.39709C296.741 6.39709 296.845 6.34379 296.636 6.27981C296.428 6.19452 296.167 6.20518 295.855 6.30113C295.49 6.41841 295.229 6.41842 294.499 6.2585C293.666 6.09857 293.666 6.05591 294.343 5.97062C295.386 5.83202 297.262 5.88533 297.105 6.04526ZM135.376 6.19452C135.376 6.25849 135.168 6.26915 134.855 6.23716C134.594 6.20518 134.334 6.11989 134.334 6.06658C134.334 6.00261 134.594 5.99194 134.855 6.02393C135.168 6.05591 135.376 6.14121 135.376 6.19452ZM292.519 6.18386C291.998 6.30114 291.372 6.39709 291.164 6.39709C290.382 6.39709 291.268 6.08791 292.154 6.04526C292.675 6.01327 293.144 5.99194 293.249 5.98128C293.353 5.98128 293.04 6.06658 292.519 6.18386ZM307.894 6.34378C308.155 6.40775 307.842 6.4504 307.165 6.4504C306.174 6.4504 306.122 6.41842 306.591 6.21585C306.904 6.07724 307.217 6.0346 307.321 6.10923C307.425 6.18386 307.686 6.27981 307.894 6.34378ZM289.913 6.39709C289.757 6.4504 289.287 6.50371 288.975 6.50371C288.61 6.50371 288.662 6.46106 289.131 6.39709C290.121 6.26915 290.33 6.26915 289.913 6.39709ZM302.109 6.43974C302.63 6.56768 302.578 6.589 301.848 6.56768C301.327 6.54636 300.806 6.48239 300.702 6.41842C300.441 6.23717 301.379 6.25849 302.109 6.43974ZM139.025 6.50371C139.025 6.55702 138.92 6.61033 138.816 6.61033C138.66 6.61033 138.399 6.55702 138.243 6.50371C138.086 6.43974 138.191 6.39709 138.451 6.39709C138.764 6.39709 139.025 6.43974 139.025 6.50371ZM144.758 6.50371C144.758 6.55702 144.654 6.61033 144.549 6.61033C144.393 6.61033 144.132 6.55702 143.976 6.50371C143.82 6.43974 143.924 6.39709 144.185 6.39709C144.497 6.39709 144.758 6.43974 144.758 6.50371ZM295.021 6.57835C294.969 6.65298 295.698 6.68496 296.897 6.6743C298.044 6.6743 298.825 6.69563 298.669 6.73828C298.565 6.79159 297.418 6.82357 296.115 6.82357C294.499 6.82357 293.874 6.78092 294.135 6.70629C294.291 6.64232 294.135 6.54636 293.77 6.48239C293.196 6.40776 293.301 6.3971 294.083 6.42908C294.656 6.45041 295.073 6.51438 295.021 6.57835ZM142.412 6.71695C142.569 6.77026 142.465 6.82357 142.204 6.82357C141.891 6.82357 141.631 6.77026 141.631 6.71695C141.631 6.65298 141.735 6.61033 141.839 6.61033C141.996 6.61033 142.256 6.65298 142.412 6.71695ZM146.843 6.82357C146.843 6.95151 146.478 7.0368 146.009 7.0368C145.331 7.0368 145.279 7.00482 145.748 6.89821C146.061 6.81291 146.165 6.71695 145.957 6.68497C145.8 6.64232 145.905 6.61033 146.217 6.61033C146.582 6.61033 146.843 6.70628 146.843 6.82357ZM327.075 6.87687C326.918 6.90886 326.606 6.85556 326.449 6.74894C326.137 6.59967 326.189 6.58901 326.71 6.68497C327.075 6.7596 327.231 6.84489 327.075 6.87687ZM137.722 6.82357C137.565 6.87687 137.096 6.93018 136.783 6.93018C136.419 6.93018 136.471 6.88754 136.94 6.82357C137.93 6.69562 138.139 6.69562 137.722 6.82357ZM309.771 7.16475C309.458 7.2074 309.041 7.18607 308.885 7.1221C308.676 7.05813 308.051 7.03681 307.425 7.06879C306.8 7.10078 306.227 7.09011 306.122 7.04746C305.966 7.00481 306.383 6.96217 307.008 6.96217C307.634 6.95151 308.207 6.88754 308.311 6.82357C308.468 6.74893 308.885 6.78093 309.458 6.89821C310.031 7.02615 310.136 7.11144 309.771 7.16475ZM284.961 6.99415C284.961 7.07945 284.753 7.1221 284.44 7.09011C284.18 7.05813 283.919 7.11144 283.867 7.21806C283.867 7.38865 283.815 7.38864 283.45 7.19673C283.085 7.00482 283.45 6.90886 284.857 6.83422C284.909 6.82356 284.961 6.8982 284.961 6.99415ZM303.725 6.93018C303.725 6.98349 303.621 7.0368 303.516 7.0368C303.36 7.0368 303.099 6.98349 302.943 6.93018C302.787 6.86621 302.891 6.82357 303.151 6.82357C303.464 6.82357 303.725 6.86621 303.725 6.93018ZM197.921 7.0368C197.921 7.09011 197.712 7.14342 197.399 7.14342C197.139 7.14342 196.878 7.09011 196.878 7.0368C196.878 6.97283 197.139 6.93018 197.399 6.93018C197.712 6.93018 197.921 6.97283 197.921 7.0368ZM298.356 6.99415C298.2 7.02614 297.731 7.03681 297.366 7.00482C296.949 6.97284 297.105 6.94084 297.679 6.94084C298.252 6.93018 298.565 6.96217 298.356 6.99415ZM319.882 7.0368C319.882 7.09011 319.517 7.11144 319.1 7.07945C318.683 7.0368 318.318 6.99416 318.318 6.97283C318.318 6.95151 318.683 6.93018 319.1 6.93018C319.517 6.93018 319.882 6.97283 319.882 7.0368ZM321.967 7.09011C321.602 7.17541 321.081 7.25004 320.768 7.25004C320.455 7.25004 320.664 7.17541 321.237 7.09011C322.54 6.88754 322.801 6.88754 321.967 7.09011ZM330.306 7.14342C330.306 7.32467 330.202 7.346 329.576 7.22872C329.055 7.13276 329.003 7.06879 329.472 7.01548C330.306 6.8982 330.306 6.90886 330.306 7.14342ZM190.78 7.11144C190.415 7.13277 189.79 7.13277 189.477 7.11144C189.112 7.07946 189.373 7.05813 190.103 7.05813C190.832 7.05813 191.093 7.07946 190.78 7.11144ZM52.1401 7.47393C51.7753 7.63386 51.0456 7.79379 50.5244 7.82578C50.0032 7.86132 50.0205 7.83288 50.5765 7.74048C51.1498 7.64452 51.3062 7.55923 50.9935 7.51658C50.3159 7.44195 51.3062 7.17541 52.2444 7.17541C52.6613 7.17541 52.6613 7.27136 52.1401 7.47393ZM144.654 7.32468C144.497 7.54858 143.715 7.68718 143.09 7.61254C142.412 7.52725 142.621 7.35666 143.351 7.37799C143.663 7.39931 143.924 7.346 143.872 7.27137C143.768 7.2074 143.976 7.14342 144.237 7.14342C144.549 7.14342 144.758 7.22872 144.654 7.32468ZM244.568 7.25004C244.412 7.30335 243.943 7.32468 243.526 7.28203C242.431 7.2074 242.536 7.14342 243.839 7.14342C244.412 7.14342 244.777 7.18607 244.568 7.25004ZM248.425 7.47393C248.008 7.52724 247.226 7.55923 246.653 7.55923L245.611 7.54857L246.653 7.49527C247.226 7.46328 247.904 7.36733 248.165 7.27137C248.529 7.13277 248.738 7.13276 248.894 7.23938C248.998 7.31401 248.79 7.42062 248.425 7.47393ZM314.149 7.30335C314.722 7.44195 314.67 7.45261 313.94 7.39931C313.471 7.36732 313.106 7.29269 313.106 7.23938C313.106 7.10077 313.419 7.1221 314.149 7.30335ZM192.709 7.40997C192.709 7.50592 192.239 7.5699 191.562 7.55923C190.676 7.54857 190.572 7.53791 191.301 7.49527C191.77 7.47394 192.187 7.39931 192.187 7.346C192.187 7.29269 192.292 7.25004 192.448 7.25004C192.604 7.25004 192.709 7.32467 192.709 7.40997ZM35.201 7.69784C34.8362 7.74049 34.315 7.72982 33.9501 7.67651C33.6374 7.61254 33.2726 7.59122 33.1162 7.6232C33.012 7.65519 32.8556 7.61254 32.8556 7.52724C32.8556 7.42062 33.1683 7.40997 34.315 7.50592C35.3053 7.5699 35.5659 7.64453 35.201 7.69784ZM103.062 7.45261C103.062 7.51659 102.853 7.59122 102.54 7.6232C102.28 7.65519 102.019 7.61254 102.019 7.52724C102.019 7.43129 102.28 7.35666 102.54 7.35666C102.853 7.35666 103.062 7.39931 103.062 7.45261ZM185.255 7.51658C185.255 7.60188 185.047 7.64453 184.786 7.61254C184.526 7.58056 184.474 7.50592 184.63 7.45261C185.099 7.31401 185.255 7.33533 185.255 7.51658ZM242.64 7.50592C242.275 7.59122 241.858 7.63386 241.754 7.6232C241.493 7.55923 242.275 7.35666 242.796 7.35666C243.057 7.35666 243.005 7.42063 242.64 7.50592ZM238.574 7.56989C238.574 7.6232 238.47 7.67651 238.366 7.67651C238.21 7.67651 237.949 7.6232 237.793 7.56989C237.636 7.50592 237.74 7.46327 238.001 7.46327C238.314 7.46327 238.574 7.50592 238.574 7.56989ZM244.151 8.07101C243.578 8.18829 243.265 8.20961 243.265 8.12432C243.265 8.04968 243.526 7.99637 243.839 7.99637C244.151 7.99637 244.256 7.92174 244.047 7.80446C243.786 7.65519 243.839 7.64453 244.36 7.76181C244.933 7.86843 244.881 7.92174 244.151 8.07101ZM311.386 7.74048C311.23 7.77246 310.761 7.78314 310.396 7.75115C309.979 7.71917 310.136 7.68717 310.709 7.68717C311.282 7.67651 311.595 7.70849 311.386 7.74048ZM237.271 7.88975C237.428 7.94306 237.324 7.99637 237.063 7.99637C236.75 7.99637 236.49 7.94306 236.49 7.88975C236.49 7.82578 236.594 7.78313 236.698 7.78313C236.854 7.78313 237.115 7.82578 237.271 7.88975ZM246.392 7.88975C246.392 7.94306 246.288 7.99637 246.184 7.99637C246.028 7.99637 245.767 7.94306 245.611 7.88975C245.454 7.82578 245.559 7.78313 245.819 7.78313C246.132 7.78313 246.392 7.82578 246.392 7.88975ZM184.369 7.99637C184.369 8.04967 184.109 8.10298 183.796 8.10298C183.535 8.10298 183.431 8.04967 183.587 7.99637C183.744 7.93239 184.004 7.88975 184.161 7.88975C184.265 7.88975 184.369 7.93239 184.369 7.99637ZM188.226 7.98571C188.695 8.13497 186.558 8.19894 185.985 8.06033C185.62 7.97504 185.829 7.9324 186.715 7.91108C187.392 7.90042 188.07 7.9324 188.226 7.98571ZM33.9501 8.38019C34.315 8.58276 34.0544 8.5721 32.9599 8.31622C32.1259 8.13497 32.1259 8.10298 32.8035 8.15629C33.2726 8.19894 33.7938 8.29489 33.9501 8.38019ZM93.263 8.83865C92.3249 9.19049 91.5952 9.26512 91.5952 9.0199C91.5952 8.9346 91.96 8.84931 92.377 8.80666C93.5757 8.7107 93.3151 8.42284 92.0121 8.42284C91.2824 8.42284 91.2303 8.37308 91.8558 8.27357C92.7418 8.14563 92.9503 8.14563 93.5236 8.31622C94.097 8.47615 94.0448 8.57211 93.263 8.83865ZM96.0254 8.41218C96.1818 8.46549 96.0775 8.54012 95.7648 8.58277C95.5042 8.61475 95.2436 8.5721 95.2436 8.48681C95.2436 8.29489 95.5563 8.26291 96.0254 8.41218ZM92.1164 8.63607C92.1164 8.68938 91.8558 8.74269 91.5431 8.74269C91.2825 8.74269 91.1782 8.68938 91.3346 8.63607C91.4909 8.5721 91.7515 8.52946 91.9079 8.52946C92.0122 8.52946 92.1164 8.5721 92.1164 8.63607ZM95.9212 9.16917C95.2957 9.29711 94.8787 9.31843 94.6181 9.23313C93.9406 9.03056 94.1491 8.97726 95.5042 8.97726C96.8593 8.97726 96.8072 8.98791 95.9212 9.16917Z" fill="#7765E3"/>
<path fill-rule="evenodd" clip-rule="evenodd" d="M161.228 6.01375C161.071 6.06706 161.28 6.13103 161.697 6.17368C162.479 6.23765 163.208 6.09904 162.635 5.98176C162.166 5.8858 161.54 5.89647 161.228 6.01375Z" fill="#7765E3"/>
<path fill-rule="evenodd" clip-rule="evenodd" d="M16.8555 6.93141C17.064 7.01671 17.2204 7.09134 17.3246 7.09134C17.4288 7.09134 17.5852 7.01671 17.7937 6.93141C17.95 6.83546 17.7937 6.77148 17.3246 6.77148C16.8555 6.77148 16.6991 6.83546 16.8555 6.93141Z" fill="#7765E3"/>
<path fill-rule="evenodd" clip-rule="evenodd" d="M15.759 7.09099C15.9154 7.1443 16.176 7.19761 16.3323 7.19761C16.4366 7.19761 16.5408 7.1443 16.5408 7.09099C16.5408 7.02702 16.2802 6.98438 15.9675 6.98438C15.7069 6.98438 15.6027 7.02702 15.759 7.09099Z" fill="#7765E3"/>
<path fill-rule="evenodd" clip-rule="evenodd" d="M78.0449 7.19744C78.0449 7.25075 78.3055 7.30406 78.6183 7.30406C78.8789 7.30406 78.9831 7.25075 78.8267 7.19744C78.6704 7.13347 78.4098 7.09082 78.2534 7.09082C78.1492 7.09082 78.0449 7.13347 78.0449 7.19744Z" fill="#7765E3"/>
<path fill-rule="evenodd" clip-rule="evenodd" d="M139.339 9.20249C139.183 9.2558 139.391 9.29845 139.808 9.29845C140.225 9.29845 140.434 9.2558 140.277 9.20249C140.121 9.15984 139.912 9.11719 139.808 9.11719C139.704 9.11719 139.495 9.15984 139.339 9.20249Z" fill="#7765E3"/>
<path fill-rule="evenodd" clip-rule="evenodd" d="M1.06055 9.59644C1.06055 9.68174 1.26902 9.72439 1.52963 9.6924C1.79023 9.66042 1.84236 9.58579 1.686 9.53248C1.21691 9.39387 1.06055 9.41519 1.06055 9.59644Z" fill="#7765E3"/>
<path fill-rule="evenodd" clip-rule="evenodd" d="M3.51172 9.86248C3.51172 9.91579 3.77231 9.9691 4.08503 9.9691C4.34563 9.9691 4.44988 9.91579 4.29352 9.86248C4.13716 9.79851 3.87656 9.75586 3.7202 9.75586C3.61596 9.75586 3.51172 9.79851 3.51172 9.86248Z" fill="#7765E3"/>
<path fill-rule="evenodd" clip-rule="evenodd" d="M1.94727 10.0339C1.94727 10.1192 2.20787 10.1618 2.46847 10.1298C2.78119 10.0978 2.98967 10.0232 2.98967 9.95924C2.98967 9.90593 2.78119 9.86328 2.46847 9.86328C2.20787 9.86328 1.94727 9.93791 1.94727 10.0339Z" fill="#7765E3"/>
<path fill-rule="evenodd" clip-rule="evenodd" d="M273.496 9.96914C273.496 10.1077 274.955 10.2357 275.477 10.1397C275.633 10.0971 275.477 10.0224 275.06 9.96914C274.017 9.83053 273.496 9.84119 273.496 9.96914Z" fill="#7765E3"/>
<path fill-rule="evenodd" clip-rule="evenodd" d="M318.997 10.2263C319.257 10.3969 320.247 10.4182 320.56 10.2476C320.769 10.141 320.56 10.0983 319.83 10.109C319.309 10.1197 318.892 10.173 318.997 10.2263Z" fill="#7765E3"/>
<path fill-rule="evenodd" clip-rule="evenodd" d="M42.082 10.8121C42.082 10.8654 42.3426 10.9507 42.6032 10.9827C42.916 11.0146 43.1244 11.004 43.1244 10.94C43.1244 10.8867 42.916 10.8014 42.6032 10.7694C42.3426 10.7374 42.082 10.7481 42.082 10.8121Z" fill="#7765E3"/>
</svg>
