<svg width="38" height="32" viewBox="0 0 38 32" fill="none" xmlns="http://www.w3.org/2000/svg">
<path fill-rule="evenodd" clip-rule="evenodd" d="M7.75198 0.144765C7.75198 0.212022 7.66868 0.238928 7.58537 0.198574C7.4854 0.144768 7.41875 0.158229 7.43541 0.225486C7.4854 0.481064 7.40209 0.534859 7.10218 0.400345C6.8356 0.292734 6.78561 0.306192 6.8356 0.507963C6.85226 0.629026 6.78561 0.830791 6.65232 0.938402C6.41906 1.15363 6.38574 1.77239 6.619 1.66478C6.68565 1.62443 6.75229 1.66478 6.75229 1.75894C6.75229 1.88 6.80228 1.88 6.98555 1.75894C7.15217 1.65132 7.25214 1.63788 7.33544 1.73204C7.38543 1.81275 7.23548 1.94727 7.00221 2.04143C6.70231 2.14904 6.58568 2.28354 6.63566 2.43151C6.68565 2.56602 6.63566 2.70054 6.51903 2.7409C6.38574 2.78125 6.4024 2.83506 6.55235 2.92922C6.68565 2.99648 6.75229 3.25204 6.71897 3.57488C6.68565 3.93807 6.73563 4.08605 6.88558 4.05914C6.98555 4.04569 7.08552 4.09948 7.08552 4.18019C7.08552 4.27435 7.25214 4.30126 7.4854 4.24745C7.71866 4.2071 7.93526 4.22055 7.98524 4.28781C8.11854 4.46268 7.13551 4.55683 6.91891 4.38197C6.80228 4.28781 6.75229 4.30127 6.75229 4.40888C6.75229 4.50304 6.8356 4.57029 6.93557 4.57029C7.03554 4.57029 7.08552 4.69135 7.03554 4.83932C6.96889 5.06799 7.03554 5.10835 7.51872 5.10835C7.83529 5.10835 8.08521 5.16215 8.08521 5.24286C8.08521 5.39083 7.90194 5.41773 7.25214 5.39082C6.95223 5.37737 6.90225 5.40428 7.06886 5.48499C7.20215 5.5657 7.23548 5.68676 7.16883 5.78092C7.08552 5.88853 7.10218 5.92889 7.20215 5.87509C7.28546 5.82128 7.51872 5.90198 7.702 6.04995C7.90194 6.18446 8.08521 6.27862 8.1352 6.23827C8.16852 6.19791 8.25183 6.27862 8.31848 6.39968C8.40178 6.57455 8.33514 6.61491 7.93526 6.56111C7.4854 6.5073 7.45208 6.5342 7.60203 6.76288C7.702 6.91084 7.88528 6.97809 8.03523 6.93774C8.16852 6.89738 8.38512 6.85703 8.50175 6.85703C8.61838 6.85703 8.75167 6.74943 8.785 6.62836C8.83498 6.41314 8.88497 6.42659 9.2182 6.69562C9.41814 6.85704 9.61807 6.9781 9.6514 6.9512C9.68472 6.93775 9.78469 6.96465 9.85134 7.01846C9.91798 7.08572 9.85134 7.12606 9.71804 7.12606C9.56809 7.12606 9.35149 7.23368 9.23486 7.35474C9.01826 7.55652 9.03492 7.56996 9.38481 7.50271C9.61807 7.4489 9.71804 7.4758 9.63474 7.56996C9.56809 7.65067 9.63474 7.67758 9.80135 7.62377C10.4178 7.43545 10.018 7.93316 9.38481 8.16183C8.95161 8.32325 8.71835 8.18872 9.08491 8.0004C9.18487 7.96005 9.25152 7.86589 9.25152 7.78518C9.25152 7.71793 9.10157 7.73138 8.91829 7.82554C8.50175 8.04077 8.50175 8.18872 8.88497 8.41739C9.30151 8.67297 9.88466 8.64608 9.96797 8.3636C10.0346 8.14838 10.0513 8.14838 10.0679 8.3636C10.0846 8.52502 10.1846 8.57882 10.3845 8.52501C10.5622 8.48017 10.5567 8.50707 10.3678 8.60572C10.1013 8.74023 10.1013 8.76714 10.3678 8.98236C10.6344 9.19759 10.6344 9.21104 10.3678 9.25139C10.2012 9.2783 9.9513 9.18414 9.78469 9.04962C9.63474 8.91511 9.51811 8.82094 9.53477 8.8613C9.56809 8.8882 9.50144 8.99582 9.40147 9.10343C9.25152 9.23794 9.26818 9.27829 9.48478 9.27829C9.63474 9.27829 9.75137 9.359 9.75137 9.46661C9.75137 9.57422 9.868 9.69529 10.018 9.73564C10.1846 9.78945 10.2346 9.91051 10.1679 10.0854C10.1013 10.2602 10.1512 10.3813 10.3179 10.4351C10.6678 10.5427 10.6511 10.7579 10.3179 10.7579C10.1679 10.7579 9.83467 10.9328 9.58475 11.1346C9.20154 11.4709 9.16821 11.5516 9.35149 11.7668C9.50144 11.9282 9.70138 11.982 10.0013 11.9417C10.2346 11.9013 10.4178 11.9282 10.4178 11.982C10.4178 12.0493 10.0346 12.1031 9.56809 12.1031C9.03492 12.1031 8.76834 12.1569 8.83498 12.2376C8.90163 12.3183 9.10157 12.3452 9.30151 12.2914C9.50144 12.2511 9.61807 12.2511 9.53477 12.3049C9.4348 12.399 9.2182 12.4394 8.51841 12.4932C8.45177 12.5066 8.41844 12.668 8.46843 12.8564C8.53508 13.1657 8.50175 13.1927 8.1352 13.1389C7.9186 13.112 7.78531 13.112 7.83529 13.1523C7.88528 13.1927 7.75198 13.3675 7.56871 13.5289L7.20215 13.8383L7.76865 13.7845C8.28515 13.7307 8.30181 13.7442 8.01857 13.919C7.85195 14.0266 7.63535 14.0805 7.56871 14.0401C7.4854 13.9997 7.41875 14.067 7.41875 14.2015C7.41875 14.3495 7.51872 14.4033 7.75198 14.3495C8.16852 14.2688 8.18518 14.4302 7.80197 14.6723C7.63535 14.7665 7.55204 14.7934 7.61869 14.7396C7.68534 14.6723 7.55205 14.5378 7.31878 14.4436C6.95223 14.2822 6.85226 14.2957 6.619 14.4705C6.36908 14.6723 6.38574 14.6858 6.71897 14.6051C6.91891 14.5512 7.08552 14.5647 7.08552 14.6185C7.08552 14.8337 6.71897 15.049 6.48571 14.9683C6.31909 14.9144 6.28577 14.9682 6.35242 15.1162C6.43572 15.2776 6.35242 15.3314 6.06917 15.3449C5.85257 15.3583 5.60265 15.3583 5.51934 15.3449C5.43603 15.3314 5.46935 15.4121 5.58598 15.5332C5.71928 15.6543 5.95254 15.7215 6.11915 15.6812C6.50237 15.6139 6.43572 15.856 6.03585 16.0578C5.81925 16.1654 5.70262 16.152 5.58598 16.004C5.45269 15.8291 5.40271 15.8291 5.21943 15.9906C5.05282 16.1251 5.05282 16.152 5.21943 16.0847C5.3194 16.0309 5.41937 16.0175 5.41937 16.0713C5.41937 16.1116 5.26942 16.1923 5.08614 16.2461C4.8862 16.2999 4.81955 16.4076 4.8862 16.5017C4.98617 16.6362 5.11946 16.6228 5.46935 16.4748C5.78592 16.3537 5.95254 16.3403 6.01919 16.4345C6.08583 16.5152 6.06917 16.5421 5.9692 16.5017C5.80259 16.421 5.40271 16.7304 5.08614 17.2012C4.91952 17.4568 4.86954 17.4702 4.65294 17.2819C4.50299 17.1743 4.30305 17.0801 4.20308 17.0801C4.06979 17.0801 4.06979 17.1205 4.20308 17.2281C4.43634 17.4164 4.15309 18.0217 3.85319 18.0217C3.73656 18.0217 3.51996 18.1966 3.37 18.4253C3.20339 18.6405 3.02011 18.8154 2.95346 18.8154C2.52026 18.7616 2.38697 18.8288 2.58691 19.0306C2.77019 19.2054 2.7202 19.2323 2.35365 19.2323C2.12039 19.2323 1.92045 19.2862 1.92045 19.3669C1.92045 19.4341 1.80382 19.5014 1.67053 19.5014C1.53723 19.5014 1.4206 19.5686 1.4206 19.6493C1.4206 19.73 1.52057 19.7435 1.62054 19.6763C1.73717 19.6224 2.10373 19.5821 2.4203 19.5686C2.90348 19.5686 3.00345 19.5283 2.97013 19.2996C2.95346 19.1113 3.05343 19.0306 3.30336 19.0171C3.50329 19.0037 3.81986 18.9633 4.00314 18.923C4.18642 18.8826 4.40302 18.8423 4.46966 18.8423C4.55297 18.8288 4.55297 18.7616 4.48632 18.6674C4.41968 18.5732 4.43634 18.5598 4.55297 18.6136C4.8862 18.775 4.78623 18.923 4.30305 19.0306C3.86985 19.1247 3.86985 19.1382 4.16976 19.2323C4.46966 19.34 4.46966 19.3534 4.08645 19.3669C3.85319 19.3938 3.60326 19.3938 3.51996 19.3803C3.45331 19.3669 3.30336 19.4476 3.18673 19.5552C3.00345 19.7435 2.45362 19.8646 1.60388 19.8915C1.35396 19.9049 1.25399 19.9722 1.30397 20.0798C1.45393 20.3892 1.17068 20.6179 0.820789 20.4699C0.587527 20.3757 0.420912 20.4026 0.204312 20.5775C-0.0622723 20.7927 -0.0622723 20.8196 0.170989 20.9003C0.320943 20.9407 0.387589 21.0348 0.337604 21.1155C0.270958 21.1963 0.354266 21.2097 0.520881 21.1559C0.720819 21.1021 0.770804 21.1156 0.687496 21.2232C0.62085 21.3173 0.654173 21.3846 0.770804 21.3846C0.904096 21.3846 0.870773 21.4653 0.704158 21.6267C0.337604 21.9495 0.337604 22.2051 0.704158 22.0975C0.887435 22.0437 0.937419 22.0572 0.854112 22.1648C0.787466 22.2589 0.820789 22.3262 0.904096 22.3262C1.00407 22.3262 1.08737 22.2589 1.08737 22.1782C1.08737 22.111 1.15402 22.0706 1.23733 22.111C1.32063 22.1513 1.47059 22.0975 1.58722 21.9899C1.70385 21.8823 1.88713 21.7881 1.9871 21.7881C2.08706 21.7881 2.05374 21.8554 1.92045 21.9226C1.70385 22.0302 1.72051 22.0841 1.9871 22.2858C2.15371 22.4203 2.25368 22.4472 2.18703 22.3531C2.05374 22.1782 2.23702 22.1379 2.5036 22.2993C2.7202 22.4203 2.80351 22.7701 2.58691 22.6625C2.5036 22.6221 2.4203 22.649 2.4203 22.7297C2.4203 22.8104 2.58691 22.9315 2.80351 22.9987C3.1534 23.1064 3.13674 23.1198 2.68688 23.1198C2.287 23.1333 2.23702 23.1602 2.4203 23.335C2.53693 23.4561 2.58691 23.5772 2.53693 23.631C2.47028 23.6713 2.52026 23.8058 2.63689 23.9135C2.80351 24.0883 2.78685 24.1152 2.58691 24.0211C2.45362 23.9672 2.48694 24.0076 2.65356 24.1287C2.82017 24.2363 3.05343 24.3573 3.1534 24.3843C3.25337 24.4112 3.27003 24.4919 3.20339 24.5591C3.13674 24.6264 3.00345 24.586 2.92014 24.4784C2.67022 24.1556 2.73686 24.5188 3.00345 24.8819C3.17006 25.1241 3.23671 25.151 3.25337 24.9896C3.25337 24.8685 3.32002 24.7205 3.41999 24.6802C3.50329 24.6398 3.53662 24.6802 3.48663 24.7878C3.43665 24.9223 3.53662 25.003 3.81986 25.0434C4.05312 25.0837 4.20308 25.0568 4.15309 25.003C4.10311 24.9358 4.16976 24.8819 4.31971 24.8819C4.453 24.8819 4.58629 24.9627 4.63628 25.0434C4.6696 25.1375 4.76957 25.1644 4.85288 25.1106C5.03615 24.9627 4.43634 24.586 4.20308 24.7071C4.10311 24.7474 4.08645 24.7205 4.15309 24.6398C4.33637 24.3977 4.91952 24.438 4.91952 24.6936C4.91952 24.8281 5.03615 24.882 5.28608 24.8551C5.76926 24.8012 5.86923 24.4784 5.43603 24.3843L5.08614 24.317L5.43603 24.0614C5.61931 23.9269 5.88589 23.8596 6.01919 23.9C6.33575 23.9942 6.31909 24.1018 5.98586 24.048C5.81925 24.0211 5.66929 24.0749 5.65263 24.1421C5.61931 24.2228 5.85257 24.2766 6.1858 24.2901C6.55235 24.2901 6.68565 24.2632 6.55235 24.1959C6.4024 24.1152 6.45238 24.0749 6.71897 24.0749C7.15217 24.0749 7.23548 23.8058 6.80228 23.8058C6.51903 23.7924 6.53569 23.7789 6.81894 23.6041C7.15217 23.4023 7.50206 23.4561 7.31878 23.6982C7.25214 23.7789 7.30212 23.8193 7.43541 23.7789C7.56871 23.7386 7.66868 23.631 7.66868 23.5368C7.66868 23.4292 7.90194 23.335 8.25183 23.2947C8.5684 23.2678 8.86831 23.1871 8.88497 23.1198C8.91829 23.0526 9.01826 23.0257 9.08491 23.066C9.16821 23.1064 9.26818 23.0795 9.33483 22.9987C9.38481 22.9315 9.31817 22.8642 9.16821 22.8642C9.01826 22.8642 8.95161 22.797 9.0016 22.7163C9.06824 22.6356 9.23486 22.6087 9.36815 22.6625C9.56809 22.7163 9.58475 22.6894 9.45146 22.5549C9.30151 22.4069 9.33483 22.38 9.58475 22.3934C9.9513 22.4069 10.2512 22.5952 9.91798 22.5952C9.80135 22.5952 9.7347 22.6356 9.78469 22.6759C9.85134 22.7163 10.0679 22.6759 10.2679 22.5818L10.6511 22.4203L10.2512 22.2858C10.018 22.2186 9.6514 22.1648 9.41814 22.1782C9.18487 22.1917 8.80166 22.1513 8.58506 22.0706C8.21851 21.9495 8.23517 21.9361 8.88497 21.9361C9.31817 21.9226 9.56809 21.8688 9.50144 21.7881C9.45146 21.7074 9.48478 21.6536 9.56809 21.6536C9.66806 21.6536 9.75137 21.7209 9.75137 21.8016C9.75137 21.8957 9.91798 21.9226 10.1679 21.8957C10.4678 21.8419 10.5345 21.8688 10.4345 21.9764C10.3179 22.0841 10.5345 22.1244 11.1676 22.1379C11.7452 22.1379 11.9174 22.0572 11.6841 21.8957L11.3342 21.6536L11.8174 21.7209C12.084 21.7478 12.4505 21.7209 12.6172 21.6402C12.8671 21.5325 13.017 21.546 13.2669 21.7343C13.4502 21.8688 13.5835 21.8957 13.5835 21.815C13.5835 21.7209 13.5169 21.6536 13.4169 21.6536C13.3336 21.6536 13.2503 21.6133 13.2503 21.546C13.2503 21.4922 13.5835 21.4518 13.9834 21.4518C14.3833 21.4518 14.6832 21.4922 14.6499 21.546C14.5999 21.6133 14.6665 21.6536 14.7831 21.6402C15.0831 21.6267 15.6995 21.4115 15.4996 21.3846C14.9997 21.3173 14.7165 21.2635 14.6165 21.1963C14.4666 21.0752 15.0164 21.1021 15.4663 21.2366C15.7662 21.3308 15.8661 21.3173 15.8661 21.1828C15.8661 21.0752 15.8162 21.0214 15.7495 21.0483C15.6829 21.0752 15.6329 21.0214 15.6329 20.9138C15.6329 20.8062 15.7162 20.7658 15.7995 20.8062C15.8995 20.86 15.9328 20.8062 15.8661 20.6717C15.7495 20.4161 15.9328 20.3757 16.1827 20.5775C16.316 20.6851 16.4326 20.6582 16.5993 20.4968C16.7992 20.2816 16.7992 20.2681 16.5826 20.3354C16.3993 20.3892 16.316 20.3354 16.316 20.1605C16.316 19.9453 16.3827 19.9587 16.7825 20.2681C17.0325 20.4699 17.2157 20.6582 17.1657 20.6986C17.0491 20.7793 18.0988 21.1693 18.3321 21.129C18.432 21.1155 18.4154 21.1693 18.2987 21.2635C18.1321 21.398 18.1821 21.4922 18.5153 21.7478C18.7486 21.9226 18.8985 22.1513 18.8652 22.2589C18.8152 22.3531 18.8819 22.5145 19.0152 22.5952C19.3151 22.8104 19.3151 22.9719 18.9819 23.0257C18.7653 23.0526 18.7819 23.1064 19.0652 23.3619C19.2651 23.5368 19.3484 23.6982 19.2484 23.7386C19.0652 23.8327 19.0152 24.1152 19.2151 24.0345C19.2818 23.9942 19.4817 24.0211 19.665 24.0883C19.9649 24.1825 19.9649 24.1959 19.5817 24.2094L19.1651 24.2228L19.565 24.4784C19.7816 24.6264 19.8982 24.7474 19.8316 24.7474C19.7649 24.7474 19.7983 24.8416 19.9149 24.9492C20.0315 25.0568 20.0815 25.2855 20.0149 25.4873C19.9482 25.689 19.9815 25.8235 20.0815 25.8235C20.1815 25.8235 20.2148 25.8774 20.1648 25.9581C20.1148 26.0253 20.1482 26.0926 20.2481 26.0926C20.3481 26.0926 20.4147 26.2271 20.3814 26.3885C20.3481 26.5768 20.4147 26.6845 20.548 26.6575C20.648 26.6441 20.748 26.7517 20.748 26.8997C20.748 27.0611 20.8646 27.1687 21.0479 27.1821C21.2978 27.1821 21.2978 27.1956 21.0146 27.2898C20.7147 27.3839 20.7147 27.3974 20.9812 27.4781C21.1479 27.5319 21.2478 27.6529 21.1978 27.7606C21.1145 27.9489 21.3645 28.2717 22.0142 28.8098C22.2142 28.9846 22.2475 29.0519 22.0976 29.0519C21.9143 29.0519 21.9143 29.0922 22.0809 29.2537C22.1975 29.3613 22.3975 29.4554 22.5141 29.4554C22.6474 29.4554 22.7474 29.5227 22.7474 29.6034C22.7474 29.6707 22.814 29.711 22.8973 29.6572C22.9806 29.6169 23.1139 29.6572 23.1806 29.7379C23.2472 29.8455 23.2305 29.859 23.1139 29.8052C22.9806 29.7379 22.914 29.8052 22.914 29.98C22.914 30.1953 23.0139 30.2625 23.3305 30.2625C23.7304 30.2625 23.747 30.2356 23.5638 29.9531C23.4471 29.7917 23.3972 29.6303 23.4305 29.5899C23.4638 29.563 23.2639 29.4016 22.964 29.2537C22.664 29.1057 22.4308 28.9443 22.4141 28.877C22.4141 28.7156 22.8806 28.7694 22.964 28.9443C23.0306 29.0519 23.0639 29.0384 23.0639 28.8905C23.0806 28.7694 22.9806 28.6484 22.8806 28.608C22.764 28.5811 22.864 28.5273 23.1139 28.4869C23.3638 28.4466 23.5471 28.46 23.5138 28.5004C23.4305 28.5945 23.8637 28.9308 24.0303 28.9039C24.0969 28.9039 24.1802 28.9712 24.2302 29.0653C24.2636 29.173 24.1802 29.1999 23.9803 29.1461C23.7304 29.0654 23.747 29.1057 24.0636 29.3209C24.2969 29.4823 24.4135 29.6707 24.3469 29.8052C24.2969 29.9128 24.3968 30.128 24.5801 30.2894C24.7634 30.4508 24.8634 30.6123 24.83 30.6661C24.6968 30.8409 25.5632 31.2176 26.0963 31.231C26.3962 31.2445 26.6961 31.3521 26.8294 31.5135C27.0627 31.7825 27.0794 31.7825 27.3959 31.5404C27.7791 31.2714 27.7292 31.0831 27.2793 31.1369C27.1293 31.1503 27.0794 31.1369 27.196 31.11C27.5459 31.0158 27.5292 30.4777 27.1793 30.1415C26.9794 29.9666 26.9127 29.859 27.0294 29.9128C27.1293 29.9531 27.2626 29.9397 27.3293 29.859C27.3793 29.7917 27.3293 29.7245 27.2126 29.7245C27.046 29.7245 27.0627 29.6841 27.246 29.5765C27.4292 29.4689 27.4459 29.4151 27.296 29.3613C27.1793 29.3344 27.0794 29.2133 27.0794 29.1057C27.0794 28.9981 26.9627 28.9174 26.8128 28.9174C26.6795 28.9174 26.6128 28.8501 26.6628 28.7829C26.7128 28.7022 26.6128 28.4869 26.4296 28.2986C25.9964 27.8547 25.9464 27.4512 26.3462 27.7202C26.5628 27.8547 26.6295 27.8547 26.7628 27.6933C26.996 27.3974 26.9461 27.3032 26.4629 27.1418C26.113 27.0342 26.063 26.9804 26.2629 26.94C26.4296 26.9131 26.5795 26.7652 26.6295 26.6172C26.6961 26.402 26.6462 26.3616 26.4129 26.4289C26.013 26.5365 25.8464 26.1464 26.213 25.9715C26.4629 25.8504 26.4629 25.8236 26.163 25.8101C25.9797 25.7966 25.7631 25.7966 25.6798 25.8101C25.5965 25.8236 25.5798 25.5949 25.6298 25.2855C25.6964 24.8685 25.6465 24.7071 25.4299 24.5726C25.03 24.3574 24.83 23.6579 25.1133 23.5234C25.2799 23.4292 25.2466 23.3619 24.9633 23.2005C24.5301 22.9584 24.4468 22.6625 24.83 22.7701C25.03 22.8373 25.03 22.7835 24.8967 22.4876C24.7967 22.2858 24.7301 22.111 24.7301 22.0841C24.7467 22.0706 24.7467 22.0437 24.7301 22.0168C24.6134 21.694 24.6468 21.5191 24.8467 21.5191C24.98 21.5191 25.13 21.4249 25.1799 21.3173C25.2466 21.2097 25.3466 21.1425 25.4132 21.1828C25.4798 21.2097 25.5298 21.1156 25.5132 20.9541C25.5132 20.7927 25.3965 20.6448 25.2632 20.6044C25.13 20.564 25.08 20.6044 25.1466 20.6851C25.1966 20.7658 25.1799 20.86 25.0966 20.9003C25.0133 20.9541 24.9633 20.8869 24.98 20.7658C25.03 20.5102 25.3965 20.3085 25.6631 20.3892C25.7798 20.4295 25.913 20.3488 25.9797 20.2278C26.1296 19.9049 25.9797 19.8377 25.6631 20.0932C25.5132 20.2143 25.3132 20.2681 25.2133 20.2278C25.13 20.174 25.2799 20.0529 25.5632 19.9453C25.8464 19.8242 26.0797 19.6897 26.0797 19.6224C26.0797 19.5552 26.1963 19.5014 26.3462 19.5014C26.4795 19.5014 26.5462 19.4341 26.4962 19.3669C26.4462 19.2862 26.5129 19.2323 26.6462 19.2323C26.7961 19.2323 26.9127 19.1113 26.9127 18.9499C26.9127 18.8019 26.9794 18.7077 27.0627 18.7615C27.2126 18.8288 27.4959 18.6001 27.4959 18.3849C27.4959 18.3311 27.6792 18.21 27.8958 18.1159C28.129 18.0217 28.3456 17.8737 28.379 17.7661C28.4456 17.6182 28.329 17.5913 27.9124 17.672C27.5959 17.7123 27.3959 17.7123 27.4626 17.672C27.5292 17.6182 27.4959 17.5106 27.4126 17.4164C27.296 17.3088 27.3293 17.255 27.4959 17.255C27.6292 17.255 27.6958 17.3088 27.6458 17.3761C27.5459 17.4971 27.9957 17.5106 28.5289 17.403C28.7455 17.3491 28.8621 17.2684 28.8122 17.2012C28.7622 17.1339 28.8455 17.0801 28.9788 17.0801C29.4786 17.0801 29.2454 16.8245 28.6622 16.7304C27.9124 16.6228 28.0957 16.3537 28.8455 16.4479C29.1787 16.4883 29.412 16.4748 29.412 16.3941C29.412 16.3134 29.4786 16.2865 29.5453 16.3268C29.6286 16.3672 29.8952 16.2461 30.1784 16.0713C30.445 15.8964 30.5616 15.7484 30.4616 15.735C30.0784 15.735 30.2284 15.4794 30.6616 15.3852C30.8948 15.3449 31.0281 15.2507 30.9781 15.17C30.9282 15.1028 31.1114 14.8741 31.3947 14.6723C31.7779 14.4033 31.8612 14.2688 31.7113 14.1477C31.5446 14.0132 31.7446 13.919 32.6276 13.7711C32.6943 13.7576 32.7776 13.7442 32.8276 13.7307C32.8776 13.7307 32.8442 13.5962 32.7443 13.4482C32.5943 13.233 32.611 13.1792 32.8276 13.1658C32.9609 13.1523 33.1608 13.1254 33.2441 13.1119C33.3441 13.0985 33.494 13.0716 33.594 13.0581C33.6773 13.0581 33.7106 12.9909 33.6607 12.9102C33.6107 12.8295 33.6773 12.816 33.8106 12.8564C33.9606 12.8967 34.0939 12.8698 34.0939 12.7891C34.1105 12.7084 34.1272 12.5739 34.1438 12.4797C34.1438 12.399 34.2771 12.3049 34.4104 12.278C34.6104 12.2242 34.6104 12.2376 34.4437 12.3452C34.2605 12.4528 34.2605 12.4797 34.4437 12.5335C34.6937 12.6143 35.1102 12.3183 34.9436 12.1703C34.8769 12.1165 35.0102 12.1165 35.2435 12.1569C35.6434 12.2511 35.66 12.2511 35.3268 12.0358L34.9936 11.8072L35.3268 11.861C35.5101 11.8744 35.8433 11.7937 36.0766 11.6592C36.4265 11.4574 36.4598 11.4036 36.2432 11.296C36.0266 11.1749 36.0266 11.1615 36.2432 11.148C36.3765 11.1346 36.6097 11.1346 36.7764 11.148C36.9263 11.1615 37.0929 11.1077 37.1596 11.027C37.2096 10.9597 37.1429 10.879 37.0096 10.879C36.5098 10.8387 36.4431 10.8252 36.2932 10.7041C36.2099 10.6369 36.2432 10.6234 36.3765 10.6772C36.4765 10.731 36.5931 10.7041 36.5931 10.6369C36.6431 10.2871 36.6597 10.2333 36.793 10.1392C37.1096 9.88361 36.8597 9.8029 36.5264 10.0585C36.3098 10.2199 36.0932 10.3544 36.0266 10.3544C35.8267 10.3544 36.1432 9.8836 36.5598 9.56077C36.8375 9.35451 36.8541 9.27381 36.6097 9.31865C36.4098 9.359 36.2765 9.3321 36.3265 9.27829C36.3765 9.21103 36.3098 9.13033 36.2099 9.10343C36.0932 9.06308 36.1266 9.02271 36.3098 9.02271C36.4931 9.00926 36.5764 8.96891 36.5098 8.91511C36.3432 8.76714 35.91 8.75368 35.91 8.88819C35.91 8.95545 35.71 8.942 35.4768 8.87475C35.2435 8.79404 34.9769 8.78058 34.8769 8.82094C34.7603 8.88819 34.7437 8.84784 34.8103 8.75368C34.8936 8.65952 35.0602 8.61917 35.1935 8.65953C35.5434 8.76714 35.8433 8.60572 35.5601 8.45776C35.3768 8.3636 35.4101 8.33669 35.66 8.33669C35.8822 8.32772 35.8877 8.26046 35.6767 8.13492C35.5101 8.02731 35.2768 7.97351 35.1769 8.02732C35.0769 8.06767 35.0436 8.06766 35.1102 8.0004C35.1769 7.9466 35.1602 7.79864 35.0436 7.70448C34.8936 7.55651 34.8936 7.48925 35.0935 7.39509C35.2602 7.30093 35.2768 7.23367 35.1435 7.12606C34.9936 7.005 34.8936 7.01846 34.727 7.16642C34.5437 7.32784 34.4271 7.32784 33.9772 7.17987C33.694 7.08571 33.4107 7.0319 33.3607 7.07225C33.3108 7.11261 33.2941 7.04536 33.3108 6.89739C33.3441 6.73598 33.4774 6.66872 33.7273 6.69562C33.9106 6.72252 34.0772 6.68216 34.0772 6.60145C34.0772 6.39968 33.7106 6.34589 33.0942 6.4804C32.7276 6.57456 32.4777 6.5611 32.3611 6.46694C32.1278 6.27862 31.8612 6.27862 32.0112 6.46694C32.0778 6.57455 31.9612 6.588 31.5946 6.52075C31.0948 6.44004 30.9781 6.52075 31.0615 6.89739C31.0781 6.96465 31.0115 6.97809 30.9282 6.93774C30.8449 6.88393 30.7282 6.91084 30.6616 6.99155C30.5949 7.08571 30.4616 7.08571 30.2284 6.99155C29.8951 6.84358 29.8452 6.92429 29.8951 7.59686C29.8951 7.78518 29.8785 7.81208 29.7952 7.66412C29.5952 7.23367 29.3953 7.12607 29.162 7.30094C28.9288 7.4758 29.0121 7.83899 29.262 7.71793C29.3453 7.67757 29.362 7.58342 29.312 7.50271C29.2453 7.40855 29.2787 7.39509 29.3953 7.4489C29.6452 7.58341 29.362 7.87934 28.8955 8.0004C28.7122 8.05421 28.6289 8.14838 28.6955 8.24254C28.7788 8.3636 28.7455 8.3636 28.5622 8.24254C28.279 8.05422 27.8791 8.21563 27.9458 8.4712C27.9791 8.57881 27.9291 8.65952 27.8291 8.67297C27.3793 8.69988 26.7461 8.8882 26.7461 8.99581C26.7461 9.06307 26.6128 9.08997 26.4462 9.06307C26.2963 9.02272 25.9964 9.11687 25.7964 9.26484C25.5965 9.41281 25.13 9.57422 24.7634 9.62802C24.3968 9.68183 24.1136 9.76254 24.1636 9.8029C24.1969 9.8567 24.0136 9.87016 23.7304 9.84326C23.4471 9.81636 23.2472 9.84325 23.2472 9.93741C23.2472 10.0181 23.1139 10.0316 22.8973 9.97777C22.4308 9.82981 21.3811 9.93742 21.5311 10.1257C21.5977 10.2199 21.5311 10.2333 21.3145 10.1661C20.8479 10.0181 20.0815 9.97777 20.0815 10.1123C20.0815 10.1795 19.8816 10.1392 19.6317 10.045C19.3651 9.93742 19.0652 9.88361 18.9652 9.91052C18.8486 9.95087 18.7486 9.91052 18.7486 9.84326C18.7486 9.76255 18.432 9.66838 18.0488 9.61457C17.6489 9.56077 17.0991 9.39935 16.8159 9.26484C16.5326 9.13033 16.1327 9.00926 15.9328 9.00926C15.7162 9.00926 15.5829 8.92856 15.5829 8.76714C15.5829 8.64608 15.233 8.37705 14.8165 8.16183C14.3666 7.94661 14.0834 7.71793 14.1333 7.62377C14.2333 7.422 13.8334 6.77633 13.6335 6.81669C13.5669 6.84359 13.5002 6.77633 13.4835 6.68217C13.4336 6.23828 13.4002 6.17101 13.2336 6.26517C13.1003 6.31897 13.0837 6.22482 13.1503 5.94234C13.2336 5.67332 13.1836 5.485 13.017 5.33703C12.8671 5.21597 12.7504 5.02764 12.7504 4.90657C12.7504 4.78551 12.6671 4.73171 12.5838 4.77206C12.4839 4.82587 12.4505 4.93348 12.5172 5.01419C12.5672 5.10835 12.4505 5.02763 12.2673 4.85277C12.0673 4.6779 11.9507 4.50303 12.0007 4.44922C12.0507 4.40887 12.1673 4.46268 12.2506 4.57029C12.3839 4.74516 12.4172 4.73171 12.4839 4.57029C12.6005 4.31471 12.5338 4.04569 12.2839 3.6556C12.1006 3.41348 12.1173 3.35966 12.3172 3.35966C12.4672 3.35966 12.5338 3.2655 12.5005 3.09063C12.4672 2.94267 12.5005 2.8216 12.6005 2.8216C12.6838 2.8216 12.7504 2.75435 12.7504 2.68709C12.7504 2.60638 12.6005 2.55257 12.4339 2.55257C12.2506 2.55257 12.0507 2.48532 11.984 2.40461C11.9007 2.297 11.8341 2.297 11.7508 2.41806C11.6674 2.52567 11.6008 2.51222 11.5175 2.3508C11.4342 2.16248 11.5008 2.13558 11.9174 2.21629C12.2339 2.27009 12.4172 2.25664 12.4172 2.16248C12.4172 2.08177 12.3339 2.01452 12.2339 2.01452C12.1506 2.01452 12.1173 1.96071 12.1673 1.88C12.2339 1.79929 12.1506 1.78585 11.984 1.83966C11.7674 1.90692 11.7341 1.86656 11.8341 1.63789C11.9174 1.40921 11.8674 1.34195 11.6175 1.34195C11.4342 1.34195 11.2009 1.24779 11.0843 1.14017C10.8177 0.884597 10.5844 1.00567 10.6011 1.38231C10.6011 1.65133 10.6178 1.66478 10.7344 1.42265C10.8177 1.23433 10.901 1.20743 10.9843 1.3285C11.0676 1.42266 11.0676 1.53028 11.0176 1.57063C10.9677 1.61098 11.001 1.73205 11.101 1.83966C11.2509 1.97417 11.2342 2.01452 11.0176 2.01452C10.851 2.01452 10.7844 1.94726 10.8344 1.88C10.8844 1.79929 10.8677 1.74549 10.7844 1.74549C10.5678 1.74549 10.3845 2.13559 10.5178 2.31046C10.5844 2.37772 10.4512 2.36426 10.2346 2.2701C10.018 2.17594 9.76803 2.10868 9.70138 2.12213C9.61807 2.13559 9.61807 2.08178 9.66806 2.00107C9.7347 1.92036 9.91798 1.88001 10.0846 1.92036C10.4345 1.98762 10.4345 1.59753 10.0846 1.50337C9.96797 1.46302 9.91798 1.50337 9.98463 1.59753C10.0679 1.69169 9.95131 1.74549 9.68472 1.74549C9.05158 1.74549 9.15155 1.51681 9.81801 1.42265C10.2845 1.35539 10.4178 1.26124 10.5011 0.924954C10.5844 0.642474 10.6844 0.534863 10.851 0.588668C10.9843 0.629023 11.0843 0.602117 11.0843 0.534859C11.0843 0.454151 10.851 0.413806 10.5511 0.427258C10.2679 0.440709 10.0013 0.3869 9.96797 0.306192C9.91798 0.212032 9.80135 0.171668 9.66806 0.212022C9.55143 0.252376 9.30151 0.225473 9.11823 0.144765C8.86831 0.0371532 8.75167 0.0371631 8.70169 0.171677C8.63504 0.29274 8.58506 0.292744 8.40178 0.158229C8.1352 -0.0435422 7.75198 -0.0570068 7.75198 0.144765ZM8.36846 0.588668C8.31847 0.69628 8.45177 0.830794 8.68503 0.924954C9.18487 1.09982 9.30151 1.11327 9.16821 0.95185C9.11823 0.884593 9.15155 0.790437 9.25152 0.736631C9.35149 0.696277 9.41814 0.790443 9.41814 0.978763C9.41814 1.24779 9.35149 1.28815 8.91829 1.23434C8.65171 1.20744 8.46843 1.12673 8.51841 1.05947C8.5684 0.992211 8.48509 0.938402 8.3518 0.938402C8.20185 0.938402 8.08521 0.871145 8.08521 0.803888C8.08521 0.709728 7.98524 0.709728 7.76865 0.803888C7.35211 0.978757 7.25214 0.97876 7.25214 0.79044C7.25214 0.723183 7.31878 0.682828 7.40209 0.723183C7.4854 0.763537 7.58537 0.709728 7.65201 0.602117C7.702 0.494505 7.90194 0.400345 8.10188 0.400345C8.33514 0.400345 8.41844 0.467606 8.36846 0.588668ZM7.0522 1.16709C6.88558 1.19399 6.75229 1.28815 6.75229 1.36886C6.75229 1.44957 6.70231 1.48992 6.65232 1.43612C6.48571 1.3016 6.75229 1.07291 7.0522 1.08636C7.30212 1.09982 7.30212 1.11328 7.0522 1.16709ZM8.3518 1.82619C7.98524 1.97416 7.58537 1.93381 7.58537 1.73204C7.58537 1.66478 7.702 1.61097 7.83529 1.61097C7.96858 1.61097 8.06855 1.57063 8.06855 1.50337C8.00191 1.22089 8.11854 1.18052 8.38512 1.42265C8.68503 1.66478 8.68503 1.67823 8.3518 1.82619ZM8.91829 1.93381C8.91829 1.96071 8.76834 2.01452 8.58506 2.05488C8.40178 2.09523 8.25183 2.06833 8.25183 2.00107C8.25183 1.93381 8.40178 1.88 8.58506 1.88C8.76834 1.88 8.91829 1.90691 8.91829 1.93381ZM8.53508 2.56602C8.43511 2.8485 8.48509 2.95612 8.90163 3.60179C9.01826 3.77666 9.06824 3.95153 9.01826 3.99189C8.90163 4.0995 8.5684 3.89772 8.66837 3.7632C8.71835 3.7094 8.63504 3.62868 8.50175 3.57488C8.36846 3.53452 8.18518 3.61524 8.10188 3.73631C8.00191 3.85737 7.9186 3.89772 7.9186 3.80356C7.9186 3.72285 8.08521 3.54798 8.30181 3.42692C8.61838 3.25205 8.63504 3.19824 8.41844 3.09063C8.06855 2.91576 8.03523 2.28355 8.36846 2.28355C8.55174 2.28355 8.60172 2.36425 8.53508 2.56602ZM7.58537 3.48073C7.58537 3.54798 7.43541 3.62869 7.25214 3.66905C6.88558 3.74976 6.78561 3.56144 7.13551 3.45383C7.45208 3.34622 7.58537 3.34621 7.58537 3.48073ZM9.36815 4.73172C9.31817 4.83933 9.26818 4.79896 9.26818 4.65099C9.25152 4.50303 9.30151 4.42233 9.35149 4.47613C9.40147 4.51649 9.41814 4.63756 9.36815 4.73172ZM12.8671 5.45808C12.8171 5.49843 12.6671 5.5119 12.5505 5.47154C12.4172 5.43119 12.4672 5.39082 12.6505 5.39082C12.8337 5.37737 12.9337 5.41773 12.8671 5.45808ZM13.9167 7.32783C13.9167 7.43544 13.8834 7.5296 13.8501 7.5296C13.8168 7.5296 13.7501 7.43544 13.6835 7.32783C13.6335 7.22022 13.6668 7.12606 13.7501 7.12606C13.8501 7.12606 13.9167 7.22022 13.9167 7.32783ZM30.6283 7.66412C30.6782 7.82553 30.6283 7.93315 30.5116 7.93315C30.4117 7.93315 30.3117 7.81208 30.3117 7.66412C30.3117 7.51615 30.3617 7.39509 30.4283 7.39509C30.495 7.39509 30.5783 7.51615 30.6283 7.66412ZM33.2441 7.78518C33.2441 7.98696 32.2777 8.21563 32.1445 8.04076C32.0778 7.96006 32.0945 7.9197 32.1778 7.97351C32.2611 8.01386 32.511 7.96005 32.7443 7.85244C33.0775 7.70896 33.2441 7.68654 33.2441 7.78518ZM31.9112 8.0004C31.9112 8.10801 31.8445 8.20217 31.7446 8.20217C31.6613 8.20217 31.628 8.10801 31.6779 8.0004C31.7446 7.89279 31.8112 7.79863 31.8446 7.79863C31.8779 7.79863 31.9112 7.89279 31.9112 8.0004ZM14.3833 8.49812C14.3499 8.59228 14.4166 8.65953 14.4999 8.64608C14.5999 8.64608 14.7498 8.71333 14.8665 8.80749C15.0164 8.942 14.9997 8.99582 14.7332 9.04962C14.5665 9.08998 14.4499 9.07652 14.4999 9.00926C14.5499 8.95545 14.4166 8.87476 14.2167 8.8344C13.9167 8.76714 13.9001 8.72678 14.0834 8.55191C14.3333 8.29633 14.4333 8.28289 14.3833 8.49812ZM29.6786 8.49812C29.7452 8.59228 29.7452 8.63263 29.6619 8.57882C29.5952 8.52502 29.4286 8.53847 29.2953 8.63263C29.1121 8.74024 29.0954 8.72678 29.1787 8.55191C29.2953 8.29633 29.5119 8.26944 29.6786 8.49812ZM34.5437 8.65953C34.3771 8.75369 34.2938 8.87475 34.3438 8.91511C34.3938 8.95546 34.2771 8.95546 34.0772 8.91511C33.694 8.8344 33.8106 8.67298 34.3271 8.56537C34.6715 8.5026 34.7437 8.53398 34.5437 8.65953ZM31.578 8.95545C31.578 8.98235 31.428 9.00926 31.2447 9.00926C31.0615 9.00926 30.9115 8.95545 30.9115 8.88819C30.9115 8.82094 31.0615 8.79405 31.2447 8.8344C31.428 8.87476 31.578 8.92855 31.578 8.95545ZM33.694 9.48006C33.694 9.58767 33.6273 9.64148 33.544 9.60113C33.4607 9.56077 33.4441 9.46661 33.494 9.39935C33.644 9.22449 33.694 9.25139 33.694 9.48006ZM16.4993 9.54732C16.5659 9.62803 16.3993 9.68184 16.1327 9.66838C15.7162 9.66838 15.6995 9.65493 15.9994 9.54732C16.1827 9.48006 16.3493 9.42625 16.366 9.42625C16.3827 9.4128 16.4493 9.46661 16.4993 9.54732ZM30.7449 9.68183C30.7449 9.74909 30.6116 9.81635 30.4616 9.81635C30.2117 9.81635 30.1951 9.78944 30.4117 9.68183C30.7282 9.52041 30.7449 9.52041 30.7449 9.68183ZM35.5767 9.68183C35.5767 9.74909 35.5434 9.81635 35.5101 9.81635C35.4601 9.81635 35.3768 9.74909 35.3268 9.68183C35.2768 9.60112 35.3101 9.54732 35.3935 9.54732C35.4934 9.54732 35.5767 9.60112 35.5767 9.68183ZM35.1435 9.93741C35.1935 9.99122 35.0769 10.0316 34.9103 10.0181C34.4604 9.99121 34.3604 9.88361 34.7437 9.85671C34.9269 9.84326 35.1102 9.88361 35.1435 9.93741ZM11.4175 10.2333C11.4175 10.3006 11.3009 10.3544 11.1676 10.3544C11.0176 10.3544 10.9677 10.2737 11.0176 10.1526C11.1176 9.95086 11.4175 10.0047 11.4175 10.2333ZM36.0766 10.61C36.0766 10.6772 35.9599 10.7714 35.81 10.8118C35.5767 10.879 35.5601 10.8656 35.7433 10.6907C35.9766 10.462 36.0766 10.4351 36.0766 10.61ZM19.8316 11.027C19.7816 11.0942 19.6483 11.1615 19.565 11.1615C19.465 11.1615 19.4484 11.0942 19.4984 11.027C19.5483 10.9463 19.6816 10.8925 19.7649 10.8925C19.8649 10.8925 19.8816 10.9463 19.8316 11.027ZM25.1633 11.027C25.2133 11.0942 25.1466 11.1615 25.0133 11.1615C24.88 11.1615 24.7134 11.0942 24.6634 11.027C24.6134 10.9463 24.6801 10.8925 24.8134 10.8925C24.9467 10.8925 25.1133 10.9463 25.1633 11.027ZM24.1802 11.2287C23.997 11.3364 23.6138 11.4709 23.2972 11.5112C22.9973 11.5516 22.7973 11.6457 22.8473 11.713C22.8973 11.7803 22.7474 11.8341 22.5141 11.8341C21.9809 11.8341 21.7976 11.6054 22.2475 11.4978C22.4308 11.4574 22.5807 11.3633 22.5807 11.296C22.5807 11.2287 22.8307 11.1884 23.1472 11.2153C23.4471 11.2287 23.847 11.2018 24.0136 11.148C24.4968 11.0001 24.5301 11.0135 24.1802 11.2287ZM17.9988 11.296C18.0488 11.3767 17.9822 11.3902 17.8489 11.3498C17.549 11.2557 17.499 11.1615 17.7322 11.1615C17.8322 11.1615 17.9488 11.2153 17.9988 11.296ZM20.2481 11.6727C20.2481 11.7265 20.0982 11.7803 19.9316 11.7803C19.7483 11.7803 19.6483 11.7265 19.6816 11.6727C19.7316 11.6188 19.8816 11.565 20.0149 11.565C20.1482 11.565 20.2481 11.6188 20.2481 11.6727ZM24.3469 11.8341C24.4968 11.8341 24.5635 11.8879 24.5135 11.9551C24.4468 12.0224 24.2469 12.0089 24.0136 11.9282C23.747 11.8206 23.6637 11.7399 23.797 11.6727C23.9137 11.6188 24.0303 11.6323 24.047 11.6995C24.0803 11.7803 24.2136 11.8341 24.3469 11.8341ZM11.3842 11.8744C11.5841 11.8341 11.6674 11.9148 11.6841 12.1569C11.7174 12.4394 11.6674 12.4797 11.4342 12.3856C11.2676 12.3049 11.0676 12.3183 10.8677 12.4394C10.4845 12.668 10.5011 12.9102 10.9343 12.9102C11.1176 12.9102 11.2176 12.964 11.1676 13.0447C11.1176 13.1119 11.1676 13.1389 11.3009 13.0985C11.4342 13.0581 11.5342 13.112 11.5342 13.2196C11.5342 13.4482 10.901 13.3541 10.7011 13.0985C10.6344 13.0043 10.4678 12.9505 10.3512 12.9909C10.2179 13.0312 10.0346 12.9371 9.91798 12.7757C9.68472 12.4259 9.7347 12.3856 10.3179 12.3452C10.6178 12.3183 10.7344 12.2511 10.6678 12.1165C10.6178 12.0089 10.6678 11.8744 10.7844 11.8206C10.901 11.7534 11.0176 11.7668 11.051 11.8206C11.0843 11.8879 11.2342 11.9148 11.3842 11.8744ZM20.9979 11.8341C21.0479 11.9148 20.9812 11.9282 20.8479 11.8879C20.548 11.7937 20.4981 11.6995 20.7313 11.6995C20.8313 11.6995 20.9479 11.7534 20.9979 11.8341ZM21.6477 11.861C21.5977 11.9148 21.4977 11.9686 21.3978 11.9686C21.3145 11.9686 21.2478 11.9148 21.2478 11.861C21.2478 11.7937 21.3645 11.7399 21.4977 11.7399C21.631 11.7399 21.6977 11.7937 21.6477 11.861ZM13.2503 12.1703C13.1337 12.278 12.967 12.3721 12.8671 12.3721C12.7671 12.3721 12.8337 12.278 13.017 12.1703C13.4336 11.9148 13.5169 11.9148 13.2503 12.1703ZM22.4141 12.0224C22.4141 12.0627 22.3475 12.13 22.2475 12.1703C22.1642 12.2107 22.0809 12.1838 22.0809 12.1165C22.0809 12.0358 22.1642 11.9686 22.2475 11.9686C22.3475 11.9686 22.4141 11.9955 22.4141 12.0224ZM15.0164 12.278C15.0497 12.3049 14.8165 12.3318 14.4999 12.3318C14.1833 12.3318 13.9167 12.278 13.9167 12.2107C13.9167 12.0896 14.8665 12.1569 15.0164 12.278ZM17.0158 12.2511C17.0991 12.3587 16.9658 12.3856 16.5826 12.3452C16.2327 12.3049 16.0161 12.3452 15.9661 12.4663C15.9161 12.5604 15.7495 12.6411 15.5829 12.6411C15.4163 12.6411 15.1997 12.7353 15.0831 12.8429C14.8331 13.085 14.4999 13.112 14.6832 12.8833C14.7498 12.7891 14.7332 12.7757 14.5999 12.8295C14.3 12.9909 14.5832 13.2061 15.0164 13.1389C15.3163 13.0985 15.4163 13.1388 15.4163 13.3272C15.4163 13.4751 15.5163 13.5827 15.6495 13.5827C15.7662 13.5827 15.9661 13.6769 16.0994 13.798C16.2327 13.9325 16.4826 13.9863 16.8159 13.9459C17.0991 13.919 17.5323 13.9325 17.7989 13.9997C18.0655 14.067 18.2154 14.0535 18.1654 13.9728C18.0321 13.8114 18.3654 13.8114 18.7653 13.9863C19.1651 14.1612 19.1651 14.3091 18.7986 14.6051C18.5153 14.8337 18.532 14.8337 18.9485 14.753C19.1985 14.6992 19.4317 14.7127 19.4817 14.7665C19.5317 14.8203 19.8316 14.8472 20.1482 14.8203C20.4814 14.7934 20.7147 14.7127 20.6647 14.6589C20.6147 14.6051 20.748 14.5244 20.9313 14.484C21.1534 14.4392 21.1756 14.4974 20.9979 14.6589C20.8479 14.7934 20.7646 14.9817 20.8313 15.049C20.8813 15.1297 20.8479 15.1969 20.7646 15.1969C20.6647 15.1969 20.5814 15.2642 20.5814 15.3314C20.5814 15.4121 20.8979 15.4525 21.3145 15.4256C22.1142 15.3718 22.6307 15.5063 22.1809 15.6408C22.0309 15.6946 21.7976 15.6812 21.631 15.6408C21.4478 15.587 21.3978 15.6005 21.4811 15.7081C21.5644 15.8157 21.5144 15.8426 21.3478 15.7888C21.1978 15.7484 21.0812 15.7753 21.0812 15.8695C21.0812 15.9502 21.0146 15.9771 20.9146 15.9367C20.8313 15.8964 20.748 15.9502 20.748 16.0578C20.748 16.1789 20.6647 16.273 20.5647 16.273C20.4814 16.273 20.4481 16.3403 20.5147 16.4345C20.598 16.5286 20.5647 16.5421 20.4147 16.4748C20.2981 16.421 20.1648 16.4345 20.0982 16.5017C19.9649 16.69 18.7486 16.8515 18.7486 16.7035C18.7486 16.6228 18.8652 16.5286 19.0152 16.4883C19.1651 16.4344 19.2484 16.3672 19.1985 16.3134C19.1318 16.273 18.9819 16.3134 18.8319 16.4075C18.6153 16.5555 18.4653 16.5421 17.9488 16.3672C17.0658 16.0578 16.8159 16.0175 15.4996 15.9906C14.7998 15.9637 14.1833 16.0175 13.9501 16.1116C13.6502 16.2461 13.5835 16.2461 13.6168 16.1116C13.7001 15.8022 12.5338 15.9905 12.1673 16.3537C11.9674 16.5286 11.7674 16.6766 11.6841 16.6766C11.6175 16.6766 11.6841 16.5824 11.8174 16.4614C12.1673 16.1923 12.0173 16.004 11.5508 16.1116C11.2842 16.1654 11.2342 16.1385 11.3509 15.9906C11.5008 15.7888 11.5342 15.7215 11.5675 15.3987C11.5675 15.2911 11.7008 15.1969 11.8341 15.1969C12.134 15.1969 12.1673 14.7799 11.884 14.5243C11.7008 14.3629 11.7174 14.3629 11.9507 14.5109C12.184 14.6454 12.2506 14.632 12.4005 14.4033C12.5338 14.215 12.5338 14.1208 12.3672 14.0805C12.2673 14.0401 12.3172 13.9997 12.4839 13.9997C12.6671 13.9863 12.7671 13.9459 12.7005 13.9056C12.6505 13.8652 12.8004 13.5693 13.0337 13.2599C13.2836 12.964 13.4669 12.6277 13.4669 12.5335C13.4669 12.4125 13.5835 12.3856 13.8168 12.4394C14.6998 12.668 14.9331 12.668 15.2497 12.4394C15.4163 12.3183 15.6329 12.2511 15.7329 12.2914C15.8162 12.3452 15.9328 12.3318 15.9828 12.2645C16.0994 12.1031 16.8825 12.0896 17.0158 12.2511ZM23.4138 12.5066C23.4138 12.5739 23.2639 12.5873 23.0972 12.547C22.8973 12.5066 22.814 12.399 22.864 12.2914C22.9306 12.1434 23.0139 12.13 23.1806 12.2511C23.3138 12.3318 23.4138 12.4528 23.4138 12.5066ZM18.532 12.3318C18.3654 12.3721 18.2987 12.4528 18.3654 12.547C18.432 12.6412 18.3654 12.6412 18.1988 12.5335C18.0488 12.4259 17.8322 12.399 17.7322 12.4528C17.5989 12.5066 17.5823 12.4932 17.6489 12.399C17.7156 12.3049 18.0155 12.2511 18.2987 12.2511C18.5986 12.2645 18.6986 12.2914 18.532 12.3318ZM20.798 12.3318C20.6813 12.3587 20.4814 12.3587 20.3814 12.3318C20.2648 12.2914 20.3481 12.2645 20.5814 12.2645C20.8146 12.2645 20.8979 12.2914 20.798 12.3318ZM33.0775 12.4259C33.0775 12.4663 33.0109 12.5335 32.9109 12.5739C32.8276 12.6142 32.7443 12.5873 32.7443 12.5201C32.7443 12.4394 32.8276 12.3721 32.9109 12.3721C33.0109 12.3721 33.0775 12.399 33.0775 12.4259ZM11.5841 12.7891C11.5841 12.9774 11.3009 12.9236 11.2009 12.7219C11.1343 12.5873 11.1843 12.547 11.3509 12.6008C11.4675 12.6412 11.5841 12.7219 11.5841 12.7891ZM20.1981 12.7219C20.1482 12.7622 19.9982 12.7757 19.8816 12.7353C19.7483 12.695 19.7983 12.6546 19.9815 12.6546C20.1648 12.6411 20.2648 12.6815 20.1981 12.7219ZM18.1654 12.9102C18.1155 12.9774 17.9655 13.0447 17.8655 13.0447C17.7489 13.0447 17.7656 12.9909 17.9155 12.9102C18.2321 12.7488 18.2987 12.7488 18.1654 12.9102ZM18.9652 12.8698C18.8486 12.8967 18.6486 12.8967 18.5487 12.8698C18.432 12.8295 18.5153 12.8026 18.7486 12.8026C18.9819 12.8026 19.0652 12.8295 18.9652 12.8698ZM9.75137 13.0447C9.93464 13.1254 10.0346 13.2734 9.98463 13.381C9.90132 13.5424 9.85134 13.5424 9.61807 13.3541C9.45146 13.233 9.33483 13.1927 9.28484 13.2868C9.25152 13.3675 9.11823 13.3944 8.98494 13.3541C8.785 13.3003 8.785 13.2465 9.03492 13.0985C9.40147 12.8833 9.36815 12.8833 9.75137 13.0447ZM19.9815 13.0716C19.9316 13.1254 19.9649 13.1792 20.0649 13.1792C20.1482 13.1792 20.2648 13.1254 20.3314 13.0581C20.3814 12.9774 20.748 12.9371 21.1479 12.9505C21.5477 12.964 21.8476 13.0312 21.781 13.0985C21.731 13.1658 21.8143 13.1927 21.9643 13.1389C22.1142 13.0985 22.2808 13.1119 22.3308 13.1927C22.3975 13.2734 22.0642 13.3137 21.4644 13.2868C20.9312 13.2734 20.3981 13.3003 20.2981 13.3541C20.1981 13.4079 20.0482 13.381 19.9982 13.3003C19.9316 13.2196 19.715 13.1119 19.515 13.0447C19.1985 12.9371 19.1985 12.9236 19.615 12.9505C19.8649 12.964 20.0149 13.0178 19.9815 13.0716ZM11.2342 13.5693C11.4175 13.6635 11.3842 13.7038 11.101 13.7845C10.9177 13.8249 10.7511 13.9325 10.7511 14.0132C10.7511 14.0939 10.6011 14.1208 10.4178 14.0805C10.2346 14.0401 10.0513 14.0535 10.0013 14.1208C9.93464 14.2015 8.51841 14.7934 8.36846 14.7934C8.16852 14.7934 8.38512 14.2553 8.58506 14.2419C8.71835 14.2284 8.93495 14.215 9.06824 14.2015C9.4348 14.1746 9.48478 13.8518 9.13489 13.8383C8.95161 13.8383 8.91829 13.798 9.05158 13.7576C9.16821 13.7173 9.35149 13.7576 9.46812 13.8249C9.60141 13.919 9.76803 13.919 9.91798 13.8518C10.0679 13.7711 10.2512 13.798 10.4012 13.8921C10.6011 14.0267 10.6178 14.0132 10.5178 13.8652C10.4345 13.7576 10.4678 13.6366 10.6011 13.5693C10.8844 13.4213 10.951 13.4213 11.2342 13.5693ZM16.4326 13.6769C16.6492 13.8921 16.6326 13.9056 16.3827 13.7307C16.216 13.6365 16.0827 13.5289 16.0827 13.502C16.0827 13.3944 16.216 13.4617 16.4326 13.6769ZM20.0982 13.919C20.4147 14.0266 20.6313 14.1208 20.5814 14.1208C20.1482 14.1746 19.4151 14.2015 19.665 14.1612C19.9482 14.1074 19.9316 14.067 19.4984 13.919C19.2151 13.8114 19.1151 13.7307 19.2651 13.7307C19.4151 13.7173 19.7983 13.8114 20.0982 13.919ZM10.3678 14.5243C10.4012 14.7934 10.2346 14.8741 10.0346 14.6992C9.96797 14.6589 10.0013 14.5378 10.1013 14.4302C10.3512 14.2015 10.3345 14.2015 10.3678 14.5243ZM31.2614 14.4975C31.0281 14.6185 30.6949 14.7261 30.5116 14.7261C30.2784 14.7261 30.1451 14.8203 30.1117 15.0221C30.0618 15.3314 29.5786 15.7484 29.5786 15.4929C29.5786 15.4122 29.6619 15.3045 29.7452 15.2642C29.8785 15.1969 29.8618 15.1028 29.7119 14.9548C29.5453 14.7934 29.5453 14.7665 29.7119 14.8472C29.8285 14.901 29.9618 14.8606 30.0118 14.7396C30.0784 14.6051 30.2617 14.5513 30.495 14.5782C30.7116 14.6185 30.9782 14.5513 31.0948 14.4436C31.1948 14.336 31.378 14.2553 31.478 14.2688C31.578 14.2688 31.478 14.3764 31.2614 14.4975ZM21.7477 14.5782C21.7477 14.6185 21.681 14.6858 21.581 14.7261C21.4977 14.7665 21.4144 14.7396 21.4144 14.6723C21.4144 14.5916 21.4977 14.5243 21.581 14.5243C21.681 14.5243 21.7477 14.5513 21.7477 14.5782ZM9.33483 14.9279C9.28484 14.9951 9.08491 15.0624 8.91829 15.0624C8.43511 15.0624 8.3518 15.318 8.76834 15.587L9.15155 15.8291L8.785 15.9233C8.3518 16.0444 8.03523 15.9099 8.18518 15.6946C8.25183 15.6005 8.10188 15.6812 7.86861 15.856C7.63535 16.0309 7.33544 16.1385 7.20215 16.0982C7.06886 16.0578 6.86892 16.0982 6.76895 16.1789C6.63566 16.2865 6.58568 16.2865 6.58568 16.1654C6.58568 16.0175 6.81894 15.9502 7.15217 15.9906C7.36877 16.0309 7.9186 15.587 7.81863 15.4525C7.76864 15.3852 7.85195 15.3718 7.98524 15.4121C8.30181 15.5063 8.33514 15.318 8.05189 15.0759C7.86861 14.9413 7.88528 14.9279 8.10188 14.9951C8.26849 15.049 8.43511 15.022 8.50175 14.9413C8.55174 14.8606 8.785 14.7934 9.01826 14.7934C9.25152 14.7934 9.38481 14.8472 9.33483 14.9279ZM30.7449 15.0086C30.7449 15.0355 30.6283 15.0624 30.495 15.0624C30.3617 15.0624 30.245 15.0086 30.245 14.9279C30.245 14.8606 30.3617 14.8337 30.495 14.8741C30.6283 14.9279 30.7449 14.9817 30.7449 15.0086ZM9.88466 15.0893C9.85134 15.17 9.71804 15.2642 9.61807 15.2776C9.50144 15.2911 9.48478 15.2776 9.58475 15.2373C9.66806 15.2104 9.71804 15.1162 9.6514 15.049C9.60141 14.9817 9.6514 14.9279 9.75137 14.9279C9.868 14.9279 9.91798 14.9952 9.88466 15.0893ZM7.41875 15.5736C7.41875 15.6274 7.2688 15.6812 7.08552 15.6812C6.71897 15.6812 6.63566 15.5198 6.96889 15.4256C7.20215 15.3583 7.41875 15.4391 7.41875 15.5736ZM23.797 15.587C23.8803 15.6005 23.8803 15.6677 23.8137 15.7484C23.7304 15.856 23.6637 15.856 23.5804 15.735C23.4971 15.6139 23.4305 15.6139 23.3472 15.7215C23.1806 15.9368 22.914 15.9098 23.0139 15.6812C23.0639 15.5736 23.2305 15.5063 23.3805 15.5332C23.5304 15.5601 23.7304 15.587 23.797 15.587ZM9.70138 15.6812C9.6514 15.7215 9.50144 15.735 9.38481 15.6946C9.25152 15.6543 9.30151 15.6139 9.48478 15.6139C9.66806 15.6005 9.76803 15.6408 9.70138 15.6812ZM25.1966 15.7081C25.3299 15.7753 25.2466 15.8695 24.9134 15.9637C24.5301 16.0847 24.4135 16.0713 24.4135 15.9502C24.4135 15.6139 24.7967 15.5063 25.1966 15.7081ZM8.98494 16.2058C8.91829 16.3268 8.98494 16.4075 9.13489 16.4075C9.28484 16.4075 9.4348 16.4614 9.48478 16.5152C9.51811 16.569 9.28484 16.5959 8.95161 16.5555C8.61838 16.5286 8.43511 16.4748 8.55174 16.4479C8.65171 16.4076 8.75167 16.2999 8.75167 16.1923C8.75167 16.0847 8.81832 16.004 8.91829 16.004C9.0016 16.004 9.03492 16.0982 8.98494 16.2058ZM26.213 16.0982C26.0463 16.1251 25.7798 16.1251 25.6298 16.0982C25.4632 16.0578 25.5965 16.0309 25.913 16.0309C26.2296 16.0309 26.3629 16.0578 26.213 16.0982ZM13.4169 16.1923C13.4169 16.2327 13.3503 16.2999 13.2503 16.3403C13.167 16.3806 13.0837 16.3537 13.0837 16.2865C13.0837 16.2058 13.167 16.1385 13.2503 16.1385C13.3503 16.1385 13.4169 16.1654 13.4169 16.1923ZM21.4977 16.273C21.4478 16.3537 21.5644 16.4075 21.781 16.421C22.1475 16.421 22.1475 16.4345 21.831 16.5421C21.3311 16.7169 21.2645 16.7035 21.3311 16.4345C21.4144 16.1251 21.3978 16.1385 21.5144 16.1385C21.5644 16.1385 21.5477 16.1923 21.4977 16.273ZM7.13551 16.3941C7.50206 16.2192 7.53538 16.569 7.15217 16.8245C6.8356 17.0263 6.38574 16.8515 6.31909 16.5017C6.28577 16.3268 6.35242 16.2999 6.56902 16.3941C6.73563 16.4748 6.95223 16.4614 7.13551 16.3941ZM17.4657 16.4614C17.5323 16.5959 17.4823 16.6362 17.3157 16.5824C17.0658 16.5017 16.9991 16.273 17.2324 16.273C17.3157 16.273 17.4157 16.3672 17.4657 16.4614ZM24.83 16.4075C24.7801 16.4748 24.8134 16.5421 24.8967 16.5421C24.9967 16.5421 25.08 16.5959 25.08 16.6766C25.08 16.9322 24.6468 16.8111 24.6301 16.5421C24.6134 16.3941 24.6801 16.273 24.7634 16.273C24.8634 16.273 24.88 16.3268 24.83 16.4075ZM22.5807 16.5421C22.5807 16.6093 22.5474 16.6766 22.5141 16.6766C22.4641 16.6766 22.3808 16.6093 22.3308 16.5421C22.2808 16.4614 22.3142 16.4075 22.3975 16.4075C22.4974 16.4075 22.5807 16.4614 22.5807 16.5421ZM15.3663 16.6228C15.3163 16.6631 15.1664 16.6766 15.0497 16.6362C14.9164 16.5959 14.9664 16.5555 15.1497 16.5555C15.333 16.5421 15.4329 16.5824 15.3663 16.6228ZM23.2472 16.7573C23.2472 16.8649 22.9306 16.9322 22.8473 16.838C22.7973 16.7707 22.864 16.7169 22.9973 16.7169C23.1306 16.7169 23.2472 16.7438 23.2472 16.7573ZM23.897 16.7169C23.8637 16.7304 23.6971 16.838 23.5304 16.9322C23.2805 17.0936 23.2472 17.0936 23.3472 16.8918C23.3972 16.7707 23.5638 16.6766 23.7137 16.6766C23.847 16.6766 23.9303 16.69 23.897 16.7169ZM6.25245 17.1474C6.48571 17.255 6.63566 17.3491 6.58568 17.3491C6.53569 17.3626 6.35242 17.403 6.16914 17.4299C5.98586 17.4702 5.68595 17.4971 5.51934 17.4971C5.33606 17.4971 5.1028 17.5913 5.00283 17.7123C4.8862 17.8334 4.71959 17.8872 4.61962 17.8334C4.33637 17.6989 4.36969 17.4837 4.65294 17.5644C4.80289 17.6047 5.00283 17.4971 5.16945 17.2953C5.50268 16.8918 5.66929 16.8783 6.25245 17.1474ZM18.582 17.3088C18.5986 17.5375 18.6153 17.5375 18.7986 17.3223C18.9985 17.1205 19.0318 17.1205 19.2484 17.3895C19.4484 17.6451 19.4317 17.6585 19.2151 17.524C19.0485 17.403 18.9152 17.403 18.7986 17.4971C18.6653 17.6047 18.5653 17.5644 18.432 17.3626C18.2987 17.1743 18.2987 17.0801 18.4154 17.0801C18.4987 17.0801 18.582 17.1877 18.582 17.3088ZM19.5817 17.2146C19.5817 17.2819 19.5483 17.3491 19.515 17.3491C19.465 17.3491 19.3817 17.2819 19.3317 17.2146C19.2818 17.1339 19.3151 17.0801 19.3984 17.0801C19.4984 17.0801 19.5817 17.1339 19.5817 17.2146ZM13.1836 17.3761C13.2503 17.4433 13.067 17.4568 12.7838 17.4299C12.5005 17.403 12.2173 17.4164 12.1673 17.4568C12.0173 17.5778 11.5342 17.6047 11.3509 17.5106C11.2509 17.4568 11.4342 17.3895 11.7508 17.3491C12.5505 17.255 13.0337 17.2684 13.1836 17.3761ZM16.7492 17.4971C16.7492 17.5509 16.6326 17.5778 16.4993 17.5375C16.366 17.4837 16.2494 17.524 16.2494 17.6047C16.2494 17.6854 16.1661 17.7527 16.0827 17.7527C15.9661 17.7527 15.9661 17.672 16.0827 17.4837C16.2494 17.2415 16.7492 17.2415 16.7492 17.4971ZM22.9473 17.3088C22.8473 17.3357 22.7807 17.4299 22.8473 17.4971C22.8973 17.5644 22.864 17.6182 22.764 17.6182C22.5474 17.6182 22.3975 17.4164 22.5308 17.2953C22.5807 17.255 22.7474 17.2146 22.8973 17.2281C23.0806 17.2281 23.0972 17.255 22.9473 17.3088ZM10.9177 17.403C10.9177 17.4299 10.7844 17.5375 10.6344 17.6316C10.3678 17.8065 10.3512 17.7931 10.5678 17.5778C10.7844 17.3626 10.9177 17.2953 10.9177 17.403ZM14.6499 17.4702C14.7165 17.5375 14.5999 17.5644 14.4166 17.524C14.0334 17.4433 13.9834 17.3491 14.3166 17.3491C14.4499 17.3491 14.5999 17.403 14.6499 17.4702ZM24.7467 17.5375C24.7467 17.6854 24.4302 17.7392 24.3302 17.6182C24.2802 17.5509 24.3469 17.4837 24.4802 17.4837C24.6301 17.4837 24.7467 17.5106 24.7467 17.5375ZM15.8661 17.9814C15.7495 18.0621 15.0997 17.8469 15.183 17.7392C15.233 17.672 15.4163 17.6989 15.5829 17.7796C15.7662 17.8738 15.8828 17.9545 15.8661 17.9814ZM23.9636 17.7123C24.0136 17.7796 23.8637 17.8334 23.6471 17.8334C23.4305 17.8468 23.2972 17.8065 23.3472 17.7392C23.4471 17.5913 23.8637 17.5778 23.9636 17.7123ZM12.084 18.1159C11.9507 18.1562 11.7841 18.2504 11.7341 18.3311C11.6674 18.4118 11.5008 18.3984 11.3176 18.2907C11.051 18.1697 11.051 18.1428 11.2842 18.21C11.4508 18.2504 11.6175 18.2235 11.6674 18.1562C11.7341 18.0755 11.9007 18.0217 12.0507 18.0352C12.2839 18.0352 12.2839 18.0621 12.084 18.1159ZM13.2336 18.2639C13.3836 18.4791 13.3336 18.506 12.9337 18.4522C12.6671 18.4253 12.2839 18.4656 12.0673 18.5598C11.6841 18.7077 11.6841 18.6943 11.984 18.506C12.1673 18.3849 12.4505 18.2907 12.6338 18.2907C12.8004 18.2907 12.8837 18.2235 12.8337 18.1562C12.7838 18.0755 12.8004 18.0217 12.9004 18.0217C13.0004 18.0217 13.1503 18.1293 13.2336 18.2639ZM13.9167 18.3042C13.9167 18.3715 13.8501 18.4253 13.7501 18.4253C13.6668 18.4253 13.5835 18.3311 13.5835 18.21C13.5835 18.1024 13.6668 18.0486 13.7501 18.089C13.8501 18.1293 13.9167 18.2235 13.9167 18.3042ZM27.0294 18.3715C26.9627 18.4253 26.5962 18.4791 26.213 18.506C25.6964 18.5329 25.5965 18.506 25.8297 18.4253C26.213 18.2907 27.1793 18.2504 27.0294 18.3715ZM11.4175 18.627C11.4175 18.6539 11.1176 18.6943 10.7677 18.7212C10.3012 18.7481 10.1512 18.7212 10.2512 18.6136C10.3845 18.4925 11.4175 18.506 11.4175 18.627ZM16.1327 18.627C16.0827 18.7481 15.9994 18.8153 15.9661 18.775C15.9161 18.7346 15.9328 18.6539 15.9994 18.5732C16.1494 18.358 16.2494 18.3984 16.1327 18.627ZM17.2657 18.5463C17.0658 18.6539 17.0658 18.7077 17.2324 18.8826C17.349 19.0037 17.5156 19.0575 17.5989 19.0171C17.6823 18.9768 17.7489 19.0171 17.7489 19.0844C17.7489 19.2996 17.5156 19.2593 17.1158 18.9902C16.8492 18.8019 16.8159 18.6943 16.9491 18.5867C17.0658 18.4925 17.2324 18.4253 17.3324 18.4253C17.4157 18.4253 17.399 18.4791 17.2657 18.5463ZM25.1633 18.5598C25.2133 18.6405 25.1466 18.6539 25.0133 18.6136C24.7134 18.5194 24.6634 18.4253 24.8967 18.4253C24.9967 18.4253 25.1133 18.4791 25.1633 18.5598ZM12.7504 18.8961C12.5672 19.0709 12.6171 19.0978 12.9837 19.0978C13.217 19.0978 13.4169 19.1382 13.4169 19.192C13.4169 19.2593 13.0837 19.2996 12.6838 19.2996C11.9174 19.2996 11.8174 19.1113 12.4672 18.8557C12.967 18.6674 12.9837 18.6674 12.7504 18.8961ZM13.7501 18.9499C13.7501 19.0171 13.6002 19.044 13.4169 19.0037C13.2336 18.9633 13.0837 18.9095 13.0837 18.8826C13.0837 18.8557 13.2336 18.8288 13.4169 18.8288C13.6002 18.8288 13.7501 18.8826 13.7501 18.9499ZM26.6628 19.0709C26.6128 19.1113 26.4795 19.0709 26.3629 18.9768C26.213 18.8423 26.2296 18.8288 26.4629 18.9095C26.6295 18.9499 26.7128 19.0306 26.6628 19.0709ZM11.4175 19.1113C11.4175 19.1516 11.2009 19.192 10.9343 19.1785C10.6678 19.1651 10.4845 19.1247 10.5178 19.0709C10.6178 18.9499 11.4175 18.9902 11.4175 19.1113ZM15.6662 19.1785C15.3163 19.3938 14.25 19.4341 14.25 19.2458C14.25 19.1785 14.3999 19.1516 14.5832 19.192C14.7665 19.2324 14.9164 19.2054 14.9164 19.1516C14.9164 19.0844 15.1497 19.0171 15.4496 19.0171C15.9328 19.0037 15.9495 19.0171 15.6662 19.1785ZM10.2179 19.3265C10.3179 19.5821 9.80135 19.5417 9.68472 19.2862C9.61807 19.1382 9.66806 19.0978 9.868 19.1247C10.018 19.1516 10.1679 19.2458 10.2179 19.3265ZM14.0334 19.3669C14.05 19.5283 13.9667 19.6359 13.8168 19.6359C13.6168 19.6359 13.6168 19.5821 13.7501 19.3669C13.8501 19.2189 13.9501 19.0978 13.9667 19.0978C14.0001 19.0978 14.0167 19.2189 14.0334 19.3669ZM16.7992 19.461C16.6826 19.4879 16.4826 19.4879 16.3827 19.461C16.266 19.4207 16.3493 19.3938 16.5826 19.3938C16.8159 19.3938 16.8992 19.4207 16.7992 19.461ZM25.6298 19.5686C25.5798 19.6897 25.4965 19.757 25.4632 19.7166C25.4132 19.6762 25.4299 19.5955 25.4965 19.5148C25.6465 19.2996 25.7464 19.34 25.6298 19.5686ZM8.58506 19.9049C8.58506 19.9722 8.51841 20.0394 8.41844 20.0394C8.33514 20.0394 8.25183 19.9722 8.25183 19.9049C8.25183 19.8242 8.33514 19.7704 8.41844 19.7704C8.51841 19.7704 8.58506 19.8242 8.58506 19.9049ZM11.2342 20.0394C11.1343 20.1067 10.9177 20.1202 10.7844 20.0663C10.5678 20.0125 10.5844 19.9722 10.851 19.9049C11.2342 19.7839 11.5342 19.8915 11.2342 20.0394ZM12.084 19.9049C12.084 19.9722 12.0507 20.0394 12.0173 20.0394C11.9674 20.0394 11.884 19.9722 11.8341 19.9049C11.7841 19.8242 11.8174 19.7704 11.9007 19.7704C12.0007 19.7704 12.084 19.8242 12.084 19.9049ZM5.25275 19.9991C5.25275 20.0663 5.00283 20.1202 4.70292 20.1336C4.26972 20.1471 4.2364 20.1336 4.50299 20.0394C4.93619 19.8915 5.25275 19.878 5.25275 19.9991ZM5.83591 20.0394C5.88589 20.1067 5.86923 20.1739 5.76926 20.1739C5.68595 20.1739 5.55266 20.1067 5.50268 20.0394C5.45269 19.9587 5.46935 19.9049 5.56932 19.9049C5.65263 19.9049 5.78592 19.9587 5.83591 20.0394ZM10.3678 19.9991C10.3012 20.0394 10.3345 20.1605 10.4512 20.2681C10.5844 20.4161 10.5678 20.4295 10.3512 20.3623C10.2012 20.3219 10.0846 20.2412 10.0846 20.1874C10.0846 20.0663 10.2679 19.9049 10.3845 19.9049C10.4345 19.9049 10.4178 19.9453 10.3678 19.9991ZM13.0004 20.2009C12.8504 20.2816 12.6838 20.295 12.6338 20.2547C12.5672 20.2143 12.6171 20.1739 12.7338 20.1739C12.8504 20.1739 12.8837 20.1201 12.8337 20.0394C12.7671 19.9587 12.8504 19.9453 13.017 19.9991C13.2669 20.0798 13.2669 20.0932 13.0004 20.2009ZM1.82048 20.2547C1.87046 20.3623 1.8538 20.4161 1.75383 20.3757C1.65386 20.3354 1.58722 20.2412 1.58722 20.1605C1.58722 19.9722 1.70385 20.0125 1.82048 20.2547ZM17.5823 20.1739C17.449 20.2412 17.2657 20.3085 17.1657 20.3085C17.0824 20.3085 17.1158 20.2412 17.2491 20.1739C17.3823 20.1067 17.5823 20.0394 17.6656 20.0394C17.7656 20.0394 17.7156 20.1067 17.5823 20.1739ZM9.25152 20.712C9.25152 20.9541 8.93495 20.86 8.75167 20.564C8.5684 20.3085 8.58506 20.295 8.90163 20.443C9.10157 20.5237 9.25152 20.6447 9.25152 20.712ZM4.41968 20.7927C4.41968 20.8196 4.26972 20.7927 4.08645 20.712C3.90317 20.6313 3.75322 20.5371 3.75322 20.4968C3.75322 20.4699 3.90317 20.4968 4.08645 20.5775C4.26972 20.6582 4.41968 20.7524 4.41968 20.7927ZM8.53508 20.7793C8.53508 20.8869 8.46843 20.9407 8.38512 20.9003C8.30181 20.86 8.28515 20.7658 8.33514 20.6986C8.48509 20.5237 8.53508 20.5506 8.53508 20.7793ZM10.1679 20.712C10.2179 20.7927 10.1512 20.8062 10.018 20.7658C9.71804 20.6717 9.66806 20.5775 9.90132 20.5775C10.0013 20.5775 10.1179 20.6313 10.1679 20.712ZM5.7526 20.9138C5.7526 21.0214 5.66929 21.1155 5.56932 21.1155C5.48602 21.1155 5.43603 21.0617 5.48602 20.9945C5.55266 20.9272 5.48602 20.8331 5.38605 20.8062C5.25275 20.7658 5.28608 20.7255 5.46935 20.7255C5.61931 20.712 5.7526 20.8062 5.7526 20.9138ZM6.25245 20.9138C6.41906 21.0752 6.41906 21.1155 6.21912 21.1155C6.08583 21.1155 5.9692 21.0214 5.9692 20.9138C5.9692 20.8062 5.98586 20.712 6.00252 20.712C6.03585 20.712 6.13582 20.8062 6.25245 20.9138ZM13.5335 20.8869C13.5335 20.9945 13.4502 21.0752 13.3503 21.0887C13.2503 21.0887 12.967 21.129 12.7171 21.1559C12.4005 21.1963 12.3006 21.1559 12.3672 21.0348C12.4172 20.9272 12.5005 20.8734 12.5672 20.9003C12.6171 20.9272 12.8171 20.9003 13.0004 20.8331C13.4669 20.6851 13.5335 20.6851 13.5335 20.8869ZM14.9164 20.8465C15.133 20.9676 15.133 20.981 14.9164 20.981C14.7831 20.981 14.5499 20.9138 14.4166 20.8465C14.2 20.7255 14.2 20.712 14.4166 20.712C14.5499 20.712 14.7831 20.7793 14.9164 20.8465ZM11.1343 21.3442C10.7511 21.398 10.5844 21.6536 10.9343 21.6536C11.0176 21.6536 11.0676 21.7074 11.001 21.7881C10.951 21.8554 10.7844 21.815 10.6178 21.6805C10.3512 21.4787 10.3512 21.4384 10.5844 21.3577C10.7177 21.3039 10.9843 21.277 11.1676 21.277C11.4508 21.2904 11.4342 21.2904 11.1343 21.3442ZM2.97013 21.5998C2.9368 21.6805 2.7202 21.7209 2.48694 21.6805C1.93711 21.5998 1.9871 21.4518 2.57025 21.4518C2.87016 21.4384 3.02011 21.5056 2.97013 21.5998ZM8.25183 21.5325C8.25183 21.4384 8.33514 21.4115 8.43511 21.4653C8.53508 21.5056 8.55174 21.5998 8.46843 21.6671C8.28515 21.815 7.55205 21.6671 7.68534 21.4922C7.73532 21.4249 7.88528 21.4384 8.01857 21.5325C8.20185 21.6536 8.25183 21.6536 8.25183 21.5325ZM7.50206 22.0437C7.58537 22.2589 7.56871 22.3262 7.43541 22.2724C7.33545 22.2186 7.25214 22.0841 7.25214 21.9764C7.25214 21.8688 7.16883 21.7881 7.06886 21.7881C6.98555 21.7881 6.95223 21.7209 7.01888 21.6402C7.15217 21.4653 7.33544 21.6133 7.50206 22.0437ZM2.67022 22.0303C2.62023 22.0706 2.48694 22.0302 2.37031 21.9361C2.22036 21.8016 2.23702 21.7881 2.47028 21.8688C2.63689 21.9092 2.7202 21.9899 2.67022 22.0303ZM6.86892 22.4069C6.81894 22.4472 6.66898 22.4607 6.55235 22.4203C6.41906 22.38 6.46905 22.3396 6.65232 22.3396C6.8356 22.3262 6.93557 22.3665 6.86892 22.4069ZM8.45177 22.7566C8.30181 22.8777 8.20185 22.8777 8.05189 22.7566C7.90194 22.6356 7.93526 22.5952 8.25183 22.5952C8.5684 22.5952 8.60172 22.6356 8.45177 22.7566ZM7.55205 22.9449C7.65201 22.9046 7.81863 22.9719 7.93526 23.1064C8.15186 23.3081 8.1352 23.3216 7.88528 23.1602C7.66868 23.0257 7.60203 23.0257 7.53538 23.1602C7.46874 23.2947 7.40209 23.2947 7.2688 23.1333C7.11885 22.9718 7.08552 22.9719 6.98555 23.1736C6.93557 23.2947 6.80228 23.3619 6.71897 23.3216C6.619 23.2678 6.48571 23.3081 6.41906 23.4023C6.33575 23.5099 6.26911 23.4964 6.20246 23.3485C6.13582 23.2005 6.1858 23.1333 6.4024 23.1333C6.56902 23.1333 6.76895 23.0391 6.81894 22.918C6.90225 22.7432 6.96889 22.7297 7.16883 22.8642C7.30212 22.9449 7.46874 22.9853 7.55205 22.9449ZM6.13582 23.5906C6.20246 23.7251 6.13582 23.752 5.88589 23.6982C5.63597 23.6444 5.60265 23.6041 5.78592 23.5234C6.06917 23.3754 6.03585 23.3754 6.13582 23.5906ZM3.81986 23.6848C3.78654 23.7386 3.88651 23.8058 4.03646 23.8462C4.20308 23.8731 4.0198 23.8865 3.63659 23.8865C2.95346 23.8731 2.70354 23.752 3.10342 23.6444C3.41999 23.5637 3.90317 23.5906 3.81986 23.6848ZM25.7464 26.5634C25.7464 26.671 25.6798 26.7651 25.6131 26.7651C25.5298 26.7651 25.4632 26.671 25.4632 26.5634C25.4632 26.4558 25.5298 26.3616 25.6131 26.3616C25.6798 26.3616 25.7464 26.4558 25.7464 26.5634ZM23.3638 27.9085C23.3638 28.0161 23.2472 28.1103 23.1306 28.1103C22.9973 28.1103 22.9473 28.043 23.0139 27.9489C23.0972 27.8413 23.0139 27.8278 22.7807 27.8682C22.5807 27.922 22.4475 27.8951 22.5141 27.8278C22.664 27.626 23.3638 27.6933 23.3638 27.9085ZM21.9643 27.9354C21.8476 27.9623 21.6144 27.9623 21.4644 27.9354C21.2978 27.8951 21.3978 27.8682 21.6644 27.8682C21.9476 27.8682 22.0642 27.8951 21.9643 27.9354ZM22.2475 28.3793C22.2475 28.4466 22.1142 28.5138 21.9643 28.5138C21.7143 28.5138 21.6977 28.4869 21.9143 28.3793C22.2308 28.2179 22.2475 28.2179 22.2475 28.3793ZM25.2466 29.5092C25.2466 29.5361 25.1133 29.6438 24.9633 29.7379C24.6968 29.9128 24.6801 29.8993 24.8967 29.6841C25.1133 29.4689 25.2466 29.4016 25.2466 29.5092Z" fill="#FFFFF7"/>
<path fill-rule="evenodd" clip-rule="evenodd" d="M10.0508 12.6008C10.1508 12.6277 10.2008 12.7353 10.1508 12.8026C10.0842 12.8968 10.1175 12.9102 10.2341 12.8564C10.4507 12.7353 10.3174 12.5066 10.0342 12.5201C9.88421 12.5201 9.90088 12.547 10.0508 12.6008Z" fill="#FFFFF7"/>
<path fill-rule="evenodd" clip-rule="evenodd" d="M17.1661 14.1208C17.1161 14.1881 17.1494 14.2554 17.2327 14.2554C17.3327 14.2554 17.416 14.1881 17.416 14.1208C17.416 14.0401 17.3827 13.9863 17.3493 13.9863C17.2994 13.9863 17.216 14.0401 17.1661 14.1208Z" fill="#FFFFF7"/>
<path fill-rule="evenodd" clip-rule="evenodd" d="M18.3491 14.1881C18.2991 14.2957 18.0992 14.3899 17.8826 14.3899C17.6326 14.3899 17.566 14.4302 17.6826 14.5244C17.8826 14.6858 18.4157 14.5647 18.4157 14.363C18.4157 14.2957 18.4824 14.2822 18.5823 14.3226C18.6823 14.363 18.699 14.3091 18.649 14.2015C18.5157 13.9325 18.4824 13.9325 18.3491 14.1881Z" fill="#FFFFF7"/>
<path fill-rule="evenodd" clip-rule="evenodd" d="M19.1826 14.9149C19.1326 14.9822 19.1993 15.0629 19.3326 15.1032C19.4825 15.157 19.5325 15.1167 19.4659 14.9822C19.3659 14.7669 19.2992 14.7535 19.1826 14.9149Z" fill="#FFFFF7"/>
<path fill-rule="evenodd" clip-rule="evenodd" d="M10.5855 0.130829C10.4356 0.211537 10.4189 0.265343 10.5355 0.265343C10.6355 0.265343 10.7854 0.198086 10.8354 0.130829C10.9687 -0.0305887 10.9021 -0.0305887 10.5855 0.130829Z" fill="#FFFFF7"/>
<path fill-rule="evenodd" clip-rule="evenodd" d="M12.2007 1.15348C12.1341 1.20729 12.1341 1.288 12.1841 1.35525C12.284 1.48977 12.7506 1.35526 12.7506 1.19384C12.7506 1.05933 12.3507 1.03242 12.2007 1.15348Z" fill="#FFFFF7"/>
<path fill-rule="evenodd" clip-rule="evenodd" d="M34.2107 6.81625C34.1107 6.91041 34.0774 7.03148 34.144 7.08528C34.194 7.12564 34.244 7.09873 34.244 7.01802C34.244 6.93732 34.3606 6.89695 34.4939 6.9373C34.6272 6.97766 34.8772 6.92386 35.0604 6.8297C35.3937 6.64138 35.377 6.62793 34.9105 6.62793C34.6272 6.62793 34.3273 6.70864 34.2107 6.81625Z" fill="#FFFFF7"/>
<path fill-rule="evenodd" clip-rule="evenodd" d="M8.75195 7.13917C8.75195 7.20643 8.83526 7.23334 8.91857 7.19298C9.01854 7.15263 9.08518 7.08537 9.08518 7.04502C9.08518 7.01812 9.01854 6.99121 8.91857 6.99121C8.83526 6.99121 8.75195 7.05846 8.75195 7.13917Z" fill="#FFFFF7"/>
<path fill-rule="evenodd" clip-rule="evenodd" d="M8.50291 7.38142C8.55289 7.44867 8.48625 7.54284 8.38628 7.56974C8.25299 7.62355 8.26965 7.65045 8.45292 7.65045C8.83614 7.6639 8.98609 7.44867 8.65286 7.34106C8.51957 7.3007 8.43626 7.31416 8.50291 7.38142Z" fill="#FFFFF7"/>
<path fill-rule="evenodd" clip-rule="evenodd" d="M35.3772 7.55655C35.2439 7.62381 35.4272 7.63726 35.8104 7.58345C36.2436 7.52964 36.4102 7.55655 36.3269 7.65071C36.1936 7.82558 36.4102 7.83902 36.7268 7.6776C36.9268 7.56999 36.8934 7.52964 36.5602 7.47583C36.027 7.39512 35.6438 7.40859 35.3772 7.55655Z" fill="#FFFFF7"/>
<path fill-rule="evenodd" clip-rule="evenodd" d="M4.35267 16.7973C4.30268 16.8645 4.40265 16.9453 4.58593 16.9856C4.98581 17.0663 5.18574 16.878 4.81919 16.7569C4.48596 16.6493 4.45264 16.6493 4.35267 16.7973Z" fill="#FFFFF7"/>
<path fill-rule="evenodd" clip-rule="evenodd" d="M3.03696 17.8329C2.90367 17.9406 3.05363 18.1558 3.25356 18.1558C3.32021 18.1558 3.42018 18.0616 3.48683 17.954C3.57013 17.7522 3.25356 17.6715 3.03696 17.8329Z" fill="#FFFFF7"/>
<path fill-rule="evenodd" clip-rule="evenodd" d="M0.887807 20.2679C1.00444 20.3083 1.15439 20.2948 1.20438 20.2545C1.27102 20.2141 1.17105 20.1738 0.987776 20.1872C0.8045 20.1872 0.754515 20.2276 0.887807 20.2679Z" fill="#FFFFF7"/>
<path fill-rule="evenodd" clip-rule="evenodd" d="M16.4992 20.6982C16.3326 20.9269 16.6991 20.9807 16.9157 20.7789C17.0823 20.6175 17.0823 20.5771 16.8657 20.5771C16.7158 20.5771 16.5658 20.631 16.4992 20.6982Z" fill="#FFFFF7"/>
<path fill-rule="evenodd" clip-rule="evenodd" d="M16 20.8464C15.9501 20.9137 15.9834 20.9809 16.0667 20.9809C16.1667 20.9809 16.25 20.9137 16.25 20.8464C16.25 20.7657 16.2166 20.7119 16.1833 20.7119C16.1333 20.7119 16.05 20.7657 16 20.8464Z" fill="#FFFFF7"/>
<path fill-rule="evenodd" clip-rule="evenodd" d="M16.1328 21.331C16.1328 21.4251 16.2828 21.5193 16.4494 21.5193C16.616 21.5193 16.7493 21.4924 16.7493 21.452C16.7493 21.4251 16.616 21.331 16.4494 21.2637C16.2161 21.1561 16.1328 21.183 16.1328 21.331Z" fill="#FFFFF7"/>
<path fill-rule="evenodd" clip-rule="evenodd" d="M2.58789 24.9488C2.58789 25.0565 2.65454 25.1506 2.75451 25.1506C2.83781 25.1506 2.87114 25.0565 2.82115 24.9488C2.75451 24.8412 2.68786 24.7471 2.65454 24.7471C2.62121 24.7471 2.58789 24.8412 2.58789 24.9488Z" fill="#FFFFF7"/>
<path fill-rule="evenodd" clip-rule="evenodd" d="M3.41992 25.2854C3.41992 25.4737 3.66984 25.5409 3.90311 25.4333C4.05306 25.3526 4.01974 25.2988 3.76981 25.245C3.56988 25.2047 3.41992 25.2316 3.41992 25.2854Z" fill="#FFFFF7"/>
<path fill-rule="evenodd" clip-rule="evenodd" d="M26.5801 28.0697C26.5801 28.1369 26.7634 28.2849 26.98 28.4059C27.3465 28.6212 27.3965 28.6212 27.4798 28.4194C27.5464 28.2983 27.4965 28.1504 27.3798 28.0831C27.1132 27.9486 26.5801 27.9486 26.5801 28.0697Z" fill="#FFFFF7"/>
<path fill-rule="evenodd" clip-rule="evenodd" d="M23.8302 30.6129C23.9802 30.734 24.1468 30.7878 24.2134 30.7474C24.2634 30.6936 24.2134 30.5995 24.0801 30.5322C23.6803 30.3304 23.5303 30.3842 23.8302 30.6129Z" fill="#FFFFF7"/>
<path fill-rule="evenodd" clip-rule="evenodd" d="M24.3301 31.2039C24.2801 31.2711 24.3135 31.3384 24.3968 31.3384C24.4967 31.3384 24.58 31.2711 24.58 31.2039C24.58 31.1231 24.5467 31.0693 24.5134 31.0693C24.4634 31.0693 24.3801 31.1231 24.3301 31.2039Z" fill="#FFFFF7"/>
<path fill-rule="evenodd" clip-rule="evenodd" d="M26.0801 31.6619C26.0801 31.7695 26.2467 31.8771 26.4633 31.9309C27.0298 32.052 27.0964 32.0251 26.8965 31.7695C26.6799 31.487 26.0801 31.4063 26.0801 31.6619Z" fill="#FFFFF7"/>
</svg>
