<svg width="21" height="16" viewBox="0 0 21 16" fill="none" xmlns="http://www.w3.org/2000/svg">
<path fill-rule="evenodd" clip-rule="evenodd" d="M17.5413 0.395208C17.6026 0.451243 17.4391 0.539294 17.1734 0.587323C16.9078 0.635353 16.8261 0.67538 16.9691 0.67538C17.1121 0.683385 17.1735 0.715403 17.1122 0.763432C17.0509 0.803457 17.0713 0.843481 17.1939 0.843481C17.2961 0.843481 17.3574 0.915526 17.3165 1.00358C17.2756 1.09964 17.3574 1.18769 17.5209 1.21971C17.9909 1.28375 17.6435 1.41984 17.153 1.3558C16.7648 1.30777 16.7443 1.31577 16.9691 1.41984C17.1734 1.5239 17.1735 1.55592 16.8874 1.59595C16.683 1.62796 16.4582 1.60395 16.356 1.54791C16.2334 1.46786 16.1926 1.48388 16.1926 1.57993C16.1926 1.65998 16.2947 1.72402 16.4174 1.72402C16.5195 1.72402 16.5808 1.75604 16.5195 1.78806C16.4787 1.82008 16.4991 1.90013 16.6217 1.96417C16.7443 2.04422 16.8056 2.05222 16.8056 1.98018C16.8056 1.93215 16.9487 1.88412 17.1122 1.88412C17.3778 1.88412 17.3983 1.91614 17.2143 2.05223C16.9895 2.20432 16.9487 2.20432 16.6217 2.09225C16.4174 2.02021 15.9678 1.96417 15.5795 1.96417C14.9869 1.96417 14.946 1.94816 15.1913 1.82808C15.3956 1.74003 15.3956 1.71602 15.2321 1.75604C15.0891 1.78806 14.9665 1.77205 14.9665 1.73203C14.9665 1.684 15.0686 1.64397 15.1708 1.64397C15.2934 1.64397 15.3752 1.61196 15.3752 1.57193C15.3752 1.47587 14.3125 1.57193 13.9856 1.70001C13.8425 1.75604 13.7812 1.83609 13.8425 1.88412C13.9038 1.92414 13.8425 1.96417 13.679 1.96417C13.1682 1.96417 13.1477 2.1723 13.5769 2.45247C13.8221 2.60456 14.0469 2.68461 14.0877 2.62057C14.1491 2.57254 14.3125 2.52451 14.476 2.52451C14.6395 2.52451 14.7008 2.47648 14.6191 2.38843C14.5169 2.28436 14.5782 2.26836 14.9256 2.30038C15.1708 2.3324 15.4365 2.31639 15.4978 2.27636C15.5591 2.23634 15.7226 2.20432 15.8452 2.20432C15.9882 2.21232 15.743 2.32439 15.3139 2.47649C14.6191 2.70062 14.5578 2.74865 14.8439 2.83671C15.0278 2.89274 15.2934 2.92476 15.4773 2.90074C15.6408 2.86872 15.8656 2.90875 15.9678 2.9888C16.0904 3.06885 16.1926 3.08486 16.1926 3.02082C16.1926 2.97279 16.3969 2.92476 16.6626 2.92476H17.1122L16.683 3.06885C16.4378 3.14089 16.1926 3.26096 16.1313 3.325C16.0495 3.40505 16.0087 3.38904 16.0087 3.26897C15.9882 3.17291 15.9065 3.07685 15.8247 3.05284C15.5591 2.9888 15.1095 3.14089 15.2526 3.23695C15.3343 3.28498 15.4978 3.30899 15.6 3.28498C15.7021 3.25296 15.7839 3.27698 15.7839 3.317C15.7839 3.55715 14.6599 3.16491 14.5169 2.88473C14.476 2.79668 14.3534 2.72464 14.2104 2.72464C14.0877 2.72464 13.9038 2.70062 13.8221 2.6686C13.5769 2.56454 12.2895 3.18892 12.4325 3.34101C12.4938 3.42907 12.4325 3.4851 12.269 3.4851C12.0442 3.4851 12.0442 3.50111 12.269 3.55715C12.4938 3.61318 12.4734 3.62919 12.2077 3.66921C11.9421 3.70924 11.9216 3.75727 12.1056 3.88535C12.3099 4.03744 12.2282 4.07747 11.8195 4.05345C11.7173 4.04545 11.6968 4.09348 11.7581 4.16552C11.8399 4.22956 11.7786 4.28559 11.6355 4.28559C11.4925 4.28559 11.6151 4.35764 11.9012 4.44569C12.2895 4.56577 12.3303 4.60579 12.0851 4.60579C11.9012 4.60579 11.6968 4.66182 11.6151 4.72586C11.4108 4.942 12.4325 4.86195 12.9638 4.6218C13.6586 4.2936 14.1082 4.24557 13.9856 4.50173C13.9243 4.6138 13.7199 4.72586 13.4951 4.74988C13.1477 4.7819 13.1682 4.79791 13.6178 4.96601L14.1286 5.15012L13.679 5.20616C13.4338 5.23818 13.1477 5.25419 13.0251 5.24618C12.923 5.23818 12.9434 5.27821 13.0864 5.33424C13.5156 5.51035 13.393 5.80653 12.9025 5.80653C12.6164 5.80653 12.5142 5.84655 12.5755 5.9186C12.6369 5.98264 12.596 6.05468 12.4529 6.0787C12.3099 6.10271 12.5347 6.10271 12.9434 6.0787C13.6995 6.03067 14.1695 6.14274 13.7199 6.2548C13.5565 6.29483 13.536 6.27882 13.6382 6.20677C13.8834 6.05468 12.5551 6.16675 12.0238 6.35086C11.8195 6.4229 11.6969 6.43892 11.7786 6.38288C11.8808 6.31884 11.7786 6.20677 11.5538 6.11071C11.3494 6.01465 11.3086 5.96663 11.4312 5.99865C11.5742 6.03067 11.8603 6.01466 12.0442 5.97463C12.3916 5.89458 12.3712 5.89458 12.0034 5.88658C11.6969 5.88658 11.656 5.87057 11.8808 5.81453C12.0238 5.77451 12.1055 5.69446 12.0647 5.63843C12.0034 5.57439 12.1055 5.48633 12.269 5.4383C12.5142 5.36626 12.5142 5.33424 12.2282 5.22217C11.9216 5.1021 11.9216 5.08609 12.2486 5.01404C12.5756 4.942 12.5755 4.93399 12.269 4.92599C12.0851 4.92599 11.799 4.98202 11.6151 5.04606C11.4516 5.1101 11.2064 5.16613 11.0838 5.16613C10.9612 5.16613 10.9203 5.19815 10.9816 5.24618C11.0429 5.28621 11.0021 5.32623 10.8999 5.32623C10.7773 5.32623 10.6751 5.38227 10.6751 5.44631C10.6751 5.51034 10.5525 5.56638 10.389 5.56638C9.85768 5.56638 9.81681 5.72648 10.3073 5.79852C10.6751 5.86256 10.6955 5.87857 10.4094 5.87857C10.2051 5.88658 10.1029 5.9186 10.1642 5.96662C10.2255 6.00665 10.1642 6.04667 10.0212 6.04667C9.83724 6.04667 9.83725 6.07069 10.062 6.12672C10.3277 6.19076 10.3277 6.21478 10.0416 6.30283C9.85769 6.35887 9.65333 6.47094 9.59202 6.54298C9.48985 6.65505 9.5716 6.68707 9.95986 6.68707C10.246 6.68707 10.4707 6.71909 10.4707 6.76712C10.4707 6.80714 10.3481 6.84716 10.1846 6.84716C10.0212 6.84716 9.83724 6.8952 9.79637 6.94322C9.71463 7.02327 9.67377 7.02327 9.67377 6.94322C9.6329 6.78313 9.12201 6.83116 9.10157 7.00726C9.08114 7.11133 9.18331 7.16736 9.4081 7.16736C9.62608 7.1727 9.62608 7.20205 9.4081 7.25542C9.20375 7.29544 9.04028 7.37549 9.04028 7.41552C9.04028 7.46355 9.14246 7.47155 9.24463 7.44753C9.36725 7.42352 9.44899 7.43953 9.44899 7.47955C9.44899 7.52758 9.34682 7.56761 9.22421 7.56761C9.10159 7.56761 9.04027 7.61564 9.08114 7.66367C9.14245 7.7197 8.97897 7.82376 8.75419 7.90381C8.38635 8.02389 8.36592 8.05591 8.63158 8.12795C8.89724 8.19199 8.87679 8.208 8.57027 8.208C8.32504 8.208 8.2433 8.24002 8.36591 8.30406C8.5907 8.44815 8.63158 8.61625 8.42723 8.56822C8.32505 8.54421 8.20244 8.56022 8.1207 8.60824C8.0594 8.64827 8.10026 8.68829 8.20244 8.68829C8.32505 8.68829 8.42723 8.72031 8.42723 8.76834C8.42723 8.80837 8.30461 8.84839 8.16156 8.84839C8.01852 8.84839 7.89591 8.92044 7.87548 9.00849C7.85504 9.09654 7.91634 9.16859 7.99808 9.16859C8.07983 9.16859 8.16156 9.22462 8.16156 9.28866C8.16156 9.36871 7.99809 9.39273 7.63025 9.36071C7.22155 9.32869 7.16025 9.33669 7.40547 9.40073C7.73244 9.48879 7.89591 9.841 7.58938 9.76095C7.48721 9.73694 7.40547 9.76095 7.40547 9.80098C7.40547 9.84901 6.99677 9.88903 6.48589 9.88903C5.97501 9.88903 5.58674 9.86502 5.58674 9.82499C5.60718 9.79297 5.58675 9.75295 5.56631 9.72893C5.54588 9.70492 5.505 9.60086 5.48457 9.49679L5.42326 9.31268L5.77066 9.48879C6.03632 9.62487 6.22024 9.65689 6.58807 9.60886L7.0785 9.54482L6.52675 9.43275C5.93413 9.31268 5.77066 9.20061 6.30197 9.28066C6.48589 9.30467 6.5472 9.29667 6.48589 9.24063C6.40415 9.20061 6.17936 9.1846 5.99544 9.20861C5.48457 9.27265 5.01455 9.1846 4.89194 9.00049C4.76933 8.81638 5.05543 8.80037 5.32109 8.97647C5.48457 9.09655 5.52544 9.09655 5.62761 8.97647C5.70936 8.89642 5.68892 8.8564 5.56631 8.88842C5.4437 8.91243 5.36196 8.88041 5.36196 8.80837C5.36196 8.72031 5.23935 8.6963 4.87151 8.73633C4.44238 8.77635 4.38107 8.76034 4.46281 8.62426C4.52412 8.54421 4.44238 8.41613 4.25846 8.35209C4.09498 8.28004 4.01324 8.2 4.09498 8.17598C4.15629 8.14396 4.09498 8.08793 3.9315 8.0479C3.66585 7.98386 3.68627 7.96785 3.97236 7.96785C4.15628 7.96785 4.38108 7.99987 4.44238 8.0479C4.50369 8.08793 4.70803 8.12795 4.89194 8.12795C5.1576 8.12795 5.13717 8.09593 4.76934 7.93584C4.52412 7.83177 4.34019 7.69569 4.38106 7.63965C4.42194 7.57561 4.29933 7.52759 4.11541 7.53559C3.93149 7.5436 3.78845 7.50357 3.78845 7.44753C3.78845 7.38349 3.9315 7.35948 4.09498 7.3915C4.29933 7.41551 4.36063 7.3995 4.25846 7.34347C4.17672 7.28744 3.95193 7.24741 3.76801 7.24741C3.48192 7.24741 3.48192 7.2314 3.70671 7.17537C3.84975 7.13534 3.9315 7.0713 3.84976 7.02327C3.78845 6.97524 3.84975 6.92721 3.97236 6.9032C4.17671 6.87919 4.15629 6.83115 3.89063 6.71108C3.5841 6.583 3.29801 6.55899 2.05147 6.583C0.716373 6.59901 0.0488281 6.68173 0.0488281 6.83115C0.0488281 7.00726 0.110134 7.02328 0.661882 6.97525C1.07058 6.94856 1.17276 6.99659 0.968409 7.11933C0.804928 7.21539 0.723182 7.32746 0.784488 7.35147C0.866228 7.38349 0.764053 7.42352 0.580136 7.45554C0.191869 7.51158 0.130566 7.63165 0.518834 7.62364C1.3158 7.61564 1.45885 7.65566 1.39754 7.86379C1.37711 7.99187 1.41797 8.16798 1.52015 8.26404C1.60189 8.3681 1.60189 8.44815 1.49972 8.44815C1.21363 8.44815 0.825355 8.22401 0.947966 8.13596C1.05014 8.07192 0.886668 8.07192 0.253179 8.12795C0.191874 8.12795 0.314477 8.18399 0.539264 8.24802C0.743615 8.30406 0.845798 8.40012 0.764058 8.44815C0.682317 8.49618 0.723185 8.57622 0.82536 8.63226C0.927536 8.68829 1.07058 8.82438 1.15232 8.94445C1.25449 9.11256 1.39755 9.16859 1.78581 9.16859C2.07191 9.16859 2.37843 9.23263 2.50104 9.32869C2.62365 9.41674 2.93018 9.48879 3.1754 9.48879C3.47512 9.48879 3.46149 9.52347 3.13453 9.59285C2.52147 9.71292 2.5419 9.833 3.15496 9.90504C3.50235 9.93706 3.52279 9.95307 3.25713 9.96108C2.97104 9.96908 2.90974 10.0091 3.03235 10.1452C3.09366 10.2493 3.25714 10.3373 3.33888 10.3533C3.44105 10.3693 3.5228 10.4334 3.5228 10.4894C3.5228 10.5534 3.66585 10.5775 3.9315 10.5534C4.15629 10.5294 4.3402 10.5534 4.3402 10.6015C4.3402 10.6495 4.19716 10.6895 4.03368 10.6895C3.56367 10.6895 3.66584 10.8656 4.27889 11.0658C4.56498 11.1698 4.70803 11.2499 4.56499 11.2499C4.42194 11.2499 4.38108 11.2819 4.44238 11.3299C4.50369 11.3699 4.42194 11.41 4.25846 11.41C4.09498 11.41 3.91106 11.442 3.84976 11.474C3.72715 11.5541 4.7489 12.3706 4.97369 12.3706C5.07586 12.3706 5.0963 12.3145 5.03499 12.2505C4.95325 12.1864 5.01456 12.1304 5.13717 12.1304C5.25978 12.1304 5.38239 12.1624 5.38239 12.2105C5.4437 12.3706 5.46413 12.4106 5.64805 12.5226C5.77066 12.5947 5.75023 12.6187 5.62761 12.5867C5.36196 12.5226 5.0963 12.7468 5.28022 12.8669C5.34152 12.9069 5.52544 12.9229 5.66849 12.8989C5.83197 12.8749 6.05675 12.9149 6.1998 12.9789C6.40415 13.075 6.38371 13.083 6.11805 13.051C5.95457 13.019 5.75023 13.035 5.66849 13.083C5.60718 13.131 5.66849 13.171 5.83197 13.171C6.17936 13.171 6.44501 13.3792 6.2611 13.5153C6.19979 13.5713 6.30197 13.5393 6.46545 13.4592C6.81285 13.2911 6.91503 13.3712 6.6085 13.5713C6.30197 13.7474 6.58806 13.8355 6.93546 13.6754C7.09894 13.5953 7.18069 13.5793 7.09895 13.6273C7.03764 13.6834 7.07851 13.7314 7.20112 13.7314C7.32373 13.7314 7.28286 13.8114 7.0785 13.9315C6.77198 14.1156 6.77198 14.1396 7.20112 14.3638C7.58939 14.5879 7.71199 14.6039 8.5907 14.5719C9.26506 14.5559 9.42856 14.5639 9.12203 14.6119C8.50898 14.708 8.30461 14.8601 8.67244 14.9641C8.83592 15.0122 9.01983 15.1162 9.10157 15.1883C9.16288 15.2683 9.36725 15.3324 9.55116 15.3324C9.73508 15.3324 9.85768 15.4044 9.87812 15.5085C9.87812 15.6766 9.91898 15.6686 10.1029 15.4685C10.2255 15.3244 10.4094 15.2603 10.5933 15.2843C10.7568 15.3084 11.0429 15.3564 11.2473 15.3804C11.5334 15.4204 11.5538 15.4124 11.2881 15.3404C11.0838 15.2843 11.0633 15.2523 11.2473 15.2523C11.3903 15.2523 11.4925 15.1483 11.4925 15.0122C11.4925 14.8761 11.5947 14.772 11.7581 14.772C11.8808 14.772 11.8399 14.732 11.6355 14.684C11.2677 14.6039 11.2677 14.5959 11.6355 14.4839C11.8399 14.4278 11.9216 14.3718 11.8195 14.3718C11.7173 14.3718 11.7582 14.3157 11.9012 14.2517C12.1056 14.1476 12.1055 14.0996 11.8195 13.9795C11.6151 13.8915 11.5538 13.8034 11.656 13.7794C11.7786 13.7554 11.8195 13.6513 11.7377 13.5553C11.656 13.4272 11.6968 13.3952 11.9421 13.4272C12.1055 13.4592 12.3712 13.4432 12.5347 13.4112C12.739 13.3552 12.6777 13.3231 12.2486 13.2591C11.9421 13.2111 11.6968 13.147 11.6968 13.123C11.6968 13.091 11.7581 13.091 11.8399 13.115C12.0442 13.1951 12.5551 12.8669 12.3916 12.7548C12.3099 12.7068 12.3303 12.6908 12.4734 12.7228C12.596 12.7468 12.739 12.7388 12.8004 12.6988C12.8617 12.6587 12.7186 12.6107 12.4734 12.5867C12.1055 12.5467 12.0851 12.5226 12.3099 12.4186C12.4529 12.3465 12.4938 12.2905 12.4121 12.2905C12.3303 12.2905 12.3712 12.2345 12.5143 12.1704C12.6573 12.1064 12.7186 12.0023 12.6573 11.9303C12.5756 11.8662 12.6369 11.7942 12.7595 11.7622C12.9025 11.7302 12.8821 11.6901 12.6982 11.6421C12.4938 11.5941 12.4734 11.5701 12.6777 11.5701C12.8003 11.5701 12.923 11.498 12.923 11.41C12.923 11.3219 12.8208 11.2499 12.7186 11.2499C12.596 11.2499 12.6982 11.1698 12.923 11.0738C13.1682 10.9697 13.3112 10.8256 13.2499 10.7536C13.209 10.6735 13.2499 10.5935 13.3317 10.5694C13.6178 10.4974 13.4747 10.2012 13.1886 10.2412C13.0456 10.2653 12.923 10.2493 12.923 10.2092C12.923 10.1612 13.1069 10.1292 13.3112 10.1292C13.8221 10.1292 13.9447 10.0491 14.0265 9.68091C14.0673 9.52081 14.2104 9.36071 14.3534 9.32869C14.476 9.29667 14.5782 9.24864 14.5578 9.21662C14.4965 9.09655 14.8234 8.60024 14.9869 8.56022C15.0891 8.5362 15.1708 8.41613 15.1708 8.28005C15.1708 8.15197 15.2321 8.0479 15.3343 8.0479C15.416 8.0479 15.4978 7.93583 15.5182 7.79975C15.5386 7.66367 15.6613 7.50357 15.7839 7.44753C15.8861 7.3995 15.9269 7.32746 15.8656 7.30345C15.8043 7.27943 15.8247 7.20738 15.9065 7.15135C16.0087 7.09532 16.0904 7.03128 16.1108 7.00726C16.1108 6.98325 16.2335 6.85517 16.3765 6.72709C16.5195 6.59101 16.6626 6.4229 16.7035 6.35086C16.7443 6.27881 16.8874 6.14273 17.01 6.04667C17.1326 5.95061 17.1939 5.82254 17.1326 5.7585C17.0713 5.69446 17.0917 5.64643 17.1939 5.64643C17.5209 5.64643 17.7865 5.2782 17.5822 5.12611C17.4187 5.03005 17.4391 4.99803 17.5822 5.03806C17.7048 5.07008 17.95 4.98202 18.1339 4.84594C18.3587 4.67783 18.3791 4.60579 18.2157 4.60579C18.0726 4.60579 18.1135 4.54175 18.3178 4.4537C18.7061 4.2856 18.6652 3.98941 18.2565 4.02944C18.1135 4.03744 18.0522 4.01343 18.1339 3.9654C18.1952 3.91737 18.3587 3.90937 18.4813 3.93338C18.6243 3.9734 18.6652 3.94138 18.5835 3.86133C18.5017 3.77328 18.5426 3.74927 18.747 3.77328C18.9309 3.8053 18.9922 3.76527 18.9718 3.66921C18.9309 3.58916 18.9922 3.50912 19.0739 3.4771C19.2987 3.42106 19.6665 2.6686 19.5235 2.58055C19.4622 2.54052 19.5031 2.48449 19.6257 2.45247C19.7483 2.42045 19.8913 2.24434 19.9118 2.06023C19.9526 1.82809 20.0753 1.72402 20.2796 1.72402C20.5248 1.71602 20.5248 1.70001 20.2387 1.63597C19.9118 1.56393 19.9118 1.54791 20.2183 1.40383C20.627 1.21971 20.7292 0.923531 20.3613 0.979566C20.2183 0.995576 20.157 1.07562 20.2183 1.14767C20.3205 1.25173 20.2592 1.24373 19.8096 1.11565C19.5235 1.0356 19.2578 0.931538 19.2578 0.891514C19.2578 0.851489 19.3805 0.867498 19.5439 0.915528C19.7483 0.987572 19.8709 0.979568 20.0548 0.891514C20.1979 0.827474 20.4431 0.795453 20.6066 0.819468C20.77 0.843482 20.8927 0.81947 20.8927 0.77144C20.8927 0.723411 20.6679 0.667375 20.3818 0.635356C20.0957 0.611341 19.8709 0.555305 19.8709 0.523285C19.8709 0.451241 19.0126 0.347177 18.093 0.323162C17.6639 0.307152 17.48 0.331169 17.5413 0.395208ZM18.3791 0.491268C18.3178 0.515283 18.1339 0.523286 17.9909 0.499271C17.8274 0.475256 17.8887 0.451244 18.1135 0.451244C18.3383 0.443239 18.4609 0.467253 18.3791 0.491268ZM17.6843 1.78006C17.5413 1.79607 17.2552 1.79607 17.0713 1.78006C16.8669 1.75604 16.9895 1.74003 17.3165 1.74003C17.6639 1.74003 17.8069 1.75604 17.6843 1.78006ZM19.5235 1.89213C19.5848 1.97218 19.4826 2.05222 19.3191 2.07624C19.1557 2.10025 19.0944 2.09225 19.1557 2.05223C19.217 2.0122 19.0535 1.91614 18.8083 1.8521L18.3383 1.72402L18.89 1.74003C19.217 1.74804 19.4826 1.81208 19.5235 1.89213ZM15.4773 2.68461C15.273 2.77266 15.0686 2.8287 15.0073 2.80468C14.8643 2.75666 15.3752 2.52451 15.6408 2.52451C15.743 2.52451 15.6817 2.59656 15.4773 2.68461ZM13.4338 3.24495C13.3725 3.28498 13.1886 3.325 13.066 3.325C12.9229 3.325 12.9434 3.29298 13.1273 3.24495C13.5156 3.1489 13.5973 3.1489 13.4338 3.24495ZM14.7621 3.29299C14.7621 3.35703 14.6599 3.38905 14.5373 3.35703C14.3943 3.32501 14.3534 3.37303 14.3943 3.4851C14.4351 3.59717 14.333 3.68523 14.1491 3.70124C13.8834 3.73326 13.8834 3.72525 14.1491 3.65321C14.3943 3.58116 14.3943 3.56515 14.1082 3.52513C13.8221 3.4771 13.8017 3.44508 14.006 3.317C14.2921 3.13289 14.7621 3.11688 14.7621 3.29299ZM14.1491 3.90136C14.1491 3.94939 14.0877 3.9654 14.006 3.94138C13.9447 3.90936 13.7812 3.92537 13.6382 3.9654C13.4747 4.02143 13.393 4.00542 13.393 3.92537C13.393 3.86133 13.5769 3.8053 13.7812 3.8053C13.9856 3.8053 14.1491 3.84532 14.1491 3.90136ZM15.5795 4.00542C15.5795 4.02143 15.3956 4.02944 15.1913 4.02143C14.9665 4.02143 14.8234 3.98141 14.8847 3.94939C14.9665 3.90136 15.5795 3.94939 15.5795 4.00542ZM15.3343 4.48572C15.273 4.50973 15.1504 4.46971 15.0891 4.38966C14.9665 4.27759 14.9869 4.26958 15.1913 4.34163C15.3343 4.39766 15.3956 4.4617 15.3343 4.48572ZM17.7252 4.43769C17.8683 4.53375 17.1326 4.70185 16.9282 4.6298C16.8669 4.60579 16.8056 4.53374 16.8056 4.46971C16.8056 4.34963 17.5413 4.32562 17.7252 4.43769ZM14.9052 4.49372C14.8438 4.51774 14.6599 4.52574 14.5169 4.50173C14.3534 4.47771 14.4147 4.4537 14.6395 4.4537C14.8643 4.44569 14.9869 4.46971 14.9052 4.49372ZM15.0686 4.83793C14.8439 4.91798 14.4147 4.95801 13.9447 4.92599C13.7812 4.91798 13.9243 4.87796 14.2512 4.84594C15.1504 4.75788 15.273 4.75788 15.0686 4.83793ZM16.8056 5.11811C16.8056 5.13412 16.6626 5.17414 16.4787 5.19815C16.3152 5.22217 16.2334 5.21416 16.2948 5.16613C16.4174 5.08608 16.8056 5.05407 16.8056 5.11811ZM14.0469 5.40628C13.9856 5.44631 13.8017 5.48633 13.679 5.48633C13.536 5.48633 13.5564 5.45431 13.7404 5.40628C14.1286 5.31022 14.2104 5.31022 14.0469 5.40628ZM14.7008 5.69446C14.6395 5.71848 14.4556 5.72648 14.3125 5.70246C14.1491 5.67845 14.2104 5.65444 14.4352 5.65444C14.6599 5.64643 14.7825 5.67045 14.7008 5.69446ZM11.0838 6.04667C11.0838 6.0867 11.0429 6.12672 11.0021 6.12672C10.9407 6.12672 10.8386 6.0867 10.7773 6.04667C10.716 5.99864 10.7568 5.96662 10.859 5.96662C10.9816 5.96662 11.0838 5.99864 11.0838 6.04667ZM12.2077 6.64704C11.8808 6.75911 11.4516 6.84716 11.2881 6.84716C11.0429 6.83916 11.0429 6.82315 11.329 6.7351C11.5334 6.67906 11.6151 6.59901 11.5334 6.56699C11.4516 6.52697 11.5129 6.52697 11.6355 6.55899C11.7786 6.59101 12.0647 6.575 12.2486 6.53498C12.8616 6.39089 12.8412 6.44692 12.2077 6.64704ZM13.6995 6.61503C13.7608 6.71108 13.7404 6.71108 13.5769 6.61503C13.4543 6.55099 13.2704 6.53497 13.1273 6.56699C12.9434 6.60702 12.9025 6.59902 13.0047 6.53498C13.2091 6.4149 13.5769 6.45493 13.6995 6.61503ZM3.56366 6.88719C3.62497 6.99926 3.5841 7.08731 3.50236 7.08731C3.40018 7.08731 3.31844 7.0633 3.29801 7.02327C3.29801 6.99125 3.25714 6.9032 3.21627 6.82315C3.1754 6.75111 3.21627 6.68707 3.31845 6.68707C3.40019 6.68707 3.52279 6.77512 3.56366 6.88719ZM12.923 7.01527C12.923 7.0553 12.8412 7.08731 12.7186 7.08731C12.6164 7.08731 12.5143 7.03128 12.5143 6.95924C12.5143 6.8952 12.6164 6.86317 12.7186 6.88719C12.8412 6.9112 12.923 6.96724 12.923 7.01527ZM11.3903 7.13534C11.1179 7.21539 11.1315 7.26876 11.4312 7.29544C11.6968 7.32746 11.8603 7.3995 11.8399 7.48756C11.8195 7.57561 11.6968 7.61564 11.4516 7.58362C11.2064 7.5596 11.0838 7.58362 11.1247 7.64766C11.1655 7.70369 11.0633 7.76773 10.9407 7.78374C10.7977 7.80776 10.6751 7.76773 10.6751 7.69569C10.6751 7.62364 10.5525 7.56761 10.4299 7.5596C10.2255 7.5596 10.2255 7.54359 10.4094 7.51958C10.532 7.49556 10.5934 7.3915 10.5525 7.28744C10.4912 7.14335 10.5321 7.10332 10.7568 7.13534C10.9203 7.15936 11.1042 7.14335 11.186 7.09532C11.2473 7.04729 11.4312 7.00726 11.5538 7.00726C11.6968 7.00726 11.6151 7.0633 11.3903 7.13534ZM14.2104 7.10332C14.0877 7.19138 13.5769 7.18337 13.4543 7.09532C13.393 7.0553 13.5565 7.03128 13.8221 7.03928C14.0878 7.03928 14.2717 7.0713 14.2104 7.10332ZM13.6382 7.31145C13.5769 7.33546 13.4134 7.31145 13.2703 7.25542C13.0864 7.17537 13.1069 7.16736 13.393 7.21539C13.5973 7.23941 13.6995 7.28743 13.6382 7.31145ZM12.596 7.3915C12.6573 7.43152 12.5756 7.46354 12.4121 7.46354C12.2486 7.46354 12.1669 7.43152 12.2282 7.3915C12.2895 7.35948 12.3712 7.32746 12.4121 7.32746C12.453 7.32746 12.5347 7.35948 12.596 7.3915ZM12.5143 7.64766C12.5143 7.68768 12.4734 7.72771 12.4325 7.72771C12.3712 7.72771 12.269 7.68768 12.2077 7.64766C12.1464 7.59963 12.1873 7.56761 12.2895 7.56761C12.4121 7.56761 12.5143 7.59963 12.5143 7.64766ZM15.3752 7.68768C15.3752 7.70369 15.2321 7.72771 15.0686 7.75973C14.8847 7.78374 14.7621 7.75972 14.7621 7.68768C14.7621 7.61564 14.8847 7.59162 15.0686 7.61564C15.2321 7.64766 15.3752 7.67167 15.3752 7.68768ZM11.9625 8.06391C12.1464 8.06391 12.3099 8.08793 12.3099 8.11995C12.3099 8.15197 11.8603 8.18399 11.329 8.17598C10.6955 8.16798 10.3277 8.13595 10.3277 8.07192C10.3277 7.99987 10.5321 7.98387 10.9612 8.01588C11.3086 8.0479 11.7581 8.06391 11.9625 8.06391ZM10.5525 8.35209C10.6955 8.44815 10.4094 8.57623 9.91898 8.62426C9.3468 8.68029 9.28551 8.56022 9.85769 8.48817C10.0825 8.45615 10.2255 8.40012 10.1642 8.3601C10.0825 8.32007 10.1234 8.28805 10.246 8.28805C10.3481 8.28805 10.4912 8.32007 10.5525 8.35209ZM11.3903 8.3681C11.4516 8.40812 11.4108 8.44815 11.3086 8.44815C11.186 8.44815 11.0838 8.40812 11.0838 8.3681C11.0838 8.32007 11.1247 8.28805 11.1655 8.28805C11.2268 8.28805 11.329 8.32007 11.3903 8.3681ZM4.27889 8.57623C4.21758 8.60024 4.03368 8.60825 3.89063 8.58423C3.72715 8.56022 3.78845 8.5362 4.01324 8.5362C4.23802 8.5282 4.36063 8.55221 4.27889 8.57623ZM1.99017 8.68829C2.05147 8.72832 2.0106 8.76834 1.88799 8.76834C1.74494 8.76834 1.68364 8.82438 1.74494 8.88041C1.82668 8.96046 1.76537 8.98448 1.56102 8.95246C1.19319 8.89642 1.19319 8.60824 1.56102 8.60824C1.7245 8.60824 1.92886 8.64026 1.99017 8.68829ZM10.9816 8.68829C11.0429 8.72832 11.0021 8.76834 10.8999 8.76834C10.7773 8.76834 10.6751 8.72832 10.6751 8.68829C10.6751 8.64026 10.716 8.60824 10.7568 8.60824C10.8181 8.60824 10.9203 8.64026 10.9816 8.68829ZM10.2664 8.84039C9.9803 9.04852 10.0007 9.06452 10.4707 9.11255C10.6955 9.13657 10.8794 9.1846 10.8794 9.22462C10.8794 9.30467 9.81681 9.29667 9.46942 9.21662C9.34681 9.1846 9.06071 9.1766 8.87679 9.20061C8.69288 9.23263 8.75419 9.1846 9.04028 9.09655C9.30594 9.00849 9.61245 8.96046 9.71463 8.98448C9.8168 9.00849 9.93942 8.95246 10.0007 8.8564C10.062 8.76034 10.1846 8.68829 10.3073 8.68829C10.4094 8.68829 10.389 8.75234 10.2664 8.84039ZM10.062 9.56083C10.062 9.60086 10.1233 9.70492 10.1846 9.78497C10.246 9.86502 10.2255 9.89704 10.1233 9.84901C10.0416 9.80098 9.83724 9.76896 9.71463 9.76095C8.95853 9.73694 8.83593 9.72093 8.83593 9.64088C8.83593 9.60086 8.91766 9.57684 8.9994 9.60086C9.08114 9.61687 9.28551 9.60886 9.44899 9.56083C9.83725 9.47278 10.062 9.47278 10.062 9.56083ZM9.4081 9.90504C9.36723 9.96908 9.5103 10.0011 9.73508 9.98509C10.0212 9.96108 10.0825 9.9931 9.98029 10.0892C9.89855 10.1932 9.93943 10.2172 10.1642 10.1852C10.3277 10.1532 10.5116 10.1692 10.5729 10.2172C10.6547 10.2573 10.8181 10.2733 10.9407 10.2412C11.0838 10.2172 11.0225 10.2493 10.7977 10.3213C10.5933 10.3853 10.4912 10.4734 10.5525 10.5134C10.6138 10.5614 10.5116 10.5855 10.3277 10.5694C10.1233 10.5534 9.87812 10.5374 9.75551 10.5294C9.65334 10.5214 9.7555 10.4894 10.0212 10.4494C10.2664 10.4094 10.4707 10.3293 10.4503 10.2733C10.4503 10.1932 10.4094 10.1932 10.3277 10.2653C10.2664 10.3373 10.1233 10.3453 9.87812 10.2893C9.59203 10.2332 9.51028 10.2493 9.51028 10.3533C9.51028 10.4254 9.61247 10.5374 9.73508 10.6015C9.89856 10.6895 9.89854 10.7215 9.71463 10.7456C9.57158 10.7696 9.44899 10.8176 9.44899 10.8576C9.44899 10.9057 9.55116 10.9137 9.65334 10.8896C9.77595 10.8656 9.85769 10.8816 9.85769 10.9297C9.85769 10.9857 9.69419 11.0017 9.4081 10.9617C9.14244 10.9297 8.67245 10.9057 8.32505 10.9057L7.712 10.9137L8.28418 10.8336C8.81549 10.7616 8.83592 10.7456 8.48852 10.6495C8.14112 10.5454 8.14112 10.5374 8.48852 10.4894C9.10157 10.3933 8.85637 10.2973 8.01853 10.3133C7.50765 10.3213 7.20112 10.3613 7.20112 10.4254C7.20112 10.5775 7.05807 10.5534 6.42458 10.3293C5.87283 10.1292 6.07719 10.0571 6.81285 10.2092C7.11938 10.2813 7.24199 10.2653 7.32373 10.1692C7.4259 10.0651 7.50765 10.0651 7.7733 10.1452C8.01853 10.2252 8.10026 10.2252 8.16156 10.1452C8.22287 10.0972 8.42722 10.0491 8.65201 10.0491C8.89723 10.0491 8.97898 10.0091 8.91768 9.92906C8.83594 9.85701 8.91768 9.80898 9.12203 9.80898C9.30595 9.80898 9.42854 9.85701 9.4081 9.90504ZM4.23803 10.1932C4.17672 10.2172 4.01323 10.1932 3.87019 10.1372C3.68627 10.0571 3.70671 10.0491 3.99281 10.0972C4.19716 10.1212 4.29933 10.1692 4.23803 10.1932ZM12.269 10.2733C12.3916 10.4174 11.9625 10.3853 11.8195 10.2412C11.7377 10.1612 11.799 10.1292 11.9421 10.1452C12.0647 10.1612 12.2281 10.2252 12.269 10.2733ZM5.25979 11.2499C5.32109 11.2899 5.28022 11.3299 5.17804 11.3299C5.05543 11.3299 4.95326 11.2899 4.95326 11.2499C4.95326 11.2018 4.99412 11.1698 5.03499 11.1698C5.0963 11.1698 5.19848 11.2018 5.25979 11.2499ZM9.65334 11.2499C9.24463 11.3539 8.97898 11.3539 9.14246 11.2499C9.20376 11.2018 9.42854 11.1698 9.61245 11.1698C9.91898 11.1698 9.91899 11.1858 9.65334 11.2499ZM4.95326 11.8262C4.95326 11.9303 4.48324 11.8662 4.38106 11.7462C4.34019 11.6901 4.42194 11.6661 4.62629 11.6981C4.81021 11.7222 4.95326 11.7862 4.95326 11.8262ZM9.24463 11.7302C9.08115 11.7702 8.79506 11.8022 8.63158 11.8022C8.42723 11.8022 8.4681 11.7782 8.73376 11.7302C9.28551 11.6341 9.61247 11.6341 9.24463 11.7302ZM5.97501 12.1304C5.97501 12.1704 5.93414 12.2105 5.89327 12.2105C5.83196 12.2105 5.72979 12.1704 5.66849 12.1304C5.60718 12.0824 5.64805 12.0504 5.75022 12.0504C5.87283 12.0504 5.97501 12.0824 5.97501 12.1304ZM7.81418 13.2911C7.81418 13.3872 7.22155 13.3151 7.11938 13.2111C7.03764 13.107 7.07851 13.099 7.40547 13.171C7.63026 13.2191 7.81418 13.2751 7.81418 13.2911ZM8.38634 13.6593C8.14112 13.7154 7.89591 13.7154 7.67113 13.6593C7.3646 13.5873 7.42591 13.5793 8.01853 13.5793C8.61115 13.5793 8.67244 13.5873 8.38634 13.6593ZM8.65201 13.8515C8.65201 13.8995 8.4681 13.9395 8.28418 13.9395C8.07983 13.9475 7.73244 13.9795 7.50765 14.0116C6.99677 14.0916 7.24198 13.9875 7.85504 13.8515C8.38635 13.7394 8.67245 13.7394 8.65201 13.8515ZM8.16156 14.1877C7.99808 14.2597 7.75287 14.2837 7.60982 14.2517C7.44634 14.2117 7.4872 14.1637 7.75286 14.0916C8.22287 13.9555 8.54983 14.0356 8.16156 14.1877ZM9.04028 14.2117C9.04028 14.2997 8.99941 14.3718 8.95854 14.3718C8.91767 14.3718 8.83592 14.2997 8.77462 14.2117C8.71331 14.1236 8.75419 14.0516 8.85636 14.0516C8.95854 14.0516 9.04028 14.1236 9.04028 14.2117ZM10.1846 14.3478C10.0416 14.4038 9.65334 14.2917 9.65334 14.1957C9.65334 14.1476 9.77595 14.1476 9.95986 14.2117C10.1438 14.2677 10.2255 14.3318 10.1846 14.3478ZM10.2664 14.9001C10.2664 14.9641 9.87812 15.0042 9.77594 14.9481C9.71464 14.9081 9.79638 14.8761 9.95986 14.8761C10.1233 14.8761 10.2664 14.8921 10.2664 14.9001Z" fill="#00E7A5"/>
</svg>
