<svg width="39" height="13" viewBox="0 0 39 13" fill="none" xmlns="http://www.w3.org/2000/svg">
<path d="M0.056 12V0.799999H2.168V10.08H7.288V12H0.056ZM12.7049 12.224C11.2969 12.224 10.1769 11.84 9.34488 11.072C8.51288 10.2933 8.09688 9.184 8.09688 7.744V5.056C8.09688 3.616 8.51288 2.512 9.34488 1.744C10.1769 0.965333 11.2969 0.575999 12.7049 0.575999C14.1129 0.575999 15.2329 0.965333 16.0649 1.744C16.8969 2.512 17.3129 3.616 17.3129 5.056V7.744C17.3129 9.184 16.8969 10.2933 16.0649 11.072C15.2329 11.84 14.1129 12.224 12.7049 12.224ZM12.7049 10.336C13.4942 10.336 14.1075 10.1067 14.5449 9.648C14.9822 9.18933 15.2009 8.576 15.2009 7.808V4.992C15.2009 4.224 14.9822 3.61067 14.5449 3.152C14.1075 2.69333 13.4942 2.464 12.7049 2.464C11.9262 2.464 11.3129 2.69333 10.8649 3.152C10.4275 3.61067 10.2089 4.224 10.2089 4.992V7.808C10.2089 8.576 10.4275 9.18933 10.8649 9.648C11.3129 10.1067 11.9262 10.336 12.7049 10.336ZM23.0374 12.224C22.2694 12.224 21.5707 12.0533 20.9414 11.712C20.3227 11.36 19.8267 10.8533 19.4534 10.192C19.0907 9.52 18.9094 8.704 18.9094 7.744V5.056C18.9094 3.616 19.3147 2.512 20.1254 1.744C20.936 0.965333 22.0347 0.575999 23.4214 0.575999C24.7974 0.575999 25.8587 0.943999 26.6054 1.68C27.3627 2.40533 27.7414 3.392 27.7414 4.64V4.704H25.6614V4.576C25.6614 4.18133 25.576 3.824 25.4054 3.504C25.2454 3.184 25 2.93333 24.6694 2.752C24.3387 2.56 23.9227 2.464 23.4214 2.464C22.6747 2.464 22.088 2.69333 21.6614 3.152C21.2347 3.61067 21.0214 4.23467 21.0214 5.024V7.776C21.0214 8.55467 21.2347 9.184 21.6614 9.664C22.088 10.1333 22.6854 10.368 23.4534 10.368C24.2214 10.368 24.7814 10.1653 25.1334 9.76C25.4854 9.35467 25.6614 8.84267 25.6614 8.224V8.064H23.0054V6.272H27.7414V12H25.7894V10.928H25.5014C25.4267 11.1093 25.304 11.3013 25.1334 11.504C24.9734 11.7067 24.728 11.8773 24.3974 12.016C24.0667 12.1547 23.6134 12.224 23.0374 12.224ZM34.1111 12.224C32.7031 12.224 31.5831 11.84 30.7511 11.072C29.9191 10.2933 29.5031 9.184 29.5031 7.744V5.056C29.5031 3.616 29.9191 2.512 30.7511 1.744C31.5831 0.965333 32.7031 0.575999 34.1111 0.575999C35.5191 0.575999 36.6391 0.965333 37.4711 1.744C38.3031 2.512 38.7191 3.616 38.7191 5.056V7.744C38.7191 9.184 38.3031 10.2933 37.4711 11.072C36.6391 11.84 35.5191 12.224 34.1111 12.224ZM34.1111 10.336C34.9005 10.336 35.5138 10.1067 35.9511 9.648C36.3885 9.18933 36.6071 8.576 36.6071 7.808V4.992C36.6071 4.224 36.3885 3.61067 35.9511 3.152C35.5138 2.69333 34.9005 2.464 34.1111 2.464C33.3325 2.464 32.7191 2.69333 32.2711 3.152C31.8338 3.61067 31.6151 4.224 31.6151 4.992V7.808C31.6151 8.576 31.8338 9.18933 32.2711 9.648C32.7191 10.1067 33.3325 10.336 34.1111 10.336Z" fill="white"/>
</svg>
