<svg width="200" height="58" viewBox="0 0 200 58" fill="none" xmlns="http://www.w3.org/2000/svg">
<path fill-rule="evenodd" clip-rule="evenodd" d="M59.2256 0.218751C58.6648 0.396792 56.8221 0.530312 55.0996 0.485802C53.377 0.441292 51.9349 0.530312 51.8147 0.708354C51.7346 0.886395 51.0936 0.841895 50.3726 0.663854C49.6916 0.441303 48.9305 0.396825 48.6901 0.530356C48.4498 0.708397 47.7287 0.797418 47.0477 0.752907C46.4067 0.663887 45.245 0.841895 44.4839 1.10896C43.5225 1.37602 42.9617 1.37603 42.6011 1.06446C42.2406 0.752886 41.84 0.752875 41.1991 1.10896C40.5181 1.55406 40.3979 1.50956 40.6382 1.06446C40.8786 0.663865 40.5982 0.574855 39.4365 0.797407C38.5952 0.930938 37.754 1.28699 37.6338 1.59856C37.4736 1.86562 37.2332 1.91016 37.113 1.68761C36.9528 1.42055 31.4247 1.24249 31.4247 1.55406C31.4247 1.68759 29.8223 2.04367 29.3416 1.99916C27.6992 1.86563 26.6977 1.91015 23.9737 2.17722C21.0494 2.48879 19.4069 2.75584 19.4069 2.88937C19.4069 2.97839 16.2022 3.379 14.5999 3.46802C13.9589 3.51253 13.1577 3.73509 12.9174 3.91313C12.637 4.13568 12.2364 4.13566 11.996 4.00213C11.7957 3.8686 10.8343 3.95761 9.91294 4.26918C8.95152 4.53624 7.78981 4.75883 7.26904 4.75883C6.78833 4.75883 6.26757 4.93683 6.14739 5.15938C6.02722 5.38194 5.30615 5.55999 4.54503 5.55999C3.78391 5.55999 3.18302 5.73804 3.18302 5.96059C3.18302 6.22765 2.86254 6.31666 2.42189 6.22764C1.98124 6.13862 1.30024 6.5392 0.81953 7.16235C-0.101828 8.31962 -0.262065 9.12081 0.418939 9.12081C0.619235 9.12081 0.739412 8.94276 0.619235 8.72021C0.258703 8.14157 1.18007 7.87454 2.90261 8.14161C3.74385 8.23063 4.3848 8.58669 4.3848 8.89826C4.3848 9.25434 4.98568 9.43237 6.14739 9.38786C7.86993 9.34335 8.3907 8.67571 6.70822 8.67571C5.26609 8.67571 6.26757 8.1416 7.99011 7.96355C9.51236 7.83002 9.59247 7.87454 9.59247 9.03181V10.2336L10.3937 8.76476C10.8343 7.96358 11.3951 7.42942 11.5954 7.56295C11.8358 7.69648 11.996 7.51844 11.996 7.11785C11.996 6.71725 12.1963 6.53921 12.3966 6.67274C12.637 6.85079 12.7171 7.16235 12.5969 7.3849C12.4367 7.60745 12.9174 7.7855 13.5583 7.7855C14.2794 7.7855 14.8002 7.56298 14.8002 7.2069C14.8002 6.85082 14.9604 6.8953 15.2007 7.3404C15.401 7.69648 15.6013 7.78551 15.6013 7.51845C15.6013 7.25139 15.8817 7.02885 16.2022 7.02885C16.5227 7.02885 16.8031 7.2069 16.8031 7.42945C16.8031 7.652 17.1236 7.652 17.5242 7.42945C17.8847 7.2069 18.9663 7.11788 19.9277 7.2069C20.8891 7.29592 21.9307 7.16236 22.2111 6.8953C22.6117 6.53921 22.7719 6.53925 22.8921 6.98435C23.0523 7.42945 23.3728 7.42944 24.5345 7.02885C25.8164 6.58375 26.0167 6.62826 26.0167 7.2514C26.0567 7.91905 26.0968 7.91907 26.5775 7.2069C26.898 6.7618 27.2585 6.58375 27.3787 6.8063C27.6992 7.38493 27.2585 8.67571 26.7778 8.67571C26.5775 8.67571 26.4173 8.85377 26.4173 9.03181C26.4173 9.20985 27.0182 9.29889 27.7793 9.20986C28.9811 9.03182 29.1413 8.89825 29.1012 7.83C29.0211 6.80626 29.1814 6.67278 30.5434 6.53925C31.4647 6.45023 32.0255 6.58372 32.0255 6.8953C32.0255 7.20687 31.7852 7.34043 31.4647 7.2069C31.0641 7.02886 30.984 7.2514 31.1042 7.91905C31.2644 8.67573 31.2244 8.76473 30.8638 8.23061C30.4232 7.51844 29.7822 7.87453 30.2229 8.63121C30.5434 9.25435 31.625 9.25434 31.625 8.67571C31.625 8.40865 31.8253 8.23061 32.0255 8.23061C32.2659 8.23061 32.3861 8.4977 32.346 8.76476C32.2659 9.07633 32.5063 9.25433 32.8267 9.16531C33.1472 9.07629 34.2288 8.94278 35.2303 8.85376C36.2318 8.72023 37.4736 8.58672 38.0344 8.54221C38.7955 8.45319 38.9958 8.23061 38.9157 7.56295C38.8356 7.02883 38.9157 6.85078 39.116 7.16235C39.8771 8.36413 42.8415 9.12083 42.8415 8.14161C42.8415 7.74101 42.3207 7.65197 40.9587 7.7855C40.3578 7.83001 40.0374 7.60749 40.0374 7.2069C40.0374 6.80631 39.9172 6.45023 39.7569 6.31669C39.5566 6.22767 39.7169 6.22767 40.0374 6.31669C42.3608 7.02886 42.9617 7.02886 42.7213 6.31669C42.5611 5.82708 42.6412 5.69355 43.0819 5.87159C43.3623 6.00512 43.6427 6.27214 43.6427 6.49469C43.6427 6.71724 44.1634 6.8953 44.8044 6.8953C45.4453 6.8953 46.1664 7.20687 46.4468 7.56295C46.7272 7.96354 47.2079 8.18608 47.5284 8.05255C47.8088 7.91902 48.0492 8.00806 48.0492 8.18611C48.0492 8.72023 49.3711 8.49769 49.5313 7.91905C49.6115 7.6965 49.0506 7.56294 48.2094 7.60745C47.0076 7.74098 46.8474 7.65197 47.248 7.11785C47.4883 6.80628 48.1293 6.58371 48.65 6.71724C49.1708 6.80626 49.7316 6.71725 49.8518 6.45019C50.0121 6.18313 50.3325 6.13865 50.5729 6.31669C50.8533 6.53925 51.3741 6.67274 51.8147 6.67274C52.8563 6.67274 53.6574 8.09708 52.8963 8.63121C52.5358 8.89827 52.7361 9.07633 53.5773 9.20986L54.7791 9.38786L53.8177 8.00805C52.656 6.27215 52.6159 6.00509 53.6975 6.00509C54.3785 6.00509 54.4987 6.22764 54.3384 7.11785C54.2183 8.05256 54.3785 8.40865 55.2999 8.89826C56.1411 9.38787 56.4215 9.43242 56.5817 8.98731C56.7019 8.58672 56.9823 8.58669 57.8236 9.12081C58.7049 9.61042 58.9853 9.65492 59.2256 9.16531C59.4259 8.85374 59.7064 8.63121 59.9067 8.63121C60.5075 8.72023 60.3072 7.652 59.6663 7.42945C59.3458 7.29592 59.1856 7.38491 59.3458 7.56295C59.7064 7.96354 58.9853 9.12081 58.3844 9.12081C58.144 9.12081 58.0639 8.80924 58.2242 8.45316C58.3844 7.96354 58.1841 7.7855 57.463 7.7855C56.1411 7.7855 56.1812 7.16235 57.5031 6.49469C58.4245 6.04959 58.5446 6.09411 58.3043 6.67274C58.1441 7.20687 58.3043 7.2959 59.0654 7.07335C59.6663 6.89531 60.3473 7.02882 60.7479 7.3849C61.2286 7.83 61.3488 7.83005 61.1084 7.42945C60.5075 6.36121 61.4289 6.93984 62.4704 8.31966C63.2716 9.38791 63.6321 9.56591 63.8725 9.12081C64.0728 8.76473 64.0327 8.63122 63.7924 8.80926C63.552 8.9873 63.2716 8.72022 63.1514 8.23061C62.9912 7.56295 63.1915 7.25139 63.9126 7.07335C65.0743 6.76178 65.7152 7.20687 64.874 7.7855C64.5535 8.00805 64.3933 8.31963 64.5135 8.45316C64.914 8.85375 66.0757 8.18611 66.0757 7.51845C66.0757 6.76178 66.957 6.71729 67.598 7.42945C67.9184 7.78553 68.0787 7.78552 68.0787 7.47395C68.0787 7.2514 68.5594 7.07333 69.2003 7.16235C70.5623 7.34039 71.7641 6.93982 71.4837 6.40569C71.3235 6.18314 71.5238 6.00509 71.8443 6.00509C72.2448 6.00509 72.4852 6.40567 72.4852 6.9398C72.4852 7.65196 72.2849 7.83005 71.7241 7.652C71.2434 7.51847 70.8428 7.69651 70.7226 8.09711C70.4021 9.03182 70.3621 9.03182 71.5238 8.76476C72.2849 8.63123 72.5253 8.72023 72.325 9.07631C72.1647 9.34337 72.2448 9.56591 72.4451 9.56591C72.6855 9.56591 72.8858 9.34337 72.8858 9.07631C72.8858 8.76474 73.2864 8.67574 73.8873 8.76476C74.4481 8.89829 75.0089 8.80925 75.1291 8.63121C75.2493 8.40866 74.7686 8.23061 74.1276 8.23061C73.4466 8.23061 72.8858 8.00805 72.8858 7.7855C72.8858 7.51844 73.1662 7.3404 73.4867 7.3404C73.8071 7.3404 74.0875 7.07337 74.0875 6.7618C74.1276 6.40572 74.2478 6.45019 74.6083 6.8953C75.1291 7.60746 78.494 7.96354 78.494 7.3404C78.494 6.93981 80.8575 7.11785 81.2181 7.56295C81.3382 7.69648 80.7774 7.7855 79.9762 7.7855C78.6543 7.7855 78.494 7.91903 78.5742 8.89826C78.6543 9.83298 78.7344 9.87748 79.2952 9.38786C79.6157 9.03178 80.3368 8.6312 80.8976 8.45316C81.8189 8.14158 81.859 8.14158 81.2982 8.89826C80.7374 9.65493 80.7774 9.69947 81.6186 9.47692C82.0994 9.29887 82.5 9.34336 82.5 9.56591C82.5 10.1891 83.7819 10.5006 84.3427 10.011C84.6231 9.74396 85.4643 9.47692 86.1854 9.47692C87.8278 9.43241 88.3486 9.12082 87.6676 8.63121C87.2269 8.31964 87.267 8.23061 87.8278 8.23061C88.2284 8.23061 88.4688 8.05255 88.3486 7.83C88.2284 7.60745 88.7091 7.34039 89.3901 7.16235C90.1913 6.98431 90.7521 7.07333 90.9524 7.3849C91.1127 7.69647 91.5133 7.78553 91.8738 7.652C92.2343 7.47396 92.5147 7.56294 92.5147 7.83C92.5147 8.09706 92.7951 8.18608 93.1156 8.05255C93.4361 7.91902 93.9969 7.65199 94.3975 7.47395C94.7981 7.29591 94.9583 7.38494 94.7981 7.652C94.6378 7.91907 94.7981 8.27513 95.1586 8.40866C95.4791 8.54219 95.6393 8.49766 95.5191 8.2751C95.399 8.05255 95.9197 7.87454 96.6809 7.91905C97.442 7.96357 97.9627 8.14162 97.8426 8.31966C97.7625 8.54221 98.0429 8.67571 98.5236 8.67571C99.0443 8.67571 99.2847 8.49768 99.0844 8.18611C98.9242 7.87453 99.2046 7.91902 99.7654 8.2751C100.847 8.89825 102.089 9.03182 102.85 8.54221C103.09 8.31966 103.691 8.40865 104.132 8.67571C104.653 8.98728 104.933 8.98728 104.933 8.67571C104.933 8.45316 105.414 8.23061 106.055 8.23061C106.656 8.23061 106.936 8.40867 106.696 8.58671C106.335 8.80926 106.375 9.07632 106.776 9.47692C107.256 9.92202 107.337 9.922 107.337 9.34336C107.337 8.58669 107.978 8.40865 108.218 9.12081C108.378 9.65493 111.342 10.1 111.342 9.61041C111.342 9.07629 112.985 9.34337 113.345 9.96652C113.546 10.3226 113.986 10.4561 114.547 10.2336C115.028 10.0555 115.989 9.87748 116.63 9.83296C117.712 9.74394 117.752 9.7885 117.111 10.3226C116.27 11.0348 116.35 11.0348 118.112 10.4561C119.234 10.1 119.595 10.1891 120.035 10.8122C120.436 11.4354 120.516 11.4354 120.356 10.8567C120.196 10.4116 120.356 10.1446 120.716 10.1446C121.037 10.1446 121.237 10.3226 121.117 10.5452C120.997 10.7232 121.197 10.9012 121.517 10.9012C121.878 10.9012 122.158 11.0348 122.158 11.2128C122.158 11.747 124.241 11.7469 125.163 11.2573C125.604 10.9903 125.844 10.9457 125.684 11.1238C125.523 11.3018 125.804 11.8359 126.285 12.281L127.166 13.0822L126.285 12.8152C125.764 12.6817 125.043 12.7262 124.682 12.8597C124.081 13.1267 124.081 13.2158 124.562 13.5718C124.882 13.7944 125.483 13.8834 125.924 13.7499C126.405 13.5719 126.565 13.6609 126.405 13.9724C126.084 14.5066 126.685 14.5956 128.087 14.195C129.169 13.8389 129.249 13.1267 128.167 13.3493C127.727 13.4383 127.446 13.3493 127.566 13.1267C127.687 12.9042 128.247 12.7262 128.768 12.7707C129.289 12.8152 129.609 13.0378 129.529 13.2158C129.409 13.3938 129.649 13.5718 130.01 13.5718C130.411 13.5718 130.611 13.7054 130.451 13.8389C130.17 14.195 131.452 15.7974 131.813 15.5303C132.013 15.4413 132.053 14.9962 131.933 14.5511C131.733 13.928 131.773 13.9279 132.093 14.462C132.333 14.8181 132.454 15.2187 132.333 15.3968C132.093 15.8864 135.538 16.1535 136.099 15.6639C136.419 15.3523 136.58 15.4413 136.58 15.9754C136.58 16.5095 136.98 16.6876 138.302 16.7321C139.865 16.7766 139.905 16.7766 138.863 17.1327C138.222 17.3552 137.461 17.3997 137.181 17.3107C136.9 17.1772 136.259 17.3107 135.819 17.5778C135.338 17.8448 134.737 17.9339 134.497 17.7558C133.655 17.1772 130.411 17.0881 129.249 17.6223C128.448 18.0229 128.047 18.0229 127.606 17.6223C127.286 17.3107 126.925 17.2662 126.805 17.4888C126.565 17.9339 125.363 17.8893 124.642 17.3997C124.362 17.2217 124.161 17.3107 124.161 17.5778C124.161 17.8893 123.36 17.9784 121.678 17.7558C120.276 17.5778 118.793 17.4888 118.353 17.4888C113.666 17.7558 112.144 17.7558 112.144 17.5333C112.144 17.3997 111.342 17.3997 110.341 17.5778C109.38 17.7558 108.498 17.7113 108.458 17.4888C108.378 17.2662 107.817 17.2662 107.176 17.5778C106.455 17.8448 105.854 17.8893 105.574 17.6223C105.334 17.3997 104.412 17.3552 103.531 17.5333C102.65 17.7113 97.8826 17.8448 92.9153 17.8003C87.948 17.7558 83.4213 17.8448 82.8605 18.0674C82.2196 18.2454 81.6187 18.2009 81.3383 17.8894C81.0578 17.5778 80.7774 17.5778 80.4169 17.8894C80.1365 18.1119 79.0148 18.2454 77.9332 18.2009C76.8516 18.1119 75.73 18.2454 75.4496 18.5125C75.089 18.824 74.6884 18.8241 74.1276 18.468C73.5267 18.1564 70.8828 18.0674 65.555 18.2454C53.7376 18.646 44.2836 19.1802 43.7628 19.4472C43.6026 19.5363 42.5611 19.5807 41.4394 19.5807C40.3178 19.5807 39.3163 19.7588 39.1561 20.0258C38.9558 20.2929 38.8356 20.2929 38.8356 19.9368C38.8356 19.5808 38.1546 19.4917 36.7525 19.6252C31.5048 20.0703 27.1784 20.3374 24.5345 20.3819C22.9722 20.4264 21.5701 20.6045 21.4099 20.7825C21.2497 20.9606 20.9292 21.0051 20.6488 20.8715C20.3684 20.738 19.8075 21.0496 19.4069 21.5837C19.0064 22.0733 18.4856 22.4739 18.2052 22.4739C17.5642 22.4739 16.0019 23.9873 16.0019 24.6104C16.0019 24.8775 16.3224 25.3226 16.723 25.5451C17.1236 25.8567 17.2438 26.1683 17.0034 26.3463C16.5227 26.7914 16.3624 28.3493 16.8432 27.9932C17.0434 27.8597 17.2037 27.9487 17.2037 28.2157C17.2037 28.4383 17.0034 28.7054 16.763 28.7944C16.4025 28.9279 16.4025 29.2395 16.763 29.9517C17.1236 30.7528 17.5642 30.9309 18.9262 30.8864C19.8476 30.8864 21.2497 31.0644 22.0108 31.3315C23.8134 31.9546 25.6562 31.9991 24.8149 31.376C24.2941 31.0199 24.3342 30.9309 24.9351 30.9309C25.2956 30.9309 25.6161 31.1534 25.6161 31.4205C25.6161 31.6875 25.9766 31.7766 26.4173 31.5985C26.898 31.4205 27.2185 31.5095 27.2185 31.8656C27.2185 32.2216 27.4187 32.1772 27.8995 31.7766C28.4202 31.287 28.5805 31.287 28.7407 31.7321C28.8609 32.1772 29.0211 32.1772 29.5018 31.7766C29.8223 31.465 30.0226 31.4205 29.9825 31.643C29.8223 32.5777 30.0627 32.8003 30.6235 32.2662C31.1042 31.8211 31.2244 31.8211 31.2244 32.3107C31.2244 32.6667 31.4647 32.5332 31.8253 31.9991C32.1991 31.4353 32.3994 31.4353 32.4261 31.9991C32.4261 32.4887 32.5463 32.7113 32.7065 32.5778C32.8267 32.3997 33.1472 32.4442 33.4276 32.7113C33.668 32.9338 34.5493 33.1564 35.3504 33.2454C36.1917 33.2899 36.8326 33.557 36.8326 33.8685C36.8326 34.1801 36.5122 34.3137 35.9914 34.1801C35.2303 33.9576 35.1902 34.0911 35.3104 36.8507C35.3905 38.4531 35.5908 39.6549 35.751 39.5214C35.9113 39.4323 35.9513 39.8329 35.7911 40.4116C35.4306 42.192 35.9113 43.3938 36.9528 43.0822C39.3964 42.4145 39.8771 42.459 40.7184 43.3492C41.9201 44.5955 42.481 44.5065 42.2807 43.1712C42.1204 42.192 42.2406 42.0584 43.2421 42.0584C43.883 42.0584 44.6842 41.9249 45.0447 41.7469C45.6456 41.5243 45.6857 41.6133 45.245 42.548C44.8444 43.3047 44.8444 43.6163 45.205 43.7498C45.4453 43.8389 45.5655 44.0614 45.4854 44.2394C45.3652 44.4175 45.4854 44.5956 45.7658 44.5956C46.0462 44.5956 46.8073 44.7736 47.5284 44.9071C48.2495 45.0406 48.9305 44.9961 49.0506 44.729C49.1708 44.5065 49.6115 44.2839 49.972 44.2839C50.5729 44.2839 50.5729 44.373 50.0521 44.7735C49.5714 45.1741 49.5714 45.2187 50.1723 44.9961C50.5729 44.8626 51.0937 44.729 51.294 44.729C51.5343 44.729 51.5744 44.5065 51.4542 44.2839C51.334 44.0169 51.3741 43.8388 51.5343 43.8388C51.7346 43.8388 52.0551 44.195 52.3355 44.6401C52.6159 45.1742 53.2969 45.4857 54.018 45.5303C54.699 45.5303 55.1797 45.3967 55.0595 45.1742C54.9393 44.9516 55.0194 44.6845 55.2598 44.5065C55.4601 44.373 55.6604 44.551 55.6604 44.9071C55.6604 45.3077 55.9408 45.6193 56.2613 45.6193C56.6218 45.6193 56.742 45.3522 56.5817 44.8626C56.3814 44.284 56.5016 44.195 57.0224 44.4175C57.423 44.5955 57.7835 44.729 57.9037 44.729C57.9838 44.729 57.9438 45.0406 57.8236 45.3967C57.6633 45.7528 57.7835 46.0644 58.0239 46.0644C58.2642 46.0644 58.4645 45.8418 58.4645 45.6193C58.4645 45.3522 58.9853 45.1742 59.6262 45.1742C60.3072 45.1742 60.9482 44.9516 61.0684 44.729C61.4289 44.0614 62.0698 44.64 61.7894 45.3967C61.6692 45.8863 61.8695 46.0644 62.5105 46.0644C63.2716 46.0644 63.3517 45.9753 62.871 45.6193C62.5505 45.3967 62.4304 45.0851 62.5505 44.9071C62.7108 44.7291 62.3903 44.2395 61.8695 43.7498C60.5075 42.5926 60.6277 42.192 62.2701 42.2365C63.2315 42.281 63.6321 42.4591 63.4719 42.8151C63.3918 43.1267 63.4719 43.3937 63.6722 43.3937C63.8725 43.3937 64.1128 43.0377 64.193 42.5926C64.3532 41.8804 64.3933 41.8804 64.4333 42.5926C64.4734 43.1267 64.8339 43.3937 65.595 43.4382C66.6366 43.4382 66.6366 43.4828 65.7953 43.8388C65.1944 44.1059 64.9541 44.5065 65.1143 44.9516C65.3146 45.4412 65.1945 45.5748 64.7137 45.3522C64.3132 45.1742 64.1129 44.7736 64.233 44.462C64.3532 44.1059 64.193 43.8388 63.9126 43.8388C63.5921 43.8388 63.4318 44.195 63.552 44.8626C63.7123 45.6638 64.0327 45.8863 65.1944 45.9754C65.9956 46.0644 67.2775 46.1979 67.9986 46.2869C68.96 46.4204 69.4006 46.2869 69.5609 45.7528C69.8012 45.1297 69.8814 45.1296 70.3621 45.8418C70.8027 46.554 71.6039 46.6875 76.6914 46.7765C81.2181 46.821 82.5801 46.732 82.9406 46.2424C83.3011 45.7528 83.2611 45.6193 82.7403 45.6193C82.3798 45.6193 82.0994 45.3967 82.0994 45.1742C82.0994 44.551 82.6201 44.64 83.5415 45.3967C84.6231 46.2869 85.6246 46.1979 85.905 45.2187C86.0652 44.64 86.3857 44.4175 86.7462 44.5956C87.1068 44.7291 87.307 44.5955 87.2269 44.2394C87.1468 43.8834 87.5073 43.6163 88.1082 43.5273L89.1097 43.4382L88.1082 43.7498C87.4272 43.9724 87.267 44.1949 87.6275 44.462C87.8679 44.64 88.3085 44.64 88.5889 44.462C88.8693 44.284 88.9094 44.3285 88.7492 44.6401C88.5889 44.9516 87.9079 45.1742 87.1869 45.1742C86.1053 45.1742 86.0251 45.2632 86.5059 45.7973C86.8263 46.1534 87.7877 46.732 88.629 47.1326C89.9509 47.7113 90.1913 47.7112 90.3916 47.1771C90.5118 46.821 90.8323 46.5095 91.1527 46.5095C91.4331 46.5095 91.5934 46.7765 91.4732 47.0881C91.353 47.4887 91.7536 47.7113 92.7551 47.7558C94.1171 47.8893 94.1972 47.8003 93.6764 47.1326C93.1557 46.4205 93.1957 46.376 94.037 46.5985C94.5177 46.7766 94.9183 46.6875 94.9183 46.376C94.9183 46.1089 95.0384 46.0644 95.1987 46.1979C95.5592 46.643 96.5607 45.6193 96.2803 45.0852C96.12 44.8181 96.3604 44.729 96.8812 44.9516C97.3619 45.1296 97.7224 45.0406 97.7224 44.7735C97.7224 44.5065 98.0028 44.2839 98.3233 44.2839C98.6438 44.2839 98.9242 44.462 98.9242 44.6401C98.9242 44.8181 99.4049 44.9516 100.046 44.9071C100.687 44.9071 101.408 45.2187 101.848 45.7528C102.61 46.732 102.73 47.3997 102.129 47.3997C101.929 47.3997 101.768 47.1326 101.848 46.8211C101.889 46.554 101.648 46.2869 101.328 46.2869C101.007 46.2869 100.527 46.1089 100.286 45.9754C100.046 45.7973 99.8455 45.9308 99.8455 46.2869C99.8455 46.643 100.166 46.9546 100.567 46.9546C100.967 46.9546 101.408 47.1326 101.528 47.3997C101.648 47.6222 102.169 47.7557 102.65 47.6667C103.13 47.5332 103.731 47.4442 104.012 47.4442C104.292 47.3997 104.412 47.0881 104.292 46.732C104.132 46.3759 103.891 46.1534 103.731 46.2869C103.571 46.4204 103.331 46.2424 103.21 45.9309C103.09 45.5303 103.371 45.3967 104.172 45.4412C105.013 45.4857 105.334 45.3077 105.374 44.8181C105.374 44.373 105.494 44.284 105.574 44.5956C105.694 44.9071 106.015 45.0406 106.295 44.9071C106.616 44.7736 106.936 44.9961 107.096 45.3967C107.216 45.7973 107.497 46.0198 107.737 45.8418C107.937 45.7083 108.458 45.7973 108.899 46.0199C109.42 46.3314 109.7 46.3759 109.82 46.0644C110.061 45.1742 112.504 46.1089 112.664 47.1326C112.785 47.8893 112.865 47.8448 112.905 46.8656C112.945 46.0644 113.105 45.7083 113.466 45.8863C113.826 46.0198 113.946 46.5985 113.826 47.3997C113.666 48.5124 113.786 48.735 114.507 48.735C115.549 48.735 115.549 48.5569 114.667 47.5777C113.986 46.821 113.986 46.7765 114.707 47.0881C115.268 47.3107 115.388 47.2661 115.188 46.732C115.028 46.2424 115.228 46.0644 115.949 46.0644C116.51 46.0644 116.951 46.2869 116.951 46.554C116.951 46.821 116.67 46.91 116.31 46.7765C115.949 46.5985 115.749 46.732 115.829 46.9991C116.029 47.7112 118.072 47.9338 118.393 47.3107C118.553 46.9991 118.473 46.9546 118.233 47.1326C117.912 47.3552 117.752 47.0881 117.752 46.5095C117.752 45.8418 117.952 45.6193 118.313 45.7528C118.633 45.8863 118.994 45.7973 119.074 45.4858C119.194 45.0852 119.394 45.1297 119.915 45.5748C120.516 46.1534 120.676 46.1534 120.997 45.5748C121.317 45.0406 121.397 45.0406 121.758 45.6193C121.958 45.9753 122.158 46.0644 122.158 45.8418C122.158 45.5747 122.439 45.7528 122.719 46.1979C123.04 46.643 123.2 47.3997 123.08 47.8448C122.96 48.3344 123.08 48.735 123.32 48.735C123.561 48.735 123.761 48.5569 123.761 48.3344C123.761 48.0673 124.121 47.9338 124.522 47.9783C124.963 47.9783 125.203 48.2454 125.083 48.6015C124.963 48.9131 125.083 49.1801 125.323 49.1801C125.563 49.1801 125.764 48.9575 125.764 48.735C125.764 48.4679 126.124 48.2899 126.605 48.2899C127.046 48.2899 127.286 48.4679 127.166 48.735C127.046 48.9575 127.086 49.1801 127.326 49.1801C127.526 49.1801 127.767 48.9131 127.887 48.6015C128.047 48.1564 128.167 48.1564 128.608 48.6015C129.249 49.3136 129.93 49.3581 129.529 48.646C129.329 48.2899 129.449 48.2454 130.01 48.5124C131.572 49.2246 132.654 49.3136 133.014 48.6905C133.295 48.2454 133.455 48.2008 133.695 48.5569C133.856 48.913 135.057 49.0465 136.9 49.002C138.462 48.9575 139.784 49.0911 139.784 49.3136C139.784 49.4917 139.985 49.5362 140.185 49.4026C140.425 49.2246 140.505 48.913 140.385 48.6905C140.065 48.1118 140.746 48.2008 141.267 48.7795C141.867 49.4471 142.669 49.1356 142.228 48.3789C142.068 48.0674 141.387 47.7112 140.746 47.6222C140.105 47.5332 139.504 47.4442 139.384 47.4442C139.264 47.3997 139.424 47.2216 139.744 46.9991C140.105 46.732 140.706 46.7765 141.307 46.9991C141.867 47.2216 142.629 47.3106 143.029 47.1771C143.59 46.9546 143.91 47.1772 144.191 47.9338C144.458 48.5866 144.551 48.5273 144.471 47.7558C144.391 47.0881 144.471 46.643 144.632 46.7765C144.832 46.91 144.992 46.643 144.992 46.2424C144.992 45.5302 145.032 45.5302 145.753 46.2424C146.274 46.732 147.195 47.0436 148.357 47.0436C149.959 47.0436 150.2 47.1772 150.2 47.9338C150.2 48.557 150.4 48.735 150.841 48.5569C151.201 48.4234 151.522 48.2899 151.642 48.2899C151.722 48.2899 151.682 48.0228 151.562 47.6667C151.321 46.9546 152.483 46.3314 152.844 46.9991C152.964 47.2661 153.565 47.3552 154.166 47.1771C154.847 46.9991 155.087 47.0436 154.807 47.3552C154.606 47.5777 153.885 47.8448 153.204 47.9783C152.523 48.0673 152.964 48.2009 154.286 48.2454C155.648 48.2454 156.689 48.0673 156.85 47.7558C157.05 47.4442 156.85 47.3552 156.289 47.4887C155.768 47.6668 155.528 47.5777 155.648 47.2216C155.728 46.9546 156.409 46.6875 157.13 46.643C159.934 46.5095 161.056 46.2424 161.456 45.6193C161.777 45.0406 161.897 45.0407 162.378 45.7083C162.939 46.554 164.421 46.7765 164.821 46.0644C164.941 45.8418 165.302 45.7528 165.622 45.9309C166.023 46.0644 166.223 45.8418 166.223 45.2187C166.223 44.5065 166.023 44.3285 165.342 44.462C164.821 44.551 164.26 44.462 164.02 44.2839C163.66 43.9724 162.057 43.6608 158.612 43.1712C158.051 43.0822 156.81 42.9041 155.808 42.7261C148.998 41.6578 141.908 40.8566 138.302 40.7676C137.741 40.7231 137.381 40.4561 137.381 40.0555C137.381 39.6994 137.221 39.3878 137.02 39.3878C136.82 39.3878 136.54 39.0763 136.419 38.6757C136.299 38.3196 136.339 38.1415 136.58 38.2751C136.78 38.4086 137.06 38.008 137.221 37.3848C137.341 36.8062 137.621 36.4056 137.822 36.4946C137.982 36.6282 138.382 36.3611 138.663 35.827C138.943 35.3374 139.304 34.9368 139.504 34.9368C140.145 34.9368 144.591 32.5332 144.591 32.1772C144.591 31.9991 144.431 31.8211 144.231 31.8211C144.031 31.8211 143.79 31.4205 143.67 30.9754C143.55 30.4857 142.789 29.7736 141.948 29.373C140.626 28.7499 140.505 28.5718 141.066 28.2157C141.427 27.9932 143.029 27.9042 144.632 28.0377C146.554 28.1712 147.756 28.0377 148.117 27.7261C148.557 27.3255 148.758 27.3255 148.998 27.8596C149.278 28.3938 150.36 28.5273 153.925 28.6608C156.409 28.7054 159.133 28.8389 159.934 28.9279C161.016 29.0169 161.416 28.8834 161.536 28.3047C161.697 27.6816 161.737 27.6816 161.777 28.3493C161.817 28.9724 162.217 29.0615 164.02 29.0169C165.222 28.9724 166.223 29.0615 166.223 29.2395C166.223 29.6846 169.869 29.6846 170.51 29.2395C170.83 29.0169 170.87 28.6608 170.63 28.2602C170.029 27.2365 170.149 26.9249 171.03 26.9249C171.471 26.9249 171.832 27.1475 171.832 27.4145C171.832 27.6371 171.671 27.7261 171.431 27.5926C170.95 27.2365 170.91 27.8151 171.391 28.6608C171.832 29.462 173.955 29.7736 173.594 29.0169C173.474 28.7054 173.594 28.7944 173.915 29.1504C174.516 29.9516 177.039 30.3077 177.039 29.5955C177.039 29.373 177.52 29.1504 178.161 29.1949C179.082 29.1949 179.122 29.284 178.481 29.5511C177.76 29.8626 177.76 29.9071 178.401 30.1742C178.802 30.3522 179.443 30.2632 179.843 30.0407C180.244 29.8181 180.885 29.7291 181.205 29.8626C181.606 30.0406 181.846 29.9071 181.846 29.5511C181.846 29.0614 181.927 29.0169 182.207 29.5065C182.367 29.8181 182.688 30.0407 182.888 29.9962C183.088 29.9516 183.329 29.9961 183.449 30.0407C183.569 30.0852 184.41 30.1742 185.372 30.2632C186.694 30.3522 187.054 30.2632 187.094 29.6846C187.094 29.0615 187.134 29.0169 187.375 29.5955C187.695 30.3967 189.137 30.4858 189.378 29.6846C189.458 29.4175 189.818 29.1504 190.139 29.1504C190.619 29.1504 190.659 29.284 190.299 29.7291C189.938 30.2187 190.099 30.3522 191.1 30.3968C192.262 30.4413 192.302 30.3523 192.021 29.0169C191.901 28.2158 191.621 27.5481 191.421 27.4591C190.9 27.2365 192.102 26.0347 192.783 26.0347C193.103 26.0347 193.464 25.7677 193.584 25.4561C193.784 24.8775 195.426 23.8537 197.99 22.741C198.791 22.3849 199.472 21.8953 199.472 21.6282C199.472 20.916 197.63 18.9131 196.989 18.9131C196.668 18.9131 196.268 18.735 196.067 18.5125C195.827 18.2454 195.146 17.9783 194.545 17.8448C193.544 17.6668 188.096 16.0199 184.851 14.9516C183.689 14.5511 180.484 13.8389 179.643 13.7944C179.443 13.7944 179.082 13.6609 178.842 13.5273C178.642 13.3493 177.72 13.0822 176.839 12.9042C175.958 12.6816 175.076 12.5036 174.836 12.4591C173.754 12.192 167.585 10.7677 167.225 10.7232C167.025 10.6787 166.664 10.5452 166.424 10.4116C166.223 10.2336 165.663 10.189 165.262 10.2781C164.821 10.3226 164.18 10.2336 163.86 10.011C163.499 9.83298 162.698 9.52139 162.017 9.38786C161.376 9.25433 159.934 8.94277 158.812 8.67571C157.731 8.45316 155.808 8.18608 154.606 8.05255C153.404 7.96353 151.522 7.65196 150.4 7.3849C145.232 6.18312 138.062 5.02587 134.176 4.84783C132.734 4.80332 131.572 4.71429 131.572 4.66978C131.572 4.53625 129.93 4.22469 127.687 3.95763C125.884 3.73508 125.363 3.82407 125.363 4.26918C125.363 4.75879 125.283 4.75883 125.043 4.31373C124.602 3.60157 123.52 3.33447 119.755 3.11192C118.112 3.0229 116.31 2.80034 115.749 2.71132C115.188 2.57779 113.025 2.35525 110.942 2.22171C108.859 2.08818 106.255 1.86566 105.133 1.64311C104.052 1.46507 102.009 1.33151 100.647 1.33151C99.2847 1.33151 98.123 1.1535 98.123 0.975459C98.123 0.797418 97.7625 0.841895 97.3619 1.10896C96.4005 1.64308 95.9999 1.68762 96.2803 1.19801C96.4005 0.975459 95.7194 0.797407 94.7981 0.797407C93.8767 0.797407 91.7536 0.663887 90.1112 0.530356C86.3056 0.174273 83.181 0.129741 80.9777 0.396803C80.0564 0.530334 79.3353 0.485846 79.4555 0.307804C79.6958 -0.137299 77.1721 -0.0928101 76.5312 0.396803C76.1706 0.663865 75.8902 0.663865 75.8101 0.396803C75.73 0.174252 73.9273 0.0407426 71.8042 0.0852529C69.641 0.129763 66.3161 0.174241 64.3932 0.218751C62.4704 0.263261 60.7479 0.218784 60.5876 0.0852529C60.4274 -0.00376774 59.7865 0.04071 59.2256 0.218751ZM20.6087 6.00509C20.7289 6.27215 20.5686 6.31667 20.2482 6.18314C19.5271 5.87157 19.4069 5.55999 19.9678 5.55999C20.2081 5.55999 20.4885 5.73803 20.6087 6.00509ZM33.6279 7.3849C33.6279 7.60745 33.3074 7.78551 32.9469 7.741C32.5063 7.741 32.4261 7.60748 32.7466 7.47395C32.987 7.38493 33.1071 7.02885 32.987 6.8063C32.8267 6.49473 32.9068 6.4502 33.1472 6.62824C33.4276 6.80629 33.6279 7.11784 33.6279 7.3849ZM36.4721 7.3404C36.4721 7.7855 36.5923 7.69648 36.8326 7.11785C37.1531 6.27215 37.1932 6.27214 37.1932 7.16235C37.2332 7.78549 36.9128 8.23062 36.3519 8.40866C35.03 8.76474 34.349 8.72021 34.5893 8.2751C34.7496 8.05255 34.6294 7.78552 34.349 7.6965C33.5478 7.38493 34.389 6.53922 35.4306 6.62824C36.0315 6.62824 36.432 6.93981 36.4721 7.3404ZM38.2347 6.8953C38.3549 7.11785 38.2748 7.3404 38.0745 7.3404C37.8341 7.3404 37.6338 7.11785 37.6338 6.8953C37.6338 6.62823 37.7139 6.45019 37.7941 6.45019C37.9142 6.45019 38.1145 6.62823 38.2347 6.8953ZM82.9807 6.8508C82.54 7.11786 82.6602 7.42944 83.4614 8.14161C84.3026 8.85377 84.3827 9.07631 83.862 9.29886C83.5415 9.43239 83.3812 9.38786 83.5014 9.16531C83.6216 8.94276 83.3412 8.6312 82.9005 8.45316C81.7388 8.05256 81.8991 6.45019 83.0608 6.45019C83.3011 6.45019 83.2611 6.62824 82.9807 6.8508ZM85.1038 7.7855C85.224 8.00805 85.1839 8.23061 84.9436 8.23061C84.7433 8.23061 84.4228 8.00805 84.3026 7.7855C84.1824 7.51844 84.2225 7.3404 84.4629 7.3404C84.6631 7.3404 84.9836 7.51844 85.1038 7.7855ZM86.5459 8.36416C86.1453 8.76475 86.1053 8.72025 86.3456 8.09711C86.4658 7.652 86.7061 7.42942 86.8263 7.56295C86.9465 7.69648 86.8263 8.05259 86.5459 8.36416ZM56.2613 8.23061C56.3814 8.45316 56.3414 8.67571 56.101 8.67571C55.9007 8.67571 55.5803 8.45316 55.4601 8.23061C55.3399 7.96354 55.38 7.7855 55.6203 7.7855C55.8206 7.7855 56.1411 7.96354 56.2613 8.23061ZM134.376 12.9487C134.897 13.1712 134.937 13.3048 134.497 13.6163C133.695 14.195 132.974 14.106 132.974 13.3493C132.974 12.6371 133.335 12.5036 134.376 12.9487ZM140.065 14.1505C139.865 14.8627 137.661 14.7736 137.461 14.0614C137.341 13.7054 137.461 13.5719 137.701 13.7499C137.942 13.8834 138.222 13.8389 138.342 13.6163C138.663 13.0822 140.265 13.5719 140.065 14.1505ZM144.071 14.106C143.951 14.4621 143.83 14.3285 143.83 13.8389C143.79 13.3493 143.911 13.0822 144.031 13.2603C144.151 13.3938 144.191 13.7944 144.071 14.106ZM142.589 14.6401C143.59 14.9962 144.231 15.3522 143.991 15.3968C142.669 15.6638 141.747 15.6193 141.547 15.2633C141.427 15.0852 141.146 14.9962 140.946 15.1297C140.746 15.3077 140.586 15.0852 140.586 14.7291C140.586 14.3285 140.626 14.0169 140.706 14.0169C140.746 14.0169 141.587 14.3285 142.589 14.6401ZM98.5236 23.8092C98.5236 23.3196 98.6438 23.3196 99.0043 23.7202C99.7654 24.5659 98.8841 25.278 97.6823 24.7439C97.1616 24.5214 96.9212 24.2988 97.2016 24.2988C97.482 24.2543 97.6022 23.9428 97.442 23.4532C97.2417 22.83 97.3218 22.8745 97.8426 23.5867C98.3233 24.2098 98.4835 24.2988 98.5236 23.8092ZM90.7121 23.8092C90.8322 24.0318 90.7521 24.2543 90.5518 24.2543C90.3115 24.2543 90.1112 24.0318 90.1112 23.8092C90.1112 23.5421 90.1913 23.3641 90.2714 23.3641C90.3916 23.3641 90.5919 23.5421 90.7121 23.8092ZM109.54 24.3434C110.101 24.6104 110.541 25.011 110.541 25.189C110.541 25.5896 105.854 25.4116 105.454 25.011C105.213 24.744 105.894 24.5214 106.656 24.6549C106.816 24.6549 106.936 24.4769 106.936 24.2543C106.936 23.6757 108.258 23.6757 109.54 24.3434ZM115.068 24.6549C116.39 25.5896 115.869 26.3908 114.507 25.5451C113.946 25.2336 113.746 25.2336 113.906 25.5451C114.066 25.8122 113.666 25.9457 112.664 25.8567C111.863 25.7677 111.102 25.4561 111.022 25.189C110.902 24.7439 111.703 24.4769 112.865 24.6549C113.105 24.6994 113.345 24.5214 113.345 24.2543C113.345 23.5867 113.786 23.7202 115.068 24.6549ZM102.73 25.1445C102.61 25.3671 102.169 25.4116 101.688 25.2781C101.087 25.1 101.007 24.922 101.368 24.6994C101.969 24.2543 103.01 24.6549 102.73 25.1445ZM118.553 24.7439C118.553 25.011 118.874 25.1 119.314 24.922C119.915 24.6994 120.075 24.8775 120.035 25.5451C119.995 26.1683 119.835 26.3018 119.515 25.9902C119.234 25.7677 118.553 25.6786 117.952 25.8567C116.951 26.1237 116.911 26.0792 117.311 25.189C117.792 24.2098 118.553 23.8982 118.553 24.7439ZM127.927 24.8775C127.767 25.3671 127.967 25.4561 129.049 25.189C129.77 25.011 130.811 25.011 131.372 25.189L132.373 25.5006L131.292 25.5451C130.651 25.5896 130.17 25.8122 130.17 26.0792C130.17 26.4353 129.97 26.4353 129.569 26.0347C129.089 25.5896 128.848 25.5896 128.408 25.9902C128.007 26.3908 127.767 26.3908 127.566 26.0347C127.286 25.5451 127.566 24.2543 127.927 24.2543C128.047 24.2543 128.047 24.5214 127.927 24.8775ZM104.933 25.1445C104.933 25.3671 104.853 25.5896 104.773 25.5896C104.653 25.5896 104.452 25.3671 104.332 25.1445C104.212 24.8775 104.292 24.6994 104.492 24.6994C104.733 24.6994 104.933 24.8775 104.933 25.1445ZM124.282 25.2336C124.762 25.5451 125.604 25.7232 126.164 25.6787C127.126 25.5451 127.126 25.5896 126.405 26.2573C125.403 27.103 125.123 27.103 124.802 26.2573C124.682 25.9012 124.121 25.5896 123.56 25.5896C122.839 25.5896 122.599 25.7677 122.799 26.1238C123 26.4799 122.88 26.5244 122.399 26.3463C121.998 26.1683 121.598 26.0347 121.517 26.0347C121.037 26.0347 121.477 25.1891 122.078 25.011C123.24 24.6549 123.4 24.6994 124.282 25.2336ZM133.375 25.5896C133.375 25.8122 133.175 26.0347 132.934 26.0347C132.734 26.0347 132.654 25.8122 132.774 25.5896C132.894 25.3226 133.095 25.1445 133.215 25.1445C133.295 25.1445 133.375 25.3226 133.375 25.5896ZM135.979 25.5896C135.859 25.8122 135.578 26.0347 135.338 26.0347C135.138 26.0347 134.977 25.8122 134.977 25.5896C134.977 25.3226 135.258 25.1445 135.618 25.1445C135.939 25.1445 136.099 25.3226 135.979 25.5896ZM138.583 26.3018C138.583 26.3908 138.222 26.3018 137.781 26.0347C137.341 25.7677 136.98 25.4561 136.98 25.3226C136.98 25.2336 137.341 25.3226 137.781 25.5896C138.222 25.8567 138.583 26.1682 138.583 26.3018ZM140.385 25.5896C140.505 25.8122 140.345 26.0347 140.025 26.0347C139.664 26.0347 139.384 25.8122 139.384 25.5896C139.384 25.3226 139.544 25.1445 139.744 25.1445C139.985 25.1445 140.265 25.3226 140.385 25.5896ZM142.789 25.5896C142.669 25.8122 142.308 25.9012 141.988 25.7232C141.146 25.4116 141.227 25.1445 142.228 25.1445C142.669 25.1445 142.949 25.3226 142.789 25.5896ZM129.169 26.4798C129.289 26.7024 129.209 26.9249 129.009 26.9249C128.768 26.9249 128.568 26.7024 128.568 26.4798C128.568 26.2128 128.648 26.0347 128.728 26.0347C128.848 26.0347 129.049 26.2128 129.169 26.4798ZM159.213 26.4798C159.093 26.7024 158.732 26.9249 158.492 26.9249C158.212 26.9249 158.252 26.7469 158.612 26.4798C159.373 25.9457 159.534 25.9457 159.213 26.4798ZM161.416 26.7024C161.416 27.0585 161.136 27.37 160.815 27.37C159.774 27.37 160.094 26.4798 161.336 26.0792C161.376 26.0347 161.416 26.3463 161.416 26.7024ZM136.78 26.9249C136.66 27.1475 136.299 27.37 136.059 27.37C135.779 27.37 135.819 27.192 136.179 26.9249C136.94 26.3908 137.1 26.3908 136.78 26.9249ZM139.584 27.8596C139.584 28.1712 139.224 28.5273 138.783 28.6608C138.142 28.7944 138.102 28.7054 138.503 28.1712C138.743 27.8152 138.823 27.37 138.663 27.1475C138.503 26.9694 138.663 26.8805 138.983 27.014C139.304 27.1475 139.584 27.5036 139.584 27.8596ZM179.443 27.4591C179.443 27.8152 178.802 28.0822 177.841 28.1267C176.919 28.2158 176.238 28.0377 176.238 27.7706C176.238 27.5036 176.398 27.4591 176.639 27.5926C176.839 27.7261 177.36 27.6371 177.72 27.4145C178.722 26.7914 179.443 26.8359 179.443 27.4591ZM173.033 27.8151C173.033 28.0377 172.953 28.2602 172.873 28.2602C172.753 28.2602 172.553 28.0377 172.433 27.8151C172.312 27.5481 172.392 27.37 172.593 27.37C172.833 27.37 173.033 27.5481 173.033 27.8151ZM175.637 28.7053C175.757 28.9279 175.597 29.1504 175.237 29.1504C174.876 29.1504 174.716 28.9279 174.836 28.7053C174.956 28.4383 175.157 28.2602 175.237 28.2602C175.317 28.2602 175.517 28.4383 175.637 28.7053ZM28.8208 29.8626C28.8208 30.2187 28.6205 30.3967 28.4202 30.2632C28.1799 30.0852 28.0998 29.7736 28.2199 29.5511C28.5805 28.9279 28.8208 29.0614 28.8208 29.8626ZM27.3386 29.9072C27.0582 29.9962 26.5775 29.9962 26.3372 29.9072C26.0567 29.7736 26.257 29.6846 26.8179 29.6846C27.3787 29.6846 27.579 29.7736 27.3386 29.9072ZM30.6235 30.0852C31.1042 30.9308 30.4232 31.1089 29.7422 30.3523C29.1012 29.6401 29.1012 29.5955 29.7021 29.5955C30.0626 29.5955 30.5033 29.8181 30.6235 30.0852ZM32.9469 30.5303C33.1071 31.2424 33.0671 31.3315 32.5864 30.8864C31.9454 30.3077 31.8253 29.5955 32.3861 29.5955C32.5864 29.5955 32.8267 29.9961 32.9469 30.5303ZM24.0137 30.4858C24.0137 30.7083 23.9336 30.9309 23.8535 30.9309C23.7333 30.9309 23.533 30.7083 23.4128 30.4858C23.2927 30.2187 23.3728 30.0407 23.5731 30.0407C23.8134 30.0407 24.0137 30.2187 24.0137 30.4858ZM36.2318 30.4858C36.7926 30.7973 36.5522 30.8419 35.4306 30.6193C34.5493 30.4858 33.7481 30.3077 33.668 30.2187C33.3074 29.8626 35.4706 30.1297 36.2318 30.4858ZM38.6353 30.9309C38.7555 31.1534 38.6753 31.376 38.475 31.376C38.2347 31.376 38.0344 31.1534 38.0344 30.9309C38.0344 30.6638 38.1145 30.4858 38.1946 30.4858C38.3148 30.4858 38.5151 30.6638 38.6353 30.9309ZM124.762 38.9427C124.882 39.1653 124.722 39.3878 124.402 39.3878C124.041 39.3878 123.761 39.1653 123.761 38.9427C123.761 38.6757 123.921 38.4976 124.121 38.4976C124.362 38.4976 124.642 38.6757 124.762 38.9427ZM52.1752 41.7469C52.2954 42.103 52.1352 42.37 51.8548 42.37C51.5744 42.37 51.4141 42.103 51.5343 41.7469C51.6545 41.4353 51.7747 41.1682 51.8548 41.1682C51.9349 41.1682 52.0551 41.4353 52.1752 41.7469ZM48.4497 42.281C48.4497 43.0377 47.3281 43.1712 46.4468 42.459C45.9661 42.103 46.0863 42.0139 46.9676 42.192C47.5684 42.281 48.0492 42.192 48.0492 42.0139C48.0492 41.7914 48.1293 41.6133 48.2495 41.6133C48.3696 41.6133 48.4497 41.9249 48.4497 42.281ZM55.1797 42.459C56.2613 43.4828 56.3013 43.8389 55.2598 43.5273C54.7791 43.3938 54.5387 43.1712 54.6589 43.0377C54.739 42.9042 54.6589 42.5481 54.4186 42.192C53.7776 41.3463 54.1782 41.4798 55.1797 42.459ZM53.8577 42.8596C53.7375 42.9932 53.4171 42.8596 53.1367 42.548C52.7761 42.1029 52.8162 42.0584 53.377 42.3255C53.7776 42.459 53.9779 42.7261 53.8577 42.8596ZM83.5014 43.7943C83.2611 44.0169 82.5 43.3492 82.5 42.9041C82.5 42.6816 82.7403 42.7261 83.0608 43.0377C83.3813 43.3493 83.5415 43.7053 83.5014 43.7943ZM58.2642 43.3937C57.1826 43.9279 56.5417 43.9279 57.2627 43.3937C57.5832 43.1712 58.144 42.9931 58.4645 42.9931C58.8651 42.9931 58.785 43.1267 58.2642 43.3937ZM73.6068 43.7943C74.0875 43.8389 74.4881 44.0169 74.4881 44.2394C74.4881 44.462 74.0074 44.5955 73.4065 44.551C72.7656 44.462 72.1647 44.5955 72.0445 44.8626C71.644 45.4857 70.8828 44.8181 71.1232 44.1059C71.2434 43.7498 71.6439 43.5273 72.0045 43.6163C72.365 43.7053 73.0861 43.7943 73.6068 43.7943ZM80.6572 43.6608C81.6988 44.1059 81.3783 44.729 80.1365 44.729C78.7745 44.729 78.1335 44.0169 79.1751 43.7053C79.5756 43.5718 79.9362 43.4827 79.9762 43.4382C80.0163 43.4382 80.2967 43.5273 80.6572 43.6608ZM85.5044 43.8388C85.3842 44.0614 84.9436 44.284 84.583 44.2394C84.0222 44.2394 84.0623 44.1504 84.7032 43.8388C85.4243 43.5124 85.6913 43.5124 85.5044 43.8388ZM77.5326 44.373C77.7329 44.6846 77.5326 44.7736 76.9718 44.6401C76.4911 44.5065 76.0504 44.5955 75.9703 44.8626C75.8101 45.3967 74.8887 44.9071 74.8887 44.2394C74.8887 43.6608 77.1721 43.7499 77.5326 44.373ZM93.4361 44.9516C94.037 45.0406 94.7981 45.0851 95.1186 45.1297C95.439 45.1297 95.7194 45.3522 95.7194 45.5303C95.7194 45.9309 92.675 45.9309 92.2744 45.5303C92.1542 45.3522 91.7135 45.4412 91.3129 45.7083C90.7521 46.1089 90.4317 46.1089 89.8708 45.6193C89.2699 44.9961 89.27 44.9516 90.1512 44.6846C90.672 44.5065 91.3931 44.5065 91.7135 44.6401C92.034 44.7736 92.7951 44.9071 93.4361 44.9516ZM119.474 44.5956C119.194 44.6846 118.713 44.6846 118.473 44.5956C118.193 44.462 118.393 44.373 118.954 44.373C119.515 44.373 119.715 44.462 119.474 44.5956ZM130.971 46.7765C132.774 46.91 133.215 46.9991 132.694 47.2216C132.414 47.3551 132.253 47.7113 132.333 47.9783C132.373 48.2899 132.373 48.3789 132.293 48.1564C132.173 47.9783 131.853 47.8448 131.532 47.8448C131.212 47.8448 130.971 47.6668 130.971 47.4887C130.971 47.2662 129.409 47.1326 127.526 47.2216C125.644 47.2661 124.201 47.1772 124.322 47.0436C124.442 46.9101 125.043 46.7765 125.644 46.732C126.285 46.643 127.126 46.465 127.526 46.2869C128.087 46.0198 128.207 46.0644 128.007 46.4205C127.847 46.732 127.887 46.9546 128.087 46.9546C128.328 46.9546 128.608 46.5985 128.768 46.1534C129.009 45.4858 129.089 45.4857 129.489 46.0644C129.77 46.4204 130.411 46.7765 130.971 46.7765ZM134.577 46.5095C134.577 46.7765 134.817 46.9546 135.097 46.8656C135.378 46.7765 135.618 46.9101 135.658 47.1771C135.698 47.3997 135.178 47.6668 134.537 47.7113C133.295 47.8448 133.255 47.8003 133.615 46.7765C133.896 45.9753 134.577 45.7973 134.577 46.5095ZM90.1112 46.9546C90.1112 47.1771 90.0311 47.3997 89.951 47.3997C89.8308 47.3997 89.6305 47.1771 89.5103 46.9546C89.3901 46.6875 89.4702 46.5095 89.6705 46.5095C89.9109 46.5095 90.1112 46.6875 90.1112 46.9546ZM137.781 47.1326C137.781 47.2661 137.621 47.4887 137.381 47.6222C137.181 47.7558 136.98 47.6667 136.98 47.4442C136.98 47.1771 137.181 46.9546 137.381 46.9546C137.621 46.9546 137.781 47.0436 137.781 47.1326ZM138.983 47.8448C138.983 48.0673 138.823 48.2899 138.583 48.2899C138.382 48.2899 138.182 48.0673 138.182 47.8448C138.182 47.5777 138.382 47.3997 138.583 47.3997C138.823 47.3997 138.983 47.5777 138.983 47.8448Z" fill="#7765E3"/>
<path fill-rule="evenodd" clip-rule="evenodd" d="M51.2676 16.2918C51.2676 16.5143 51.4679 16.7369 51.7082 16.7369C51.9085 16.7369 51.9886 16.5143 51.8685 16.2918C51.7483 16.0247 51.548 15.8467 51.4278 15.8467C51.3477 15.8467 51.2676 16.0247 51.2676 16.2918Z" fill="#7765E3"/>
<path fill-rule="evenodd" clip-rule="evenodd" d="M52.4707 16.2924C52.4707 16.8711 52.9514 17.1382 53.5123 16.8711C54.3535 16.515 54.1932 16.0254 53.2719 16.0254C52.8312 16.0254 52.4707 16.1589 52.4707 16.2924Z" fill="#7765E3"/>
<path fill-rule="evenodd" clip-rule="evenodd" d="M23.8299 16.7371C23.7097 16.9596 23.7898 17.1822 23.9901 17.1822C24.2305 17.1822 24.4308 16.9596 24.4308 16.7371C24.4308 16.47 24.3507 16.292 24.2705 16.292C24.1504 16.292 23.9501 16.47 23.8299 16.7371Z" fill="#7765E3"/>
<path fill-rule="evenodd" clip-rule="evenodd" d="M30.2783 16.9596C30.4386 17.3157 30.8792 17.6273 31.2798 17.6273C31.6804 17.6273 32.0409 17.3157 32.0409 16.9596C32.0409 16.5591 31.6804 16.292 31.0395 16.292C30.3184 16.292 30.1181 16.47 30.2783 16.9596Z" fill="#7765E3"/>
<path fill-rule="evenodd" clip-rule="evenodd" d="M58.719 16.8711C58.8392 17.3162 59.0795 17.5387 59.1997 17.4052C59.3199 17.2717 59.1997 16.9156 58.9193 16.6041C58.5187 16.2035 58.4787 16.248 58.719 16.8711Z" fill="#7765E3"/>
<path fill-rule="evenodd" clip-rule="evenodd" d="M74.502 16.7816C74.502 17.0041 74.7022 17.0932 74.9025 16.9596C75.1429 16.8261 75.3031 16.6036 75.3031 16.47C75.3031 16.381 75.1429 16.292 74.9025 16.292C74.7022 16.292 74.502 16.5145 74.502 16.7816Z" fill="#7765E3"/>
<path fill-rule="evenodd" clip-rule="evenodd" d="M22.4258 17.2269C22.4258 17.4495 22.6261 17.5385 22.8264 17.405C23.0667 17.2714 23.227 17.0489 23.227 16.9154C23.227 16.8263 23.0667 16.7373 22.8264 16.7373C22.6261 16.7373 22.4258 16.9598 22.4258 17.2269Z" fill="#7765E3"/>
<path fill-rule="evenodd" clip-rule="evenodd" d="M24.9888 17.2717C24.5882 17.9393 24.9888 18.0728 26.2707 17.6722C26.9117 17.4497 27.2722 17.2271 27.0319 17.1826C26.8316 17.1381 26.3108 17.0491 25.9503 16.9601C25.5497 16.8711 25.109 17.0046 24.9888 17.2717Z" fill="#7765E3"/>
<path fill-rule="evenodd" clip-rule="evenodd" d="M32.6819 17.4935C32.4416 18.1167 32.4816 18.1612 32.8822 17.7606C33.1626 17.449 33.2828 17.0929 33.1626 16.9594C33.0425 16.8259 32.8021 17.0484 32.6819 17.4935Z" fill="#7765E3"/>
<path fill-rule="evenodd" clip-rule="evenodd" d="M85.2386 17.0484C84.838 17.1374 84.5176 17.4044 84.5176 17.627C84.5176 17.805 84.8781 17.894 85.3188 17.7605C85.7594 17.627 86.1199 17.3599 86.1199 17.1374C86.1199 16.9148 86.0799 16.7812 86.0398 16.7812C85.9597 16.8258 85.5992 16.9148 85.2386 17.0484Z" fill="#7765E3"/>
<path fill-rule="evenodd" clip-rule="evenodd" d="M75.3047 17.6275C75.3047 17.8946 75.5851 18.0726 75.9056 18.0726C76.226 18.0726 76.5065 17.9836 76.5065 17.8946C76.5065 17.8055 76.226 17.6275 75.9056 17.4495C75.5851 17.3159 75.3047 17.405 75.3047 17.6275Z" fill="#7765E3"/>
<path fill-rule="evenodd" clip-rule="evenodd" d="M99.5396 17.6269C98.458 17.894 98.418 17.9385 99.1791 18.2056C99.6598 18.3836 100.301 18.4281 100.621 18.2946C100.982 18.1165 101.342 18.3391 101.462 18.6952C101.823 19.6744 102.824 19.5854 103.065 18.5616C103.185 17.983 103.105 17.7605 102.744 17.9385C102.424 18.0276 101.863 17.9385 101.462 17.7605C101.062 17.5379 100.221 17.4489 99.5396 17.6269Z" fill="#7765E3"/>
<path fill-rule="evenodd" clip-rule="evenodd" d="M104.346 18.0721C104.226 18.2946 104.386 18.5172 104.747 18.5172C105.107 18.5172 105.267 18.2946 105.147 18.0721C105.027 17.805 104.827 17.627 104.747 17.627C104.667 17.627 104.466 17.805 104.346 18.0721Z" fill="#7765E3"/>
<path fill-rule="evenodd" clip-rule="evenodd" d="M95.3349 18.5174C95.0144 18.7399 94.9343 18.9625 95.1346 18.9625C95.3749 18.9625 95.8156 18.7399 96.1361 18.5174C96.4565 18.2948 96.5767 18.0723 96.3364 18.0723C96.1361 18.0723 95.6554 18.2948 95.3349 18.5174Z" fill="#7765E3"/>
<path fill-rule="evenodd" clip-rule="evenodd" d="M106.551 18.4284C106.551 18.6509 106.831 18.829 107.152 18.829C107.472 18.829 107.753 18.6509 107.753 18.4284C107.753 18.2503 107.472 18.0723 107.152 18.0723C106.831 18.0723 106.551 18.2503 106.551 18.4284Z" fill="#7765E3"/>
<path fill-rule="evenodd" clip-rule="evenodd" d="M108.874 19.0072C108.274 19.7194 108.274 19.8084 109.235 20.0755C110.276 20.3426 111.158 19.8975 110.236 19.5414C109.996 19.4079 109.836 19.1408 109.956 18.9627C110.397 18.2061 109.555 18.2506 108.874 19.0072Z" fill="#7765E3"/>
<path fill-rule="evenodd" clip-rule="evenodd" d="M104.748 19.408C104.628 19.6305 104.788 19.8531 105.149 19.8531C105.51 19.8531 105.67 19.6305 105.55 19.408C105.429 19.1409 105.229 18.9629 105.149 18.9629C105.069 18.9629 104.869 19.1409 104.748 19.408Z" fill="#7765E3"/>
<path fill-rule="evenodd" clip-rule="evenodd" d="M114.162 19.8083C114.162 20.0754 114.322 20.387 114.563 20.5205C114.803 20.654 114.843 20.476 114.723 20.1199C114.443 19.3187 114.162 19.1852 114.162 19.8083Z" fill="#7765E3"/>
<path fill-rule="evenodd" clip-rule="evenodd" d="M116.445 20.2093C116.565 20.8769 117.046 21.144 118.207 21.2775C120.571 21.5001 120.01 20.2537 117.486 19.6751C116.365 19.408 116.244 19.4526 116.445 20.2093Z" fill="#7765E3"/>
<path fill-rule="evenodd" clip-rule="evenodd" d="M121.212 20.3421C121.332 20.6092 121.212 21.0098 120.932 21.2323C120.531 21.4994 120.611 21.633 121.292 21.633C121.893 21.633 122.174 21.3659 122.174 20.7427C122.174 20.2531 121.893 19.8525 121.533 19.8525C121.212 19.8525 121.052 20.0751 121.212 20.3421Z" fill="#7765E3"/>
<path fill-rule="evenodd" clip-rule="evenodd" d="M122.574 20.253C122.574 20.7871 123.736 21.2767 124.257 20.9206C124.497 20.7426 124.457 20.4755 124.137 20.253C123.415 19.7633 122.574 19.7633 122.574 20.253Z" fill="#7765E3"/>
<path fill-rule="evenodd" clip-rule="evenodd" d="M125.217 20.7877C124.777 21.2774 124.576 21.767 124.696 21.9451C124.857 22.0786 124.977 21.9896 124.977 21.7225C124.977 21.4109 125.177 21.1883 125.377 21.1883C125.618 21.1883 125.738 21.4554 125.698 21.7225C125.618 22.0341 126.018 22.3456 126.539 22.4347C127.18 22.5682 127.38 22.4346 127.18 22.0341C126.94 21.6335 127.14 21.589 127.901 21.8115C128.462 21.945 129.063 21.9005 129.183 21.6334C129.303 21.4109 129.624 21.1883 129.824 21.1883C130.064 21.1883 130.145 21.3664 130.024 21.5445C129.744 22.0341 131.707 23.2359 132.067 22.8353C132.188 22.6572 132.027 22.5237 131.667 22.5237C131.306 22.5237 130.826 22.1676 130.625 21.7225C130.345 21.0994 129.704 20.8768 128.342 20.7877C127.26 20.7432 126.339 20.5652 126.179 20.3426C126.058 20.1646 125.618 20.3426 125.217 20.7877Z" fill="#7765E3"/>
<path fill-rule="evenodd" clip-rule="evenodd" d="M50.8691 51.4994C50.8691 51.7219 51.0695 51.811 51.3098 51.6329C51.5502 51.4994 51.9107 51.6329 52.111 51.9445C52.3914 52.4341 52.4715 52.3896 52.4715 51.7665C52.4715 51.3214 52.151 51.0098 51.6703 51.0098C51.2297 51.0098 50.8691 51.2323 50.8691 51.4994Z" fill="#7765E3"/>
<path fill-rule="evenodd" clip-rule="evenodd" d="M175.05 53.8585C175.411 54.3481 175.691 54.4816 175.771 54.17C175.851 53.903 176.092 53.7694 176.292 53.9475C176.492 54.081 177.414 54.259 178.335 54.3481C180.899 54.6151 179.577 53.7694 176.853 53.4134C174.569 53.1018 174.489 53.1463 175.05 53.8585Z" fill="#7765E3"/>
<path fill-rule="evenodd" clip-rule="evenodd" d="M93.9307 54.9714C94.0509 55.2384 93.6103 55.3275 92.769 55.1494C92.048 55.0159 91.3269 55.1049 91.1667 55.372C91.0465 55.639 91.6874 55.8171 92.9292 55.7726C94.5717 55.7726 94.8521 55.639 94.4916 55.1494C93.9708 54.4818 93.5702 54.3482 93.9307 54.9714Z" fill="#7765E3"/>
<path fill-rule="evenodd" clip-rule="evenodd" d="M114.162 55.4162C114.162 55.6832 114.523 55.9058 115.003 55.9058C115.444 55.9058 115.684 56.0838 115.564 56.3509C115.444 56.5734 115.484 56.796 115.724 56.796C115.925 56.796 116.245 56.5734 116.365 56.3509C116.486 56.0838 116.806 55.9058 117.006 55.9058C117.247 55.9058 117.287 56.0838 117.167 56.3509C116.806 57.0185 117.327 56.885 117.968 56.2174C118.408 55.6833 118.248 55.5942 117.086 55.5497C116.285 55.5052 115.324 55.3717 114.923 55.2381C114.483 55.0601 114.162 55.1491 114.162 55.4162Z" fill="#7765E3"/>
<path fill-rule="evenodd" clip-rule="evenodd" d="M128.182 56.3516C128.182 56.8857 128.462 57.2418 128.903 57.2418C129.504 57.2418 129.504 57.1528 128.983 56.7522C128.502 56.3961 128.582 56.3516 129.343 56.4406C129.944 56.5296 130.385 56.307 130.465 55.9065C130.625 55.3723 130.585 55.3723 130.265 55.862C129.984 56.2625 129.784 56.307 129.624 55.951C129.143 55.1498 128.182 55.4168 128.182 56.3516Z" fill="#7765E3"/>
<path fill-rule="evenodd" clip-rule="evenodd" d="M107.552 56.3514C107.672 56.5739 108.073 56.7965 108.394 56.7965C108.714 56.7965 108.954 56.5739 108.954 56.3514C108.954 56.0843 108.594 55.9062 108.113 55.9062C107.673 55.9062 107.432 56.0843 107.552 56.3514Z" fill="#7765E3"/>
<path fill-rule="evenodd" clip-rule="evenodd" d="M153.539 56.3066C152.778 56.9298 153.178 57.4639 154.46 57.5529C155.382 57.642 155.822 57.5084 155.822 57.0633C155.822 56.4401 154.1 55.8615 153.539 56.3066Z" fill="#7765E3"/>
<path fill-rule="evenodd" clip-rule="evenodd" d="M118.77 56.7963C118.89 57.0188 119.331 57.2414 119.691 57.2414C120.292 57.2414 120.292 57.1524 119.771 56.7963C118.97 56.2176 118.449 56.2176 118.77 56.7963Z" fill="#7765E3"/>
<path fill-rule="evenodd" clip-rule="evenodd" d="M151.217 56.7967C151.096 57.0192 151.177 57.2418 151.377 57.2418C151.617 57.2418 151.818 57.0192 151.818 56.7967C151.818 56.5296 151.737 56.3516 151.657 56.3516C151.537 56.3516 151.337 56.5296 151.217 56.7967Z" fill="#7765E3"/>
</svg>
