<svg width="27" height="39" viewBox="0 0 27 39" fill="none" xmlns="http://www.w3.org/2000/svg">
<path fill-rule="evenodd" clip-rule="evenodd" d="M15.6841 0.0628031C15.6055 0.100851 15.4484 0.138902 15.3385 0.145244C15.2206 0.157926 15.1107 0.214999 15.0793 0.272071C15.0557 0.335484 15.0164 0.379871 15.0007 0.379871C14.9772 0.379871 14.8829 0.392553 14.7965 0.411577C14.6787 0.436943 14.6394 0.481332 14.663 0.570111C14.6865 0.633525 14.663 0.690598 14.6158 0.690598C14.5687 0.690598 14.5294 0.734988 14.5294 0.785719C14.5294 0.836449 14.4823 0.880839 14.4195 0.880839C14.2624 0.880839 14.121 1.22327 14.2388 1.32473C14.3095 1.38181 14.3017 1.39449 14.2153 1.37547C14.1524 1.36278 14.1053 1.39449 14.121 1.43254C14.1288 1.47693 14.0974 1.51497 14.0503 1.51497C14.0032 1.51497 13.9875 1.55936 14.011 1.61643C14.0346 1.66716 14.0267 1.69253 13.9796 1.67351C13.9325 1.65448 13.9011 1.70522 13.9011 1.79399C13.9011 1.88277 13.8618 1.95887 13.8147 1.95887C13.7754 1.95887 13.7597 1.99058 13.7832 2.02228C13.8147 2.06033 13.7989 2.12375 13.7597 2.16814C13.7204 2.21253 13.6419 2.41545 13.5947 2.62471C13.5476 2.83397 13.4926 3.07495 13.4691 3.16372C13.4219 3.3286 13.3041 4.00078 13.2334 4.49541C13.2099 4.65394 13.1549 4.85052 13.1234 4.9393C13.092 5.02808 13.0606 5.25637 13.0528 5.44661C13.0528 5.63685 13.0135 5.91587 12.9742 6.05538C12.9349 6.20123 12.9035 6.71489 12.9114 7.20317C12.9192 7.93242 12.9428 8.11632 13.0606 8.25583C13.2098 8.43973 13.4612 8.4968 13.3748 8.32559C13.312 8.19242 13.5005 7.91974 13.634 7.96413C13.7361 7.99584 13.7832 7.91339 13.7518 7.76754C13.7361 7.69145 13.9011 7.53926 14.011 7.53926C14.066 7.53926 14.0582 7.56462 13.9953 7.59633C13.9089 7.64072 13.9089 7.6534 14.011 7.68511C14.1603 7.73584 14.2152 7.66608 14.2467 7.38072C14.2624 7.26024 14.3095 7.12073 14.3645 7.07634C14.4116 7.02561 14.443 6.91781 14.4352 6.83537C14.4195 6.71488 14.443 6.68952 14.5687 6.7022C14.7022 6.71488 14.7022 6.70854 14.608 6.65147C14.5059 6.5944 14.5059 6.57537 14.6237 6.49927C14.7258 6.4422 14.7494 6.35977 14.7179 6.20123C14.6865 6.06172 14.7179 5.88416 14.7965 5.73197C14.9143 5.51637 14.9143 5.47832 14.8044 5.33881C14.6944 5.21198 14.6944 5.19296 14.8044 5.19296C14.9457 5.19296 14.9614 5.02809 14.8279 4.9837C14.7651 4.96467 14.7808 4.94564 14.8593 4.94564C14.9536 4.9393 14.9771 4.9076 14.9457 4.8315C14.9065 4.75541 14.93 4.73638 15.0164 4.76175C15.095 4.78712 15.1657 4.74906 15.2285 4.6476C15.2756 4.55248 15.2835 4.50175 15.2364 4.52711C15.1892 4.54614 15.1814 4.52077 15.2049 4.47004C15.2285 4.41297 15.2835 4.3876 15.3228 4.40663C15.362 4.42565 15.3935 4.34956 15.3935 4.23541C15.3935 4.03883 15.3856 4.03249 15.2756 4.15297C15.1892 4.24175 15.1971 4.17835 15.3149 3.87396C15.3935 3.65835 15.4327 3.48079 15.4092 3.48079C15.3856 3.48079 15.4013 3.44909 15.4484 3.41104C15.4956 3.37299 15.5191 3.29689 15.4956 3.25251C15.472 3.20177 15.4956 3.11934 15.5505 3.0686C15.6055 3.01787 15.6212 2.97348 15.582 2.97348C15.5427 2.97348 15.5741 2.94178 15.6527 2.90373C15.7233 2.87202 15.7862 2.76422 15.7862 2.67544C15.7862 2.54228 15.7705 2.52325 15.6684 2.593C15.5977 2.64373 15.5505 2.65008 15.5505 2.60569C15.5505 2.56764 15.582 2.52325 15.6291 2.49788C15.6684 2.47886 15.6841 2.42179 15.6605 2.37106C15.6291 2.31398 15.6841 2.26959 15.8097 2.24423C16.0218 2.19984 16.069 2.0096 15.9197 1.84473C15.8647 1.794 15.8804 1.76863 15.9668 1.76863C16.0297 1.76863 16.1239 1.72424 16.1789 1.67351C16.2653 1.59107 16.2575 1.58473 16.1711 1.61009C16.0925 1.63546 16.0532 1.59741 16.0454 1.51497C16.0375 1.43254 16.0768 1.38815 16.1632 1.38815C16.281 1.38815 16.281 1.37546 16.1789 1.32473C16.0847 1.274 16.0847 1.26132 16.2182 1.25498C16.3046 1.25498 16.3282 1.23596 16.281 1.21693C16.2025 1.19791 16.2103 1.1662 16.2967 1.09011C16.3989 1.00767 16.3989 0.982305 16.2967 0.861819C16.1554 0.703286 16.1396 0.500358 16.2653 0.500358C16.391 0.500358 16.2732 0.176952 16.1161 0.0754904C15.9511 -0.0196298 15.8647 -0.0259758 15.6841 0.0628031ZM15.3935 0.436944C15.3935 0.468651 15.362 0.500358 15.3228 0.500358C15.2756 0.500358 15.2206 0.468651 15.1971 0.436944C15.1735 0.398896 15.2049 0.373531 15.2678 0.373531C15.3385 0.373531 15.3935 0.398896 15.3935 0.436944Z" fill="#9EFF00"/>
<path fill-rule="evenodd" clip-rule="evenodd" d="M21.6791 3.34065C21.2314 3.47382 20.5795 3.78454 20.5795 3.86064C20.5795 3.89235 20.5323 3.90503 20.4774 3.88601C20.4145 3.86698 20.2417 3.96844 20.0846 4.11429C19.9275 4.2538 19.7547 4.36795 19.7076 4.36795C19.6605 4.36795 19.5191 4.46307 19.3934 4.57088C19.252 4.6977 19.1813 4.73574 19.2128 4.65965C19.307 4.45038 18.7965 4.79916 18.6865 5.02111C18.6315 5.12257 18.5137 5.26842 18.4273 5.33818C18.333 5.40793 18.3095 5.44598 18.3644 5.42061C18.5765 5.31915 18.443 5.50939 18.2074 5.64256C17.8617 5.8328 17.6732 5.99133 17.7282 6.04207C17.7596 6.06109 17.7361 6.08011 17.6811 6.08011C17.6183 6.08011 17.5947 6.11816 17.6261 6.18157C17.6497 6.2323 17.6418 6.26401 17.6025 6.24499C17.5633 6.22596 17.5161 6.28938 17.4926 6.39084C17.469 6.4923 17.3983 6.61279 17.3355 6.66352C17.2727 6.71425 17.202 6.81571 17.1705 6.89181C17.0763 7.1201 17.0527 7.66545 17.1313 7.7035C17.1784 7.72252 17.1863 7.79228 17.1627 7.85569C17.1391 7.92544 17.1627 7.9952 17.2334 8.02691C17.2962 8.05228 17.3512 8.103 17.3512 8.14105C17.3433 8.26154 17.5083 8.23617 17.5554 8.10934C17.5868 8.03325 18.121 7.56399 18.7415 7.06936C19.362 6.57474 19.8726 6.13719 19.8726 6.09914C19.8726 6.06109 19.9275 5.99767 19.9904 5.95328C20.0532 5.9089 20.0846 5.85182 20.0611 5.82012C20.0375 5.78841 20.0611 5.76304 20.116 5.76304C20.2103 5.76304 20.9094 5.33184 20.9565 5.24306C20.9722 5.21135 21.0193 5.19232 21.0508 5.19232C21.1372 5.19232 21.522 4.88794 21.522 4.81818C21.522 4.79282 21.6084 4.69136 21.7105 4.60258C21.8126 4.5138 21.8755 4.41868 21.8441 4.39331C21.8205 4.36795 21.8598 4.36795 21.9305 4.38697C22.0247 4.41234 22.0719 4.38698 22.0876 4.28551C22.1033 4.20308 22.1661 4.146 22.2447 4.146C22.3154 4.146 22.4489 4.08259 22.5353 4.01283C22.6217 3.93674 22.7395 3.86064 22.7945 3.84796C22.873 3.82259 22.8652 3.79089 22.7631 3.71479C22.6924 3.65772 22.5981 3.60699 22.551 3.60699C22.5039 3.60699 22.4646 3.5626 22.4646 3.51186C22.4646 3.45479 22.4175 3.43577 22.3468 3.45479C22.2682 3.48016 22.229 3.45479 22.229 3.35967C22.229 3.20114 22.1583 3.20114 21.6791 3.34065Z" fill="#9EFF00"/>
<path fill-rule="evenodd" clip-rule="evenodd" d="M6.75271 4.36855C6.75271 4.45099 6.20287 4.64757 6.03007 4.62855C5.85727 4.60952 5.85727 4.66026 6.01437 5.3261C6.10862 5.73194 6.27357 6.08072 6.69772 6.77827C7.00405 7.28558 7.35751 7.83727 7.48319 8.01483C7.60886 8.18605 7.71882 8.36995 7.72668 8.42068C7.75024 8.54117 8.25295 8.99774 8.36292 8.99774C8.4179 8.99774 8.5043 9.04213 8.55928 9.09286C8.61426 9.14359 8.70067 9.18798 8.75565 9.18798C8.90489 9.18798 8.96772 8.99774 8.86561 8.88994C8.79491 8.82653 8.79492 8.78214 8.8499 8.73775C8.91274 8.68702 8.95201 8.69336 8.98343 8.73775C9.01485 8.7758 9.10125 8.8075 9.17194 8.8075C9.28976 8.8075 9.28977 8.79482 9.18766 8.74409C9.08555 8.69336 9.08554 8.68067 9.19551 8.68067C9.2662 8.68067 9.40758 8.6236 9.5097 8.54751C9.77675 8.36361 10.2559 8.16703 10.3266 8.2241C10.358 8.24946 10.358 8.19873 10.3266 8.10995C10.2952 8.02117 10.2323 7.93874 10.2009 7.9324C10.1066 7.90069 10.1066 7.72947 10.2009 7.72947C10.2402 7.72947 10.0831 7.43777 9.8553 7.07632C9.61966 6.70852 9.39973 6.43584 9.34475 6.44852C9.28191 6.4612 9.25834 6.42316 9.28191 6.34706C9.30547 6.27096 9.21907 6.11877 9.06197 5.94755C8.91273 5.79536 8.70066 5.55439 8.59069 5.41488C8.11941 4.83781 6.75271 4.05783 6.75271 4.36855Z" fill="#9EFF00"/>
<path fill-rule="evenodd" clip-rule="evenodd" d="M11.7417 9.86014C10.7363 9.94257 9.48741 10.1265 9.42458 10.2026C9.40101 10.2279 9.22821 10.266 9.03184 10.285C8.52129 10.3421 8.11284 10.4499 7.98717 10.5513C7.92433 10.6021 7.85364 10.6274 7.83007 10.6084C7.78294 10.5704 7.09959 10.8304 6.71471 11.0206C6.58904 11.0904 6.25914 11.2362 5.99208 11.344C5.72502 11.4582 5.48938 11.5913 5.46582 11.6357C5.44225 11.6864 5.37942 11.7245 5.31658 11.7245C5.26159 11.7245 5.13592 11.7942 5.04166 11.883C4.94741 11.9655 4.78246 12.0542 4.6725 12.0796C4.54682 12.105 4.47613 12.1621 4.47613 12.2445C4.47613 12.3142 4.41329 12.384 4.31904 12.403C4.23264 12.422 4.18551 12.4601 4.20907 12.4918C4.23263 12.5235 4.20121 12.5298 4.13838 12.5108C4.06768 12.4918 3.95772 12.5552 3.84776 12.6694C3.7535 12.7772 3.64353 12.8533 3.60425 12.8342C3.56498 12.8089 3.53357 12.8469 3.53357 12.9103C3.53357 12.9737 3.37648 13.164 3.18011 13.3289C2.98374 13.5001 2.82665 13.6776 2.82665 13.7284C2.82665 13.7791 2.77952 13.8362 2.71668 13.8552C2.61457 13.8869 1.96264 14.5971 1.96264 14.6796C1.96264 14.6922 1.87623 14.8254 1.76627 14.9649C1.6563 15.1044 1.55419 15.3074 1.54633 15.4215C1.53848 15.5356 1.46779 15.6625 1.39709 15.7069C1.31855 15.7513 1.25571 15.8591 1.25571 15.9415C1.25571 16.0239 1.2243 16.1127 1.17717 16.1317C1.13789 16.1508 1.09862 16.2395 1.09862 16.322C1.09862 16.4044 1.0672 16.4869 1.02793 16.5059C0.988654 16.5249 0.933671 16.639 0.910107 16.7595C0.878689 16.8864 0.807999 17.0639 0.745161 17.159C0.682324 17.2542 0.627341 17.4 0.627341 17.4824C0.627341 17.5649 0.588068 17.6854 0.548794 17.7488C0.501666 17.8185 0.454538 17.9961 0.430974 18.1419C0.321009 19.0361 0.297437 19.1819 0.226745 19.2453C0.187472 19.2834 0.179625 19.3278 0.195334 19.3468C0.218898 19.3658 0.203181 19.5751 0.148198 19.8161C0.10107 20.057 0.0460875 20.3678 0.0303782 20.5073C-0.0246045 21.0082 -0.00104049 22.6316 0.0696516 22.7838C0.11678 22.8663 0.124636 22.9487 0.101072 22.9741C0.0775082 22.9931 0.0853686 23.0565 0.116787 23.1199C0.148206 23.1833 0.187477 23.3482 0.203187 23.4877C0.211041 23.6272 0.281735 23.8682 0.352427 24.0204C0.415265 24.1726 0.470248 24.3311 0.470248 24.3818C0.470248 24.4262 0.59592 24.6672 0.753014 24.9272C1.20858 25.6882 1.34997 25.8974 1.42851 25.9355C1.46779 25.9545 1.49921 25.9925 1.49921 26.0179C1.4835 26.0877 1.71914 26.4237 1.81339 26.4745C1.87623 26.5062 1.88409 26.4935 1.84482 26.4364C1.80554 26.3794 1.81339 26.3667 1.87623 26.3984C1.92335 26.4237 1.95478 26.4808 1.94692 26.5252C1.92336 26.614 2.84235 27.451 2.96803 27.451C3.0073 27.451 3.07014 27.4954 3.0937 27.5525C3.11726 27.6032 3.17226 27.6286 3.21938 27.6096C3.25866 27.5906 3.29793 27.6159 3.29793 27.6667C3.29793 27.7808 3.56499 27.914 3.65139 27.8442C3.69066 27.8188 3.69066 27.8315 3.6671 27.8759C3.60426 27.9584 3.96558 28.212 4.13052 28.212C4.19336 28.212 4.24049 28.2437 4.24049 28.2818C4.24049 28.3579 4.55468 28.5861 4.6725 28.5925C4.71963 28.5925 4.83745 28.6496 4.94741 28.7193C5.05738 28.7891 5.22232 28.8461 5.32443 28.8461C5.44225 28.8461 5.48938 28.8715 5.4501 28.9222C5.41083 28.973 5.45011 28.9793 5.56007 28.9603C5.68575 28.9286 5.73288 28.9476 5.74073 29.0237C5.74073 29.1125 5.75644 29.1061 5.81143 29.0047C5.85855 28.9159 5.88211 28.9032 5.88211 28.9793C5.88996 29.1061 6.22772 29.3408 6.56547 29.4549C6.90322 29.5691 6.89537 29.5691 6.87181 29.3852C6.84824 29.2266 6.93464 29.1696 7.02104 29.2837C7.05246 29.3154 7.02104 29.3598 6.97391 29.3788C6.87966 29.4042 6.91108 29.4359 7.35094 29.7276C7.45305 29.7973 7.7908 29.8925 7.8772 29.8734C7.90862 29.8671 7.93219 29.8861 7.93219 29.9115C7.93219 29.9432 7.98717 29.9686 8.05001 29.9686C8.13641 29.9686 8.14426 29.9432 8.08928 29.8988C7.96361 29.7973 7.99502 29.753 8.19139 29.7593C8.28564 29.7656 8.41132 29.7466 8.4663 29.7086C8.53699 29.6705 8.59197 29.6705 8.62339 29.7149C8.65481 29.753 8.75692 29.7973 8.85903 29.8227C8.95329 29.8481 9.03184 29.8988 9.03184 29.9305C9.03184 30.0129 8.92187 30.0003 8.80405 29.9052C8.71765 29.8417 8.70194 29.8544 8.74121 29.9686C8.76478 30.051 8.74907 30.1144 8.70979 30.1144C8.67052 30.1144 8.63911 30.1461 8.63911 30.1842C8.63911 30.2159 8.67838 30.2286 8.71766 30.2095C8.76478 30.1905 8.7962 30.2032 8.7962 30.2349C8.7962 30.2729 8.85118 30.3047 8.91402 30.3047C8.97686 30.3047 9.03184 30.33 9.03184 30.3681C9.03184 30.3998 9.08682 30.4315 9.15751 30.4315C9.22821 30.4315 9.26748 30.4759 9.25177 30.5393C9.24391 30.6027 9.25962 30.6915 9.29889 30.7422C9.33817 30.7866 9.36174 31.0085 9.35388 31.2368C9.34603 31.4651 9.41672 32.2261 9.51097 32.93C9.59738 33.6275 9.68378 34.3441 9.69949 34.5217C9.73876 34.8894 9.79374 35.2509 9.90371 35.8089C9.94298 36.0309 9.99011 36.3543 10.0137 36.5382C10.0765 37.185 10.1393 37.5528 10.1786 37.6099C10.2022 37.6416 10.2415 37.7621 10.265 37.8699C10.3121 38.1362 10.5321 38.3835 10.752 38.4089C10.8777 38.4279 10.9091 38.4596 10.8777 38.5484C10.8541 38.6118 10.8698 38.6816 10.9091 38.7006C10.9484 38.726 11.0034 38.6879 11.0348 38.6182C11.0662 38.5357 11.129 38.5104 11.2311 38.5294C11.3176 38.5484 11.3882 38.5294 11.3882 38.4913C11.3882 38.4533 11.3254 38.4152 11.2547 38.4089C11.1762 38.4089 11.0819 38.3962 11.0348 38.3899C10.9955 38.3772 10.9248 38.3708 10.8777 38.3645C10.8384 38.3582 10.8698 38.3138 10.9484 38.263C11.0348 38.2123 11.0583 38.1679 11.0112 38.1679C10.9562 38.1679 10.917 38.1299 10.917 38.0791C10.917 38.0284 10.9798 37.9967 11.0583 38.0094C11.129 38.0157 11.184 38.0665 11.1762 38.1109C11.1605 38.1679 11.2154 38.206 11.3018 38.206C11.3961 38.206 11.4354 38.1679 11.4118 38.1045C11.3882 38.0474 11.4354 38.0601 11.5296 38.1489C11.6082 38.225 11.8124 38.3011 11.9773 38.3201C12.2758 38.3582 12.4486 38.4216 12.2601 38.4216C12.1973 38.4216 12.1894 38.4533 12.2444 38.5421C12.3387 38.6752 12.2837 38.745 12.1266 38.6943C12.0637 38.6752 12.0166 38.6943 12.0166 38.7323C12.0166 38.7704 12.103 38.8021 12.2051 38.8021C12.3308 38.8021 12.4093 38.7577 12.4329 38.6626C12.4722 38.5484 12.5036 38.5421 12.5979 38.6055C12.6607 38.6499 12.7628 38.6689 12.8178 38.6435C12.8728 38.6182 12.8492 38.6499 12.7707 38.7006C12.6659 38.7682 12.6659 38.8021 12.7707 38.8021C12.8492 38.8021 13.0063 38.783 13.1163 38.7577L13.3126 38.7133L13.1163 38.6689C12.9958 38.6393 13.0142 38.6224 13.1713 38.6182C13.3441 38.6118 13.454 38.5674 13.509 38.4787C13.6111 38.3265 13.6582 38.3455 13.7054 38.5484C13.7289 38.6626 13.7211 38.6752 13.6268 38.6118C13.564 38.5674 13.509 38.5611 13.509 38.5928C13.509 38.7387 13.8546 38.783 14.2473 38.6879C14.5301 38.6182 14.6479 38.6118 14.6715 38.6689C14.7108 38.7704 14.8443 38.7577 14.8443 38.6435C14.8443 38.5928 14.8836 38.5484 14.9307 38.5484C14.9778 38.5484 14.9935 38.6118 14.97 38.6879C14.9464 38.7704 14.9464 38.7957 14.97 38.7513C14.9935 38.7133 15.0642 38.6752 15.1192 38.6752C15.1742 38.6752 15.237 38.6435 15.2527 38.6055C15.2684 38.5674 15.3706 38.5294 15.4884 38.5294C15.6455 38.5167 15.6769 38.4977 15.6141 38.4343C15.5669 38.3899 15.4805 38.3645 15.4177 38.3835C15.3627 38.4026 15.3156 38.3772 15.3156 38.3265C15.3156 38.2757 15.3706 38.2313 15.4334 38.2313C15.4962 38.2313 15.5512 38.1996 15.5512 38.1679C15.5512 38.1235 15.5983 38.1235 15.7083 38.1679C15.834 38.225 15.8575 38.2187 15.8104 38.1299C15.7711 38.0411 15.7869 38.0411 15.9361 38.1109C16.0225 38.1616 16.101 38.2187 16.101 38.244C16.101 38.2757 16.156 38.2948 16.2267 38.2948C16.3053 38.2948 16.321 38.3265 16.2817 38.3772C16.2189 38.4596 16.1796 38.6118 16.2189 38.6118C16.2346 38.6118 16.3053 38.5674 16.376 38.5104C16.5409 38.3772 16.6116 38.4343 16.4938 38.6055C16.4309 38.7069 16.4309 38.7386 16.5095 38.7386C16.698 38.7386 16.7687 38.6435 16.7923 38.3582C16.808 38.1172 16.8551 38.0411 17.1064 37.8699C17.2635 37.7557 17.507 37.6353 17.6327 37.5972C18.4574 37.3372 18.5203 37.2928 18.4653 37.0075C18.4653 36.9821 18.4496 36.8616 18.4339 36.7411C18.4182 36.5445 18.4025 36.5319 18.3239 36.627C18.1904 36.7665 18.1904 36.6206 18.3161 36.4558C18.3946 36.3543 18.3868 36.3099 18.2218 36.1704C18.1118 36.0816 18.0804 36.0119 18.1354 36.0119C18.1904 36.0119 18.2218 35.9738 18.1904 35.9167C18.1668 35.866 18.2061 35.7772 18.2768 35.7265C18.3396 35.6694 18.3789 35.606 18.3475 35.587C18.3239 35.568 18.3396 35.5109 18.3868 35.4665C18.4574 35.4031 18.4417 35.3714 18.3475 35.3397C18.2375 35.308 18.2375 35.289 18.3475 35.2065C18.4339 35.1304 18.4417 35.0924 18.371 35.0226C18.3003 34.9529 18.3082 34.9338 18.3868 34.9275C18.4496 34.9275 18.426 34.9021 18.3396 34.8704C18.2532 34.8387 18.2218 34.8134 18.2689 34.8134C18.4339 34.8007 18.4653 34.6041 18.3239 34.5153C18.2139 34.4519 18.2061 34.4329 18.2925 34.4265C18.3789 34.4265 18.371 34.4012 18.2611 34.3441C18.1668 34.2807 18.1511 34.2426 18.2061 34.2109C18.2611 34.1856 18.3004 34.1982 18.3004 34.2299C18.3004 34.268 18.3239 34.2997 18.3632 34.2997C18.3946 34.2997 18.4182 34.2299 18.4182 34.1475C18.4182 34.0651 18.3946 34.008 18.3632 34.027C18.2611 34.0714 18.2925 33.8875 18.3946 33.8051C18.4653 33.748 18.4574 33.729 18.3553 33.729C18.2375 33.729 18.2297 33.71 18.3161 33.5831C18.4339 33.4119 18.4653 33.2217 18.3632 33.2217C18.3239 33.2217 18.3161 33.1963 18.3396 33.1583C18.3632 33.1266 18.3475 33.0441 18.3004 32.9744C18.2375 32.8729 18.2532 32.8349 18.3553 32.7841C18.4417 32.7461 18.4574 32.7144 18.3946 32.7144C18.3161 32.7144 18.3161 32.6827 18.3789 32.5875C18.4496 32.4861 18.4417 32.4734 18.3396 32.4988C18.2611 32.5241 18.2218 32.4988 18.2218 32.4036C18.2218 32.3212 18.2689 32.2705 18.3632 32.2705C18.4889 32.2641 18.4889 32.2578 18.371 32.188C18.2139 32.0929 18.1982 31.5729 18.3396 31.5729C18.3946 31.5729 18.4339 31.4905 18.4417 31.3827C18.4417 31.2559 18.4025 31.1861 18.2925 31.1607C18.2139 31.1354 18.1433 31.0846 18.1433 31.0466C18.1433 30.9515 18.2611 30.7993 18.3318 30.8056C18.4732 30.8246 18.4889 30.8056 18.3789 30.7485C18.2611 30.6851 18.2061 30.3681 18.3161 30.3681C18.3475 30.3681 18.3789 30.3237 18.3789 30.2729C18.3789 30.2222 18.3396 30.1778 18.2846 30.1778C18.2375 30.1778 18.2532 30.1398 18.3318 30.0954C18.4417 30.032 18.4653 29.9495 18.4417 29.81C18.426 29.6959 18.426 29.6071 18.4574 29.6071C18.4889 29.6071 18.6145 29.5373 18.7402 29.4486C18.9444 29.3091 18.968 29.3027 19.023 29.4042C19.0544 29.4613 19.078 29.4739 19.078 29.4296C19.0858 29.3852 19.1251 29.3661 19.1644 29.3852C19.2115 29.4105 19.2979 29.3915 19.3607 29.3534C19.4236 29.3091 19.4786 29.2964 19.4786 29.3281C19.4786 29.3598 19.51 29.3408 19.5492 29.29C19.5964 29.2393 19.6042 29.1759 19.5807 29.1442C19.5571 29.1125 19.51 29.1252 19.4707 29.1695C19.4236 29.233 19.4 29.233 19.4 29.1822C19.4 29.0681 19.565 29.011 19.6357 29.1061C19.7063 29.1949 19.7849 29.1632 20.2405 28.8271C20.4368 28.6749 20.4761 28.6115 20.4211 28.5227C20.319 28.3705 20.319 28.3388 20.4604 28.3388C20.5232 28.3388 20.5782 28.3071 20.5782 28.2754C20.5782 28.231 20.6803 28.2247 20.8531 28.2501C21.0731 28.2818 21.128 28.2691 21.128 28.1866C21.128 28.1296 21.1752 28.0852 21.238 28.0852C21.3008 28.0852 21.4422 27.9901 21.56 27.8759C21.6779 27.7681 22.0156 27.4701 22.3062 27.2164C22.5969 26.9628 22.8168 26.7472 22.7932 26.7281C22.7697 26.7091 22.7932 26.6901 22.8404 26.6901C22.8875 26.6901 22.9503 26.633 22.9739 26.5633C22.9974 26.4935 23.0681 26.4364 23.1153 26.4364C23.1702 26.4364 23.2566 26.3794 23.3116 26.3033C23.398 26.2018 23.4373 26.1891 23.5316 26.2462C23.6651 26.3413 23.6808 26.2398 23.5473 26.1257C23.4609 26.0623 23.4766 26.0306 23.5944 25.9608C23.6729 25.9101 23.7751 25.8847 23.8065 25.9038C23.8458 25.9228 23.9243 25.834 23.9871 25.7072C24.05 25.5867 24.1364 25.4852 24.1756 25.4852C24.2228 25.4852 24.2778 25.4155 24.3013 25.3267C24.3327 25.2379 24.3877 25.1682 24.427 25.1682C24.4741 25.1682 24.4898 25.0984 24.4584 25.0096C24.4191 24.8891 24.4427 24.8511 24.5291 24.8511C24.7019 24.8511 24.914 24.6609 24.8669 24.5594C24.8433 24.515 24.859 24.4579 24.8983 24.4389C24.9454 24.4135 24.9768 24.3565 24.9768 24.2994C24.9768 24.1599 25.3146 23.5828 25.401 23.5828C25.4324 23.5828 25.4481 23.6272 25.4167 23.6779C25.346 23.8365 25.4795 23.7857 25.5738 23.6209C25.6523 23.4814 25.6445 23.4623 25.4717 23.4243C25.236 23.3799 25.3146 23.2658 25.5895 23.2658C25.7466 23.2658 25.7701 23.2467 25.6995 23.1897C25.5502 23.0692 25.5895 22.9994 25.7701 23.0755C25.9194 23.1453 25.9272 23.1389 25.8408 23.0121C25.7859 22.9297 25.778 22.8853 25.8251 22.9106C25.8723 22.9297 25.9272 22.9233 25.9587 22.8853C25.9822 22.8536 25.9744 22.8219 25.9272 22.8219C25.8801 22.8219 25.8644 22.7775 25.888 22.7267C25.9194 22.676 25.9115 22.5809 25.8801 22.5175C25.7859 22.3526 25.8408 22.1687 25.9979 22.0799C26.0843 22.0292 26.1236 21.9531 26.1 21.8707C26.0765 21.8009 26.0922 21.7438 26.1315 21.7438C26.1707 21.7438 26.1864 21.636 26.1707 21.5092L26.1315 21.2809L26.0372 21.4648C25.943 21.636 25.9351 21.617 25.9744 21.2682C25.9901 21.059 26.0058 20.8117 26.0058 20.7165C25.9979 20.5897 26.0293 20.5517 26.1079 20.577C26.1707 20.596 26.2257 20.558 26.2493 20.4629C26.2964 20.2663 26.2336 19.7717 26.1629 19.8034C26.1315 19.8224 26.0608 19.8097 25.9979 19.7717C25.9351 19.74 25.9194 19.7146 25.9665 19.7146C26.0529 19.7146 26.0529 19.3024 25.9587 19.1185C25.9194 19.0488 25.9351 18.9853 25.9979 18.9536C26.0686 18.9219 26.0765 18.8458 26.0372 18.7253C26.0058 18.6239 25.9587 18.5795 25.9429 18.6175C25.8723 18.7697 25.8016 18.7 25.7937 18.478C25.7937 18.3385 25.8173 18.2815 25.8565 18.3322C25.8958 18.3893 25.9194 18.3512 25.9194 18.2371C25.9194 18.1419 25.8644 18.0468 25.8016 18.0278C25.7387 18.0024 25.7073 17.9644 25.7309 17.9327C25.7544 17.901 25.7152 17.8312 25.6445 17.7741C25.5502 17.6917 25.5424 17.6537 25.6131 17.5839C25.668 17.5332 25.6837 17.4761 25.6523 17.4507C25.6288 17.4317 25.6052 17.4444 25.6052 17.4824C25.6052 17.5268 25.5738 17.5585 25.5267 17.5585C25.4874 17.5585 25.4481 17.5141 25.4481 17.4634C25.4481 17.4127 25.4874 17.3683 25.5345 17.3683C25.5816 17.3683 25.6052 17.3049 25.5895 17.2225C25.5738 17.1464 25.5188 17.0893 25.456 17.102C25.3774 17.1146 25.3617 17.0703 25.3931 16.9371C25.4167 16.8293 25.3931 16.7025 25.3381 16.6327C25.2832 16.5693 25.2046 16.4425 25.1732 16.3537C25.0711 16.081 24.7805 15.5927 24.7255 15.5927C24.6862 15.5927 24.6626 15.5547 24.6626 15.5103C24.6626 15.4659 24.5919 15.3835 24.5055 15.32C24.4191 15.263 24.3485 15.1615 24.3485 15.0981C24.3485 15.0347 24.2071 14.8635 24.0421 14.7176C23.8693 14.5718 23.7122 14.4005 23.6808 14.3371C23.618 14.1849 23.2252 13.8488 23.0446 13.7918C22.9268 13.7537 22.9189 13.7347 23.0132 13.6903C23.1153 13.6396 23.1074 13.6269 22.9974 13.6269C22.9189 13.6269 22.8561 13.5952 22.8561 13.5508C22.8561 13.5128 22.8011 13.4367 22.7382 13.3796C22.2827 12.9864 21.7407 12.5489 21.7093 12.5489C21.6307 12.5489 21.0495 12.0479 21.0495 11.9845C21.0495 11.9464 20.9945 11.9338 20.9317 11.9528C20.8688 11.9781 20.8139 11.9591 20.8139 11.9274C20.8139 11.8894 20.6725 11.7943 20.5075 11.7182C20.3426 11.6421 20.1541 11.5152 20.0991 11.4328C20.0441 11.3504 19.9498 11.2806 19.887 11.2806C19.8242 11.2806 19.6592 11.2172 19.5257 11.1348C19.0858 10.8684 17.6563 10.3548 17.4363 10.3801C17.4128 10.3801 17.3421 10.3484 17.2792 10.304C17.2164 10.2596 16.9336 10.1835 16.6509 10.1392C16.3681 10.0948 16.1089 10.0377 16.0618 10.0123C16.0225 9.99331 15.8261 9.9616 15.6298 9.95526C15.4334 9.94891 15.1585 9.91087 15.0092 9.87282C14.805 9.82209 14.7343 9.82843 14.6793 9.89184C14.6244 9.9616 14.6087 9.9616 14.6087 9.89819C14.6087 9.84112 14.483 9.81575 14.2002 9.82209C13.9724 9.82209 13.5404 9.81575 13.2341 9.80307C12.9356 9.79039 12.2601 9.81575 11.7417 9.86014ZM13.7525 11.2172C13.8939 11.2806 13.8939 11.2933 13.7839 11.3821C13.6818 11.4708 13.6425 11.4708 13.5326 11.3947C13.4305 11.3313 13.399 11.3313 13.3755 11.3884C13.3283 11.5026 13.1398 11.4899 13.0849 11.3694C13.0613 11.3186 13.0691 11.2933 13.1163 11.3123C13.1634 11.3313 13.2184 11.306 13.2419 11.2552C13.2969 11.1411 13.5247 11.1221 13.7525 11.2172ZM11.3333 11.3504C11.2704 11.4011 11.2076 11.4011 11.0976 11.3504C10.9719 11.2933 10.9877 11.2869 11.1919 11.2806C11.3568 11.2806 11.3961 11.2996 11.3333 11.3504ZM11.7024 11.306C11.7024 11.3186 11.6474 11.344 11.5846 11.3694C11.5218 11.3884 11.4668 11.3757 11.4668 11.344C11.4668 11.306 11.5218 11.2806 11.5846 11.2806C11.6474 11.2806 11.7024 11.2933 11.7024 11.306ZM12.0166 11.3567C12.0166 11.3947 11.993 11.4074 11.9616 11.3884C11.9381 11.363 11.8674 11.3757 11.8045 11.4201C11.7181 11.4708 11.7103 11.4645 11.7496 11.3821C11.8045 11.2679 12.0166 11.2426 12.0166 11.3567ZM12.4486 11.3947C12.4251 11.4138 12.3622 11.3947 12.3072 11.3504C12.2365 11.2869 12.2444 11.2806 12.3544 11.3186C12.4329 11.3377 12.4722 11.3757 12.4486 11.3947ZM12.912 11.3377C12.9356 11.3694 12.8885 11.4074 12.8021 11.4265C12.645 11.4582 12.5979 11.4074 12.7 11.325C12.7707 11.2616 12.8649 11.2679 12.912 11.3377ZM14.3416 11.5089C14.3023 11.5977 14.2709 11.5977 14.1688 11.5279C14.0588 11.4518 14.0588 11.4391 14.1845 11.363C14.3495 11.2679 14.4201 11.344 14.3416 11.5089ZM15.9675 11.5025C15.9989 11.5596 15.9597 11.5723 15.8575 11.5533C15.779 11.5343 15.7083 11.4835 15.7083 11.4328C15.7083 11.3313 15.9125 11.3821 15.9675 11.5025ZM9.85658 11.4708C9.88015 11.5089 9.81731 11.5343 9.70734 11.5343C9.60523 11.5343 9.41671 11.566 9.29889 11.5977C9.11824 11.6547 9.10253 11.6547 9.18107 11.5723C9.23606 11.5216 9.37744 11.4645 9.48741 11.4518C9.60523 11.4391 9.72305 11.4201 9.75447 11.4138C9.78589 11.4138 9.83302 11.4328 9.85658 11.4708ZM10.5007 11.4455C10.4771 11.4645 10.4064 11.4708 10.3514 11.4518C10.2886 11.4328 10.3121 11.4138 10.3985 11.4138C10.4849 11.4074 10.5321 11.4264 10.5007 11.4455ZM8.91402 11.5343C8.93759 11.566 8.85118 11.6357 8.71766 11.6928C8.56842 11.7562 8.48201 11.7689 8.48201 11.7182C8.48201 11.6801 8.55271 11.6357 8.63911 11.6167C8.72551 11.5977 8.7962 11.5596 8.7962 11.5279C8.7962 11.4518 8.85118 11.4582 8.91402 11.5343ZM11.2311 11.4962C11.2311 11.5152 11.1997 11.5469 11.1526 11.566C11.1133 11.585 11.0741 11.5723 11.0741 11.5406C11.0741 11.5025 11.1133 11.4708 11.1526 11.4708C11.1997 11.4708 11.2311 11.4835 11.2311 11.4962ZM10.5242 11.6674C10.5242 11.6991 10.4928 11.7245 10.4457 11.7245C10.4064 11.7245 10.3671 11.6801 10.3671 11.623C10.3671 11.5723 10.4064 11.5469 10.4457 11.566C10.4928 11.585 10.5242 11.6294 10.5242 11.6674ZM11.9145 11.6611C11.9381 11.7308 12.0088 11.7879 12.0716 11.7879C12.1501 11.7879 12.1737 11.7499 12.1423 11.6738C12.0952 11.5723 12.103 11.5723 12.2051 11.6801C12.2915 11.7689 12.4172 11.7943 12.7707 11.7816C13.0299 11.7816 13.3676 11.7879 13.5247 11.8069C13.6897 11.826 13.8468 11.8133 13.8703 11.7816C13.8939 11.7435 13.9567 11.7499 14.0274 11.7942C14.1688 11.8894 15.1271 12.0606 15.457 12.0479C15.5983 12.0416 15.7083 12.0669 15.7083 12.1113C15.7083 12.1557 15.8026 12.1747 15.944 12.1557C16.0775 12.1367 16.1796 12.1494 16.1796 12.1811C16.1796 12.2064 16.1325 12.2318 16.0853 12.2318C15.9047 12.2318 16.211 12.3586 16.3995 12.3586C16.4938 12.3586 16.5723 12.384 16.5723 12.422C16.5723 12.4537 16.6587 12.4981 16.7687 12.5235C16.8708 12.5425 16.9965 12.5996 17.0436 12.644C17.0907 12.6947 17.185 12.7137 17.2478 12.6947C17.3107 12.6757 17.3578 12.7011 17.3578 12.7455C17.3578 12.8089 17.3814 12.8089 17.4206 12.7645C17.452 12.7264 17.5384 12.6947 17.617 12.6947C17.7112 12.6947 17.7427 12.7328 17.7034 12.8152C17.672 12.8976 17.7191 12.9484 17.8683 13.0055C17.9783 13.0435 18.1982 13.1767 18.3475 13.2908C18.5046 13.405 18.6931 13.5001 18.7795 13.5001C18.858 13.5001 18.9209 13.5191 18.913 13.5445C18.8816 13.6206 19.2586 13.944 19.3686 13.944C19.4157 13.944 19.4864 13.9884 19.51 14.0454C19.5414 14.1025 19.6121 14.1342 19.6828 14.1088C19.7456 14.0898 19.777 14.0962 19.7535 14.1342C19.7299 14.1659 19.8084 14.2801 19.9263 14.3815C20.0441 14.4893 20.2876 14.7049 20.4604 14.8698C20.6332 15.0347 20.8845 15.263 21.0181 15.3835C21.1516 15.4976 21.2459 15.5991 21.2301 15.6117C21.2144 15.6244 21.293 15.7132 21.3951 15.802C21.5051 15.8971 21.5679 15.9732 21.5443 15.9732C21.5208 15.9732 21.5443 16.0176 21.5993 16.0683C21.6543 16.1191 21.725 16.1444 21.7643 16.1254C21.8035 16.1064 21.835 16.1508 21.835 16.2205C21.835 16.2903 21.8742 16.3664 21.9135 16.3854C21.9606 16.4044 22.0627 16.5439 22.1491 16.6898C22.2355 16.8356 22.3377 17.0005 22.3848 17.0512C22.754 17.5395 23.3588 18.941 23.4609 19.5244C23.5237 19.9048 23.5237 22.0102 23.4687 22.0419C23.4295 22.0546 23.4059 22.1433 23.4059 22.2321C23.4059 22.5302 23.1545 23.4179 23.0053 23.6462C22.9189 23.7667 22.8561 23.8935 22.8561 23.9253C22.8561 24.0204 22.5183 24.534 22.4555 24.534C22.4005 24.534 22.1413 24.9969 22.0942 25.1872C22.0549 25.3838 21.9135 25.5486 21.7957 25.5486C21.7328 25.5486 21.6464 25.6121 21.5915 25.6818C21.5286 25.7769 21.5286 25.8023 21.5915 25.7769C21.6386 25.7516 21.6779 25.7642 21.6779 25.796C21.6779 25.834 21.6229 25.8657 21.56 25.8657C21.4972 25.8657 21.4422 25.9101 21.4422 25.9672C21.4422 26.0179 21.4108 26.0496 21.3794 26.0306C21.348 26.0116 21.183 26.1003 21.0181 26.2208C20.861 26.3413 20.696 26.4364 20.6646 26.4364C20.6332 26.4364 20.5311 26.4998 20.4447 26.5759C20.1619 26.8169 19.7613 27.1086 19.5571 27.2228C19.4471 27.2798 19.3607 27.3623 19.3607 27.4067C19.3607 27.4447 19.2822 27.4891 19.1879 27.5018C19.0937 27.5145 18.9916 27.5779 18.968 27.6413C18.9444 27.711 18.8031 27.8252 18.6538 27.8949C18.5046 27.971 18.3161 28.0979 18.2375 28.1803C18.159 28.2627 17.9705 28.3705 17.8212 28.4213C17.672 28.472 17.4442 28.5861 17.3264 28.6749C17.2007 28.77 16.9415 28.9222 16.7373 29.011C16.5409 29.1061 16.2974 29.252 16.2032 29.3281C16.1089 29.4105 15.944 29.493 15.834 29.5183L15.6298 29.5564L15.7633 29.3598C15.8418 29.252 15.9439 29.1632 15.9989 29.1632C16.0539 29.1632 16.0775 29.1188 16.0539 29.0681C16.0225 29.0174 16.0461 28.973 16.0932 28.973C16.1403 28.973 16.1796 28.9096 16.1796 28.8271C16.1796 28.751 16.2581 28.6496 16.3524 28.5988C16.5016 28.5227 16.5095 28.5101 16.3917 28.453C16.2896 28.4086 16.2738 28.3642 16.3367 28.2818C16.376 28.2183 16.3838 28.1423 16.3524 28.1169C16.321 28.0852 16.3602 28.0852 16.4388 28.1042C16.5095 28.1296 16.5723 28.1169 16.5723 28.0852C16.5723 28.0471 16.6116 28.0218 16.6587 28.0218C16.698 28.0218 16.7137 28.0471 16.6901 28.0852C16.6666 28.1169 16.6823 28.1486 16.7216 28.1486C16.8315 28.1486 16.8315 27.9774 16.7294 27.9266C16.5802 27.8505 16.6509 27.7301 16.8865 27.6603C17.0986 27.5969 17.1222 27.5588 17.1222 27.3306C17.1222 27.1784 17.1614 27.0706 17.2086 27.0706C17.2714 27.0706 17.2635 27.0325 17.1928 26.9691C17.0986 26.874 17.1064 26.8676 17.2635 26.9057C17.3656 26.9374 17.4363 26.9247 17.4363 26.8867C17.4363 26.8486 17.3971 26.8233 17.3421 26.8296C17.295 26.8423 17.24 26.7915 17.2243 26.7218C17.2164 26.652 17.2243 26.633 17.2478 26.6711C17.2714 26.7155 17.3264 26.7535 17.3656 26.7535C17.4128 26.7535 17.4206 26.7218 17.3971 26.6837C17.3657 26.652 17.4049 26.5569 17.4913 26.4872C17.5777 26.3984 17.5934 26.373 17.5149 26.4047C17.4206 26.4491 17.4285 26.4237 17.5384 26.2906C17.617 26.1955 17.672 26.0813 17.6641 26.0369C17.6406 25.8657 17.6798 25.8023 17.8291 25.8023C17.9312 25.8023 17.9862 25.7579 17.9862 25.6755C17.9862 25.6057 18.0333 25.5486 18.0883 25.5423C18.1354 25.5423 18.1197 25.5169 18.049 25.4979C17.9233 25.4535 17.9312 25.4345 18.1118 25.276C18.2218 25.1745 18.3239 25.0604 18.3318 25.0223C18.3396 24.9779 18.371 24.9082 18.4103 24.8638C18.4417 24.8194 18.4417 24.7877 18.4025 24.794C18.2297 24.8194 18.2297 24.7623 18.4339 24.4833C18.5517 24.3184 18.6695 24.1789 18.6931 24.1662C18.7245 24.1599 18.7245 24.0648 18.7088 23.9633C18.6852 23.8428 18.7088 23.7731 18.7716 23.7731C18.8816 23.7731 18.7952 23.5131 18.6617 23.437C18.6067 23.4116 18.6381 23.3799 18.7481 23.3545C18.9287 23.3165 19.0544 23.0121 18.913 22.9423C18.8737 22.9233 18.913 22.8853 19.0073 22.8663C19.1015 22.8472 19.1565 22.8028 19.1329 22.7711C19.1094 22.7331 19.1094 22.657 19.1408 22.5936C19.1879 22.4921 19.1958 22.4984 19.3057 22.6063C19.4079 22.7077 19.4157 22.7141 19.3764 22.6126C19.345 22.5555 19.3607 22.5048 19.4 22.5048C19.4393 22.5048 19.4393 22.435 19.3843 22.3399C19.3057 22.2067 19.3136 22.1687 19.4079 22.118C19.4864 22.0799 19.4864 22.0609 19.4236 22.0609C19.3686 22.0609 19.3215 21.9975 19.3293 21.9151C19.3293 21.7819 19.3372 21.7819 19.4079 21.9024C19.455 21.9848 19.4628 21.9087 19.4236 21.6804C19.3921 21.4902 19.3686 21.2555 19.3607 21.1668C19.3607 21.0463 19.3293 21.0082 19.2429 21.0273C19.1565 21.0463 19.1565 21.0399 19.2193 21.0019C19.2743 20.9702 19.3058 20.8941 19.29 20.8243C19.2743 20.7546 19.29 20.6404 19.3215 20.577C19.3843 20.4248 19.2351 20.1712 18.9287 19.9048C18.7952 19.7907 18.6931 19.6766 18.6931 19.6385C18.6931 19.5117 17.8212 19.3214 17.2557 19.3341C17.13 19.3341 16.9729 19.3785 16.9101 19.4292C16.8472 19.48 16.7608 19.5053 16.7216 19.4863C16.6744 19.4673 16.5016 19.5244 16.3367 19.6131C15.9675 19.8097 15.8183 19.8224 15.7083 19.6575C15.5983 19.4863 15.6062 19.3975 15.7476 19.3975C15.8104 19.3975 15.8654 19.3722 15.8654 19.3341C15.8654 19.3024 15.8104 19.2897 15.7476 19.3087C15.6612 19.3405 15.6455 19.3087 15.7083 19.1502C15.7476 19.0361 15.7476 18.941 15.7005 18.9219C15.6612 18.8966 15.6298 18.9156 15.6298 18.9536C15.6298 18.998 15.5905 18.9917 15.5198 18.941C15.4413 18.8839 15.4334 18.8332 15.4884 18.7824C15.5355 18.738 15.5434 18.6556 15.5198 18.5985C15.4884 18.5224 15.5041 18.5034 15.5905 18.5351C15.6769 18.5605 15.7083 18.5288 15.7083 18.4083C15.7083 18.3195 15.6769 18.2688 15.6298 18.2878C15.5905 18.3068 15.5512 18.2688 15.5512 18.2054C15.5512 18.1356 15.4962 18.0595 15.4255 18.0405C15.3627 18.0215 15.3234 17.9771 15.347 17.9454C15.3784 17.9137 15.3548 17.8756 15.3077 17.8629C15.2449 17.8439 15.2606 17.8059 15.3391 17.7361C15.457 17.6473 15.4491 17.6283 15.3077 17.5205C15.2056 17.4444 15.182 17.3937 15.2449 17.362C15.3706 17.3049 15.2527 17.159 15.1114 17.2034C15.0407 17.2288 15.0014 17.1907 15.0014 17.0956C14.9935 16.9244 14.6244 16.5693 14.3337 16.4425C14.1138 16.3537 13.4226 16.322 13.3205 16.3981C13.2969 16.4234 13.2262 16.4488 13.1713 16.4551C12.9513 16.4805 12.3308 16.7405 12.3308 16.8103C12.3308 16.8483 12.3072 16.861 12.2758 16.842C12.2051 16.7849 11.8595 17.0512 11.8595 17.159C11.8595 17.2034 11.8202 17.2415 11.7731 17.2415C11.726 17.2415 11.7024 17.2859 11.7338 17.3366C11.7574 17.3873 11.7417 17.4317 11.7024 17.4317C11.6553 17.4317 11.6317 17.4507 11.6396 17.4761C11.6474 17.5078 11.6003 17.5966 11.5296 17.6854C11.4589 17.7741 11.3804 17.92 11.3568 18.0151C11.3411 18.1039 11.2861 18.2371 11.2469 18.3005C11.2076 18.3639 11.1526 18.5795 11.129 18.7824C11.1055 18.979 11.0583 19.1819 11.0269 19.22C10.9876 19.2644 10.9719 19.3785 10.9798 19.48C11.0034 19.7146 10.8384 20.2029 10.7677 20.1078C10.6342 19.9302 9.95084 19.7083 9.58167 19.7209C9.3853 19.7273 9.18108 19.7146 9.12609 19.6956C9.07897 19.6702 9.02399 19.6766 8.99257 19.7083C8.969 19.7463 8.89831 19.759 8.83547 19.7336C8.66267 19.6829 8.30921 19.7717 8.37205 19.8478C8.40347 19.8922 8.37204 19.9048 8.26993 19.8795C8.15997 19.8478 8.08928 19.8858 8.01073 20C7.95575 20.0887 7.8772 20.1585 7.83793 20.1585C7.79865 20.1585 7.7908 20.1268 7.82222 20.0824C7.85364 20.0444 7.75153 20.0951 7.58658 20.1965C7.40592 20.3107 7.31166 20.4185 7.33522 20.4882C7.35093 20.5453 7.31166 20.6087 7.24883 20.6278C7.16242 20.6595 7.14672 20.7673 7.18599 21.1858C7.26454 22.0419 7.27239 22.118 7.35879 22.2638C7.40592 22.3463 7.51589 22.6063 7.618 22.8536C7.78295 23.2911 7.94789 23.6589 8.11284 23.9633C8.15997 24.0521 8.19924 24.1472 8.19924 24.1852C8.20709 24.217 8.30135 24.2487 8.41917 24.2487C8.59198 24.2423 8.61554 24.2677 8.59197 24.3945C8.56841 24.496 8.58412 24.5277 8.64696 24.496C8.7098 24.4706 8.71765 24.477 8.68623 24.5277C8.64696 24.5784 8.59198 24.5848 8.52914 24.5404C8.4663 24.496 8.43488 24.515 8.42703 24.6038C8.41917 24.6672 8.44274 24.7243 8.48201 24.7243C8.52129 24.7243 8.61554 24.813 8.68623 24.9272C8.75693 25.0413 8.86689 25.1682 8.92187 25.2189C9.0554 25.3204 9.06325 25.4218 8.93758 25.4218C8.89045 25.4218 8.91402 25.4789 8.99257 25.5486C9.07112 25.6247 9.18107 25.6691 9.22035 25.6564C9.27533 25.6374 9.31461 25.7389 9.32246 25.8847C9.33817 26.0242 9.3853 26.1638 9.44028 26.1955C9.49526 26.2208 9.51097 26.2462 9.4717 26.2462C9.42457 26.2462 9.45599 26.2842 9.5424 26.3286C9.62094 26.3794 9.66806 26.4428 9.6445 26.4745C9.58166 26.5569 9.76232 26.6711 9.91941 26.652C9.99011 26.6457 10.0765 26.6647 10.1001 26.6964C10.1236 26.7281 10.1001 26.7472 10.0372 26.7408C9.92727 26.7218 9.91941 27.0642 10.0372 27.1276C10.0687 27.1467 10.1629 27.2735 10.2336 27.4003C10.3279 27.5589 10.4064 27.6223 10.485 27.6032C10.5635 27.5779 10.5871 27.6032 10.5635 27.692C10.5478 27.7618 10.6342 27.9457 10.752 28.0979C10.8698 28.2501 11.1133 28.5988 11.3018 28.8715C11.4903 29.1505 11.6867 29.4169 11.7496 29.4613C11.8124 29.512 11.8595 29.5944 11.8595 29.6388C11.8595 29.6832 11.9224 29.7339 12.0009 29.753C12.0847 29.7699 12.0821 29.7952 11.993 29.8291C11.8438 29.8798 10.3828 29.5373 10.1001 29.3788C10.0215 29.3344 9.9037 29.3154 9.84872 29.3344C9.77803 29.3535 9.73876 29.3281 9.73876 29.2583C9.73876 29.2013 9.70734 29.1696 9.66807 29.1886C9.62879 29.2139 9.48741 29.1569 9.36173 29.0681C9.23606 28.9793 9.08682 28.9096 9.03969 28.9096C8.99257 28.9096 8.95329 28.8842 8.95329 28.8461C8.95329 28.8144 8.7962 28.7257 8.59983 28.6559C8.40347 28.5798 8.17568 28.472 8.09713 28.4149C7.91648 28.2754 7.55516 28.0979 7.2881 28.0154C7.16242 27.9774 7.06817 27.914 7.06817 27.8759C7.06817 27.8315 6.85609 27.7047 6.58903 27.5906C6.32983 27.4764 6.09419 27.3369 6.07062 27.2862C6.04706 27.2354 5.96066 27.1974 5.87426 27.1974C5.79571 27.1974 5.74073 27.172 5.76429 27.1403C5.78785 27.1086 5.67789 27.0072 5.51294 26.9057C5.14377 26.6837 3.9263 25.7072 3.9263 25.6311C3.9263 25.5994 3.82419 25.4725 3.69066 25.3584C3.56499 25.2443 3.45502 25.1111 3.45502 25.0667C3.45502 25.0223 3.4236 24.9779 3.38433 24.9652C3.29793 24.9399 2.9052 24.4262 2.9052 24.3438C2.9052 24.3057 2.81879 24.1155 2.70883 23.9253C2.59886 23.735 2.49675 23.475 2.47319 23.3609C2.45748 23.2404 2.41035 23.0945 2.37107 23.0311C2.33966 22.9677 2.29253 22.8028 2.28468 22.6633C2.26111 22.3843 2.21398 22.2955 2.12758 22.3399C2.10402 22.3589 2.07259 22.3146 2.07259 22.2448C2.07259 22.1814 2.11187 22.1243 2.159 22.1243C2.19828 22.1243 2.19042 22.0989 2.12758 22.0672C2.03333 22.0165 2.02547 21.9658 2.09616 21.7819C2.19042 21.5282 2.15115 21.2999 2.00976 21.2999C1.96263 21.2999 1.97834 21.2682 2.04118 21.2302C2.10402 21.1921 2.12758 21.1541 2.08046 21.1351C2.03333 21.1224 2.01761 20.9765 2.03332 20.8053C2.05688 20.577 2.08045 20.539 2.12758 20.6341C2.18256 20.7419 2.19041 20.7356 2.19041 20.5834C2.19827 20.4882 2.16685 20.4121 2.13543 20.4121C2.09616 20.4121 2.0726 20.3043 2.08831 20.1712C2.09616 20.019 2.14329 19.9429 2.20613 19.9556C2.28468 19.9683 2.28468 19.9556 2.20613 19.8858C2.00191 19.6829 2.10402 19.1058 2.32395 19.258C2.35537 19.2834 2.35537 19.2644 2.32395 19.22C2.29253 19.1756 2.30824 19.0931 2.36322 19.0424C2.44177 18.9663 2.44176 18.9473 2.34751 18.9663C2.1747 18.998 2.26111 18.6873 2.45747 18.5605C2.61457 18.459 2.62242 18.4463 2.49675 18.3702C2.37107 18.2941 2.37107 18.2751 2.5046 18.0595C2.58315 17.939 2.63814 17.7678 2.63028 17.6917C2.62243 17.6093 2.6617 17.5078 2.71668 17.4634C2.77166 17.419 2.79523 17.3683 2.77166 17.3429C2.74024 17.3239 2.75595 17.3049 2.80308 17.3049C2.84236 17.3049 2.87377 17.1717 2.85806 17.0005C2.85021 16.8356 2.87378 16.6707 2.9052 16.639C2.93661 16.601 2.9916 16.4551 3.02302 16.3093C3.05444 16.1571 3.11727 16.0493 3.16439 16.0556C3.21938 16.062 3.25865 16.0239 3.26651 15.9732C3.28222 15.7893 3.39218 15.5293 3.46288 15.5293C3.50215 15.5293 3.52571 15.5103 3.51785 15.4786C3.50215 15.4532 3.55713 15.3644 3.63568 15.2757C3.72208 15.1805 3.76921 15.1552 3.76921 15.2122C3.76921 15.2947 3.78491 15.2947 3.83989 15.2186C3.88702 15.1615 3.88702 15.0791 3.83989 15.0157C3.79277 14.9396 3.80848 14.8952 3.88703 14.8698C3.94987 14.8508 4.00485 14.7683 4.00485 14.6859C4.00485 14.6035 4.06768 14.4766 4.14623 14.4005C4.21692 14.3308 4.33475 14.2103 4.39758 14.1405C4.46042 14.0645 4.55467 14.0074 4.60966 14.0074C4.66464 14.0074 4.71177 13.982 4.71177 13.9503C4.71177 13.8552 5.12021 13.5318 5.48152 13.3415C5.66218 13.2464 5.81143 13.1386 5.81143 13.1069C5.81143 13.0752 5.8507 13.0689 5.88997 13.0879C5.9371 13.1069 5.99208 13.0815 6.01565 13.0308C6.03921 12.9737 6.1099 12.9294 6.17274 12.9294C6.30627 12.9294 6.31412 12.8533 6.18844 12.7455C6.10204 12.682 6.13346 12.682 6.31412 12.7391C6.51834 12.8025 6.53405 12.7962 6.49478 12.6757C6.47121 12.6059 6.47907 12.5362 6.51835 12.5172C6.54977 12.4981 6.59689 12.5425 6.62045 12.6123C6.67543 12.7835 6.83253 12.7772 6.83253 12.6059C6.83253 12.4981 6.87181 12.4791 7.0289 12.4981C7.13887 12.5172 7.24883 12.5045 7.27239 12.4791C7.29596 12.4474 7.39021 12.422 7.48447 12.422C7.61799 12.422 7.63371 12.4094 7.54731 12.365C7.48447 12.3333 7.38236 12.3206 7.31167 12.3333C7.24097 12.3523 7.26453 12.3269 7.36665 12.2825C7.50803 12.2255 7.58658 12.2255 7.69655 12.2825C7.81437 12.3396 7.90862 12.3333 8.11284 12.2635C8.26208 12.2128 8.41132 12.1938 8.44274 12.2191C8.48201 12.2445 8.48201 12.2255 8.45059 12.1811C8.41918 12.1367 8.35633 12.124 8.30921 12.143C8.26208 12.1684 8.23852 12.1494 8.26208 12.0986C8.28564 12.0479 8.34848 12.0099 8.41132 12.0099C8.47416 12.0035 8.62339 11.9655 8.74121 11.9147C8.91402 11.845 9.00042 11.845 9.11824 11.9021C9.28319 11.9845 9.888 11.9845 9.90371 11.9021C9.91156 11.8767 9.91941 11.826 9.92727 11.7942C9.95083 11.6611 10.0608 11.6421 10.1001 11.7625C10.1315 11.864 10.2022 11.8894 10.4064 11.8894C10.5478 11.883 10.6499 11.864 10.642 11.845C10.6263 11.826 10.7913 11.8006 11.0191 11.7942C11.5925 11.7752 11.7731 11.7562 11.8281 11.7055C11.8595 11.6801 11.7653 11.6611 11.616 11.6547C11.3961 11.6547 11.3804 11.6421 11.5061 11.5977C11.7574 11.5089 11.8752 11.5279 11.9145 11.6611ZM8.40347 11.7182C8.40347 11.8069 8.36419 11.8323 8.24637 11.8069C8.15997 11.7879 8.08928 11.7435 8.08928 11.7118C8.08928 11.6801 8.12069 11.6674 8.15997 11.6928C8.19924 11.7118 8.25423 11.6991 8.28565 11.6611C8.35634 11.566 8.40347 11.585 8.40347 11.7182ZM15.1585 11.623C15.1585 11.6421 15.1271 11.6738 15.0799 11.6928C15.0407 11.7118 15.0014 11.6991 15.0014 11.6674C15.0014 11.6294 15.0407 11.5977 15.0799 11.5977C15.1271 11.5977 15.1585 11.6104 15.1585 11.623ZM9.67592 11.8133C9.7309 11.7879 9.73876 11.8006 9.70734 11.8386C9.62094 11.9528 9.50312 11.9274 9.51097 11.8006C9.51097 11.7372 9.53454 11.7245 9.5581 11.7752C9.57381 11.8133 9.63665 11.8323 9.67592 11.8133ZM14.6322 11.7689C14.5772 11.7816 14.483 11.7816 14.4359 11.7689C14.3809 11.7499 14.4201 11.7372 14.5301 11.7372C14.6401 11.7372 14.6793 11.7499 14.6322 11.7689ZM8.01073 11.8513C8.01073 11.883 7.97932 11.9147 7.93219 11.9147C7.89291 11.9147 7.85364 11.883 7.85364 11.8513C7.85364 11.8133 7.89291 11.7879 7.93219 11.7879C7.97932 11.7879 8.01073 11.8133 8.01073 11.8513ZM15.025 11.8323C14.97 11.845 14.8757 11.845 14.8286 11.8323C14.7736 11.8133 14.8129 11.8006 14.9228 11.8006C15.0328 11.8006 15.0721 11.8133 15.025 11.8323ZM15.4491 11.9528C15.4255 11.9718 15.3548 11.9782 15.2999 11.9591C15.237 11.9401 15.2606 11.9211 15.347 11.9211C15.4334 11.9147 15.4805 11.9338 15.4491 11.9528ZM16.3131 11.9528C16.2896 11.9718 16.2189 11.9782 16.1639 11.9591C16.101 11.9401 16.1246 11.9211 16.211 11.9211C16.2974 11.9147 16.3445 11.9338 16.3131 11.9528ZM8.16783 12.0669C8.16783 12.0796 8.11285 12.105 8.05001 12.1303C7.98717 12.1494 7.93219 12.1367 7.93219 12.105C7.93219 12.0669 7.98717 12.0416 8.05001 12.0416C8.11285 12.0416 8.16783 12.0542 8.16783 12.0669ZM6.91108 12.3333C6.91108 12.3459 6.8561 12.3586 6.79326 12.3586C6.73042 12.3586 6.67544 12.3333 6.67544 12.2952C6.67544 12.2635 6.73042 12.2508 6.79326 12.2698C6.8561 12.2952 6.91108 12.3206 6.91108 12.3333ZM17.3578 12.4918C17.3578 12.5235 17.3264 12.5489 17.295 12.5489C17.2557 12.5489 17.2243 12.5045 17.2243 12.4537C17.2243 12.403 17.2557 12.3777 17.295 12.3967C17.3264 12.4157 17.3578 12.4537 17.3578 12.4918ZM21.5208 15.6561C21.5208 15.6878 21.5051 15.7195 21.4894 15.7195C21.4658 15.7195 21.4265 15.6878 21.403 15.6561C21.3794 15.6181 21.3951 15.5927 21.4344 15.5927C21.4815 15.5927 21.5208 15.6181 21.5208 15.6561ZM13.4619 18.8585C13.5247 19.0297 13.5954 19.2897 13.619 19.4292C13.7132 19.9112 13.7368 21.7121 13.6582 21.9658C13.6111 22.1053 13.564 22.2765 13.5483 22.3526C13.5169 22.5111 13.3362 22.7584 13.2576 22.7584C13.2184 22.7584 13.1948 22.7902 13.1948 22.8282C13.1948 22.8662 13.2498 22.8789 13.3283 22.8599C13.4121 22.8345 13.4121 22.8578 13.3283 22.9297C13.1634 23.0819 12.8178 23.1199 12.967 22.9741C13.0456 22.898 13.077 22.898 13.1241 22.9614C13.2027 23.0565 13.2184 22.9994 13.1477 22.8599C13.1163 22.7902 13.0691 22.7775 13.0063 22.8155C12.9513 22.8536 12.8728 22.8536 12.8021 22.8219C12.7157 22.7775 12.7157 22.7584 12.7864 22.7584C12.8649 22.7584 12.8728 22.6887 12.8335 22.4858C12.7942 22.3399 12.7707 22.1307 12.7707 22.0165C12.7628 21.9087 12.7392 21.8326 12.7078 21.8516C12.6057 21.896 12.6371 21.7565 12.7471 21.6677C12.912 21.5346 12.967 21.1414 12.8414 21.0019C12.7157 20.8751 12.6843 20.7673 12.7864 20.818C12.8178 20.8307 12.8414 20.6912 12.8414 20.5009C12.8335 20.3107 12.8571 20.1585 12.8885 20.1585C12.9199 20.1585 12.9435 20.1014 12.9356 20.0317C12.9278 19.9619 12.8963 19.9048 12.8649 19.9048C12.8335 19.9048 12.8021 19.8604 12.8021 19.8097C12.8021 19.759 12.8492 19.7209 12.9042 19.7273C13.022 19.7527 12.9827 19.4483 12.8492 19.3848C12.7864 19.3468 12.7864 19.3024 12.8649 19.2073C12.9199 19.1312 12.9435 19.017 12.9199 18.9473C12.8885 18.8649 12.9042 18.8268 12.9906 18.8268C13.132 18.8268 13.1555 18.7571 13.0456 18.6619C13.0063 18.6302 12.9906 18.5224 13.0142 18.421L13.0613 18.2371L13.2027 18.3893C13.2812 18.4717 13.399 18.681 13.4619 18.8585ZM26.1158 20.3995C26.0922 20.4185 26.0294 20.3995 25.9744 20.3551C25.9037 20.2917 25.9115 20.2853 26.0215 20.3234C26.1 20.3424 26.1393 20.3804 26.1158 20.3995ZM9.18894 20.8877C9.18894 20.9385 9.14965 20.9829 9.10253 20.9829C9.0554 20.9829 9.03969 21.0273 9.06325 21.0843C9.09467 21.1541 9.07111 21.1731 8.969 21.1604C8.89831 21.1477 8.84332 21.0907 8.85903 21.0273C8.87474 20.9512 8.84332 20.9321 8.74121 20.9575C8.61554 20.9892 8.61554 20.9829 8.74907 20.8941C8.94543 20.7673 9.18894 20.7609 9.18894 20.8877ZM9.46385 21.1097C9.48741 21.1414 9.4717 21.1731 9.43243 21.1731C9.3853 21.1731 9.34603 21.1414 9.34603 21.1097C9.34603 21.0716 9.36173 21.0463 9.37744 21.0463C9.401 21.0463 9.44028 21.0716 9.46385 21.1097ZM12.8021 21.1351C12.8021 21.1477 12.7471 21.1731 12.6843 21.1985C12.6214 21.2175 12.5664 21.2048 12.5664 21.1731C12.5664 21.1351 12.6214 21.1097 12.6843 21.1097C12.7471 21.1097 12.8021 21.1224 12.8021 21.1351ZM17.0279 21.3253C17.0436 21.3824 17.0907 21.4141 17.13 21.3951C17.3814 21.2682 17.1143 22.9931 16.808 23.456C16.7687 23.5131 16.753 23.5828 16.7844 23.6018C16.808 23.6272 16.7687 23.716 16.698 23.7984C16.6273 23.8872 16.5723 24.0204 16.5723 24.0901C16.5723 24.1662 16.5252 24.2994 16.4624 24.3945C16.4074 24.4896 16.3681 24.6228 16.3838 24.6862C16.3917 24.756 16.321 24.8955 16.211 24.9969C16.1089 25.0921 16.0225 25.2189 16.0225 25.2696C16.0225 25.3203 15.9832 25.3584 15.9361 25.3584C15.8811 25.3584 15.8654 25.4282 15.889 25.536C15.9125 25.6311 15.9047 25.7516 15.8575 25.8023C15.8183 25.853 15.7869 25.8657 15.7869 25.834C15.779 25.796 15.7162 25.872 15.6455 25.9925C15.5512 26.1384 15.5355 26.2272 15.5905 26.2589C15.6376 26.2906 15.6376 26.3096 15.5748 26.3096C15.5198 26.3096 15.4727 26.354 15.4727 26.4047C15.4727 26.4555 15.4413 26.4998 15.4098 26.4998C15.2842 26.4998 15.0721 26.8803 15.1192 27.0262C15.1585 27.134 15.1506 27.1467 15.0878 27.0706C15.0171 26.9881 15.0014 26.9881 15.0014 27.0833C15.0014 27.1467 14.9385 27.2545 14.8679 27.3242C14.7893 27.394 14.7265 27.4764 14.7186 27.5018C14.7186 27.5271 14.6558 27.654 14.5851 27.7808C14.5065 27.914 14.4516 28.0725 14.4516 28.1359C14.4516 28.2057 14.4044 28.2944 14.3416 28.3325C14.2159 28.4213 14.1217 28.6559 14.2159 28.6559C14.3259 28.6559 14.2473 28.8588 14.106 28.9476C14.0274 28.992 13.9881 29.0554 14.0196 29.0935C14.0431 29.1315 13.996 29.2456 13.9096 29.3471C13.8153 29.4486 13.7446 29.5627 13.7446 29.6008C13.7446 29.7022 13.4619 29.6832 13.3519 29.5754C13.2969 29.5247 13.2812 29.4803 13.3126 29.4803C13.3441 29.4803 13.3126 29.4105 13.2419 29.3217C13.1713 29.2393 13.1163 29.1252 13.1163 29.0808C13.1163 29.03 13.0613 28.9539 12.9985 28.9096C12.9356 28.8652 12.8806 28.7764 12.8806 28.713C12.8806 28.6432 12.8256 28.5925 12.7628 28.5925C12.6921 28.5925 12.645 28.5354 12.645 28.434C12.645 28.3198 12.6136 28.2881 12.5193 28.3198C12.4172 28.3515 12.4172 28.3705 12.5036 28.4149C12.5821 28.4657 12.5822 28.472 12.4879 28.4466C12.4094 28.434 12.3779 28.3579 12.3936 28.2183C12.4093 28.0598 12.3544 27.971 12.1737 27.8252C12.048 27.7174 11.9302 27.5906 11.9302 27.5398C11.9145 27.3876 11.8988 27.3623 11.7496 27.1023C11.6632 26.9628 11.5218 26.7598 11.4197 26.6584C11.3254 26.5506 11.2311 26.4111 11.2154 26.3413C11.2076 26.2716 11.1762 26.2018 11.1526 26.1828C11.0662 26.113 10.917 25.8594 10.917 25.7833C10.917 25.7389 10.8463 25.6628 10.7599 25.6121C10.6735 25.5613 10.6028 25.4599 10.6028 25.3774C10.6028 25.3013 10.5714 25.2252 10.5242 25.1999C10.485 25.1808 10.4692 25.1238 10.5007 25.073C10.5321 25.0033 10.5085 24.9906 10.4143 25.016C10.32 25.0477 10.2964 25.016 10.3279 24.8574C10.3514 24.7116 10.3279 24.6609 10.2336 24.6609C10.1629 24.6609 10.1315 24.6228 10.1629 24.5657C10.1865 24.515 10.1708 24.4706 10.1315 24.4706C10.0922 24.4706 10.0372 24.4135 10.0137 24.3438C9.99011 24.274 9.89586 24.217 9.81731 24.217C9.73091 24.217 9.6288 24.1599 9.58167 24.0901C9.52669 24.0014 9.52669 23.9633 9.58167 23.9633C9.62094 23.9633 9.66022 23.9887 9.66022 24.0267C9.66022 24.0584 9.69163 24.0901 9.7309 24.0901C9.80945 24.0901 9.77018 23.8935 9.66022 23.6779C9.62094 23.6082 9.55024 23.418 9.49526 23.2467C9.43242 23.0819 9.36959 22.9487 9.33817 22.9487C9.30675 22.9487 9.25963 22.8536 9.23606 22.7331C9.20464 22.6126 9.13395 22.4858 9.07112 22.4414C9.00828 22.397 8.95329 22.2955 8.95329 22.2131C8.95329 22.0355 8.83547 22.0165 8.72551 22.1687C8.67838 22.2321 8.63911 22.2448 8.63911 22.2004C8.63911 22.1624 8.7098 22.0672 8.7962 21.9975C8.97686 21.8516 9.00042 21.7819 8.85118 21.8263C8.7962 21.8453 8.70195 21.7946 8.63911 21.7248C8.54485 21.598 8.54484 21.5916 8.67052 21.6741C8.78834 21.7565 8.80405 21.7502 8.78049 21.6107C8.76478 21.5282 8.72551 21.4268 8.69409 21.3824C8.66267 21.3443 8.67052 21.2936 8.70194 21.2746C8.81976 21.2175 9.34603 21.2555 9.34603 21.319C9.34603 21.3507 9.40101 21.357 9.4717 21.338C9.56596 21.3126 9.58952 21.3253 9.55025 21.3951C9.52668 21.4458 9.54239 21.4902 9.58952 21.4902C9.63665 21.4902 9.66021 21.5282 9.63665 21.579C9.61308 21.6297 9.6445 21.6868 9.70734 21.7058C9.77018 21.7248 9.81731 21.7755 9.81731 21.8263C9.81731 21.9404 9.99796 22.2511 10.0765 22.2511C10.1079 22.2511 10.1315 22.3082 10.1315 22.3843C10.1315 22.4541 10.1629 22.4921 10.21 22.4731C10.2572 22.4541 10.265 22.4794 10.2415 22.5365C10.1865 22.6443 10.3514 23.0121 10.4457 23.0121C10.4771 23.0121 10.5478 23.1833 10.5949 23.3926C10.6499 23.6018 10.7206 23.7857 10.7599 23.8048C10.807 23.8301 10.8384 23.9506 10.8384 24.0838C10.8384 24.217 10.8698 24.3438 10.917 24.3818C10.9562 24.4135 11.0112 24.534 11.0269 24.6482C11.0426 24.756 11.0898 24.8891 11.1447 24.9335C11.1919 24.9843 11.2076 25.035 11.184 25.054C11.1604 25.073 11.184 25.2189 11.239 25.3647C11.2861 25.5169 11.3333 25.6881 11.3411 25.7389C11.349 25.7896 11.3961 25.8974 11.4511 25.9735C11.5061 26.056 11.5218 26.1194 11.4903 26.1194C11.3961 26.1257 11.781 26.373 11.8831 26.373C11.9302 26.373 11.9459 26.2525 11.9145 26.0433C11.8752 25.7896 11.8909 25.7008 11.993 25.6438C12.1894 25.5233 12.4486 25.5994 12.5429 25.8086C12.59 25.9101 12.6057 25.9799 12.5664 25.9608C12.4722 25.9164 12.4093 26.1828 12.4565 26.4364C12.4722 26.5569 12.5036 26.8423 12.5193 27.0706C12.5586 27.5398 12.8178 28.0852 12.9985 28.0852C13.0613 28.0852 13.1163 28.1169 13.1163 28.1549C13.1163 28.1866 13.077 28.1993 13.022 28.174C12.967 28.1486 12.9592 28.1549 12.9906 28.1993C13.0613 28.2944 13.2891 28.2183 13.2419 28.1105C13.2184 28.0598 13.2341 28.0218 13.2734 28.0218C13.3048 28.0218 13.3598 27.9267 13.3912 27.8125C13.4854 27.4574 13.7996 27.1593 14.2002 27.0389C14.4044 26.9818 14.6165 26.9311 14.6715 26.9311C14.7186 26.9247 14.7658 26.8867 14.7658 26.8423C14.7658 26.7979 14.8207 26.7154 14.8914 26.6647C14.9543 26.6076 14.9778 26.5633 14.9307 26.5633C14.8836 26.5633 14.8443 26.5189 14.8443 26.4618C14.8443 26.4111 14.8836 26.3857 14.9307 26.4047C14.9857 26.4364 14.9935 26.3603 14.9543 26.1511C14.915 25.9291 14.9228 25.8594 14.9935 25.8911C15.1192 25.9545 15.1035 25.8594 14.9543 25.7325C14.8443 25.6311 14.8443 25.6184 14.9935 25.5803C15.0878 25.5613 15.1585 25.4852 15.1585 25.4218C15.1585 25.3584 15.1978 25.2823 15.237 25.2633C15.2842 25.2443 15.3156 25.1682 15.3156 25.1047C15.3156 25.0413 15.3627 24.9716 15.4177 24.9589C15.4648 24.9399 15.4491 24.9208 15.3627 24.9208C15.2213 24.9145 15.2213 24.9082 15.3549 24.7877C15.4334 24.7179 15.457 24.6609 15.4098 24.6609C15.347 24.6609 15.3391 24.6165 15.3941 24.5087C15.4334 24.4262 15.4412 24.3374 15.4177 24.3184C15.3863 24.2994 15.4334 24.2804 15.5041 24.2804C15.6376 24.2804 15.6376 24.2677 15.5198 24.1218C15.4098 23.9887 15.4098 23.9379 15.4805 23.8175C15.5355 23.7414 15.5748 23.6716 15.5669 23.6589C15.5119 23.6018 15.5669 23.5194 15.6376 23.5575C15.6847 23.5765 15.6612 23.5257 15.5905 23.4306C15.5119 23.3355 15.4884 23.2658 15.5434 23.2658C15.6612 23.2658 15.6533 22.9931 15.5355 22.8916C15.4727 22.8345 15.4648 22.8219 15.5198 22.8472C15.5826 22.8726 15.6298 22.7902 15.6612 22.6126C15.7633 21.9658 15.8104 21.8072 15.8654 21.8072C15.8968 21.8072 15.9518 21.7311 15.9754 21.6424C16.0618 21.3697 16.3995 21.1668 16.7216 21.1921C16.9101 21.2112 17.0122 21.2555 17.0279 21.3253ZM8.32492 22.118C8.32492 22.156 8.2935 22.2004 8.24637 22.2194C8.2071 22.2385 8.16783 22.2131 8.16783 22.1624C8.16783 22.1053 8.2071 22.0609 8.24637 22.0609C8.2935 22.0609 8.32492 22.0863 8.32492 22.118ZM8.48201 22.3082C8.48201 22.3399 8.50558 22.4224 8.53699 22.4858C8.57627 22.5872 8.56841 22.5872 8.42703 22.4731C8.26993 22.3463 8.26208 22.2511 8.41132 22.2511C8.45059 22.2511 8.48201 22.2765 8.48201 22.3082ZM8.01073 22.6316C8.01073 22.6633 7.97932 22.695 7.93219 22.695C7.89291 22.695 7.85364 22.6633 7.85364 22.6316C7.85364 22.5936 7.89291 22.5682 7.93219 22.5682C7.97932 22.5682 8.01073 22.5936 8.01073 22.6316ZM8.30135 23.437C8.26993 23.456 8.30921 23.5131 8.38775 23.5638C8.45844 23.6145 8.47415 23.6399 8.42703 23.6145C8.37204 23.5955 8.32492 23.6082 8.32492 23.6462C8.32492 23.6843 8.2935 23.697 8.24637 23.6779C8.13641 23.6209 8.14426 23.3926 8.26208 23.3926C8.30921 23.3926 8.32492 23.4116 8.30135 23.437ZM9.03184 23.5892C9.03184 23.6209 8.94544 23.6399 8.84333 23.6336C8.61554 23.6145 8.63125 23.5511 8.86689 23.5384C8.96114 23.5321 9.03184 23.5511 9.03184 23.5892ZM18.5438 23.7921C18.4417 23.8745 18.3396 23.8111 18.4182 23.716C18.4417 23.6779 18.5046 23.6653 18.5517 23.6843C18.5988 23.7096 18.5988 23.7477 18.5438 23.7921ZM9.14966 23.8365C9.17323 23.8682 9.14181 23.8999 9.07897 23.8999C9.00828 23.8999 8.95329 23.8682 8.95329 23.8365C8.95329 23.7984 8.98471 23.7731 9.02398 23.7731C9.07111 23.7731 9.1261 23.7984 9.14966 23.8365ZM9.03184 24.3184C9.03184 24.3311 8.97686 24.3438 8.91402 24.3438C8.85118 24.3438 8.7962 24.3184 8.7962 24.2804C8.7962 24.2487 8.85118 24.236 8.91402 24.255C8.97686 24.2804 9.03184 24.3057 9.03184 24.3184ZM8.84333 24.9018C8.81191 24.9208 8.75693 24.9018 8.71766 24.8511C8.59983 24.6989 8.63125 24.6418 8.76478 24.756C8.83547 24.813 8.86689 24.8765 8.84333 24.9018ZM9.50312 25.1682C9.50312 25.1999 9.46384 25.2316 9.41671 25.2316C9.37744 25.2316 9.36174 25.1999 9.3853 25.1682C9.40887 25.1301 9.44814 25.1047 9.4717 25.1047C9.48741 25.1047 9.50312 25.1301 9.50312 25.1682ZM9.67592 25.3711C9.62094 25.4155 9.58167 25.4218 9.58167 25.3838C9.58167 25.295 9.67592 25.2189 9.7309 25.2633C9.74661 25.2823 9.72305 25.333 9.67592 25.3711ZM9.40101 25.5233C9.37744 25.5423 9.30675 25.5486 9.25177 25.5296C9.18893 25.5106 9.21249 25.4916 9.29889 25.4916C9.38529 25.4852 9.43243 25.5042 9.40101 25.5233ZM10.2729 25.872C10.2493 25.9228 10.2179 25.8911 10.1865 25.8086C10.1551 25.7008 10.1629 25.6755 10.2257 25.7262C10.265 25.7579 10.2886 25.8277 10.2729 25.872ZM10.5242 26.0559C10.5242 26.0877 10.4928 26.1194 10.4457 26.1194C10.4064 26.1194 10.3671 26.0877 10.3671 26.0559C10.3671 26.0179 10.4064 25.9925 10.4457 25.9925C10.4928 25.9925 10.5242 26.0179 10.5242 26.0559ZM10.9327 26.1955C10.8777 26.2399 10.8384 26.2462 10.8384 26.2081C10.8384 26.1194 10.9327 26.0433 10.9876 26.0877C11.0034 26.1067 10.9798 26.1574 10.9327 26.1955ZM9.81731 26.2906C9.80945 26.4428 9.80159 26.4555 9.7309 26.354C9.69163 26.2969 9.67593 26.2145 9.69949 26.1828C9.77804 26.075 9.81731 26.113 9.81731 26.2906ZM10.5478 26.2779C10.5242 26.335 10.485 26.3667 10.4692 26.3476C10.4457 26.3286 10.4535 26.2906 10.485 26.2525C10.5556 26.1511 10.6028 26.1701 10.5478 26.2779ZM10.8855 26.7979C10.807 26.8613 10.7363 26.7662 10.807 26.6837C10.8541 26.614 10.8698 26.614 10.9012 26.6837C10.917 26.7281 10.9091 26.7789 10.8855 26.7979ZM10.3907 27.2418C10.3593 27.3115 10.3671 27.3306 10.43 27.2989C10.4928 27.2735 10.5242 27.2989 10.5242 27.3686C10.5242 27.4701 10.5164 27.4701 10.3985 27.375C10.3279 27.3179 10.2964 27.2418 10.32 27.2037C10.4064 27.0959 10.4457 27.1213 10.3907 27.2418ZM11.3097 27.7681C11.3097 27.7998 11.294 27.8315 11.2783 27.8315C11.2547 27.8315 11.2154 27.7998 11.1919 27.7681C11.1683 27.7301 11.184 27.7047 11.2233 27.7047C11.2704 27.7047 11.3097 27.7301 11.3097 27.7681ZM11.7417 27.9013C11.8281 28.0091 11.7338 28.0344 11.6239 27.9266C11.561 27.8696 11.561 27.8315 11.6082 27.8315C11.6553 27.8315 11.7181 27.8632 11.7417 27.9013ZM11.1447 28.2057C11.2076 28.2374 11.2154 28.2754 11.1683 28.3008C11.129 28.3198 11.0505 28.2944 10.9955 28.2437C10.8855 28.1423 10.9719 28.1169 11.1447 28.2057ZM11.4668 28.4276C11.4668 28.4403 11.4118 28.4657 11.349 28.491C11.2861 28.5101 11.2311 28.4974 11.2311 28.4657C11.2311 28.4276 11.2861 28.4022 11.349 28.4022C11.4118 28.4022 11.4668 28.4149 11.4668 28.4276ZM11.4668 28.5925C11.4668 28.6242 11.4275 28.6559 11.3804 28.6559C11.3411 28.6559 11.3254 28.6242 11.349 28.5925C11.3725 28.5544 11.4118 28.5291 11.4354 28.5291C11.4511 28.5291 11.4668 28.5544 11.4668 28.5925ZM5.29301 28.7257C5.24588 28.7954 5.10451 28.7383 5.10451 28.6559C5.10451 28.6242 5.15949 28.6115 5.22233 28.6305C5.28516 28.6559 5.31657 28.6939 5.29301 28.7257ZM19.2586 29.2393C19.2036 29.2837 19.1644 29.29 19.1644 29.252C19.1644 29.1632 19.2586 29.0871 19.3136 29.1315C19.3293 29.1505 19.3057 29.2013 19.2586 29.2393ZM7.77509 29.6388C7.80651 29.6198 7.85363 29.6452 7.8772 29.6959C7.90862 29.7593 7.8772 29.772 7.76723 29.753C7.68868 29.7339 7.618 29.6705 7.62585 29.6134C7.62585 29.55 7.64156 29.5437 7.67298 29.5944C7.68869 29.6325 7.73582 29.6578 7.77509 29.6388ZM13.1163 29.6325C13.1163 29.7022 12.967 29.7276 12.9199 29.6705C12.8963 29.6388 12.9278 29.6071 12.9906 29.6071C13.0613 29.6071 13.1163 29.6198 13.1163 29.6325ZM9.07112 30.1144C9.09468 30.1461 9.07897 30.1778 9.03969 30.1778C8.99257 30.1778 8.95329 30.1461 8.95329 30.1144C8.95329 30.0764 8.969 30.051 8.98471 30.051C9.00827 30.051 9.04755 30.0764 9.07112 30.1144ZM15.9989 31.11C16.0304 31.1734 16.0853 31.2432 16.1246 31.2622C16.2581 31.3383 16.1089 31.5095 15.9125 31.5095C15.8104 31.5095 15.7005 31.5539 15.6769 31.611C15.6533 31.6617 15.5669 31.6998 15.4962 31.6871C15.4177 31.6807 15.3077 31.6998 15.2449 31.7251C15.0564 31.8202 14.6872 31.8139 14.6872 31.7188C14.6872 31.6744 14.7579 31.6363 14.8364 31.6363C14.9228 31.6363 15.0485 31.5856 15.1271 31.5222C15.2056 31.4651 15.2763 31.4207 15.292 31.4334C15.3077 31.4461 15.347 31.4461 15.3784 31.4271C15.4098 31.4144 15.3863 31.4144 15.3391 31.4207C15.1978 31.4524 15.2135 31.2876 15.3549 31.1924C15.4884 31.1037 15.6376 31.1607 15.5748 31.2876C15.5198 31.4144 15.6376 31.408 15.834 31.2812C15.9125 31.2305 15.9439 31.1988 15.889 31.2178C15.8418 31.2432 15.7712 31.2305 15.7476 31.1924C15.7162 31.1544 15.724 31.129 15.7633 31.1354C15.9204 31.1544 15.9754 31.1227 15.8654 31.0656C15.7869 31.0212 15.779 31.0022 15.8497 31.0022C15.9047 31.0022 15.9754 31.0529 15.9989 31.11ZM11.2311 31.1607C11.2861 31.2115 11.294 31.2559 11.2469 31.2559C11.2076 31.2559 11.129 31.2115 11.0741 31.1607C11.0191 31.11 11.0112 31.0656 11.0583 31.0656C11.0976 31.0656 11.1762 31.11 11.2311 31.1607ZM12.0873 31.332C12.1423 31.3193 12.2208 31.3446 12.2601 31.389C12.3622 31.5222 12.3465 31.5729 12.1973 31.5729C12.0794 31.5729 12.0716 31.5602 12.1737 31.5095C12.2365 31.4778 12.2601 31.4461 12.213 31.4398C12.1737 31.4334 12.103 31.4271 12.0559 31.4144C12.0166 31.408 11.9145 31.3954 11.8438 31.3954C11.7653 31.389 11.7024 31.351 11.7024 31.3193C11.7024 31.2749 11.7496 31.2749 11.8438 31.3066C11.9145 31.3383 12.0245 31.351 12.0873 31.332ZM12.8571 31.4588C12.8335 31.5095 12.8099 31.4905 12.8099 31.4207C12.8021 31.351 12.8256 31.3129 12.8492 31.3383C12.8728 31.3573 12.8806 31.4144 12.8571 31.4588ZM11.5061 31.6173C11.5846 31.5856 11.616 31.5983 11.5767 31.649C11.5375 31.6998 11.6003 31.7061 11.7888 31.6807C11.9538 31.6554 12.0166 31.6554 11.9538 31.6934C11.8752 31.7315 11.9302 31.7632 12.1501 31.7949C12.3151 31.8266 12.4957 31.8393 12.5429 31.8329C12.6921 31.8139 12.9592 31.9471 12.9592 32.0358C12.9592 32.169 12.6293 32.2451 12.268 32.1944C12.0795 32.169 11.8674 32.169 11.7967 32.2007C11.5218 32.3149 11.0741 32.0232 11.0741 31.7251C11.0741 31.5729 11.239 31.4841 11.3175 31.5919C11.349 31.6237 11.4275 31.6363 11.5061 31.6173ZM12.7235 31.6871C12.7235 31.7505 12.4408 31.7441 12.3622 31.6807C12.3308 31.6554 12.4015 31.6363 12.5115 31.6363C12.6293 31.6363 12.7235 31.6617 12.7235 31.6871ZM15.9754 32.6827C16.156 32.6953 16.1953 32.8349 16.1403 33.2597L16.0932 33.5768L15.5512 33.6973C15.2527 33.7607 15.0328 33.8431 15.0564 33.8748C15.0799 33.9129 15.0721 33.9192 15.0328 33.9002C14.9935 33.8812 14.7108 33.9065 14.4123 33.9573C14.106 34.008 13.6504 34.0587 13.3912 34.0651C13.132 34.0778 12.8728 34.1031 12.8178 34.1348C12.7707 34.1602 12.6921 34.1665 12.6528 34.1475C12.6136 34.1221 12.3779 34.1031 12.1344 34.1031C11.8045 34.0968 11.6474 34.0587 11.561 33.9763C11.4903 33.9129 11.4118 33.8748 11.3804 33.8875C11.349 33.9065 11.3333 33.8495 11.3411 33.7607C11.3411 33.6719 11.3961 33.6022 11.4511 33.6022C11.4982 33.6022 11.5453 33.5704 11.5453 33.5387C11.5453 33.5007 11.4982 33.4753 11.4511 33.469C11.3804 33.469 11.3804 33.4563 11.4589 33.4309C11.5453 33.3992 11.5453 33.3866 11.4589 33.3422C11.3804 33.3041 11.4197 33.2851 11.5846 33.2851C11.7496 33.2851 11.7888 33.3041 11.7103 33.3422C11.5218 33.4373 11.8595 33.6402 12.1894 33.6339C12.3544 33.6275 12.4643 33.6465 12.4329 33.6846C12.3701 33.767 12.7392 33.6719 12.8806 33.5641C12.9592 33.5007 12.9592 33.4753 12.8963 33.4753C12.8414 33.4753 12.8021 33.4246 12.8021 33.3675C12.8021 33.2724 12.8178 33.2787 12.9435 33.3865C13.0613 33.488 13.0691 33.5197 12.9827 33.5895C12.8414 33.7036 12.8571 33.729 13.0377 33.729C13.1241 33.729 13.2655 33.6719 13.3598 33.5958C13.4854 33.4944 13.5404 33.4817 13.6347 33.5387C13.6897 33.5831 13.8075 33.5958 13.8782 33.5704C14.0117 33.5261 14.0038 33.5197 13.8625 33.4753L13.7054 33.4183H13.8625C13.996 33.4119 14.0038 33.3992 13.9017 33.3422C13.8075 33.2851 13.8075 33.2787 13.9253 33.3105C14.3494 33.4246 14.4516 33.4246 14.4044 33.3295C14.3809 33.2787 14.3966 33.2153 14.4437 33.19C14.4987 33.1709 14.5301 33.2027 14.5301 33.2787C14.5301 33.4309 14.5929 33.4436 14.7893 33.3168C14.8757 33.2724 14.9857 33.247 15.0328 33.2597C15.0878 33.2787 15.1821 33.247 15.237 33.1963C15.292 33.1392 15.3627 33.1139 15.402 33.1329C15.5041 33.1836 15.4884 33.0505 15.3784 32.8983C15.292 32.7905 15.2999 32.7588 15.4334 32.6763C15.5198 32.6256 15.6376 32.6002 15.7083 32.6256C15.7712 32.6509 15.8968 32.67 15.9754 32.6827ZM15.1899 33.0441C15.2527 33.0822 15.2449 33.0948 15.182 33.0948C15.1349 33.0948 15.0642 33.0631 15.0407 33.0314C15.0092 32.9934 14.9464 32.987 14.8993 33.0124C14.8443 33.0378 14.86 33.0061 14.9228 32.9427C15.0092 32.8539 15.0407 32.8475 15.0721 32.9109C15.0878 32.9617 15.1428 33.0188 15.1899 33.0441ZM14.6872 33.0061C14.6872 33.0568 14.6558 33.0822 14.6087 33.0631C14.5694 33.0441 14.5301 32.9997 14.5301 32.9617C14.5301 32.93 14.5694 32.9046 14.6087 32.9046C14.6558 32.9046 14.6872 32.949 14.6872 33.0061ZM13.7132 33.2027C13.6975 33.2661 13.619 33.3231 13.5247 33.3358C13.4383 33.3485 13.3441 33.4056 13.3283 33.4626C13.3048 33.5261 13.2891 33.507 13.2812 33.4056C13.2734 33.2914 13.3283 33.2217 13.454 33.1709C13.6975 33.0758 13.7368 33.0822 13.7132 33.2027ZM12.5036 33.3358C12.4486 33.3485 12.4251 33.3865 12.4565 33.4183C12.48 33.45 12.48 33.4753 12.4565 33.4753C12.4329 33.4753 12.3779 33.4183 12.3387 33.3548C12.268 33.247 12.2758 33.2407 12.4251 33.2724C12.5272 33.2914 12.5586 33.3168 12.5036 33.3358ZM12.1187 33.4119C12.0952 33.4817 12.0402 33.5387 12.0009 33.5387C11.9538 33.5387 11.9381 33.5007 11.9616 33.45C11.9852 33.3992 11.9695 33.3422 11.9145 33.3231C11.8595 33.3105 11.8988 33.2914 11.993 33.2914C12.1187 33.2851 12.1501 33.3105 12.1187 33.4119ZM15.7869 34.7563C15.7869 34.8641 15.7633 34.8768 15.7162 34.8134C15.6769 34.7626 15.6298 34.7563 15.5983 34.7943C15.5434 34.8641 15.5748 34.8895 15.8104 34.9529C15.9282 34.9909 15.944 34.9719 15.9047 34.8768C15.8811 34.807 15.8968 34.7373 15.944 34.7119C16.0696 34.6485 16.0853 34.6802 16.1482 34.9782L16.1953 35.2446L15.8968 35.289C15.724 35.308 15.5591 35.3524 15.5119 35.3777C15.4334 35.4221 15.3234 35.4538 14.805 35.568C14.6794 35.5933 14.3023 35.6758 13.9724 35.7455C13.3676 35.8787 12.7 35.9675 12.1423 35.9738C11.836 35.9802 11.8281 35.9802 11.7338 35.6631C11.6789 35.4919 11.6631 35.3207 11.6946 35.2826C11.7338 35.2509 11.7417 35.1368 11.726 35.0416C11.7103 34.9338 11.726 34.8768 11.7731 34.8958C11.8124 34.9148 11.8674 34.8958 11.8909 34.8577C11.9145 34.8134 11.9302 34.8831 11.9224 35.0099C11.9066 35.1368 11.9302 35.2636 11.9616 35.289C11.993 35.3143 12.0166 35.3016 12.0166 35.2636C12.0166 35.2192 12.0952 35.1875 12.1973 35.1875C12.3387 35.1875 12.3465 35.1748 12.2523 35.1241C12.1894 35.0924 12.1737 35.0607 12.213 35.0607C12.2601 35.0607 12.2444 35.0353 12.1816 35.0036C12.103 34.9655 12.1344 34.9275 12.3151 34.8514L12.5586 34.7563L12.5272 34.9338C12.5036 35.1114 12.6371 35.1621 12.7785 35.029C12.8099 35.0036 12.7942 34.9973 12.7314 35.029C12.6607 35.0607 12.6371 35.0543 12.6764 35.0099C12.7864 34.8704 12.8806 34.9338 12.8806 35.1431C12.8806 35.2572 12.9356 35.4094 13.0063 35.4792C13.0691 35.5426 13.1084 35.568 13.0849 35.5236C13.022 35.4221 13.1791 35.3524 13.2969 35.4285C13.4462 35.5236 13.8075 35.5743 14.0117 35.5299C14.1452 35.5046 14.2002 35.4475 14.2002 35.3333V35.1685L14.051 35.3207C13.9174 35.4602 13.8625 35.4475 13.8939 35.289C13.9017 35.2572 13.8389 35.2509 13.7446 35.2699C13.6582 35.289 13.5718 35.2826 13.5483 35.2509C13.5247 35.2255 13.3833 35.2129 13.2341 35.2255C13.0849 35.2319 12.9592 35.2192 12.9592 35.1812C12.9592 35.1494 12.9827 35.1304 13.022 35.1304C13.0534 35.1368 13.0927 35.1368 13.1163 35.1304C13.1398 35.1241 13.3912 35.1114 13.674 35.0987C13.9646 35.086 14.2473 35.0543 14.3023 35.0226C14.4594 34.9465 14.9228 34.9275 14.9228 34.9973C14.9228 35.0353 14.7815 35.0797 14.6087 35.0987C14.4359 35.1241 14.318 35.1685 14.3416 35.2002C14.373 35.2382 14.5144 35.2446 14.6793 35.2192C15.2135 35.1368 15.3156 35.1368 15.3156 35.1938C15.3156 35.2763 15.5041 35.2636 15.6141 35.1748C15.7476 35.067 15.4962 34.8387 15.3391 34.9402C15.2606 34.9972 15.237 34.9846 15.237 34.8768C15.237 34.769 15.2684 34.7436 15.3863 34.7753C15.4648 34.7943 15.5748 34.769 15.6298 34.7119C15.7633 34.5851 15.7869 34.5914 15.7869 34.7563ZM16.1403 36.3606C16.1403 36.6206 16.1167 36.8426 16.0932 36.8553C15.9989 36.9123 15.4805 37.0075 15.5198 36.9567C15.5434 36.925 15.4884 36.8997 15.402 36.8997C15.3156 36.8997 15.237 36.9504 15.2213 37.0075C15.1978 37.1026 15.1899 37.1026 15.0564 37.0011C14.9464 36.906 14.8993 36.8997 14.7972 36.9694C14.7108 37.0265 14.6401 37.0265 14.5065 36.9694C14.4123 36.9314 14.2473 36.906 14.1374 36.925C14.0274 36.9377 13.8625 36.9567 13.7604 36.9567C13.6504 36.9631 13.5954 36.9884 13.6347 37.0328C13.6661 37.0836 13.6347 37.0836 13.5169 37.0328C13.4305 36.9884 13.3519 36.925 13.3519 36.887C13.3519 36.8299 13.3755 36.8299 13.4383 36.8806C13.564 36.9821 14.0038 36.8553 13.9489 36.7348C13.9253 36.6841 13.941 36.646 13.9803 36.646C14.0274 36.646 14.0588 36.6967 14.0588 36.7538C14.0588 36.8426 14.0745 36.8489 14.1295 36.7792C14.1766 36.7158 14.2316 36.7158 14.3573 36.7665C14.5851 36.8616 14.9935 36.7411 14.9464 36.5953C14.9071 36.4621 14.6087 36.4431 14.6087 36.5699C14.6087 36.6143 14.5772 36.6333 14.5301 36.6143C14.4908 36.5953 14.4516 36.5319 14.4516 36.4811C14.4516 36.4304 14.483 36.3987 14.5144 36.4177C14.5537 36.4367 14.6715 36.4114 14.7893 36.3606C14.9778 36.2845 15.0014 36.2845 15.0014 36.367C15.0014 36.4241 15.0407 36.4431 15.0956 36.4177C15.1585 36.386 15.1663 36.4114 15.1271 36.4938C15.0799 36.5889 15.0878 36.6016 15.1663 36.5319C15.2449 36.4748 15.2449 36.4367 15.1742 36.3797C15.1035 36.3226 15.182 36.2592 15.5355 36.1006C15.779 35.9928 16.0225 35.8977 16.0696 35.8914C16.1246 35.885 16.1482 36.0499 16.1403 36.3606ZM13.7839 36.7728C13.8075 36.8045 13.7996 36.8362 13.7525 36.8362C13.7132 36.8362 13.6504 36.8045 13.6268 36.7728C13.6033 36.7348 13.6111 36.7094 13.6582 36.7094C13.6975 36.7094 13.7604 36.7348 13.7839 36.7728ZM13.0377 36.8553C13.1555 36.8489 13.1163 36.868 12.9356 36.9123C12.7 36.9631 12.6136 36.9567 12.5429 36.8997C12.4722 36.8362 12.4722 36.8299 12.5507 36.8616C12.5979 36.887 12.645 36.8743 12.645 36.8362C12.645 36.7982 12.6843 36.7855 12.7471 36.8172C12.7942 36.8426 12.9278 36.8616 13.0377 36.8553ZM18.3789 36.925C18.3789 36.944 18.3475 36.9758 18.3004 36.9948C18.2611 37.0138 18.2218 37.0011 18.2218 36.9694C18.2218 36.9314 18.2611 36.8997 18.3004 36.8997C18.3475 36.8997 18.3789 36.9123 18.3789 36.925ZM12.7314 38.2884C12.7864 38.2187 12.8021 38.2187 12.8021 38.3074C12.8021 38.3899 12.7392 38.4216 12.6057 38.4216C12.3858 38.4216 12.3544 38.3645 12.5115 38.2377C12.59 38.1743 12.6136 38.1806 12.6371 38.2694C12.6528 38.3582 12.6764 38.3582 12.7314 38.2884ZM15.025 38.3074C15.2213 38.3011 15.1899 38.3328 14.9071 38.4533C14.7422 38.5167 14.6401 38.5294 14.6244 38.485C14.6087 38.4533 14.5458 38.4216 14.483 38.4216C14.4201 38.4216 14.373 38.3772 14.373 38.3201C14.373 38.2377 14.4201 38.225 14.6322 38.263C14.7657 38.2884 14.9464 38.3074 15.025 38.3074ZM16.6509 38.2948C16.6509 38.3265 16.6116 38.3582 16.5645 38.3582C16.5252 38.3582 16.5095 38.3265 16.5331 38.2948C16.5566 38.2567 16.5959 38.2313 16.6195 38.2313C16.6352 38.2313 16.6509 38.2567 16.6509 38.2948ZM12.9356 38.4343C12.912 38.485 12.8885 38.466 12.8885 38.3962C12.8806 38.3265 12.9042 38.2884 12.9278 38.3138C12.9513 38.3328 12.9592 38.3899 12.9356 38.4343ZM14.2945 38.3201C14.2945 38.3328 14.2395 38.3645 14.1688 38.3835C14.106 38.4026 14.0745 38.3962 14.0981 38.3582C14.1452 38.2948 14.2945 38.2694 14.2945 38.3201ZM13.9803 38.5738C13.9803 38.5928 13.9489 38.6245 13.9017 38.6435C13.8625 38.6626 13.8232 38.6499 13.8232 38.6182C13.8232 38.5801 13.8625 38.5484 13.9017 38.5484C13.9489 38.5484 13.9803 38.5611 13.9803 38.5738Z" fill="#9EFF00"/>
</svg>
