<svg width="125" height="108" viewBox="0 0 125 108" fill="none" xmlns="http://www.w3.org/2000/svg">
<path fill-rule="evenodd" clip-rule="evenodd" d="M114.17 0.580227C114.107 0.931764 114.107 1.48418 114.17 1.83572C114.232 2.23747 113.548 2.38808 112.055 2.28764C110.686 2.13699 110.064 2.28769 110.251 2.58901C110.5 2.89033 110.313 3.04096 109.94 2.94052C108.509 2.53877 109.193 1.73524 111.246 1.48414L113.299 1.18284L111.495 0.881532C109.691 0.580215 107.141 1.73523 107.763 2.53874C107.887 2.73962 107.141 2.78988 105.959 2.63922C103.595 2.3379 101.48 3.59338 103.408 4.19601C104.093 4.39689 104.341 4.29643 104.093 3.79423C103.844 3.29204 104.03 3.14143 104.59 3.3423C105.088 3.49296 105.337 3.79428 105.15 4.0956C104.963 4.3467 105.274 4.54754 105.896 4.49732C106.581 4.4471 108.074 4.39689 109.256 4.44711C111.308 4.49733 111.37 4.54757 110.251 5.35109C109.442 6.00394 109.007 6.10438 108.82 5.60219C108.385 4.64801 106.954 4.89911 105.896 6.10438C105.337 6.70702 104.715 7.05855 104.466 6.85767C104.279 6.6568 104.59 6.15456 105.274 5.75281C106.27 5.15017 106.332 5.04973 105.399 4.99951C104.839 4.99951 103.906 4.84888 103.284 4.648C102.475 4.3969 102.351 4.4973 102.724 5.04972C103.035 5.5017 102.786 5.45151 102.102 4.8991C101.231 4.24624 100.734 4.19604 99.5517 4.59779C98.743 4.89911 98.0588 5.45153 98.0588 5.85328C98.0588 6.20482 97.7477 6.45592 97.3123 6.35548C96.8768 6.30526 96.5658 6.50614 96.5036 6.85767C96.5036 7.61097 95.5706 8.36425 95.5706 7.66118C95.5706 6.80744 94.3265 7.15898 90.9675 8.91667C89.2257 9.82062 87.6084 10.5237 87.3596 10.5237C86.3643 10.5237 86.862 11.4779 87.9816 11.6787C88.5415 11.7792 87.7951 12.0805 86.24 12.3818C84.6849 12.6329 83.5029 13.1351 83.6273 13.4364C83.6895 13.788 83.503 14.039 83.1919 14.039C82.8809 14.039 81.8235 14.2901 80.9526 14.5412C79.4597 14.9932 79.3975 15.1439 80.0817 15.8972C80.8282 16.6505 80.766 16.7007 79.5219 16.4496C78.5888 16.2487 77.9668 16.3491 77.7179 16.8513C77.5313 17.2531 76.8471 17.5544 76.2251 17.5544C75.6031 17.5544 75.0432 17.9059 75.0432 18.3077C75.0432 19.1112 72.9283 20.2161 72.3062 19.7139C71.9952 19.4126 71.6842 20.3165 71.8708 21.1703C71.8708 21.3711 71.4976 21.4213 70.9378 21.2205C70.3157 21.0196 69.8802 21.3209 69.6314 22.024C69.4448 22.5764 68.9472 23.0786 68.5118 23.0786C68.0763 23.0786 66.9566 23.7314 66.148 24.5852C65.2771 25.3887 64.3441 26.0917 64.0953 26.0917C63.2244 26.0917 59.43 29.6071 59.8032 30.1093C59.9898 30.4106 59.741 30.6115 59.2433 30.6115C58.7457 30.6115 57.2528 31.1639 56.0088 31.867C53.645 33.1727 51.7166 33.474 51.0946 32.6203C50.908 32.3692 50.3481 32.2687 49.9127 32.4194C49.4151 32.5701 48.8553 32.4696 48.6064 32.1683C48.3576 31.8168 48.793 31.6159 49.6639 31.5657C50.6177 31.5657 50.5762 31.3983 49.5395 31.0635C48.6686 30.7622 47.7355 30.2098 47.4867 29.808C47.1135 29.3058 46.6781 29.2556 45.9938 29.5569C44.8741 30.0591 42.697 29.7076 42.697 29.0045C42.697 28.7534 42.4482 28.7032 42.075 28.8538C41.764 29.0045 41.6396 28.8538 41.8262 28.4018C42.0128 28.0001 42.5726 27.7992 43.0703 27.9499C43.5679 28.1006 43.9411 28.0503 43.9411 27.8996C43.9411 27.4477 41.0175 26.5437 38.6538 26.2424C36.5388 25.9411 35.7301 25.5895 37.2852 25.5895C37.9073 25.5895 38.3428 25.3887 38.3428 25.1376C38.3428 24.5349 36.7254 24.083 34.6105 24.083C33.6152 24.083 32.62 23.8319 32.4334 23.5808C32.1845 23.2794 31.5625 23.179 31.0026 23.2795C30.3806 23.4301 29.5719 23.3799 29.1365 23.1288C28.5767 22.8777 29.0121 22.7271 30.2562 22.6768C31.3759 22.6768 32.3711 22.5262 32.5577 22.4257C32.6821 22.2751 31.0649 21.4715 28.9499 20.6178C25.0311 19.061 23.5382 18.609 25.2799 19.6134C26.0263 20.0152 25.9641 20.1156 24.9689 19.965C24.2846 19.8645 23.7248 19.4628 23.7248 19.061C23.7248 18.7095 22.7295 18.1571 21.5476 17.906C20.3657 17.6549 19.0595 17.2531 18.7484 17.0522C18.3752 16.8011 16.7579 16.8514 15.0784 17.1527C13.3989 17.4038 11.906 17.454 11.6571 17.2531C11.1595 16.6505 8.48475 16.6003 8.48475 17.1527C8.48475 17.3536 7.86266 17.5544 7.11621 17.5544C5.87213 17.5544 5.87213 17.6047 6.80519 18.4584C7.98707 19.513 8.29815 22.3253 7.17848 21.7729C6.80525 21.6222 6.92966 22.024 7.4895 22.6768C8.92019 24.4345 8.23595 25.69 6.24541 25.0873C4.44149 24.5349 4.31708 25.0874 5.93439 26.2926C6.61864 26.7948 7.48947 27.0459 7.9249 26.7948C8.36032 26.5939 8.54692 26.6442 8.29811 26.9455C8.04929 27.2468 8.48473 27.5984 9.16898 27.749C10.1642 27.9499 10.3509 27.8494 10.102 27.2468C9.79102 26.594 9.85324 26.5437 10.6619 27.0961C11.4705 27.6485 13.3989 27.5984 16.8823 26.9455C17.5666 26.8451 17.7531 26.8451 17.3177 26.9455C16.8201 27.0962 16.6335 27.4979 16.8201 27.8494C17.0067 28.3014 16.7579 28.4521 16.0114 28.3516C15.3894 28.2512 14.5186 28.4018 14.0209 28.6529C13.5233 28.904 13.4611 29.1049 13.7721 29.1551C16.7579 29.4564 19.0595 30.2098 19.0595 30.8124C19.0595 31.4652 21.2988 31.4652 23.9113 30.8626C24.9066 30.5613 25.2799 30.712 25.2799 31.3146C25.2799 31.9172 24.9066 32.0679 23.787 31.8168C22.9783 31.6661 22.1697 31.7666 21.9208 32.0177C21.7342 32.2688 22.7295 32.4697 24.0358 32.4697C25.7775 32.4697 26.524 32.2688 26.524 31.7666C26.524 31.3648 26.835 31.2141 27.2082 31.3648C27.6436 31.6159 27.3326 32.1683 26.4618 32.9216C25.7153 33.5744 25.2798 34.2776 25.4664 34.4784C25.7153 34.6291 25.9019 34.6793 25.9019 34.4784C25.9019 34.3278 26.7106 34.4282 27.768 34.6793C28.7633 34.9806 29.4476 35.4326 29.261 35.6837C28.7633 36.3867 29.8208 36.1859 31.1271 35.3824C32.1846 34.7295 32.4955 34.7295 33.4908 35.4828C34.1128 35.9348 35.5435 36.2864 36.601 36.2361C37.7207 36.2361 39.2758 36.5374 40.0222 36.9392C40.7687 37.2907 41.8262 37.6422 42.386 37.6422C42.9459 37.6422 43.2569 37.8431 43.0081 38.0942C42.8214 38.3453 43.3191 38.6969 44.0655 38.7973C44.9364 38.9312 44.8742 39.0317 43.8789 39.0986C42.9459 39.0986 41.764 38.6969 41.1419 38.1444C40.5199 37.5418 39.5868 37.2405 39.1514 37.3911C38.6537 37.4916 38.4672 37.3911 38.6538 37.14C38.8404 36.8387 38.4671 36.6379 37.7829 36.6379C36.2278 36.6379 36.1034 37.2907 37.4097 38.2951C38.2183 38.9982 38.1561 39.1489 36.601 39.5506C35.1081 40.0026 35.0459 40.103 36.29 40.103C37.0364 40.1532 37.9695 40.555 38.2806 41.007C38.6538 41.5092 38.9648 41.6096 38.9648 41.2581C38.9648 40.1533 40.0844 40.6052 40.3333 41.9109C40.5199 42.614 40.3955 43.1664 39.96 43.1664C39.5868 43.1664 39.96 43.5179 40.7065 43.9699C41.8883 44.6228 41.9506 44.8739 41.3908 45.8281C40.9553 46.4307 40.271 47.1338 39.7734 47.3346C39.338 47.5857 39.0892 47.9372 39.2758 48.2386C39.5246 48.4897 39.2136 48.6906 38.6538 48.6906C38.0939 48.6906 37.7829 48.8914 38.0317 49.1425C38.2183 49.3936 37.5341 50.0967 36.4766 50.6993C35.4814 51.302 34.6105 52.1055 34.6105 52.457C34.6105 52.8588 34.0507 53.4112 33.3042 53.7125C32.62 54.064 32.1846 54.6165 32.3712 54.968C32.4956 55.3195 32.2468 55.7715 31.7491 55.9222C31.1893 56.0728 31.0027 56.4244 31.1893 56.7257C31.3759 56.9768 31.0026 57.2279 30.3184 57.2279C29.1365 57.2279 28.7011 57.7301 28.9499 58.8852C29.0121 59.086 28.0791 59.99 26.835 60.9441C25.6531 61.8481 24.9066 62.8023 25.1554 63.0031C25.4042 63.1538 25.0932 63.5555 24.4712 63.8066C23.9114 64.1079 23.4137 64.5097 23.4137 64.811C23.4137 65.0621 22.7917 65.8656 22.0452 66.5185C18.5618 69.4815 18.2508 70.285 20.3657 70.285C21.5476 70.285 21.6098 70.3854 20.8634 71.1387C20.0547 71.892 20.1169 71.892 21.2366 71.3396C21.9831 70.988 23.1649 69.9334 23.9113 68.9793C25.031 67.5731 25.6531 67.2718 27.3326 67.322L29.3231 67.3723L27.5814 67.8745C26.3995 68.226 25.7153 68.8286 25.4664 69.833C25.2798 70.6365 24.9067 71.44 24.5956 71.5907C24.3468 71.6911 24.2224 72.1431 24.4712 72.5449C24.7822 73.2479 24.5334 73.3986 22.6673 73.499C20.8633 73.5995 20.739 75.8091 22.4807 75.8091C22.9783 75.8091 23.2893 76.2611 23.2271 76.8135C23.1649 77.7175 23.1027 77.7175 22.0452 76.9642C21.4232 76.5122 20.9256 76.4118 20.9256 76.6629C20.9256 76.9642 20.4279 77.165 19.8681 77.1148C19.246 77.1148 18.8106 77.366 18.935 77.6673C18.9972 78.0188 18.7485 78.3201 18.3752 78.3201C18.0642 78.3201 17.9398 78.521 18.1264 78.8223C18.313 79.0734 18.1886 79.3245 17.8776 79.3245C17.5043 79.3245 17.1933 79.676 17.1933 80.0778C17.1933 80.4795 16.9445 80.8311 16.5713 80.8311C16.2603 80.8311 15.9492 81.1324 15.9492 81.5342C15.9492 82.0364 16.4469 82.187 17.5665 82.0364C18.5618 81.8857 18.9973 81.9861 18.7484 82.3377C18.5618 82.5888 17.8776 82.8399 17.2555 82.8399C16.6957 82.8399 15.887 83.091 15.4516 83.4425C15.0162 83.7941 14.7052 83.8443 14.7052 83.5932C14.7052 83.3923 14.1453 83.6936 13.4611 84.3465C12.7768 84.9993 12.217 85.9033 12.217 86.4054C12.217 87.4601 9.97763 88.6151 9.48 87.912C9.23118 87.6609 9.47997 87.1588 9.9154 86.757C10.7863 86.1042 12.217 84.1456 12.217 83.6936C12.217 83.543 11.6572 83.3421 10.9729 83.1914C10.2887 83.0408 9.85322 83.1412 10.102 83.3923C10.2887 83.6434 10.1021 83.8443 9.66664 83.8443C9.23121 83.8443 9.04454 83.9949 9.29336 84.1456C9.47997 84.2962 9.10681 84.9491 8.42256 85.5015C7.73831 86.1042 7.36509 86.8575 7.4895 87.209C7.67611 87.5103 7.30284 87.9121 6.743 88.0125C5.87214 88.1632 5.80997 88.2636 6.61862 88.5147C7.11626 88.6654 8.29811 88.9165 9.23117 89.0671C10.413 89.268 10.8485 89.6697 10.7863 90.3226C10.7863 90.875 10.4753 91.1763 10.1642 91.0257C9.60439 90.7746 7.24066 92.7332 7.24066 93.4865C7.24066 93.7376 7.61384 93.7877 8.04927 93.6371C8.4225 93.4362 8.23592 93.6873 7.61387 94.0891C6.61861 94.7419 6.24535 94.7419 5.87213 94.2398C5.62331 93.9384 5.37454 93.8882 5.37454 94.1895C5.37454 94.4406 5.68555 94.9428 6.05877 95.2441C6.80522 95.8468 5.74775 96.6503 4.81469 96.1481C4.00603 95.7965 5.2501 92.8838 6.12096 93.0345C6.49418 93.0847 6.92961 92.8336 7.05402 92.4821C7.55166 91.4275 4.50367 91.7789 3.5706 92.934C2.94856 93.7877 2.94856 94.0891 3.5706 94.3904C4.13044 94.6917 3.88161 95.1437 2.69973 96.0978C1.76667 96.8511 1.20685 97.7551 1.39346 98.1568C1.64227 98.5586 1.51784 98.9101 1.20682 98.9101C0.895794 98.9101 0.646978 99.3621 0.584774 99.9647C0.460365 100.768 0.647023 100.869 1.33127 100.417C1.8289 100.115 2.51315 99.9647 2.88637 100.166C3.38401 100.417 3.2596 100.718 2.57535 101.12C1.64229 101.672 1.70445 101.823 2.76192 102.827C3.38396 103.43 4.13047 103.781 4.37929 103.581C4.5659 103.43 4.7525 103.48 4.7525 103.781C4.7525 104.083 5.31234 104.434 5.99658 104.585C7.55169 104.886 7.73825 103.179 6.18315 102.727C5.31229 102.425 5.31232 102.325 6.36979 101.672C6.99183 101.27 8.04929 100.919 8.60913 100.919C9.16896 100.919 9.66664 100.517 9.66664 100.065C9.72885 98.0062 9.97762 97.4538 10.7863 97.1525C11.3461 97.0018 11.5327 96.5499 11.3461 95.9974C11.0351 95.3446 11.4083 94.8926 12.528 94.4908C13.4611 94.1393 13.8965 93.6371 13.7099 93.1851C13.5233 92.7833 14.0209 92.03 14.7674 91.4274C15.576 90.8248 16.2602 89.9208 16.3846 89.4186C16.5091 88.6653 16.2602 88.5147 15.1406 88.7156C13.5233 89.0671 13.7721 88.7658 15.8871 87.8618C16.8201 87.4601 17.1933 87.4601 16.9445 87.8116C16.6957 88.1129 16.7579 88.364 17.0689 88.364C17.4421 88.364 17.8776 87.8116 18.0642 87.1085C18.313 86.4055 18.7484 85.853 19.0595 85.853C19.4327 85.853 19.6815 85.602 19.6815 85.3006C19.6815 84.9993 20.1169 84.3967 20.6768 83.9949C21.4854 83.3421 21.4854 83.091 20.8011 82.7395C20.2413 82.3879 20.3657 82.3377 21.2988 82.4884C22.1074 82.639 22.8539 82.3377 23.3516 81.7853C23.787 81.1324 23.8492 80.8311 23.3516 80.8311C23.0405 80.8311 22.9161 80.58 23.1027 80.3289C23.2893 80.0276 22.9161 79.8267 22.1697 79.8267C21.4232 79.8267 21.05 79.5756 21.2366 79.3245C21.4854 78.973 21.9831 78.973 22.7917 79.3245C23.6626 79.7263 24.098 79.5254 24.9689 78.4206C25.5909 77.6673 26.8972 76.462 27.8924 75.6585C29.4475 74.5035 29.3853 74.0515 27.6436 74.2021C27.457 74.2523 27.0838 73.951 26.8972 73.499C26.7106 73.0973 26.7728 72.8964 27.0838 73.0471C27.3948 73.1977 27.8302 72.8462 28.0791 72.2938C28.5145 71.1387 28.9499 71.0885 30.2562 71.8418C31.0649 72.2937 31.0648 72.344 30.1318 72.1431C29.2609 71.892 27.9546 73.0973 28.5766 73.5994C29.0743 74.0012 31.5003 72.1431 31.5003 71.3898C31.5003 70.9379 32.309 70.0841 33.3042 69.5317C34.2995 69.0295 35.0459 68.3767 34.8593 68.1758C34.6727 67.9749 35.1703 67.5731 35.9168 67.2718C36.7876 66.87 37.0986 66.3679 36.912 65.715C36.7254 65.2128 36.8498 64.8613 37.0987 65.0119C37.4097 65.1626 37.9695 64.811 38.3428 64.2586C39.027 63.204 39.5246 62.7018 42.8836 59.7891C43.8167 58.9856 44.5632 58.182 44.5632 58.0314C44.5632 57.8807 45.6829 56.8261 46.9891 55.7715C48.2954 54.7169 49.2906 53.6623 49.104 53.5116C48.9174 53.361 49.2285 53.1099 49.7883 52.909C50.3482 52.7584 50.6592 52.457 50.5348 52.2561C50.4103 52.1055 50.9702 51.7038 51.7788 51.3522C52.8363 50.9505 53.3961 50.9505 53.7071 51.302C53.956 51.6535 53.7694 51.7037 53.2096 51.4526C52.7119 51.2015 52.5253 51.2517 52.8363 51.5028C53.1473 51.7539 53.5827 51.9548 53.7693 51.9548C54.0182 51.9548 54.578 52.1557 54.9512 52.3566C55.3867 52.5575 56.2576 52.5072 56.9418 52.2059C58.5591 51.5028 59.3055 51.5531 59.6787 52.3566C59.9276 52.8588 59.6165 53.0095 58.6835 52.8588C57.5638 52.6579 57.315 52.909 57.2528 53.8632C57.1906 54.8676 57.5016 55.1689 58.8701 55.42C59.8654 55.5706 60.7985 56.0729 60.9851 56.5751C61.1717 57.1275 61.9181 57.5292 62.6024 57.5795C64.1575 57.6799 65.9614 59.0358 65.0905 59.4878C64.7795 59.6384 64.4685 59.5882 64.4685 59.3371C64.4685 59.0358 63.9708 58.6842 63.411 58.5336C62.4779 58.2323 62.478 58.3327 63.5354 59.2367C64.1575 59.7891 65.0906 60.2411 65.6504 60.2411C66.6457 60.2411 68.5739 62.1494 68.3251 62.8525C68.0763 63.5556 69.6314 63.2542 70.7511 62.4507C71.7464 61.7477 71.8708 61.7476 72.555 62.752C73.2393 63.7564 73.1771 63.8066 71.9952 63.3044C70.9377 62.8022 70.7511 62.8525 71.0621 63.5053C71.3109 63.9071 71.6842 64.2586 72.0574 64.2586C72.3684 64.2586 72.4306 64.56 72.1818 64.8613C71.8708 65.3133 72.0574 65.263 72.7416 64.811C73.3637 64.4093 73.9857 64.2586 74.2345 64.4595C74.4211 64.6102 74.2967 64.7608 73.8613 64.7608C73.4259 64.7608 73.2393 64.9617 73.4881 65.2128C73.6747 65.4639 74.8566 65.5644 76.1006 65.4137C77.718 65.2128 78.2156 65.263 77.9046 65.6648C77.6558 66.0163 77.0338 66.2674 76.5361 66.2674C75.9763 66.2674 75.1054 66.6692 74.5455 67.1212C73.6747 67.8242 73.6747 67.9247 74.4212 67.6736C74.981 67.5229 75.9141 67.6735 76.5983 68.0753C77.6558 68.7281 77.6558 68.7784 76.6605 68.7784C76.1007 68.7784 75.7897 69.0295 75.9763 69.2806C76.2251 69.5819 76.5983 69.6823 76.9093 69.5317C77.6558 69.1801 80.2683 70.2348 79.7707 70.6868C79.5219 70.8374 80.2683 71.2894 81.3258 71.6409C82.3833 71.9925 83.0676 72.4946 82.8187 72.796C82.3833 73.3484 83.7518 73.4488 85.2447 72.9968C86.0534 72.7457 86.1156 72.4946 85.6179 71.9924C85.1825 71.6409 84.4983 71.4903 84.0006 71.6409C83.503 71.7916 83.1298 71.6911 83.1298 71.4903C83.1298 71.2392 84.3116 70.9881 85.8045 70.9881C87.2352 70.9378 87.9194 70.9881 87.3596 71.1387C85.9911 71.4401 85.9289 71.9924 87.2352 72.9968C87.9817 73.5995 87.9816 73.8003 87.3596 73.8505C86.9242 73.8505 87.1108 74.0514 87.7951 74.3025C88.7281 74.6039 88.7903 74.7545 88.0439 74.7545C87.4841 74.8047 86.862 74.6541 86.6132 74.4532C86.4266 74.2523 85.5557 74.0515 84.8092 73.951C83.4407 73.8004 83.4408 73.8506 84.9959 74.9052C85.9911 75.6083 86.1777 75.8594 85.4935 75.6585C84.8714 75.4576 84.3738 75.558 84.3738 75.8091C84.3738 76.4118 86.4887 77.3157 87.9816 77.3157C88.9769 77.3157 89.1636 77.617 88.977 79.0734C88.8526 80.3289 89.1013 80.8311 89.7234 80.8311C90.221 80.8311 90.7808 81.1826 91.0296 81.6346C91.4029 82.3879 91.5273 82.3879 92.2737 81.5342C93.0824 80.6302 93.3934 81.032 93.1446 82.639C93.0202 83.3923 94.8241 83.9447 95.2596 83.3421C96.1304 82.2372 97.9343 82.8399 98.3698 84.3967C98.6808 85.6019 99.054 85.9033 99.9871 85.7024C100.609 85.5518 101.045 85.6522 100.796 85.9033C100.485 86.305 101.356 86.4557 104.777 86.5059C105.523 86.5561 106.145 86.757 106.145 87.0081C106.145 87.2592 104.901 87.3597 103.408 87.2592C101.045 87.0081 100.671 87.1085 100.982 87.8116C101.231 88.4645 101.169 88.5147 100.671 87.8618C100.298 87.4601 100.174 86.9579 100.36 86.6565C100.609 86.4054 100.298 86.305 99.7382 86.5059C99.1162 86.6566 98.6808 86.6566 98.6808 86.4557C98.6808 86.2548 97.9343 86.0539 97.0012 86.0037L95.2596 85.9535L96.8147 86.5059C99.8005 87.661 100.111 87.9121 99.1784 88.5147C98.743 88.8662 98.4319 89.0671 98.5563 89.0169C98.6807 89.0169 99.4894 89.268 100.36 89.6195C101.231 89.971 102.289 90.1719 102.724 90.0715C103.097 89.9208 103.47 90.1217 103.47 90.5235C103.47 90.9755 102.973 91.1763 102.164 91.0257C101.107 90.8248 101.045 90.875 101.791 91.327C102.537 91.779 102.6 91.9296 101.853 92.3314C100.796 92.8838 102.04 93.6371 103.159 93.0847C104.03 92.6327 108.509 92.6327 109.069 93.0345C109.255 93.2353 108.509 93.386 107.327 93.4362C106.145 93.4362 104.715 93.6371 104.093 93.7878C103.097 94.1393 103.097 94.2397 103.906 95.1437C104.777 96.0476 104.839 96.0477 104.901 95.2441C104.901 94.0389 106.145 94.1393 106.145 95.3948C106.145 96.0476 106.456 96.2987 107.141 96.0476C107.638 95.897 107.949 95.4952 107.763 95.1437C107.452 94.3904 110.313 93.7877 110.873 94.4406C111.059 94.6917 110.748 94.8926 110.251 94.8926C109.691 94.8926 109.256 95.0934 109.256 95.3948C109.256 95.6459 110.002 95.897 110.935 95.897C112.241 95.897 112.428 96.0477 111.868 96.4996C111.246 97.0018 110.811 97.0018 109.815 96.4494C108.882 95.9974 108.322 95.9472 107.825 96.3489C107.327 96.7507 107.514 96.9014 108.447 96.9014C109.193 96.9014 109.878 97.1524 110.002 97.4538C110.375 98.3075 112.117 97.4538 112.926 96.0978C113.299 95.3948 113.361 94.9428 113.05 95.1437C112.677 95.2943 112.117 94.993 111.806 94.4406C111.246 93.6371 111.308 93.5367 112.49 93.7878C113.485 93.9886 113.672 93.8882 113.299 93.386C112.926 92.8838 113.05 92.7834 113.796 93.0345C114.605 93.2856 114.854 93.0847 114.854 92.3314C114.854 91.779 114.605 91.4274 114.294 91.5781C113.983 91.7287 113.61 91.5279 113.361 91.1261C113.174 90.7243 113.237 90.423 113.485 90.423C115.227 90.6239 115.476 90.3226 114.481 89.1173C113.423 87.8116 113.672 87.661 116.533 87.7112C116.969 87.7614 117.155 87.5605 116.969 87.2592C116.782 87.0081 116.285 86.9077 115.911 87.0081C114.481 87.4099 112.055 85.9535 111.868 84.6478C111.806 83.6434 111.992 83.4425 112.863 83.6936C113.423 83.8945 114.294 84.3465 114.729 84.698C115.165 85.0496 115.849 85.3508 116.222 85.3508C116.596 85.3508 116.72 85.2002 116.533 84.9993C116.285 84.8487 116.409 84.3967 116.844 83.9949C117.342 83.4927 117.342 83.3923 116.596 83.5932C115.974 83.794 115.538 83.5429 115.289 82.8399C114.978 81.8857 114.667 81.7853 112.926 82.0866C110.997 82.4381 110.935 82.4381 111.93 81.5844C112.552 81.1324 113.485 80.8813 114.045 81.032C114.916 81.3333 114.916 81.2329 114.17 80.4796C113.672 79.9774 112.739 79.1739 112.117 78.7219C111.495 78.2197 111.246 77.8179 111.619 77.8179C112.614 77.8179 111.868 76.462 110.686 76.1104C110.126 75.9096 109.255 76.0603 108.696 76.4118C107.763 77.0144 107.763 76.9642 108.633 76.0602C109.131 75.5078 109.815 74.9052 110.064 74.7545C110.375 74.6039 109.815 73.951 108.82 73.3484C105.648 71.3898 103.719 69.8832 104.093 69.5819C104.341 69.4312 104.155 69.2806 103.782 69.2806C103.346 69.2806 103.035 68.9792 103.035 68.5775C103.035 68.1757 102.164 67.4225 101.107 66.8701C100.049 66.3679 99.3028 65.7652 99.4272 65.6146C99.676 65.2128 95.5084 62.7018 95.0107 63.0031C94.7619 63.1036 94.5131 62.6014 94.4509 61.8983C94.3265 60.4922 92.5847 59.1362 91.4029 59.4878C90.9674 59.5882 90.7808 59.3873 91.0296 58.9354C91.4029 58.0816 88.9147 56.2737 87.2352 56.2235C86.4888 56.2235 86.24 55.9724 86.4888 55.4702C86.6754 55.0684 86.551 54.7169 86.3021 54.7169C85.9911 54.7169 84.2494 53.5619 82.4455 52.2059C80.6416 50.7998 78.7754 49.6949 78.34 49.6949C77.9046 49.6949 77.5314 49.4438 77.5314 49.1927C77.5314 48.4395 73.0526 45.1752 72.4306 45.4765C72.1818 45.6271 71.933 45.3761 71.933 44.9241C71.933 44.5223 71.3109 43.9197 70.5645 43.6184C69.7558 43.3673 68.2007 42.7144 67.0189 42.2122L64.9661 41.3083L67.3299 39.3497C68.6984 38.2951 71 36.5876 72.4929 35.6335C73.9858 34.6793 75.7897 33.4238 76.5361 32.8212C77.2204 32.2185 78.4644 31.6159 79.273 31.415C80.0195 31.2141 80.6416 30.712 80.6416 30.3102C80.6416 29.9084 80.8282 29.6574 81.1392 29.7578C81.388 29.9085 82.1345 29.5569 82.7565 29.0547C83.503 28.5023 83.6274 28.1005 83.1919 28.1005C82.7565 28.1005 82.5699 27.8996 82.7565 27.6485C82.9432 27.3974 83.6273 27.297 84.2494 27.3974C84.8714 27.5481 86.1778 26.9957 87.484 26.0917C88.6659 25.238 90.4076 24.3843 91.3407 24.2336C92.2737 24.083 93.3934 23.631 93.7666 23.2795C94.1399 22.8777 94.7619 22.5764 95.1351 22.5764C95.4461 22.5764 96.1926 22.1746 96.7525 21.6725C97.8722 20.7183 101.791 18.8601 101.791 19.3121C101.791 19.4628 103.097 19.0108 104.652 18.3077C106.207 17.6046 107.327 17.2531 107.078 17.5042C106.892 17.8055 108.074 17.6549 109.691 17.2531C111.308 16.8011 113.548 16.3994 114.543 16.2989C117.093 16.098 121.759 14.5412 121.385 14.039C121.199 13.7879 121.634 13.4866 122.318 13.2857C123.873 12.884 123.936 12.0303 122.505 12.0303C121.696 11.98 121.883 11.7792 123.127 11.2268C124.06 10.825 124.807 10.2726 124.807 9.97126C124.807 9.66995 124.558 9.56951 124.309 9.72017C123.998 9.87083 123.376 9.51929 122.94 8.96687C121.945 7.86204 120.141 7.66116 120.639 8.71578C120.888 9.21797 120.639 9.31842 119.768 9.16776C118.835 8.96689 118.711 8.766 119.27 8.21358C120.017 7.51051 123.749 7.41009 123.189 8.11316C123.003 8.31404 123.314 8.36424 123.873 8.21358C124.558 7.96248 124.682 7.71137 124.185 7.25939C123.687 6.7572 123.687 6.50614 124.309 6.35548C124.744 6.25504 124.496 6.20477 123.811 6.30521C123.003 6.40565 122.318 6.20478 122.132 5.75281C121.883 5.30083 122.07 5.15021 122.692 5.35109C123.811 5.70262 123.811 4.54752 122.629 3.29204C122.007 2.63918 121.323 2.43833 120.203 2.68942C119.084 2.8903 118.586 2.78988 118.586 2.38812C118.586 1.98636 118.399 1.93612 118.088 2.23744C117.529 2.94051 116.347 2.8903 115.476 2.18723C114.916 1.73525 114.916 1.48414 115.476 1.23304C115.911 1.03217 116.471 1.18281 116.782 1.53435C117.28 2.13698 117.404 2.13698 117.902 1.53435C118.275 1.08237 118.586 1.03218 118.835 1.43394C119.084 1.73525 119.644 1.98634 120.017 1.98634C120.452 1.98634 120.203 1.6348 119.581 1.23304C118.959 0.831288 118.213 0.63041 117.902 0.730849C117.653 0.881508 117.28 0.781068 117.031 0.479751C116.471 -0.223323 114.232 -0.122847 114.17 0.580227ZM114.232 3.54313C114.232 4.24621 113.174 4.04533 112.801 3.29204C112.552 2.78984 112.739 2.63923 113.361 2.84011C113.796 2.99077 114.232 3.29204 114.232 3.54313ZM122.07 4.0956C122.318 4.39691 122.256 4.49735 121.883 4.3467C121.51 4.14582 120.888 4.34666 120.452 4.74842C119.644 5.55193 118.275 5.25062 118.959 4.44711C119.146 4.19601 119.581 4.09556 119.892 4.24622C120.203 4.4471 120.452 4.29643 120.452 4.04533C120.452 3.29204 121.51 3.3423 122.07 4.0956ZM102.226 6.30521C102.04 6.45587 101.48 6.50614 101.045 6.35548C100.547 6.20482 100.734 6.05411 101.418 6.05411C102.102 6.00389 102.475 6.15455 102.226 6.30521ZM108.26 6.45589C108.447 6.70699 108.198 7.00832 107.7 7.15898C107.141 7.35986 106.954 7.20919 107.203 6.70699C107.576 5.90348 107.825 5.85326 108.26 6.45589ZM103.346 7.51049C103.159 7.76159 103.284 8.01269 103.595 8.01269C103.968 8.01269 104.279 8.21358 104.279 8.46468C104.279 8.71578 103.657 8.91663 102.911 8.81619C102.102 8.76597 101.48 8.5149 101.48 8.21358C101.48 7.96248 101.667 7.81185 101.978 7.86207C102.226 7.96251 102.413 7.76159 102.413 7.51049C102.413 7.20918 102.724 7.0083 103.097 7.0083C103.408 7.0083 103.533 7.20918 103.346 7.51049ZM117.529 7.41008C118.524 7.76161 118.524 7.86205 117.653 8.91667C117.093 9.5193 116.16 10.0215 115.6 9.97126C114.729 9.97126 114.729 9.87085 115.476 9.61975C116.844 9.11756 116.969 7.61097 115.662 7.35987C114.916 7.20921 114.854 7.10877 115.476 7.10877C115.974 7.10877 116.907 7.25942 117.529 7.41008ZM112.366 9.61975C112.926 9.77041 112.988 9.97128 112.552 10.1722C111.744 10.5739 109.878 9.26822 109.878 8.36426C109.94 8.01273 110.251 8.11312 110.686 8.56509C111.122 9.01707 111.868 9.46909 112.366 9.61975ZM99.9249 9.21797C99.9249 9.31841 99.4894 9.51929 98.9918 9.72017C98.4942 9.87083 98.0588 9.77037 98.0588 9.51928C98.0588 9.21796 98.4942 9.01708 98.9918 9.01708C99.4894 9.01708 99.9249 9.11753 99.9249 9.21797ZM92.4604 10.2224C92.4604 10.3228 91.6517 10.5237 90.6564 10.6241C89.599 10.7246 88.9147 10.6744 89.1013 10.4233C89.4124 10.0215 92.4604 9.82061 92.4604 10.2224ZM120.639 11.3272C120.39 11.8796 120.079 11.9298 119.457 11.4779C118.4 10.7748 118.897 9.97124 120.141 10.3228C120.577 10.4734 120.825 10.9254 120.639 11.3272ZM96.8147 11.277C97.1257 11.1263 97.4989 11.2267 97.7477 11.5281C97.9343 11.7792 97.6855 12.0303 97.1879 12.0303C96.628 12.0303 96.1926 12.181 96.1926 12.3818C96.1926 12.6329 95.1974 12.7835 94.0155 12.7835C92.8336 12.7835 91.8383 12.5827 91.8383 12.3818C91.8383 12.1307 91.5273 12.1307 91.0918 12.3316C90.7186 12.5324 90.5943 12.4823 90.8431 12.1307C91.0297 11.8294 92.2737 11.6787 93.58 11.7792C95.4461 11.9298 95.6327 11.8796 94.5131 11.5281C92.5225 10.8752 92.7092 10.4232 94.6997 11.0259C95.5706 11.3272 96.5036 11.4276 96.8147 11.277ZM94.6375 14.1395C94.9485 13.9386 94.9485 14.0391 94.6997 14.3906C94.4509 14.7421 93.8911 14.8928 93.3934 14.7421C92.8958 14.5412 92.2738 14.7923 92.0872 15.2443C91.9006 15.6963 91.0297 16.0478 90.221 16.0478C88.6659 16.0478 88.1682 16.8011 89.5367 17.2029C89.91 17.3033 89.288 17.3535 88.1061 17.3033C85.5557 17.1527 84.5604 17.5042 85.6801 18.1571C86.3021 18.5086 86.1778 18.5588 85.2447 18.3077C84.0628 18.0566 83.9384 18.2073 84.125 19.4126C84.2494 20.2161 84.1872 20.5174 84.0006 20.1659C83.6896 19.6637 83.4407 19.6637 82.6321 20.1659C81.8856 20.6681 81.7613 20.6681 82.1345 20.1659C82.4455 19.7641 82.1344 19.5632 81.1392 19.5632C79.8329 19.5632 77.9046 21.12 77.8424 22.2751C77.8424 22.5262 77.4691 22.8275 77.0337 22.9781C76.3495 23.1288 76.2873 22.9782 76.8471 22.1746C77.2204 21.6725 77.3448 21.0698 77.1582 20.9694C77.0338 20.8187 77.8424 20.1156 79.0243 19.3623C81.2636 18.0064 82.2589 17.7051 81.5746 18.5588C81.388 18.8099 81.7613 19.061 82.5077 19.061C83.2542 19.061 83.6896 18.8602 83.503 18.6593C83.0053 18.0064 86.7375 15.9474 87.6706 16.2989C88.0438 16.4998 87.8573 16.2487 87.2352 15.8469C86.2399 15.1941 85.8667 15.1941 85.4935 15.6963C85.1824 16.0478 84.9959 15.7465 84.9959 14.8425C84.9959 13.4364 85.058 13.4364 85.8045 14.2901C86.4265 14.943 86.7998 15.0434 87.1108 14.5914C87.3596 14.2901 88.1061 14.1395 88.7903 14.2901C89.4124 14.491 90.5942 14.2399 91.3407 13.7879C92.5848 13.0849 92.8336 13.0849 93.4556 13.7879C93.8289 14.1897 94.3887 14.3404 94.6375 14.1395ZM100.298 15.4954C100.111 15.7465 99.4272 16.0479 98.8052 16.1483C98.0587 16.3492 97.6855 16.0981 97.6233 15.4452C97.5611 14.7924 97.8099 14.5412 98.3698 14.7421C98.8674 14.8928 99.2406 14.8426 99.2406 14.6417C99.054 13.6373 99.4272 13.3862 99.9871 14.1897C100.298 14.6417 100.485 15.2443 100.298 15.4954ZM117.777 14.3403C117.591 14.491 117.031 14.5413 116.596 14.3906C116.098 14.24 116.285 14.0892 116.969 14.0892C117.653 14.039 118.026 14.1897 117.777 14.3403ZM113.174 15.1941C111.681 15.4452 110.5 15.8972 110.5 16.098C110.5 16.3491 109.878 16.55 109.131 16.4998C108.198 16.4998 108.011 16.3994 108.633 16.1985C109.131 16.0478 109.753 15.6461 110.002 15.3447C110.251 14.9932 111.619 14.7421 113.112 14.7421L115.787 14.6919L113.174 15.1941ZM14.3941 19.0108C14.2075 19.3121 14.954 19.3623 16.2603 19.2117C17.5666 19.061 18.4374 19.1615 18.4374 19.4628C18.4374 20.1659 21.361 20.5174 22.1075 19.9148C22.7917 19.3624 22.7295 20.4672 21.983 21.4214C21.6098 21.8733 21.1122 21.9235 19.9303 21.4716C18.8107 21.0698 18.2508 21.0196 17.9398 21.4214C17.6287 21.7729 17.0067 21.7729 15.9492 21.4716L14.3941 21.0196L15.9492 20.2663C16.8201 19.8143 17.0067 19.6134 16.3846 19.7641C15.0162 20.1156 11.595 19.5632 11.595 19.0108C11.595 18.7597 12.3414 18.5588 13.2123 18.5588C14.0831 18.5588 14.643 18.7597 14.3941 19.0108ZM80.3306 21.0698C80.144 21.3209 79.6463 21.572 79.3353 21.572C78.9621 21.572 78.8999 21.3209 79.0865 21.0698C79.2731 20.7685 79.7707 20.5676 80.0817 20.5676C80.455 20.5676 80.5172 20.7685 80.3306 21.0698ZM27.6436 22.3253C27.8302 22.4759 27.2082 22.5764 26.2751 22.5764C25.3421 22.5764 24.098 22.7773 23.5381 23.0284C22.9161 23.2795 21.9208 23.2795 21.2366 23.0284C20.1169 22.6266 20.1169 22.5764 21.4232 22.7773C22.4806 22.9279 22.7917 22.8275 22.5429 22.3253C22.2941 21.8231 22.8539 21.6724 24.7822 21.8733C26.2129 21.9737 27.457 22.1746 27.6436 22.3253ZM11.4705 22.6768C11.8437 22.7271 12.217 22.9279 12.217 23.179C12.217 23.6812 10.0399 23.2795 8.48475 22.476C7.8005 22.1244 7.98712 22.0742 9.10679 22.3253C9.97765 22.5261 11.0351 22.6768 11.4705 22.6768ZM75.6653 22.5764C75.6653 22.8275 74.8566 23.0786 73.7991 23.0786C72.8039 23.0786 71.933 22.8275 71.933 22.5764C71.933 22.2751 72.8039 22.0742 73.7991 22.0742C74.8566 22.0742 75.6653 22.2751 75.6653 22.5764ZM17.8154 23.2795C17.8154 23.3799 18.002 23.9323 18.1886 24.4345C18.4996 25.238 18.4374 25.238 17.6909 24.5349C17.2555 24.083 16.4469 23.631 15.9492 23.4301C15.3272 23.2293 15.4516 23.1288 16.4468 23.1288C17.1933 23.0786 17.8154 23.179 17.8154 23.2795ZM26.524 23.8821C26.524 23.9825 26.0885 24.083 25.5909 24.083C25.0933 24.083 24.6578 23.8821 24.6578 23.5808C24.6578 23.3297 25.0933 23.2292 25.5909 23.3799C26.0885 23.5807 26.524 23.7816 26.524 23.8821ZM73.4881 24.5852C73.6747 24.8362 73.4259 25.0873 72.8661 25.0873C72.3062 25.0873 72.0574 24.8362 72.244 24.5852C72.4306 24.2838 72.7417 24.083 72.8661 24.083C72.9905 24.083 73.3015 24.2838 73.4881 24.5852ZM20.9256 25.3887C20.9256 25.4891 20.4902 25.5895 19.9925 25.5895C19.4949 25.5895 19.0595 25.3887 19.0595 25.0873C19.0595 24.8362 19.4949 24.7358 19.9925 24.8865C20.4902 25.0873 20.9256 25.2882 20.9256 25.3887ZM12.217 25.3887C12.217 25.7904 11.0351 26.0416 10.7241 25.69C10.5375 25.4389 10.7863 25.238 11.2839 25.238C11.7816 25.238 12.217 25.3384 12.217 25.3887ZM29.0121 25.5895C28.5145 25.8406 27.6436 26.0415 27.146 26.0415C26.524 26.0415 26.6484 25.8909 27.457 25.5895C29.1365 24.9869 30.1318 24.9869 29.0121 25.5895ZM16.5713 25.7904C16.5713 25.8909 16.1359 26.142 15.576 26.2926C15.0784 26.4433 14.8296 26.3931 15.0162 26.0917C15.3894 25.5895 16.5713 25.3887 16.5713 25.7904ZM30.8783 26.0917C30.8783 26.3428 30.5672 26.5939 30.194 26.5939C29.883 26.5939 29.7586 26.3428 29.9452 26.0917C30.1318 25.7904 30.4428 25.5895 30.6294 25.5895C30.7538 25.5895 30.8783 25.7904 30.8783 26.0917ZM71.311 26.0917C71.8086 26.3428 71.9952 26.5939 71.622 26.5939C71.311 26.5939 70.5645 26.3428 70.0669 26.0917C69.5692 25.8406 69.4448 25.5895 69.7559 25.5895C70.1291 25.5895 70.8133 25.8406 71.311 26.0917ZM24.0358 27.0961C24.0358 27.5481 22.1074 28.2512 21.7342 27.8996C21.5476 27.749 21.7964 27.3473 22.2319 26.9455C23.1027 26.1922 24.0358 26.2926 24.0358 27.0961ZM33.0554 27.0961C32.8688 27.3472 32.3712 27.5983 32.0601 27.5983C31.6869 27.5983 31.6247 27.3472 31.8113 27.0961C31.9979 26.7948 32.4955 26.5939 32.8066 26.5939C33.1798 26.5939 33.242 26.7948 33.0554 27.0961ZM36.1656 27.0961C36.3522 27.3472 36.29 27.5983 35.9168 27.5983C35.6058 27.5983 35.1081 27.3472 34.9215 27.0961C34.7349 26.7948 34.7971 26.5939 35.1704 26.5939C35.4814 26.5939 35.979 26.7948 36.1656 27.0961ZM68.1386 27.9499C66.8323 29.356 66.7078 29.4063 67.1432 28.5023C67.3921 27.9499 67.1432 27.5984 66.459 27.4477C65.8992 27.297 66.2102 27.1966 67.2055 27.1463C68.8228 27.0961 68.885 27.1966 68.1386 27.9499ZM32.1223 28.6529C32.1223 28.904 32.4955 29.0045 32.9309 28.8036C33.3042 28.6027 33.4286 28.6529 33.1798 28.8538C32.3711 29.6071 30.8783 29.5569 30.8783 28.8036C30.8783 28.4019 31.1893 28.1005 31.5003 28.1005C31.8735 28.1005 32.1223 28.3516 32.1223 28.6529ZM21.6098 29.6573L23.1027 30.6617L21.5476 30.3102C20.6768 30.1595 19.5571 29.7076 19.0595 29.3058C17.5044 28.1005 19.9303 28.4018 21.6098 29.6573ZM39.8357 29.0547C40.0845 29.3058 39.7734 29.4564 39.2758 29.4062C37.9695 29.2556 37.3474 28.6027 38.5293 28.6027C39.0892 28.6027 39.6491 28.8036 39.8357 29.0547ZM27.768 29.5067C27.768 29.7076 27.146 29.9587 26.3995 29.9587C25.2798 30.0591 25.1555 29.9586 25.9019 29.6071C27.0216 29.0045 27.768 28.9543 27.768 29.5067ZM65.4638 30.2098C65.526 30.7622 65.2771 30.9631 64.5929 30.7622C64.0952 30.5613 63.7842 30.6617 64.033 30.9128C64.2196 31.2141 63.8465 31.4653 63.1622 31.4653C62.5402 31.5155 61.9803 31.2141 61.9803 30.8124C61.9803 30.4106 62.5402 30.1093 63.2866 30.1093C64.0331 30.1093 64.4063 29.9084 64.0953 29.5569C63.8465 29.2054 64.0331 29.0547 64.4685 29.2054C64.9039 29.3058 65.3393 29.7578 65.4638 30.2098ZM32.3712 30.9128C32.8688 32.0176 32.8687 32.1181 31.9979 31.9675C31.5625 31.867 31.8113 32.0177 32.6199 32.319C33.3664 32.5701 33.9885 33.0221 33.9885 33.2732C33.9885 33.5243 33.3664 33.5745 32.6199 33.3736C31.8113 33.2229 30.8783 33.0221 30.5672 33.0221C29.6964 32.9216 29.6964 30.9631 30.505 30.5111C31.5003 29.9587 31.9357 30.0089 32.3712 30.9128ZM29.1987 32.6705C28.9499 33.3736 29.1365 33.6749 29.6964 33.6247C31.2515 33.4238 32.1223 33.6247 32.1223 34.1269C32.1223 34.7295 29.6342 34.7798 28.7011 34.2273C28.3901 34.0265 28.0791 33.1727 28.0791 32.2688C28.0791 31.1639 28.2657 30.8124 28.7633 31.1639C29.1987 31.415 29.3853 32.1181 29.1987 32.6705ZM42.4482 31.5657C42.1994 31.8168 42.386 32.1181 42.7592 32.2186C44.0655 32.5701 42.1372 34.7798 40.7687 34.4784C40.1467 34.3278 39.4002 34.4282 39.2136 34.6793C39.027 34.9806 38.5294 34.9304 37.9695 34.5789C37.2853 34.1269 37.0987 34.1771 37.0987 34.6793C37.0365 35.533 34.6727 33.1225 34.6105 32.2186C34.6105 31.7666 34.9215 31.7163 35.7924 32.1181C37.4097 32.7709 38.5294 32.771 37.9695 32.0177C37.6585 31.6159 37.8451 31.5657 38.5293 31.7666C39.0892 31.9172 40.2088 31.867 40.9553 31.6159C42.1994 31.2141 42.697 31.1974 42.4482 31.5657ZM47.3002 33.2732C46.7403 33.5243 45.9939 33.474 45.4962 33.1225C44.1277 32.2185 44.9986 31.6159 46.6781 32.2688C47.9222 32.771 48.0466 32.9216 47.3002 33.2732ZM60.4874 33.926C59.9276 34.3277 59.4922 34.9304 59.4922 35.1815C59.4922 35.4326 59.2434 35.6335 58.8701 35.6335C58.5591 35.6335 58.2481 35.4326 58.2481 35.1815C58.2481 34.4282 61.0472 32.1181 61.2338 32.6203C61.3582 32.9216 60.9851 33.474 60.4874 33.926ZM43.8789 34.2273C43.3191 35.1815 43.3191 35.282 44.0033 34.7295C44.9986 33.9762 46.4293 33.926 46.4293 34.6793C46.4293 34.9304 46.1805 35.081 45.8694 34.9304C45.5584 34.7295 45.434 35.2819 45.5584 36.1357C45.8072 37.3409 45.6828 37.592 44.9364 37.3409C44.3765 37.1903 43.9411 36.8387 43.9411 36.5876C43.9411 36.3365 43.2569 36.2361 42.386 36.3365C41.5152 36.4872 40.8309 36.3365 40.8309 36.0854C40.8309 35.8344 41.2041 35.6335 41.6395 35.6335C42.1372 35.6335 42.8214 35.081 43.1946 34.378C43.5679 33.6749 44.0655 33.1225 44.2521 33.1225C44.4388 33.1225 44.2522 33.6247 43.8789 34.2273ZM48.171 34.9806C48.0466 35.4326 47.4246 35.8343 46.7403 35.9348C45.5584 36.0854 45.5584 36.0352 46.5537 35.4326C47.1757 35.081 47.4867 34.6291 47.2379 34.4784C47.0513 34.2776 47.1758 34.1269 47.6112 34.1269C48.0466 34.1269 48.2954 34.4784 48.171 34.9806ZM50.5969 35.4326C50.4103 35.5832 49.8505 35.6335 49.415 35.4828C48.9174 35.3322 49.1041 35.1815 49.7883 35.1815C50.4726 35.1313 50.8458 35.2819 50.5969 35.4326ZM47.4867 38.8977C47.4867 39.2995 47.2379 39.651 46.9269 39.651C46.3048 39.651 46.2426 38.948 46.8647 38.496C47.4245 37.9938 47.4867 38.044 47.4867 38.8977ZM40.2089 39.199C40.2089 39.4501 40.4577 39.5506 40.8309 39.3999C41.1419 39.2493 41.2663 39.4 41.1419 39.7515C40.7687 40.4546 38.3428 40.7057 38.3428 40.0528C38.3428 39.8519 38.6538 39.651 39.027 39.651C39.338 39.651 39.4624 39.3999 39.2758 39.1488C39.0892 38.8475 39.2136 38.6466 39.5246 38.6466C39.8979 38.6466 40.2089 38.8977 40.2089 39.199ZM41.764 41.6598C41.9506 41.9109 41.8262 42.162 41.5151 42.162C41.1419 42.162 40.8309 41.9109 40.8309 41.6598C40.8309 41.3585 40.9553 41.1576 41.0798 41.1576C41.2664 41.1576 41.5774 41.3585 41.764 41.6598ZM43.9411 41.9611C43.9411 42.3629 43.6923 42.5638 43.3191 42.4131C43.0081 42.2624 42.697 41.9109 42.697 41.6096C42.697 41.3585 43.0081 41.1576 43.3191 41.1576C43.6923 41.1576 43.9411 41.5091 43.9411 41.9611ZM62.5402 47.3849C61.6693 48.1884 60.7984 48.4897 59.9276 48.339C59.0152 48.1716 58.9738 48.3558 59.8032 48.8914C60.8607 49.5945 60.9228 49.6447 59.9276 49.3936C58.6835 49.0421 55.7599 50.0465 55.7599 50.85C55.7599 51.1011 56.2575 51.1513 56.8795 50.9504C57.6882 50.6993 57.7504 50.7998 57.1906 51.2517C56.2575 52.005 55.2 51.4526 55.3244 50.1971C55.3866 49.6949 55.5733 49.2932 55.7599 49.2932C56.9418 49.3937 57.626 49.1425 57.315 48.7408C56.8796 48.1381 58.1237 47.5355 60.1142 47.2844C60.9851 47.184 61.9181 46.9329 62.2914 46.6316C63.5354 45.6272 63.7843 46.2298 62.5402 47.3849ZM45.1852 47.7866C45.123 49.4439 42.5104 50.2976 41.8262 48.8914C41.5774 48.339 41.7018 48.1382 42.3238 48.339C42.9459 48.5399 43.1324 48.3892 42.8836 47.8871C42.697 47.4351 43.0081 47.184 43.8789 47.184C44.6254 47.184 45.1852 47.4853 45.1852 47.7866ZM63.8465 48.3892C63.8465 48.4897 63.411 48.6906 62.9134 48.8914C62.4158 49.0421 61.9803 48.9417 61.9803 48.6906C61.9803 48.3892 62.4158 48.1884 62.9134 48.1884C63.411 48.1884 63.8465 48.2888 63.8465 48.3892ZM40.6443 49.8958C40.3955 50.4482 40.5821 50.5487 41.3285 50.3478C42.075 50.1469 42.1994 50.1972 41.764 50.5989C41.453 50.9002 40.3333 51.2518 39.2758 51.4024C38.2183 51.6033 37.8451 51.5531 38.4049 51.3522C38.9648 51.1011 39.338 50.5487 39.2136 50.0465C39.1514 49.5443 39.4624 49.1927 40.0222 49.1927C40.5821 49.1927 40.8309 49.4941 40.6443 49.8958ZM67.5787 49.6949C67.5787 49.946 67.4543 50.1971 67.3299 50.1971C67.1433 50.1971 66.8323 49.946 66.6456 49.6949C66.459 49.3936 66.5835 49.1927 66.8945 49.1927C67.2677 49.1927 67.5787 49.3936 67.5787 49.6949ZM40.8309 52.1557C40.8309 52.4068 41.4529 52.5073 42.1994 52.3064C43.0702 52.1557 43.3813 52.2562 43.0703 52.6077C42.8836 52.909 41.8262 53.2605 40.8309 53.4614C39.8357 53.6623 38.8404 54.0138 38.6538 54.2649C37.9695 55.0684 37.1608 54.7671 37.2852 53.7125C37.3474 53.1099 37.7207 52.8086 38.0939 52.909C38.5293 53.0597 39.027 52.8086 39.2136 52.4068C39.5868 51.6535 40.8309 51.4526 40.8309 52.1557ZM75.292 52.1557C75.5409 52.4068 75.1054 52.5073 74.4212 52.3566C72.9905 52.0553 72.8039 51.7037 74.048 51.7037C74.5456 51.7037 75.1054 51.9046 75.292 52.1557ZM79.0865 52.2059C79.2731 52.5072 79.0243 52.5575 78.5266 52.4068C77.407 52.0553 77.2204 51.7037 78.0912 51.7037C78.4645 51.7037 78.8999 51.9046 79.0865 52.2059ZM37.0987 55.3698C37.0987 55.5707 37.3474 55.6711 37.5963 55.5204C37.8451 55.42 38.4671 55.4702 38.8403 55.6711C39.4002 55.9222 38.7782 56.324 37.1609 56.8262C34.7971 57.5795 34.7349 57.5795 34.3617 56.5751C34.1751 56.0226 34.1751 55.3698 34.3617 55.1689C34.7349 54.6667 37.0987 54.8174 37.0987 55.3698ZM68.5118 55.2191C68.3252 55.4702 67.6409 55.7213 67.081 55.7213C66.148 55.7213 66.148 55.6209 66.9567 55.2191C68.2008 54.5662 69.0094 54.5662 68.5118 55.2191ZM66.0858 56.8262C66.8737 57.5962 66.853 57.7133 66.0236 57.1777C65.3394 56.6755 64.2197 56.2235 63.5354 56.0729C62.3536 55.872 62.3535 55.8217 63.5976 55.7715C64.2819 55.7715 65.4016 56.2235 66.0858 56.8262ZM77.9668 56.0226C77.7802 56.1733 77.2203 56.2235 76.7849 56.0729C76.2872 55.9222 76.4739 55.7715 77.1582 55.7715C77.8424 55.7213 78.2156 55.8719 77.9668 56.0226ZM85.4313 56.0226C85.2447 56.1733 84.6848 56.2235 84.2494 56.0729C83.7517 55.9222 83.9384 55.7715 84.6227 55.7715C85.3069 55.7213 85.6801 55.8719 85.4313 56.0226ZM33.9885 56.7257C33.9885 56.9768 33.864 57.2279 33.7396 57.2279C33.553 57.2279 33.242 56.9768 33.0554 56.7257C32.8688 56.4244 32.9932 56.2235 33.3042 56.2235C33.6775 56.2235 33.9885 56.4244 33.9885 56.7257ZM74.1101 57.2279C74.359 57.5292 73.7369 57.7301 72.7416 57.7301C71.3731 57.7301 71.1866 57.6296 71.933 57.2279C73.1149 56.6252 73.6125 56.6252 74.1101 57.2279ZM33.864 58.9856C33.9884 59.086 33.3042 59.7388 32.4334 60.5424C30.7538 61.9987 30.6916 63.0534 32.3089 62.9529C32.8687 62.9027 33.1798 63.0533 32.9932 63.3044C32.5578 63.9071 29.1987 63.8569 28.7011 63.3044C28.5145 63.0031 29.0121 62.5512 29.7585 62.1996C30.6709 61.7979 30.7331 61.4631 29.9452 61.1952C28.8255 60.8437 28.8255 60.7935 29.8207 60.7935C30.4428 60.7432 30.816 60.5424 30.6294 60.2913C30.4428 60.0402 30.7538 59.6886 31.3136 59.538C32.2467 59.2367 32.2467 59.1362 31.5003 58.6843C30.816 58.2825 31.0027 58.2323 32.1223 58.5336C32.9932 58.6842 33.7396 58.9353 33.864 58.9856ZM68.8228 58.7345C68.8228 58.9856 68.2007 59.2367 67.4543 59.2367C66.2724 59.2367 66.2102 59.1362 66.9567 58.7345C68.1385 58.0816 68.8228 58.0816 68.8228 58.7345ZM78.34 58.6843C78.5888 58.7345 78.7755 58.9354 78.7755 59.1865C78.7755 59.6887 76.4117 59.3371 75.9763 58.7345C75.7897 58.4834 76.1629 58.3829 76.7227 58.4834C77.3447 58.5838 78.029 58.6843 78.34 58.6843ZM36.2278 60.1406C36.2278 60.6428 35.7301 61.0446 35.1081 61.0446C34.1128 61.0446 34.1128 60.9442 35.0459 60.1406C35.6057 59.6384 36.1034 59.2367 36.1034 59.2367C36.1656 59.2367 36.2278 59.6384 36.2278 60.1406ZM71.4975 60.3917C71.7463 60.2411 71.933 60.3415 71.933 60.6428C71.933 61.3459 71.8086 61.3459 70.4401 60.9441C69.8802 60.7935 69.4448 60.3917 69.4448 60.1406C69.4448 59.7891 69.7558 59.8393 70.2534 60.1908C70.7511 60.4922 71.3109 60.5926 71.4975 60.3917ZM82.5077 59.9398C82.5077 60.3917 80.0196 60.5926 79.6463 60.1908C79.4597 59.9398 80.0196 59.7389 80.8904 59.7389C81.7613 59.7389 82.5077 59.8393 82.5077 59.9398ZM39.027 61.145C38.5916 61.2455 37.9073 61.0948 37.5963 60.8437C37.0986 60.442 37.3475 60.3918 38.4049 60.5926C39.2136 60.7935 39.5246 60.9944 39.027 61.145ZM87.484 61.7476C87.484 61.9987 87.3596 62.2498 87.2352 62.2498C87.0486 62.2498 86.7376 61.9987 86.551 61.7476C86.3644 61.4463 86.4888 61.2454 86.7998 61.2454C87.173 61.2454 87.484 61.4463 87.484 61.7476ZM28.1413 65.0119C27.9546 65.4137 28.0791 65.7652 28.3901 65.7652C28.7633 65.7652 29.0121 65.9661 29.0121 66.167C29.0121 66.4181 28.39 66.5687 27.6436 66.4683C26.8349 66.4181 25.6531 66.3176 24.9689 66.2674C24.098 66.2172 24.3468 66.0163 25.7775 65.715C26.8349 65.4639 27.768 65.0119 27.768 64.7608C27.768 64.4595 27.9546 64.2586 28.1413 64.2586C28.3279 64.2586 28.3901 64.6102 28.1413 65.0119ZM93.0824 65.9661C93.0824 66.0665 92.647 66.2674 92.1494 66.4683C91.6517 66.619 91.2163 66.5185 91.2163 66.2674C91.2163 65.9661 91.6517 65.7652 92.1494 65.7652C92.647 65.7652 93.0824 65.8657 93.0824 65.9661ZM96.8147 66.4683C96.8147 66.5687 96.3793 66.8198 95.8194 66.9705C95.3218 67.1211 95.073 67.0709 95.2596 66.7696C95.6328 66.2674 96.8147 66.0665 96.8147 66.4683ZM20.4901 79.0734C20.3035 79.5254 19.9925 79.7765 19.8681 79.6258C19.6815 79.4751 19.7437 79.1738 19.9925 78.8725C20.5524 78.069 20.9255 78.2197 20.4901 79.0734ZM91.2163 79.5254C91.2163 79.6258 90.7809 79.8769 90.221 80.0276C89.7234 80.1782 89.4746 80.128 89.6612 79.8267C90.0344 79.3245 91.2163 79.1236 91.2163 79.5254ZM106.581 81.936C106.456 82.5386 106.021 83.091 105.585 83.1412C105.212 83.1914 105.15 83.1412 105.523 82.9906C105.834 82.8901 106.021 82.5386 105.772 82.2875C105.585 82.0364 105.648 81.5844 105.834 81.3333C106.456 80.5298 106.767 80.7809 106.581 81.936ZM95.5084 82.3879C94.1399 83.091 93.4556 82.8901 94.3265 82.0866C94.7619 81.6848 95.3839 81.4839 95.695 81.6346C96.0682 81.8355 96.006 82.1368 95.5084 82.3879ZM100.547 83.2416C100.547 83.4927 100.111 83.6936 99.6139 83.6936C99.1162 83.6936 98.6808 83.4927 98.6808 83.2416C98.6808 83.0408 99.1162 82.8399 99.6139 82.8399C100.111 82.8399 100.547 83.0408 100.547 83.2416ZM106.456 88.364C106.27 88.6151 105.71 88.8662 105.337 88.8662C104.901 88.8662 104.963 88.6653 105.523 88.364C106.705 87.7614 106.954 87.7614 106.456 88.364ZM108.944 88.8662C109.131 89.1173 109.069 89.3684 108.696 89.3684C108.385 89.3684 107.887 89.1173 107.7 88.8662C107.514 88.5649 107.576 88.364 107.949 88.364C108.26 88.364 108.758 88.5649 108.944 88.8662ZM112.926 89.3684C112.117 89.8204 110.5 89.4689 110.5 88.8662C110.5 88.6653 111.246 88.6151 112.117 88.7658C113.174 88.9165 113.485 89.1173 112.926 89.3684ZM110.064 91.1261C111.246 91.5279 112.428 91.6786 112.739 91.4777C113.05 91.2768 112.863 91.5279 112.428 91.9799C111.557 92.8838 110.873 92.7833 108.322 91.1763C106.767 90.2221 107.265 90.1719 110.064 91.1261ZM13.2744 91.1763C13.0878 91.327 12.528 91.3772 12.0925 91.2266C11.5949 91.0759 11.7816 90.9252 12.4658 90.9252C13.1501 90.875 13.5233 91.0257 13.2744 91.1763ZM106.145 91.8794C106.145 92.1305 106.021 92.3816 105.896 92.3816C105.71 92.3816 105.399 92.1305 105.212 91.8794C105.026 91.5781 105.15 91.3772 105.461 91.3772C105.834 91.3772 106.145 91.5781 106.145 91.8794ZM12.528 93.2856C12.3414 93.4362 11.8437 93.2855 11.4083 92.934C10.8485 92.4318 10.9107 92.3816 11.7815 92.6829C12.4036 92.8335 12.7146 93.1349 12.528 93.2856ZM4.62804 98.2573C3.81939 99.0608 2.26433 99.111 2.26433 98.3577C2.26433 98.1066 2.57535 98.0062 2.88637 98.1568C3.50842 98.4582 3.75723 97.8053 3.50842 96.3992C3.44621 95.897 3.69498 95.9472 4.31702 96.6503C5.00127 97.3533 5.06347 97.8556 4.62804 98.2573Z" fill="#7765E3"/>
<path fill-rule="evenodd" clip-rule="evenodd" d="M40.8331 32.6189C40.1489 32.9705 40.0867 33.2216 40.5843 33.6233C41.0819 34.0251 41.4552 33.9749 42.015 33.4224C42.8859 32.5687 42.0772 32.0163 40.8331 32.6189Z" fill="#7765E3"/>
<path fill-rule="evenodd" clip-rule="evenodd" d="M10.1033 15.3962C9.9167 15.7979 10.1033 16.049 10.5387 15.9486C10.9119 15.8984 11.845 16.0993 12.5293 16.4006C13.2135 16.7019 14.3332 16.7521 15.0175 16.5512C16.1371 16.1997 16.1371 16.0992 15.204 15.7979C14.6442 15.597 13.8356 15.6472 13.4002 15.8481C12.9647 16.049 12.8403 15.9988 13.0269 15.6975C13.2757 15.3962 12.7781 15.0446 11.9072 14.9442C10.9742 14.7935 10.2899 14.9442 10.1033 15.3962Z" fill="#7765E3"/>
<path fill-rule="evenodd" clip-rule="evenodd" d="M44.2537 28.5519C44.0671 28.803 44.1915 29.1545 44.5647 29.3554C44.8757 29.5061 45.1868 29.3052 45.1868 28.9034C45.1868 27.9995 44.8135 27.8488 44.2537 28.5519Z" fill="#7765E3"/>
<path fill-rule="evenodd" clip-rule="evenodd" d="M33.3659 38.1454C32.6816 38.5471 32.8682 38.5974 34.1745 38.3463C35.2319 38.1454 35.854 38.2458 35.854 38.5974C35.854 38.8987 36.165 39.1498 36.5382 39.1498C37.0359 39.1498 37.0359 38.8987 36.4761 38.3965C35.6052 37.5427 34.6721 37.4423 33.3659 38.1454Z" fill="#7765E3"/>
<path fill-rule="evenodd" clip-rule="evenodd" d="M18.4393 71.5404C17.8173 72.143 17.8173 72.2937 18.6882 72.2937C19.248 72.2937 19.6834 71.9422 19.6834 71.5404C19.6834 71.1386 19.559 70.7871 19.4346 70.7871C19.3102 70.7871 18.8748 71.1386 18.4393 71.5404Z" fill="#7765E3"/>
<path fill-rule="evenodd" clip-rule="evenodd" d="M16.2608 73.8004C15.5144 74.0515 15.39 74.2524 15.8876 74.2524C16.5097 74.3026 16.0742 74.9554 14.7057 76.0603C13.5238 77.0144 12.7152 77.8179 12.9018 77.8682C14.6435 78.069 17.3183 78.1193 16.8207 77.9686C15.8254 77.7175 16.5096 75.8092 17.5671 75.8092C18.6246 75.8092 18.6867 74.9555 17.6915 74.6542C17.0694 74.4533 17.1317 74.2523 17.8159 73.8506C18.9356 73.1977 18.0025 73.1978 16.2608 73.8004Z" fill="#7765E3"/>
<path fill-rule="evenodd" clip-rule="evenodd" d="M19.6824 73.7997C19.1847 74.0508 18.9359 74.4023 19.1225 74.553C19.3713 74.7036 19.869 74.5027 20.3044 74.0508C21.1753 73.197 20.9886 73.0966 19.6824 73.7997Z" fill="#7765E3"/>
<path fill-rule="evenodd" clip-rule="evenodd" d="M13.7732 79.3254C13.9598 79.5765 14.2708 79.8276 14.4575 79.8276C14.5819 79.8276 14.7063 79.5765 14.7063 79.3254C14.7063 79.0241 14.3953 78.8232 14.0221 78.8232C13.711 78.8232 13.5866 79.0241 13.7732 79.3254Z" fill="#7765E3"/>
<path d="M12.8408 81.3345C13.1843 81.3345 13.4628 81.1096 13.4628 80.8323C13.4628 80.5549 13.1843 80.3301 12.8408 80.3301C12.4972 80.3301 12.2188 80.5549 12.2188 80.8323C12.2188 81.1096 12.4972 81.3345 12.8408 81.3345Z" fill="#7765E3"/>
<path fill-rule="evenodd" clip-rule="evenodd" d="M95.3847 84.0449C95.1981 84.4466 95.6957 84.9488 96.5666 85.3004C97.7485 85.7523 98.0595 85.7021 98.0595 85.0995C98.0595 84.6977 97.7485 84.3462 97.3753 84.3462C97.0643 84.3462 96.9398 84.0951 97.1264 83.844C97.3131 83.5427 97.1264 83.3418 96.6288 83.3418C96.1312 83.3418 95.5713 83.6431 95.3847 84.0449Z" fill="#7765E3"/>
<path fill-rule="evenodd" clip-rule="evenodd" d="M6.18505 90.3234C6.12285 91.0265 6.37169 91.2274 6.99373 91.0265C7.67798 90.8256 7.74021 90.5745 7.18038 90.0723C6.24731 89.1684 6.30946 89.1684 6.18505 90.3234Z" fill="#7765E3"/>
<path fill-rule="evenodd" clip-rule="evenodd" d="M1.27138 103.983C1.08477 104.234 1.27135 104.435 1.70678 104.435C2.14221 104.435 1.8312 104.887 1.02255 105.439C-0.283742 106.343 -0.283742 106.443 0.711525 106.795C1.8312 107.096 1.83122 107.146 0.649336 107.498C-0.283727 107.799 -0.0971749 107.9 1.52013 107.9C2.5776 107.95 3.69729 107.95 3.94611 108C4.25713 108 4.63037 107.297 4.81698 106.494C5.19021 105.138 5.00363 104.836 3.44852 104.234C2.39105 103.832 1.52019 103.732 1.27138 103.983Z" fill="#7765E3"/>
</svg>
